<svg xmlns="http://www.w3.org/2000/svg" xmlns:xlink="http://www.w3.org/1999/xlink" width="100" zoomAndPan="magnify" viewBox="0 0 75 74.999997" height="100" preserveAspectRatio="xMidYMid meet" version="1.0"><defs><clipPath id="2750968f32"><path d="M 0.113281 0 L 75 0 L 75 74.886719 L 0.113281 74.886719 Z M 0.113281 0 " clip-rule="nonzero"/></clipPath><clipPath id="575cb2c21f"><path d="M 75 37.445312 C 75 58.121094 58.234375 74.886719 37.554688 74.886719 C 16.875 74.886719 0.113281 58.121094 0.113281 37.445312 C 0.113281 16.765625 16.875 0 37.554688 0 C 58.234375 0 75 16.765625 75 37.445312 Z M 75 37.445312 " clip-rule="nonzero"/></clipPath><radialGradient gradientTransform="matrix(1, 0, 0, 1, 0.112307, -0.000001)" gradientUnits="userSpaceOnUse" r="52.952764" cx="37.443845" id="3932fe65e7" cy="37.442675" fx="37.443845" fy="37.442675"><stop stop-opacity="1" stop-color="rgb(86.399841%, 7.817078%, 29.823303%)" offset="0"/><stop stop-opacity="1" stop-color="rgb(86.676025%, 7.868958%, 29.890442%)" offset="0.015625"/><stop stop-opacity="1" stop-color="rgb(87.030029%, 7.93457%, 29.974365%)" offset="0.0429688"/><stop stop-opacity="1" stop-color="rgb(87.382507%, 8.000183%, 30.059814%)" offset="0.0703125"/><stop stop-opacity="1" stop-color="rgb(87.734985%, 8.065796%, 30.143738%)" offset="0.0976562"/><stop stop-opacity="1" stop-color="rgb(88.087463%, 8.131409%, 30.229187%)" offset="0.125"/><stop stop-opacity="1" stop-color="rgb(88.415527%, 8.192444%, 30.307007%)" offset="0.152344"/><stop stop-opacity="1" stop-color="rgb(88.717651%, 8.248901%, 30.380249%)" offset="0.175781"/><stop stop-opacity="1" stop-color="rgb(89.019775%, 8.305359%, 30.453491%)" offset="0.199219"/><stop stop-opacity="1" stop-color="rgb(89.321899%, 8.361816%, 30.525208%)" offset="0.222656"/><stop stop-opacity="1" stop-color="rgb(89.625549%, 8.416748%, 30.59845%)" offset="0.246094"/><stop stop-opacity="1" stop-color="rgb(89.901733%, 8.468628%, 30.664062%)" offset="0.269531"/><stop stop-opacity="1" stop-color="rgb(90.153503%, 8.51593%, 30.725098%)" offset="0.289062"/><stop stop-opacity="1" stop-color="rgb(90.405273%, 8.563232%, 30.786133%)" offset="0.308594"/><stop stop-opacity="1" stop-color="rgb(90.657043%, 8.609009%, 30.847168%)" offset="0.328125"/><stop stop-opacity="1" stop-color="rgb(90.908813%, 8.656311%, 30.906677%)" offset="0.347656"/><stop stop-opacity="1" stop-color="rgb(91.160583%, 8.703613%, 30.967712%)" offset="0.367188"/><stop stop-opacity="1" stop-color="rgb(91.387939%, 8.746338%, 31.022644%)" offset="0.386719"/><stop stop-opacity="1" stop-color="rgb(91.590881%, 8.782959%, 31.069946%)" offset="0.402344"/><stop stop-opacity="1" stop-color="rgb(91.792297%, 8.821106%, 31.118774%)" offset="0.417969"/><stop stop-opacity="1" stop-color="rgb(91.993713%, 8.857727%, 31.167603%)" offset="0.433594"/><stop stop-opacity="1" stop-color="rgb(92.195129%, 8.895874%, 31.216431%)" offset="0.449219"/><stop stop-opacity="1" stop-color="rgb(92.396545%, 8.932495%, 31.263733%)" offset="0.464844"/><stop stop-opacity="1" stop-color="rgb(92.597961%, 8.970642%, 31.312561%)" offset="0.480469"/><stop stop-opacity="1" stop-color="rgb(92.799377%, 9.008789%, 31.361389%)" offset="0.496094"/><stop stop-opacity="1" stop-color="rgb(93.075562%, 9.059143%, 31.427002%)" offset="0.511719"/><stop stop-opacity="1" stop-color="rgb(93.429565%, 9.124756%, 31.512451%)" offset="0.539062"/><stop stop-opacity="1" stop-color="rgb(93.757629%, 9.185791%, 31.591797%)" offset="0.566406"/><stop stop-opacity="1" stop-color="rgb(94.059753%, 9.242249%, 31.663513%)" offset="0.589844"/><stop stop-opacity="1" stop-color="rgb(94.361877%, 9.298706%, 31.736755%)" offset="0.613281"/><stop stop-opacity="1" stop-color="rgb(94.638062%, 9.350586%, 31.802368%)" offset="0.636719"/><stop stop-opacity="1" stop-color="rgb(94.889832%, 9.397888%, 31.863403%)" offset="0.65625"/><stop stop-opacity="1" stop-color="rgb(95.141602%, 9.443665%, 31.924438%)" offset="0.675781"/><stop stop-opacity="1" stop-color="rgb(95.368958%, 9.486389%, 31.97937%)" offset="0.695312"/><stop stop-opacity="1" stop-color="rgb(95.570374%, 9.524536%, 32.026672%)" offset="0.710938"/><stop stop-opacity="1" stop-color="rgb(95.773315%, 9.561157%, 32.0755%)" offset="0.726562"/><stop stop-opacity="1" stop-color="rgb(95.974731%, 9.599304%, 32.124329%)" offset="0.742188"/><stop stop-opacity="1" stop-color="rgb(96.250916%, 9.649658%, 32.189941%)" offset="0.757812"/><stop stop-opacity="1" stop-color="rgb(96.578979%, 9.710693%, 32.269287%)" offset="0.785156"/><stop stop-opacity="1" stop-color="rgb(96.881104%, 9.767151%, 32.342529%)" offset="0.808594"/><stop stop-opacity="1" stop-color="rgb(97.157288%, 9.819031%, 32.408142%)" offset="0.832031"/><stop stop-opacity="1" stop-color="rgb(97.384644%, 9.861755%, 32.463074%)" offset="0.851562"/><stop stop-opacity="1" stop-color="rgb(97.58606%, 9.898376%, 32.511902%)" offset="0.867188"/><stop stop-opacity="1" stop-color="rgb(97.86377%, 9.950256%, 32.577515%)" offset="0.882812"/><stop stop-opacity="1" stop-color="rgb(98.165894%, 10.006714%, 32.650757%)" offset="0.910156"/><stop stop-opacity="1" stop-color="rgb(98.39325%, 10.049438%, 32.705688%)" offset="0.929688"/><stop stop-opacity="1" stop-color="rgb(98.669434%, 10.099792%, 32.771301%)" offset="0.945312"/><stop stop-opacity="1" stop-color="rgb(99.021912%, 10.165405%, 32.85675%)" offset="0.972656"/><stop stop-opacity="1" stop-color="rgb(99.198914%, 10.198975%, 32.899475%)" offset="1"/></radialGradient><clipPath id="c81272dc36"><path d="M 28 21.972656 L 61.820312 21.972656 L 61.820312 44 L 28 44 Z M 28 21.972656 " clip-rule="nonzero"/></clipPath><clipPath id="39892b1359"><path d="M 32 44 L 41 44 L 41 51.972656 L 32 51.972656 Z M 32 44 " clip-rule="nonzero"/></clipPath><clipPath id="a981768691"><path d="M 43 44 L 52 44 L 52 51.972656 L 43 51.972656 Z M 43 44 " clip-rule="nonzero"/></clipPath><clipPath id="958bd14f52"><path d="M 12.320312 34 L 32 34 L 32 38 L 12.320312 38 Z M 12.320312 34 " clip-rule="nonzero"/></clipPath></defs><g clip-path="url(#2750968f32)"><g clip-path="url(#575cb2c21f)"><path fill="url(#3932fe65e7)" d="M 0.113281 0 L 0.113281 74.886719 L 75 74.886719 L 75 0 Z M 0.113281 0 " fill-rule="nonzero"/></g></g><g clip-path="url(#c81272dc36)"><path fill="#ffffff" d="M 61.820312 27.835938 L 58.398438 42.226562 C 58.394531 42.363281 58.371094 42.496094 58.316406 42.625 C 58.265625 42.75 58.191406 42.863281 58.09375 42.960938 C 57.996094 43.058594 57.886719 43.132812 57.761719 43.1875 C 57.632812 43.242188 57.503906 43.265625 57.367188 43.269531 L 34.304688 43.4375 C 34.167969 43.4375 34.039062 43.410156 33.910156 43.355469 C 33.785156 43.304688 33.671875 43.226562 33.578125 43.128906 C 33.480469 43.03125 33.40625 42.921875 33.355469 42.792969 C 33.300781 42.664062 33.273438 42.53125 33.273438 42.394531 L 33.273438 27.835938 C 33.273438 27.804688 33.273438 27.777344 33.277344 27.75 L 32.964844 24.933594 L 29.558594 24.933594 C 29.367188 24.925781 29.1875 24.882812 29.015625 24.804688 C 28.84375 24.726562 28.691406 24.617188 28.5625 24.480469 C 28.429688 24.339844 28.332031 24.183594 28.261719 24.007812 C 28.191406 23.828125 28.152344 23.644531 28.152344 23.453125 C 28.152344 23.261719 28.191406 23.078125 28.261719 22.902344 C 28.332031 22.726562 28.429688 22.566406 28.5625 22.429688 C 28.691406 22.292969 28.84375 22.183594 29.015625 22.105469 C 29.1875 22.027344 29.367188 21.984375 29.558594 21.976562 L 35.574219 21.976562 C 35.574219 21.980469 35.574219 21.988281 35.574219 21.992188 L 35.898438 24.933594 L 36.105469 26.792969 L 60.789062 26.792969 C 60.925781 26.792969 61.054688 26.820312 61.183594 26.871094 C 61.308594 26.925781 61.421875 27 61.515625 27.097656 C 61.613281 27.195312 61.6875 27.308594 61.738281 27.4375 C 61.792969 27.566406 61.820312 27.699219 61.820312 27.835938 Z M 61.820312 27.835938 " fill-opacity="1" fill-rule="nonzero"/></g><g clip-path="url(#39892b1359)"><path fill="#febbcf" d="M 40.449219 48.167969 C 40.449219 48.671875 40.355469 49.15625 40.164062 49.625 C 39.972656 50.089844 39.703125 50.5 39.351562 50.855469 C 38.996094 51.214844 38.589844 51.488281 38.132812 51.679688 C 37.671875 51.875 37.191406 51.96875 36.695312 51.96875 C 36.195312 51.96875 35.714844 51.875 35.257812 51.679688 C 34.796875 51.488281 34.390625 51.214844 34.039062 50.855469 C 33.683594 50.5 33.414062 50.089844 33.222656 49.625 C 33.03125 49.15625 32.9375 48.671875 32.9375 48.167969 C 32.9375 47.664062 33.03125 47.179688 33.222656 46.714844 C 33.414062 46.246094 33.683594 45.835938 34.039062 45.480469 C 34.390625 45.125 34.796875 44.847656 35.257812 44.65625 C 35.714844 44.464844 36.195312 44.367188 36.695312 44.367188 C 37.191406 44.367188 37.671875 44.464844 38.132812 44.65625 C 38.589844 44.847656 38.996094 45.125 39.351562 45.480469 C 39.703125 45.835938 39.972656 46.246094 40.164062 46.714844 C 40.355469 47.179688 40.449219 47.664062 40.449219 48.167969 Z M 40.449219 48.167969 " fill-opacity="1" fill-rule="nonzero"/></g><g clip-path="url(#a981768691)"><path fill="#febbcf" d="M 51.050781 48.167969 C 51.050781 48.671875 50.957031 49.15625 50.765625 49.625 C 50.574219 50.089844 50.304688 50.5 49.949219 50.855469 C 49.597656 51.214844 49.191406 51.488281 48.730469 51.679688 C 48.273438 51.875 47.792969 51.96875 47.296875 51.96875 C 46.796875 51.96875 46.316406 51.875 45.859375 51.679688 C 45.398438 51.488281 44.992188 51.214844 44.640625 50.855469 C 44.285156 50.5 44.015625 50.089844 43.824219 49.625 C 43.632812 49.15625 43.539062 48.671875 43.539062 48.167969 C 43.539062 47.664062 43.632812 47.179688 43.824219 46.714844 C 44.015625 46.246094 44.285156 45.835938 44.640625 45.480469 C 44.992188 45.125 45.398438 44.847656 45.859375 44.65625 C 46.316406 44.464844 46.796875 44.367188 47.296875 44.367188 C 47.792969 44.367188 48.273438 44.464844 48.730469 44.65625 C 49.191406 44.847656 49.597656 45.125 49.949219 45.480469 C 50.304688 45.835938 50.574219 46.246094 50.765625 46.714844 C 50.957031 47.179688 51.050781 47.664062 51.050781 48.167969 Z M 51.050781 48.167969 " fill-opacity="1" fill-rule="nonzero"/></g><path fill="#ffffff" d="M 22.167969 28.058594 L 30.765625 28.058594 C 30.898438 28.058594 31.027344 28.085938 31.152344 28.136719 C 31.273438 28.1875 31.382812 28.261719 31.476562 28.355469 C 31.570312 28.453125 31.640625 28.5625 31.691406 28.6875 C 31.742188 28.808594 31.769531 28.9375 31.769531 29.074219 L 31.769531 29.328125 C 31.769531 29.460938 31.742188 29.589844 31.691406 29.714844 C 31.640625 29.839844 31.570312 29.949219 31.476562 30.042969 C 31.382812 30.140625 31.273438 30.210938 31.152344 30.265625 C 31.027344 30.316406 30.898438 30.339844 30.765625 30.339844 L 22.167969 30.339844 C 22.035156 30.339844 21.910156 30.316406 21.785156 30.265625 C 21.664062 30.210938 21.554688 30.140625 21.460938 30.042969 C 21.367188 29.949219 21.292969 29.839844 21.242188 29.714844 C 21.191406 29.589844 21.167969 29.460938 21.167969 29.328125 L 21.167969 29.074219 C 21.167969 28.9375 21.191406 28.808594 21.242188 28.6875 C 21.292969 28.5625 21.367188 28.453125 21.460938 28.355469 C 21.554688 28.261719 21.664062 28.1875 21.785156 28.136719 C 21.910156 28.085938 22.035156 28.058594 22.167969 28.058594 Z M 22.167969 28.058594 " fill-opacity="1" fill-rule="nonzero"/><path fill="#ffffff" d="M 22.167969 42.253906 L 30.765625 42.253906 C 30.898438 42.253906 31.027344 42.28125 31.152344 42.332031 C 31.273438 42.382812 31.382812 42.457031 31.476562 42.550781 C 31.570312 42.644531 31.640625 42.753906 31.691406 42.878906 C 31.742188 43.003906 31.769531 43.132812 31.769531 43.269531 L 31.769531 43.519531 C 31.769531 43.65625 31.742188 43.785156 31.691406 43.910156 C 31.640625 44.035156 31.570312 44.144531 31.476562 44.238281 C 31.382812 44.332031 31.273438 44.40625 31.152344 44.457031 C 31.027344 44.507812 30.898438 44.535156 30.765625 44.535156 L 22.167969 44.535156 C 22.035156 44.535156 21.910156 44.507812 21.785156 44.457031 C 21.664062 44.40625 21.554688 44.332031 21.460938 44.238281 C 21.367188 44.144531 21.292969 44.035156 21.242188 43.910156 C 21.191406 43.785156 21.167969 43.65625 21.167969 43.519531 L 21.167969 43.269531 C 21.167969 43.132812 21.191406 43.003906 21.242188 42.878906 C 21.292969 42.753906 21.367188 42.644531 21.460938 42.550781 C 21.554688 42.457031 21.664062 42.382812 21.785156 42.332031 C 21.910156 42.28125 22.035156 42.253906 22.167969 42.253906 Z M 22.167969 42.253906 " fill-opacity="1" fill-rule="nonzero"/><g clip-path="url(#958bd14f52)"><path fill="#ffffff" d="M 13.445312 34.988281 L 30.640625 34.988281 C 30.792969 34.988281 30.933594 35.015625 31.074219 35.074219 C 31.210938 35.132812 31.332031 35.214844 31.4375 35.320312 C 31.542969 35.429688 31.625 35.550781 31.683594 35.691406 C 31.738281 35.832031 31.769531 35.976562 31.769531 36.128906 C 31.769531 36.28125 31.738281 36.425781 31.683594 36.566406 C 31.625 36.703125 31.542969 36.828125 31.4375 36.933594 C 31.332031 37.042969 31.210938 37.125 31.074219 37.183594 C 30.933594 37.242188 30.792969 37.269531 30.640625 37.269531 L 13.445312 37.269531 C 13.296875 37.269531 13.152344 37.242188 13.015625 37.183594 C 12.878906 37.125 12.753906 37.042969 12.648438 36.933594 C 12.542969 36.828125 12.460938 36.703125 12.40625 36.566406 C 12.347656 36.425781 12.320312 36.28125 12.320312 36.128906 C 12.320312 35.976562 12.347656 35.832031 12.40625 35.691406 C 12.460938 35.550781 12.542969 35.429688 12.648438 35.320312 C 12.753906 35.214844 12.878906 35.132812 13.015625 35.074219 C 13.152344 35.015625 13.296875 34.988281 13.445312 34.988281 Z M 13.445312 34.988281 " fill-opacity="1" fill-rule="nonzero"/></g></svg>