<svg xmlns="http://www.w3.org/2000/svg" xmlns:xlink="http://www.w3.org/1999/xlink" width="100" zoomAndPan="magnify" viewBox="0 0 75 74.999997" height="100" preserveAspectRatio="xMidYMid meet" version="1.0"><defs><filter x="0%" y="0%" width="100%" height="100%" id="81c12a75b5"><feColorMatrix values="0 0 0 0 1 0 0 0 0 1 0 0 0 0 1 0 0 0 1 0" color-interpolation-filters="sRGB"/></filter><mask id="3cdc9e11c9"><g filter="url(#81c12a75b5)"><rect x="-7.5" width="90" fill="#000000" y="-7.5" height="89.999996" fill-opacity="0.7373"/></g></mask><clipPath id="5b7705718b"><path d="M 0.046875 0 L 74.945312 0 L 74.945312 45.746094 L 0.046875 45.746094 Z M 0.046875 0 " clip-rule="nonzero"/></clipPath><clipPath id="4bbabe775f"><rect x="0" width="75" y="0" height="47"/></clipPath><clipPath id="5c7d9b935c"><path d="M 12 48 L 23 48 L 23 64 L 12 64 Z M 12 48 " clip-rule="nonzero"/></clipPath><clipPath id="514136bc62"><path d="M 18.039062 46.089844 L 27.21875 51.1875 L 19.210938 65.613281 L 10.03125 60.515625 Z M 18.039062 46.089844 " clip-rule="nonzero"/></clipPath><clipPath id="2074274b8a"><path d="M 18.039062 46.089844 L 27.21875 51.1875 L 19.210938 65.613281 L 10.03125 60.515625 Z M 18.039062 46.089844 " clip-rule="nonzero"/></clipPath><clipPath id="626563fe69"><path d="M 25 58 L 37 58 L 37 74 L 25 74 Z M 25 58 " clip-rule="nonzero"/></clipPath><clipPath id="fae1bd4497"><path d="M 31.8125 55.96875 L 40.992188 61.066406 L 32.984375 75.492188 L 23.804688 70.398438 Z M 31.8125 55.96875 " clip-rule="nonzero"/></clipPath><clipPath id="e67e63e0b6"><path d="M 31.8125 55.96875 L 40.992188 61.066406 L 32.984375 75.492188 L 23.804688 70.398438 Z M 31.8125 55.96875 " clip-rule="nonzero"/></clipPath><clipPath id="0e7f08cfb8"><path d="M 43 48 L 54 48 L 54 64 L 43 64 Z M 43 48 " clip-rule="nonzero"/></clipPath><clipPath id="f384fb1657"><path d="M 49.246094 46.089844 L 58.425781 51.1875 L 50.417969 65.613281 L 41.238281 60.515625 Z M 49.246094 46.089844 " clip-rule="nonzero"/></clipPath><clipPath id="fda75ee5ed"><path d="M 49.246094 46.089844 L 58.425781 51.1875 L 50.417969 65.613281 L 41.238281 60.515625 Z M 49.246094 46.089844 " clip-rule="nonzero"/></clipPath></defs><g mask="url(#3cdc9e11c9)"><g transform="matrix(1, 0, 0, 1, 0, -0.000000000000001893)"><g clip-path="url(#4bbabe775f)"><g clip-path="url(#5b7705718b)"><path fill="#e0e1e2" d="M 74.945312 34.308594 C 74.945312 40.628906 69.789062 45.746094 63.425781 45.746094 L 17.335938 45.746094 C 7.792969 45.746094 0.046875 38.070312 0.046875 28.597656 C 0.046875 19.113281 7.792969 11.4375 17.335938 11.4375 C 18.332031 11.4375 19.316406 11.523438 20.273438 11.683594 C 24.222656 4.710938 31.746094 0 40.378906 0 C 53.109375 0 63.425781 10.234375 63.425781 22.875 C 69.789062 22.875 74.945312 27.992188 74.945312 34.308594 " fill-opacity="1" fill-rule="nonzero"/></g></g></g></g><g clip-path="url(#5c7d9b935c)"><g clip-path="url(#514136bc62)"><g clip-path="url(#2074274b8a)"><path fill="#b9e5ff" d="M 22.722656 56.214844 L 22.628906 48.636719 L 16.148438 52.566406 C 15.242188 53.085938 13.355469 54.53125 12.796875 55.535156 C 11.269531 58.289062 12.085938 61.660156 14.621094 63.066406 C 17.15625 64.472656 20.445312 63.382812 21.972656 60.628906 C 22.53125 59.621094 22.761719 57.257812 22.722656 56.214844 Z M 22.722656 56.214844 " fill-opacity="1" fill-rule="nonzero"/></g></g></g><g clip-path="url(#626563fe69)"><g clip-path="url(#fae1bd4497)"><g clip-path="url(#e67e63e0b6)"><path fill="#b9e5ff" d="M 36.496094 66.09375 L 36.402344 58.519531 L 29.921875 62.445312 C 29.015625 62.964844 27.132812 64.410156 26.574219 65.414062 C 25.046875 68.167969 25.863281 71.539062 28.394531 72.945312 C 30.929688 74.351562 34.222656 73.261719 35.75 70.507812 C 36.308594 69.503906 36.535156 67.140625 36.496094 66.09375 Z M 36.496094 66.09375 " fill-opacity="1" fill-rule="nonzero"/></g></g></g><g clip-path="url(#0e7f08cfb8)"><g clip-path="url(#f384fb1657)"><g clip-path="url(#fda75ee5ed)"><path fill="#b9e5ff" d="M 53.929688 56.214844 L 53.835938 48.636719 L 47.355469 52.566406 C 46.449219 53.085938 44.566406 54.53125 44.007812 55.535156 C 42.480469 58.289062 43.296875 61.660156 45.828125 63.066406 C 48.363281 64.472656 51.65625 63.382812 53.183594 60.628906 C 53.742188 59.621094 53.96875 57.257812 53.929688 56.214844 Z M 53.929688 56.214844 " fill-opacity="1" fill-rule="nonzero"/></g></g></g></svg>