<svg xmlns="http://www.w3.org/2000/svg" xmlns:xlink="http://www.w3.org/1999/xlink" width="50" zoomAndPan="magnify" viewBox="0 0 37.5 37.499999" height="50" preserveAspectRatio="xMidYMid meet" version="1.0"><defs><clipPath id="0e57111e63"><path d="M 12 6.363281 L 30.535156 6.363281 L 30.535156 31.113281 L 12 31.113281 Z M 12 6.363281 " clip-rule="nonzero"/></clipPath><clipPath id="b9bbe98ce4"><path d="M 7.285156 6.363281 L 11 6.363281 L 11 31.113281 L 7.285156 31.113281 Z M 7.285156 6.363281 " clip-rule="nonzero"/></clipPath></defs><g clip-path="url(#0e57111e63)"><path fill="#787c98" d="M 28.71875 31.113281 C 29.804688 31.113281 30.53125 30.183594 30.53125 28.695312 L 30.53125 8.777344 C 30.53125 8.042969 30.320312 7.445312 30.015625 7.019531 C 29.710938 6.59375 29.214844 6.363281 28.683594 6.363281 C 28.1875 6.363281 27.632812 6.574219 27.0625 6.960938 L 13.519531 16.4375 C 12.644531 17.054688 12.167969 17.867188 12.167969 18.738281 C 12.167969 19.625 12.664062 20.4375 13.519531 21.039062 L 27.082031 30.511719 C 27.632812 30.898438 28.226562 31.113281 28.71875 31.113281 Z M 28.71875 31.113281 " fill-opacity="1" fill-rule="nonzero"/></g><g clip-path="url(#b9bbe98ce4)"><path fill="#787c98" d="M 7.289062 7.734375 L 7.289062 29.757812 C 7.289062 30.511719 7.863281 31.113281 8.605469 31.113281 L 9.15625 31.113281 C 9.898438 31.113281 10.527344 30.511719 10.527344 29.757812 L 10.527344 7.734375 C 10.527344 6.980469 9.898438 6.382812 9.175781 6.382812 L 8.585938 6.382812 C 7.84375 6.363281 7.289062 6.980469 7.289062 7.734375 Z M 7.289062 7.734375 " fill-opacity="1" fill-rule="nonzero"/></g></svg>