<svg xmlns="http://www.w3.org/2000/svg" xmlns:xlink="http://www.w3.org/1999/xlink" width="100" zoomAndPan="magnify" viewBox="0 0 75 74.999997" height="100" preserveAspectRatio="xMidYMid meet" version="1.0"><defs><clipPath id="2d949176f7"><path d="M 0.113281 0 L 75 0 L 75 74.886719 L 0.113281 74.886719 Z M 0.113281 0 " clip-rule="nonzero"/></clipPath><clipPath id="10a3889a4e"><path d="M 75 37.445312 C 75 58.121094 58.234375 74.886719 37.554688 74.886719 C 16.875 74.886719 0.113281 58.121094 0.113281 37.445312 C 0.113281 16.765625 16.875 0 37.554688 0 C 58.234375 0 75 16.765625 75 37.445312 Z M 75 37.445312 " clip-rule="nonzero"/></clipPath><radialGradient gradientTransform="matrix(1, 0, 0, 1, 0.112307, -0.000001)" gradientUnits="userSpaceOnUse" r="52.952764" cx="37.443845" id="a4e6493ee7" cy="37.442675" fx="37.443845" fy="37.442675"><stop stop-opacity="1" stop-color="rgb(40.455627%, 55.413818%, 38.694763%)" offset="0"/><stop stop-opacity="1" stop-color="rgb(40.597534%, 55.700684%, 38.435364%)" offset="0.0078125"/><stop stop-opacity="1" stop-color="rgb(40.766907%, 56.045532%, 38.124084%)" offset="0.0195312"/><stop stop-opacity="1" stop-color="rgb(40.936279%, 56.390381%, 37.811279%)" offset="0.03125"/><stop stop-opacity="1" stop-color="rgb(41.107178%, 56.735229%, 37.5%)" offset="0.0429688"/><stop stop-opacity="1" stop-color="rgb(41.27655%, 57.078552%, 37.188721%)" offset="0.0546875"/><stop stop-opacity="1" stop-color="rgb(41.445923%, 57.423401%, 36.877441%)" offset="0.0664062"/><stop stop-opacity="1" stop-color="rgb(41.616821%, 57.76825%, 36.564636%)" offset="0.078125"/><stop stop-opacity="1" stop-color="rgb(41.786194%, 58.113098%, 36.253357%)" offset="0.0898438"/><stop stop-opacity="1" stop-color="rgb(41.957092%, 58.457947%, 35.942078%)" offset="0.101562"/><stop stop-opacity="1" stop-color="rgb(42.126465%, 58.80127%, 35.629272%)" offset="0.113281"/><stop stop-opacity="1" stop-color="rgb(42.295837%, 59.146118%, 35.317993%)" offset="0.125"/><stop stop-opacity="1" stop-color="rgb(42.466736%, 59.490967%, 35.006714%)" offset="0.136719"/><stop stop-opacity="1" stop-color="rgb(42.636108%, 59.835815%, 34.695435%)" offset="0.148438"/><stop stop-opacity="1" stop-color="rgb(42.805481%, 60.180664%, 34.382629%)" offset="0.160156"/><stop stop-opacity="1" stop-color="rgb(42.976379%, 60.523987%, 34.07135%)" offset="0.171875"/><stop stop-opacity="1" stop-color="rgb(43.145752%, 60.868835%, 33.760071%)" offset="0.183594"/><stop stop-opacity="1" stop-color="rgb(43.315125%, 61.213684%, 33.447266%)" offset="0.195312"/><stop stop-opacity="1" stop-color="rgb(43.486023%, 61.558533%, 33.135986%)" offset="0.207031"/><stop stop-opacity="1" stop-color="rgb(43.655396%, 61.901855%, 32.824707%)" offset="0.21875"/><stop stop-opacity="1" stop-color="rgb(43.824768%, 62.246704%, 32.513428%)" offset="0.230469"/><stop stop-opacity="1" stop-color="rgb(43.995667%, 62.591553%, 32.200623%)" offset="0.242188"/><stop stop-opacity="1" stop-color="rgb(44.137573%, 62.878418%, 31.941223%)" offset="0.253906"/><stop stop-opacity="1" stop-color="rgb(44.250488%, 63.108826%, 31.733704%)" offset="0.261719"/><stop stop-opacity="1" stop-color="rgb(44.363403%, 63.337708%, 31.526184%)" offset="0.269531"/><stop stop-opacity="1" stop-color="rgb(44.477844%, 63.568115%, 31.317139%)" offset="0.277344"/><stop stop-opacity="1" stop-color="rgb(44.590759%, 63.796997%, 31.109619%)" offset="0.285156"/><stop stop-opacity="1" stop-color="rgb(44.703674%, 64.027405%, 30.9021%)" offset="0.292969"/><stop stop-opacity="1" stop-color="rgb(44.816589%, 64.256287%, 30.69458%)" offset="0.300781"/><stop stop-opacity="1" stop-color="rgb(44.93103%, 64.486694%, 30.487061%)" offset="0.308594"/><stop stop-opacity="1" stop-color="rgb(45.043945%, 64.715576%, 30.279541%)" offset="0.316406"/><stop stop-opacity="1" stop-color="rgb(45.15686%, 64.945984%, 30.070496%)" offset="0.324219"/><stop stop-opacity="1" stop-color="rgb(45.269775%, 65.174866%, 29.862976%)" offset="0.332031"/><stop stop-opacity="1" stop-color="rgb(45.38269%, 65.405273%, 29.655457%)" offset="0.339844"/><stop stop-opacity="1" stop-color="rgb(45.497131%, 65.634155%, 29.447937%)" offset="0.347656"/><stop stop-opacity="1" stop-color="rgb(45.610046%, 65.864563%, 29.240417%)" offset="0.355469"/><stop stop-opacity="1" stop-color="rgb(45.722961%, 66.093445%, 29.031372%)" offset="0.363281"/><stop stop-opacity="1" stop-color="rgb(45.835876%, 66.323853%, 28.823853%)" offset="0.371094"/><stop stop-opacity="1" stop-color="rgb(45.950317%, 66.55426%, 28.616333%)" offset="0.378906"/><stop stop-opacity="1" stop-color="rgb(46.063232%, 66.783142%, 28.408813%)" offset="0.386719"/><stop stop-opacity="1" stop-color="rgb(46.176147%, 67.01355%, 28.201294%)" offset="0.394531"/><stop stop-opacity="1" stop-color="rgb(46.289062%, 67.242432%, 27.992249%)" offset="0.402344"/><stop stop-opacity="1" stop-color="rgb(46.403503%, 67.472839%, 27.784729%)" offset="0.410156"/><stop stop-opacity="1" stop-color="rgb(46.516418%, 67.701721%, 27.577209%)" offset="0.417969"/><stop stop-opacity="1" stop-color="rgb(46.629333%, 67.932129%, 27.36969%)" offset="0.425781"/><stop stop-opacity="1" stop-color="rgb(46.742249%, 68.161011%, 27.16217%)" offset="0.433594"/><stop stop-opacity="1" stop-color="rgb(46.856689%, 68.391418%, 26.953125%)" offset="0.441406"/><stop stop-opacity="1" stop-color="rgb(46.969604%, 68.6203%, 26.745605%)" offset="0.449219"/><stop stop-opacity="1" stop-color="rgb(47.08252%, 68.850708%, 26.538086%)" offset="0.457031"/><stop stop-opacity="1" stop-color="rgb(47.195435%, 69.07959%, 26.330566%)" offset="0.464844"/><stop stop-opacity="1" stop-color="rgb(47.309875%, 69.309998%, 26.123047%)" offset="0.472656"/><stop stop-opacity="1" stop-color="rgb(47.422791%, 69.538879%, 25.914001%)" offset="0.480469"/><stop stop-opacity="1" stop-color="rgb(47.535706%, 69.769287%, 25.706482%)" offset="0.488281"/><stop stop-opacity="1" stop-color="rgb(47.648621%, 69.998169%, 25.498962%)" offset="0.496094"/><stop stop-opacity="1" stop-color="rgb(47.790527%, 70.28656%, 25.239563%)" offset="0.503906"/><stop stop-opacity="1" stop-color="rgb(47.9599%, 70.631409%, 24.928284%)" offset="0.515625"/><stop stop-opacity="1" stop-color="rgb(48.130798%, 70.974731%, 24.615479%)" offset="0.527344"/><stop stop-opacity="1" stop-color="rgb(48.300171%, 71.31958%, 24.304199%)" offset="0.539062"/><stop stop-opacity="1" stop-color="rgb(48.469543%, 71.664429%, 23.99292%)" offset="0.550781"/><stop stop-opacity="1" stop-color="rgb(48.640442%, 72.009277%, 23.680115%)" offset="0.5625"/><stop stop-opacity="1" stop-color="rgb(48.809814%, 72.354126%, 23.368835%)" offset="0.574219"/><stop stop-opacity="1" stop-color="rgb(48.979187%, 72.697449%, 23.057556%)" offset="0.585938"/><stop stop-opacity="1" stop-color="rgb(49.150085%, 73.042297%, 22.744751%)" offset="0.597656"/><stop stop-opacity="1" stop-color="rgb(49.319458%, 73.387146%, 22.433472%)" offset="0.609375"/><stop stop-opacity="1" stop-color="rgb(49.488831%, 73.731995%, 22.122192%)" offset="0.621094"/><stop stop-opacity="1" stop-color="rgb(49.630737%, 74.01886%, 21.862793%)" offset="0.632812"/><stop stop-opacity="1" stop-color="rgb(49.745178%, 74.247742%, 21.655273%)" offset="0.640625"/><stop stop-opacity="1" stop-color="rgb(49.858093%, 74.478149%, 21.446228%)" offset="0.648438"/><stop stop-opacity="1" stop-color="rgb(49.971008%, 74.707031%, 21.238708%)" offset="0.65625"/><stop stop-opacity="1" stop-color="rgb(50.083923%, 74.937439%, 21.031189%)" offset="0.664062"/><stop stop-opacity="1" stop-color="rgb(50.198364%, 75.166321%, 20.823669%)" offset="0.671875"/><stop stop-opacity="1" stop-color="rgb(50.311279%, 75.396729%, 20.61615%)" offset="0.679688"/><stop stop-opacity="1" stop-color="rgb(50.424194%, 75.62561%, 20.407104%)" offset="0.6875"/><stop stop-opacity="1" stop-color="rgb(50.537109%, 75.856018%, 20.199585%)" offset="0.695312"/><stop stop-opacity="1" stop-color="rgb(50.65155%, 76.0849%, 19.992065%)" offset="0.703125"/><stop stop-opacity="1" stop-color="rgb(50.764465%, 76.315308%, 19.784546%)" offset="0.710938"/><stop stop-opacity="1" stop-color="rgb(50.87738%, 76.544189%, 19.577026%)" offset="0.71875"/><stop stop-opacity="1" stop-color="rgb(50.990295%, 76.774597%, 19.367981%)" offset="0.726562"/><stop stop-opacity="1" stop-color="rgb(51.104736%, 77.005005%, 19.160461%)" offset="0.734375"/><stop stop-opacity="1" stop-color="rgb(51.217651%, 77.233887%, 18.952942%)" offset="0.742188"/><stop stop-opacity="1" stop-color="rgb(51.330566%, 77.464294%, 18.745422%)" offset="0.75"/><stop stop-opacity="1" stop-color="rgb(51.472473%, 77.75116%, 18.486023%)" offset="0.757812"/><stop stop-opacity="1" stop-color="rgb(51.641846%, 78.096008%, 18.173218%)" offset="0.769531"/><stop stop-opacity="1" stop-color="rgb(51.811218%, 78.440857%, 17.861938%)" offset="0.78125"/><stop stop-opacity="1" stop-color="rgb(51.982117%, 78.78418%, 17.550659%)" offset="0.792969"/><stop stop-opacity="1" stop-color="rgb(52.151489%, 79.129028%, 17.237854%)" offset="0.804688"/><stop stop-opacity="1" stop-color="rgb(52.293396%, 79.415894%, 16.978455%)" offset="0.816406"/><stop stop-opacity="1" stop-color="rgb(52.406311%, 79.646301%, 16.770935%)" offset="0.824219"/><stop stop-opacity="1" stop-color="rgb(52.520752%, 79.875183%, 16.563416%)" offset="0.832031"/><stop stop-opacity="1" stop-color="rgb(52.633667%, 80.105591%, 16.355896%)" offset="0.839844"/><stop stop-opacity="1" stop-color="rgb(52.746582%, 80.334473%, 16.146851%)" offset="0.847656"/><stop stop-opacity="1" stop-color="rgb(52.859497%, 80.56488%, 15.939331%)" offset="0.855469"/><stop stop-opacity="1" stop-color="rgb(52.973938%, 80.793762%, 15.731812%)" offset="0.863281"/><stop stop-opacity="1" stop-color="rgb(53.086853%, 81.02417%, 15.524292%)" offset="0.871094"/><stop stop-opacity="1" stop-color="rgb(53.227234%, 81.311035%, 15.264893%)" offset="0.878906"/><stop stop-opacity="1" stop-color="rgb(53.398132%, 81.655884%, 14.952087%)" offset="0.890625"/><stop stop-opacity="1" stop-color="rgb(53.567505%, 82.000732%, 14.640808%)" offset="0.902344"/><stop stop-opacity="1" stop-color="rgb(53.709412%, 82.287598%, 14.381409%)" offset="0.914062"/><stop stop-opacity="1" stop-color="rgb(53.822327%, 82.516479%, 14.173889%)" offset="0.921875"/><stop stop-opacity="1" stop-color="rgb(53.936768%, 82.746887%, 13.964844%)" offset="0.929688"/><stop stop-opacity="1" stop-color="rgb(54.049683%, 82.975769%, 13.757324%)" offset="0.9375"/><stop stop-opacity="1" stop-color="rgb(54.190063%, 83.26416%, 13.497925%)" offset="0.945312"/><stop stop-opacity="1" stop-color="rgb(54.33197%, 83.551025%, 13.238525%)" offset="0.957031"/><stop stop-opacity="1" stop-color="rgb(54.446411%, 83.779907%, 13.031006%)" offset="0.964844"/><stop stop-opacity="1" stop-color="rgb(54.586792%, 84.066772%, 12.770081%)" offset="0.972656"/><stop stop-opacity="1" stop-color="rgb(54.728699%, 84.353638%, 12.510681%)" offset="0.984375"/><stop stop-opacity="1" stop-color="rgb(54.84314%, 84.584045%, 12.303162%)" offset="0.992188"/><stop stop-opacity="1" stop-color="rgb(54.899597%, 84.698486%, 12.199402%)" offset="1"/></radialGradient><clipPath id="4131193665"><path d="M 14 20 L 61 20 L 61 54.890625 L 14 54.890625 Z M 14 20 " clip-rule="nonzero"/></clipPath><clipPath id="a645acde6c"><path d="M 14 21 L 60 21 L 60 54.890625 L 14 54.890625 Z M 14 21 " clip-rule="nonzero"/></clipPath></defs><g clip-path="url(#2d949176f7)"><g clip-path="url(#10a3889a4e)"><path fill="url(#a4e6493ee7)" d="M 0.113281 0 L 0.113281 74.886719 L 75 74.886719 L 75 0 Z M 0.113281 0 " fill-rule="nonzero"/></g></g><g clip-path="url(#4131193665)"><path fill="#afff3c" d="M 19.128906 54.1875 L 40.886719 51.378906 L 58.027344 46.449219 C 59.921875 45.902344 61.011719 43.933594 60.464844 42.050781 L 54.816406 22.632812 C 54.269531 20.75 52.289062 19.664062 50.398438 20.207031 L 15.84375 30.152344 C 15.097656 30.367188 14.476562 30.800781 14.035156 31.367188 L 14.039062 31.371094 L 15.882812 43.066406 L 19.050781 53.96875 Z M 19.128906 54.1875 " fill-opacity="1" fill-rule="evenodd"/></g><g clip-path="url(#a645acde6c)"><path fill="#ffffff" d="M 56.660156 24.996094 C 56.355469 23.0625 54.527344 21.734375 52.582031 22.039062 L 17.042969 27.574219 C 15.09375 27.878906 13.761719 29.695312 14.066406 31.632812 L 17.210938 51.601562 C 17.515625 53.539062 19.34375 54.863281 21.289062 54.5625 L 56.828125 49.027344 C 58.773438 48.722656 60.105469 46.902344 59.800781 44.96875 Z M 56.660156 24.996094 " fill-opacity="1" fill-rule="evenodd"/></g><path fill="#8cd81f" d="M 52.265625 41.898438 C 52.152344 41.878906 52.039062 41.878906 51.921875 41.894531 L 49.75 42.234375 C 49.148438 42.328125 48.738281 42.886719 48.832031 43.484375 L 49.171875 45.644531 C 49.265625 46.242188 49.828125 46.648438 50.429688 46.554688 L 52.601562 46.21875 C 53.199219 46.125 53.609375 45.5625 53.515625 44.96875 L 53.242188 43.21875 L 54.738281 42.984375 C 55.152344 42.917969 55.433594 42.535156 55.371094 42.121094 L 55.136719 40.632812 C 55.070312 40.222656 54.683594 39.941406 54.269531 40.003906 L 52.769531 40.238281 C 52.359375 40.300781 52.074219 40.6875 52.140625 41.097656 Z M 52.265625 41.898438 " fill-opacity="1" fill-rule="evenodd"/><path fill="#8cd81f" d="M 53.035156 27.300781 C 52.894531 26.394531 52.039062 25.777344 51.132812 25.917969 L 47.835938 26.429688 C 46.925781 26.574219 46.304688 27.421875 46.445312 28.328125 L 47.070312 32.277344 C 47.210938 33.183594 48.066406 33.800781 48.972656 33.660156 L 52.269531 33.144531 C 53.179688 33.003906 53.800781 32.15625 53.660156 31.25 Z M 53.035156 27.300781 " fill-opacity="1" fill-rule="evenodd"/><path fill="#8cd81f" d="M 20.769531 51.175781 L 21.316406 50.117188 L 20.511719 49.328125 L 21.132812 49.230469 L 21.550781 49.683594 L 21.832031 49.121094 L 22.429688 49.027344 L 21.914062 50.003906 L 22.78125 50.863281 L 22.15625 50.960938 L 21.671875 50.449219 L 21.367188 51.082031 Z M 20.769531 51.175781 " fill-opacity="1" fill-rule="nonzero"/><path fill="#8cd81f" d="M 22.835938 50.851562 L 23.382812 49.796875 L 22.574219 49.003906 L 23.195312 48.910156 L 23.617188 49.363281 L 23.894531 48.800781 L 24.496094 48.707031 L 23.980469 49.679688 L 24.84375 50.539062 L 24.21875 50.636719 L 23.738281 50.128906 L 23.433594 50.761719 Z M 22.835938 50.851562 " fill-opacity="1" fill-rule="nonzero"/><path fill="#8cd81f" d="M 24.902344 50.53125 L 25.445312 49.472656 L 24.640625 48.683594 L 25.261719 48.585938 L 25.683594 49.039062 L 25.960938 48.476562 L 26.558594 48.386719 L 26.042969 49.359375 L 26.910156 50.21875 L 26.285156 50.316406 L 25.800781 49.804688 L 25.496094 50.4375 Z M 24.902344 50.53125 " fill-opacity="1" fill-rule="nonzero"/><path fill="#8cd81f" d="M 27.996094 50.050781 L 28.542969 48.992188 L 27.734375 48.203125 L 28.359375 48.105469 L 28.777344 48.558594 L 29.058594 47.996094 L 29.65625 47.902344 L 29.140625 48.878906 L 30.003906 49.738281 L 29.378906 49.832031 L 28.898438 49.324219 L 28.59375 49.957031 Z M 27.996094 50.050781 " fill-opacity="1" fill-rule="nonzero"/><path fill="#8cd81f" d="M 30.0625 49.726562 L 30.605469 48.671875 L 29.800781 47.878906 L 30.421875 47.785156 L 30.84375 48.238281 L 31.121094 47.675781 L 31.71875 47.582031 L 31.203125 48.554688 L 32.070312 49.414062 L 31.445312 49.511719 L 30.964844 49.003906 L 30.65625 49.632812 Z M 30.0625 49.726562 " fill-opacity="1" fill-rule="nonzero"/><path fill="#8cd81f" d="M 32.125 49.40625 L 32.671875 48.347656 L 31.867188 47.558594 L 32.488281 47.460938 L 32.90625 47.914062 L 33.1875 47.351562 L 33.785156 47.257812 L 33.269531 48.234375 L 34.136719 49.09375 L 33.507812 49.191406 L 33.027344 48.679688 L 32.722656 49.3125 Z M 32.125 49.40625 " fill-opacity="1" fill-rule="nonzero"/><path fill="#8cd81f" d="M 35.222656 48.921875 L 35.765625 47.867188 L 34.960938 47.078125 L 35.582031 46.980469 L 36.003906 47.433594 L 36.28125 46.871094 L 36.882812 46.777344 L 36.367188 47.75 L 37.230469 48.609375 L 36.605469 48.707031 L 36.125 48.199219 L 35.820312 48.832031 Z M 35.222656 48.921875 " fill-opacity="1" fill-rule="nonzero"/><path fill="#8cd81f" d="M 37.289062 48.601562 L 37.832031 47.542969 L 37.027344 46.753906 L 37.648438 46.65625 L 38.070312 47.113281 L 38.347656 46.550781 L 38.945312 46.457031 L 38.429688 47.429688 L 39.296875 48.289062 L 38.671875 48.386719 L 38.1875 47.875 L 37.882812 48.507812 Z M 37.289062 48.601562 " fill-opacity="1" fill-rule="nonzero"/><path fill="#8cd81f" d="M 39.351562 48.28125 L 39.898438 47.222656 L 39.089844 46.433594 L 39.710938 46.335938 L 40.132812 46.789062 L 40.414062 46.226562 L 41.011719 46.132812 L 40.496094 47.109375 L 41.359375 47.96875 L 40.734375 48.066406 L 40.253906 47.554688 L 39.949219 48.1875 Z M 39.351562 48.28125 " fill-opacity="1" fill-rule="nonzero"/><path fill="#8cd81f" d="M 41.417969 47.957031 L 41.960938 46.902344 L 41.15625 46.113281 L 41.777344 46.015625 L 42.199219 46.46875 L 42.476562 45.90625 L 43.074219 45.8125 L 42.558594 46.785156 L 43.425781 47.644531 L 42.800781 47.742188 L 42.316406 47.234375 L 42.011719 47.867188 Z M 41.417969 47.957031 " fill-opacity="1" fill-rule="nonzero"/><path stroke-linecap="butt" transform="matrix(0.0686474, 0, 0, 0.0682898, 14.024197, 20.067423)" fill-opacity="1" fill="#8cd81f" fill-rule="nonzero" stroke-linejoin="round" d="M 102.642148 197.958074 L 92.285782 199.674107 L 86.709278 191.837558 L 67.817446 195.040819 L 65.313709 204.192993 L 55.184956 205.909025 L 67.305318 165.296254 L 77.434071 163.580221 Z M 82.555351 186.060248 L 73.735369 173.247205 L 69.695248 188.23389 Z M 82.555351 186.060248 " stroke="#ffffff" stroke-width="1" stroke-opacity="1" stroke-miterlimit="2"/><path stroke-linecap="butt" transform="matrix(0.0686474, 0, 0, 0.0682898, 14.024197, 20.067423)" fill-opacity="1" fill="#8cd81f" fill-rule="nonzero" stroke-linejoin="round" d="M 114.477994 195.956036 L 109.242908 164.781444 L 95.244744 167.126689 L 94.163585 160.777368 L 131.776539 154.485248 L 132.800794 160.834569 L 118.80263 163.179814 L 124.037716 194.354406 Z M 114.477994 195.956036 " stroke="#ffffff" stroke-width="1" stroke-opacity="1" stroke-miterlimit="2"/><path stroke-linecap="butt" transform="matrix(0.0686474, 0, 0, 0.0682898, 14.024197, 20.067423)" fill-opacity="1" fill="#8cd81f" fill-rule="nonzero" stroke-linejoin="round" d="M 144.06761 190.979542 L 137.808268 153.455629 L 152.090948 151.053183 L 164.95105 175.249243 L 169.16188 148.193129 L 183.501463 145.790683 L 189.760805 183.314596 L 180.88392 184.801824 L 175.93335 155.286064 L 171.494907 186.403455 L 162.333507 187.947884 L 147.993924 159.976553 L 152.944494 189.492314 Z M 144.06761 190.979542 " stroke="#ffffff" stroke-width="1" stroke-opacity="1" stroke-miterlimit="2"/></svg>