<svg xmlns="http://www.w3.org/2000/svg" xmlns:xlink="http://www.w3.org/1999/xlink" width="100" zoomAndPan="magnify" viewBox="0 0 75 74.999997" height="100" preserveAspectRatio="xMidYMid meet" version="1.0"><defs><clipPath id="c3c095c8df"><path d="M 52.84375 0 L 22.15625 0 C 9.914062 0 0 9.914062 0 22.15625 L 0 52.84375 C 0 65.085938 9.914062 75 22.15625 75 L 52.84375 75 C 65.085938 75 75 65.085938 75 52.84375 L 75 22.15625 C 75 9.914062 65.085938 0 52.84375 0 Z M 52.84375 0 " clip-rule="nonzero"/></clipPath><radialGradient gradientTransform="matrix(1, 0, 0, 1, 0.0000015, -0.000001)" gradientUnits="userSpaceOnUse" r="53.033006" cx="37.499996" id="d11bd1dcfb" cy="37.499996" fx="37.499996" fy="37.499996"><stop stop-opacity="1" stop-color="rgb(100%, 44.807434%, 19.961548%)" offset="0"/><stop stop-opacity="1" stop-color="rgb(100%, 45.019531%, 19.888306%)" offset="0.0625"/><stop stop-opacity="1" stop-color="rgb(100%, 45.314026%, 19.787598%)" offset="0.121094"/><stop stop-opacity="1" stop-color="rgb(100%, 45.669556%, 19.665527%)" offset="0.230469"/><stop stop-opacity="1" stop-color="rgb(100%, 45.977783%, 19.560242%)" offset="0.324219"/><stop stop-opacity="1" stop-color="rgb(100%, 46.250916%, 19.467163%)" offset="0.40625"/><stop stop-opacity="1" stop-color="rgb(100%, 46.490479%, 19.384766%)" offset="0.480469"/><stop stop-opacity="1" stop-color="rgb(100%, 46.694946%, 19.314575%)" offset="0.542969"/><stop stop-opacity="1" stop-color="rgb(100%, 46.961975%, 19.223022%)" offset="0.597656"/><stop stop-opacity="1" stop-color="rgb(100%, 47.262573%, 19.120789%)" offset="0.695312"/><stop stop-opacity="1" stop-color="rgb(100%, 47.488403%, 19.042969%)" offset="0.769531"/><stop stop-opacity="1" stop-color="rgb(100%, 47.73407%, 18.959045%)" offset="0.824219"/><stop stop-opacity="1" stop-color="rgb(100%, 48.042297%, 18.852234%)" offset="0.910156"/><stop stop-opacity="1" stop-color="rgb(100%, 48.199463%, 18.798828%)" offset="1"/></radialGradient><clipPath id="5d0b316f1a"><path d="M 12 15 L 62.933594 15 L 62.933594 60.847656 L 12 60.847656 Z M 12 15 " clip-rule="nonzero"/></clipPath></defs><g clip-path="url(#c3c095c8df)"><rect x="-7.5" fill="url(#d11bd1dcfb)" width="90" y="-7.5" height="89.999996"/></g><path fill="#ffcdb0" d="M 42.625 59.433594 L 22.894531 59.433594 C 20.261719 59.433594 18.128906 57.285156 18.128906 54.636719 L 18.128906 33.09375 L 34.675781 21.074219 C 34.730469 21.035156 34.894531 21.035156 34.949219 21.074219 L 51.492188 33.09375 L 51.492188 33.601562 C 50.660156 33.878906 49.855469 34.234375 49.109375 34.707031 C 47.390625 33.621094 45.402344 33.039062 43.324219 33.039062 C 40.414062 33.039062 37.675781 34.179688 35.621094 36.253906 C 33.558594 38.328125 32.425781 41.082031 32.425781 44.015625 C 32.425781 46.949219 33.5625 49.703125 35.484375 51.632812 Z M 42.625 59.433594 " fill-opacity="1" fill-rule="nonzero"/><path fill="#ff7b30" d="M 59.230469 48.382812 L 49.109375 59.433594 L 38.988281 48.382812 C 36.59375 45.96875 36.59375 42.058594 38.988281 39.648438 C 41.386719 37.234375 45.269531 37.238281 47.664062 39.648438 L 49.109375 41.101562 L 50.554688 39.648438 C 52.949219 37.238281 56.832031 37.238281 59.230469 39.648438 C 61.625 42.058594 61.625 45.96875 59.230469 48.382812 Z M 59.230469 48.382812 " fill-opacity="1" fill-rule="nonzero"/><g clip-path="url(#5d0b316f1a)"><path fill="#ffffff" d="M 41.527344 58.234375 L 43.726562 60.632812 L 22.894531 60.632812 C 19.609375 60.632812 16.9375 57.941406 16.9375 54.636719 L 16.9375 33.960938 L 19.320312 32.230469 L 19.320312 54.636719 C 19.320312 56.621094 20.921875 58.234375 22.894531 58.234375 Z M 31.1875 16.210938 L 12.664062 29.667969 C 12.128906 30.054688 12.011719 30.804688 12.394531 31.34375 C 12.78125 31.882812 13.527344 32.003906 14.058594 31.613281 L 32.582031 18.15625 C 33.894531 17.199219 35.726562 17.199219 37.039062 18.15625 L 55.5625 31.613281 C 55.773438 31.765625 56.015625 31.839844 56.257812 31.839844 C 56.625 31.839844 56.992188 31.667969 57.226562 31.34375 C 57.613281 30.804688 57.492188 30.054688 56.957031 29.667969 L 38.433594 16.210938 C 36.300781 14.660156 33.320312 14.660156 31.1875 16.210938 Z M 60.070312 38.800781 C 62.925781 41.675781 62.925781 46.351562 60.070312 49.230469 L 49.984375 60.246094 C 49.761719 60.492188 49.441406 60.632812 49.109375 60.632812 C 48.777344 60.632812 48.457031 60.492188 48.234375 60.246094 L 38.113281 49.195312 C 36.765625 47.835938 36 45.984375 36 44.015625 C 36 42.042969 36.765625 40.191406 38.148438 38.800781 C 40.914062 36.011719 45.742188 36.015625 48.507812 38.800781 L 49.109375 39.40625 L 49.710938 38.800781 C 52.476562 36.015625 57.304688 36.011719 60.070312 38.800781 Z M 58.386719 40.496094 C 56.515625 38.617188 53.261719 38.617188 51.398438 40.496094 L 49.953125 41.953125 C 49.488281 42.421875 48.734375 42.421875 48.265625 41.953125 L 46.820312 40.496094 C 45.890625 39.558594 44.648438 39.039062 43.328125 39.039062 C 42.007812 39.039062 40.765625 39.558594 39.832031 40.496094 C 38.898438 41.4375 38.386719 42.683594 38.386719 44.015625 C 38.386719 45.34375 38.898438 46.59375 39.832031 47.53125 L 49.109375 57.664062 L 58.355469 47.566406 C 60.3125 45.59375 60.3125 42.433594 58.386719 40.496094 Z M 58.386719 40.496094 " fill-opacity="1" fill-rule="nonzero"/></g></svg>