<svg xmlns="http://www.w3.org/2000/svg" xmlns:xlink="http://www.w3.org/1999/xlink" width="50" zoomAndPan="magnify" viewBox="0 0 37.5 37.499999" height="50" preserveAspectRatio="xMidYMid meet" version="1.0"><defs><clipPath id="751d9569fd"><path d="M 0 0.488281 L 36.75 0.488281 L 36.75 37.007812 L 0 37.007812 Z M 0 0.488281 " clip-rule="nonzero"/></clipPath></defs><g clip-path="url(#751d9569fd)"><path fill="#ffffff" d="M 33.304688 15.417969 L 21.820312 15.417969 L 21.820312 3.933594 C 21.820312 2.03125 20.277344 0.488281 18.375 0.488281 C 16.472656 0.488281 14.929688 2.03125 14.929688 3.933594 L 14.929688 15.417969 L 3.445312 15.417969 C 1.542969 15.417969 0 16.960938 0 18.863281 C 0 20.765625 1.542969 22.308594 3.445312 22.308594 L 14.929688 22.308594 L 14.929688 33.792969 C 14.929688 35.695312 16.472656 37.238281 18.375 37.238281 C 20.277344 37.238281 21.820312 35.695312 21.820312 33.792969 L 21.820312 22.308594 L 33.304688 22.308594 C 35.207031 22.308594 36.75 20.765625 36.75 18.863281 C 36.75 16.960938 35.207031 15.417969 33.304688 15.417969 Z M 33.304688 15.417969 " fill-opacity="1" fill-rule="nonzero"/></g></svg>