<svg xmlns="http://www.w3.org/2000/svg" xmlns:xlink="http://www.w3.org/1999/xlink" width="100" zoomAndPan="magnify" viewBox="0 0 75 74.999997" height="100" preserveAspectRatio="xMidYMid meet" version="1.0"><defs><clipPath id="e41445c780"><path d="M 0 0.113281 L 74.886719 0.113281 L 74.886719 74.996094 L 0 74.996094 Z M 0 0.113281 " clip-rule="nonzero"/></clipPath><clipPath id="2348279af2"><path d="M 74.886719 37.558594 C 74.886719 58.234375 58.125 75 37.445312 75 C 16.765625 75 0 58.234375 0 37.558594 C 0 16.878906 16.765625 0.113281 37.445312 0.113281 C 58.125 0.113281 74.886719 16.878906 74.886719 37.558594 Z M 74.886719 37.558594 " clip-rule="nonzero"/></clipPath><radialGradient gradientTransform="matrix(1, 0, 0, 1, 0.0000015, 0.112601)" gradientUnits="userSpaceOnUse" r="52.952764" cx="37.443845" id="93b101d2b4" cy="37.442675" fx="37.443845" fy="37.442675"><stop stop-opacity="1" stop-color="rgb(99.938965%, 61.070251%, 24.649048%)" offset="0"/><stop stop-opacity="1" stop-color="rgb(99.832153%, 60.844421%, 24.563599%)" offset="0.015625"/><stop stop-opacity="1" stop-color="rgb(99.740601%, 60.650635%, 24.490356%)" offset="0.0273438"/><stop stop-opacity="1" stop-color="rgb(99.649048%, 60.456848%, 24.415588%)" offset="0.0390625"/><stop stop-opacity="1" stop-color="rgb(99.557495%, 60.264587%, 24.342346%)" offset="0.0507812"/><stop stop-opacity="1" stop-color="rgb(99.465942%, 60.070801%, 24.267578%)" offset="0.0625"/><stop stop-opacity="1" stop-color="rgb(99.37439%, 59.877014%, 24.194336%)" offset="0.0742188"/><stop stop-opacity="1" stop-color="rgb(99.282837%, 59.684753%, 24.121094%)" offset="0.0859375"/><stop stop-opacity="1" stop-color="rgb(99.191284%, 59.490967%, 24.046326%)" offset="0.0976562"/><stop stop-opacity="1" stop-color="rgb(99.099731%, 59.29718%, 23.973083%)" offset="0.109375"/><stop stop-opacity="1" stop-color="rgb(99.008179%, 59.103394%, 23.899841%)" offset="0.121094"/><stop stop-opacity="1" stop-color="rgb(98.872375%, 58.813477%, 23.788452%)" offset="0.132812"/><stop stop-opacity="1" stop-color="rgb(98.68927%, 58.427429%, 23.640442%)" offset="0.15625"/><stop stop-opacity="1" stop-color="rgb(98.506165%, 58.039856%, 23.492432%)" offset="0.179688"/><stop stop-opacity="1" stop-color="rgb(98.323059%, 57.653809%, 23.344421%)" offset="0.203125"/><stop stop-opacity="1" stop-color="rgb(98.139954%, 57.267761%, 23.197937%)" offset="0.226562"/><stop stop-opacity="1" stop-color="rgb(97.958374%, 56.880188%, 23.049927%)" offset="0.25"/><stop stop-opacity="1" stop-color="rgb(97.790527%, 56.526184%, 22.914124%)" offset="0.273438"/><stop stop-opacity="1" stop-color="rgb(97.637939%, 56.204224%, 22.792053%)" offset="0.292969"/><stop stop-opacity="1" stop-color="rgb(97.485352%, 55.880737%, 22.668457%)" offset="0.3125"/><stop stop-opacity="1" stop-color="rgb(97.332764%, 55.558777%, 22.544861%)" offset="0.332031"/><stop stop-opacity="1" stop-color="rgb(97.180176%, 55.236816%, 22.422791%)" offset="0.351562"/><stop stop-opacity="1" stop-color="rgb(97.029114%, 54.914856%, 22.299194%)" offset="0.371094"/><stop stop-opacity="1" stop-color="rgb(96.891785%, 54.624939%, 22.189331%)" offset="0.390625"/><stop stop-opacity="1" stop-color="rgb(96.769714%, 54.367065%, 22.090149%)" offset="0.40625"/><stop stop-opacity="1" stop-color="rgb(96.647644%, 54.109192%, 21.992493%)" offset="0.421875"/><stop stop-opacity="1" stop-color="rgb(96.525574%, 53.851318%, 21.893311%)" offset="0.4375"/><stop stop-opacity="1" stop-color="rgb(96.403503%, 53.593445%, 21.795654%)" offset="0.453125"/><stop stop-opacity="1" stop-color="rgb(96.281433%, 53.335571%, 21.696472%)" offset="0.46875"/><stop stop-opacity="1" stop-color="rgb(96.159363%, 53.077698%, 21.598816%)" offset="0.484375"/><stop stop-opacity="1" stop-color="rgb(96.038818%, 52.819824%, 21.499634%)" offset="0.5"/><stop stop-opacity="1" stop-color="rgb(95.932007%, 52.593994%, 21.414185%)" offset="0.515625"/><stop stop-opacity="1" stop-color="rgb(95.840454%, 52.400208%, 21.339417%)" offset="0.527344"/><stop stop-opacity="1" stop-color="rgb(95.748901%, 52.207947%, 21.266174%)" offset="0.539062"/><stop stop-opacity="1" stop-color="rgb(95.657349%, 52.01416%, 21.191406%)" offset="0.550781"/><stop stop-opacity="1" stop-color="rgb(95.565796%, 51.820374%, 21.118164%)" offset="0.5625"/><stop stop-opacity="1" stop-color="rgb(95.428467%, 51.530457%, 21.006775%)" offset="0.574219"/><stop stop-opacity="1" stop-color="rgb(95.245361%, 51.144409%, 20.860291%)" offset="0.597656"/><stop stop-opacity="1" stop-color="rgb(95.063782%, 50.756836%, 20.71228%)" offset="0.621094"/><stop stop-opacity="1" stop-color="rgb(94.895935%, 50.402832%, 20.576477%)" offset="0.644531"/><stop stop-opacity="1" stop-color="rgb(94.743347%, 50.080872%, 20.452881%)" offset="0.664062"/><stop stop-opacity="1" stop-color="rgb(94.590759%, 49.758911%, 20.330811%)" offset="0.683594"/><stop stop-opacity="1" stop-color="rgb(94.45343%, 49.467468%, 20.219421%)" offset="0.703125"/><stop stop-opacity="1" stop-color="rgb(94.33136%, 49.209595%, 20.121765%)" offset="0.71875"/><stop stop-opacity="1" stop-color="rgb(94.210815%, 48.951721%, 20.022583%)" offset="0.734375"/><stop stop-opacity="1" stop-color="rgb(94.088745%, 48.693848%, 19.924927%)" offset="0.75"/><stop stop-opacity="1" stop-color="rgb(93.981934%, 48.469543%, 19.837952%)" offset="0.765625"/><stop stop-opacity="1" stop-color="rgb(93.890381%, 48.275757%, 19.764709%)" offset="0.777344"/><stop stop-opacity="1" stop-color="rgb(93.753052%, 47.98584%, 19.65332%)" offset="0.789062"/><stop stop-opacity="1" stop-color="rgb(93.569946%, 47.599792%, 19.506836%)" offset="0.8125"/><stop stop-opacity="1" stop-color="rgb(93.4021%, 47.244263%, 19.371033%)" offset="0.835938"/><stop stop-opacity="1" stop-color="rgb(93.266296%, 46.954346%, 19.259644%)" offset="0.855469"/><stop stop-opacity="1" stop-color="rgb(93.144226%, 46.696472%, 19.161987%)" offset="0.871094"/><stop stop-opacity="1" stop-color="rgb(93.037415%, 46.470642%, 19.075012%)" offset="0.886719"/><stop stop-opacity="1" stop-color="rgb(92.900085%, 46.180725%, 18.965149%)" offset="0.898438"/><stop stop-opacity="1" stop-color="rgb(92.732239%, 45.826721%, 18.829346%)" offset="0.921875"/><stop stop-opacity="1" stop-color="rgb(92.610168%, 45.568848%, 18.731689%)" offset="0.941406"/><stop stop-opacity="1" stop-color="rgb(92.472839%, 45.278931%, 18.6203%)" offset="0.953125"/><stop stop-opacity="1" stop-color="rgb(92.29126%, 44.892883%, 18.47229%)" offset="0.976562"/><stop stop-opacity="1" stop-color="rgb(92.199707%, 44.699097%, 18.399048%)" offset="1"/></radialGradient><clipPath id="bb6a3883fc"><path d="M 17 12 L 41 12 L 41 63 L 17 63 Z M 17 12 " clip-rule="nonzero"/></clipPath><clipPath id="cfa8d37b67"><path d="M 7.503906 28.058594 L 40.597656 12.082031 L 57.550781 47.203125 L 24.453125 63.179688 Z M 7.503906 28.058594 " clip-rule="nonzero"/></clipPath><clipPath id="cf99afcd4f"><path d="M 7.503906 28.058594 L 40.597656 12.082031 L 57.550781 47.203125 L 24.453125 63.179688 Z M 7.503906 28.058594 " clip-rule="nonzero"/></clipPath><clipPath id="0ae3902ee3"><path d="M 25 39 L 67 39 L 67 61 L 25 61 Z M 25 39 " clip-rule="nonzero"/></clipPath><clipPath id="3bc0ebc83c"><path d="M 37.074219 29.027344 L 67.078125 40.859375 L 54.691406 72.253906 L 24.691406 60.421875 Z M 37.074219 29.027344 " clip-rule="nonzero"/></clipPath><clipPath id="d145dff3b4"><path d="M 37.074219 29.027344 L 67.078125 40.859375 L 54.691406 72.253906 L 24.691406 60.421875 Z M 37.074219 29.027344 " clip-rule="nonzero"/></clipPath><clipPath id="f94549b16c"><path d="M 25 39 L 68 39 L 68 61 L 25 61 Z M 25 39 " clip-rule="nonzero"/></clipPath><clipPath id="5b6ad3a1bb"><path d="M 37.074219 29.027344 L 67.078125 40.859375 L 54.691406 72.253906 L 24.691406 60.421875 Z M 37.074219 29.027344 " clip-rule="nonzero"/></clipPath><clipPath id="d56f8f13e5"><path d="M 37.074219 29.027344 L 67.078125 40.859375 L 54.691406 72.253906 L 24.691406 60.421875 Z M 37.074219 29.027344 " clip-rule="nonzero"/></clipPath></defs><g clip-path="url(#e41445c780)"><g clip-path="url(#2348279af2)"><path fill="url(#93b101d2b4)" d="M 0 0.113281 L 0 74.996094 L 74.886719 74.996094 L 74.886719 0.113281 Z M 0 0.113281 " fill-rule="nonzero"/></g></g><g clip-path="url(#bb6a3883fc)"><g clip-path="url(#cfa8d37b67)"><g clip-path="url(#cf99afcd4f)"><path fill="#ffffff" d="M 40.6875 12.289062 C 40.6875 12.289062 40.691406 12.296875 40.691406 12.296875 C 40.695312 12.304688 40.699219 12.3125 40.703125 12.320312 C 40.707031 12.328125 40.707031 12.328125 40.710938 12.335938 C 40.714844 12.34375 40.71875 12.351562 40.71875 12.351562 C 40.722656 12.359375 40.722656 12.359375 40.71875 12.371094 C 40.722656 12.378906 40.726562 12.386719 40.71875 12.390625 C 40.722656 12.398438 40.714844 12.402344 40.71875 12.410156 L 40.71875 12.445312 C 40.714844 12.457031 40.714844 12.457031 40.710938 12.46875 L 40.699219 12.503906 C 40.6875 12.519531 40.570312 12.730469 40.359375 13.089844 C 40.007812 14.109375 40.082031 15.953125 40.15625 17.746094 C 40.230469 19.632812 40.316406 21.585938 39.917969 22.785156 C 39.414062 24.320312 38.8125 25.242188 38.410156 25.730469 C 39.34375 25.539062 39.941406 25.578125 39.992188 25.582031 C 40.113281 25.589844 40.199219 25.691406 40.191406 25.8125 C 40.183594 25.882812 40.140625 25.949219 40.085938 25.988281 C 40.054688 26.003906 37.042969 27.703125 35.648438 31.59375 C 35.207031 32.824219 34.890625 34.355469 34.585938 35.832031 C 34.097656 38.203125 33.585938 40.652344 32.546875 42.179688 C 31.570312 43.609375 30.289062 44.792969 29.367188 45.542969 C 29.859375 45.421875 30.371094 45.355469 30.878906 45.347656 C 30.996094 45.351562 31.097656 45.445312 31.097656 45.5625 C 31.089844 45.628906 31.0625 45.691406 31.011719 45.738281 C 29.808594 46.613281 29.632812 47.925781 29.449219 49.316406 C 29.292969 50.472656 29.128906 51.671875 28.40625 52.75 C 27.121094 54.660156 24.9375 56.144531 24.542969 56.414062 C 24.542969 56.585938 24.546875 56.753906 24.550781 56.917969 C 24.621094 60.589844 25.257812 62.523438 25.269531 62.546875 C 25.308594 62.640625 25.265625 62.75 25.175781 62.800781 L 25.144531 62.816406 C 25.050781 62.863281 24.945312 62.835938 24.878906 62.753906 C 24.835938 62.707031 23.917969 61.53125 23.394531 58.664062 C 23.296875 58.105469 23.203125 57.453125 23.148438 56.710938 C 22.753906 56.484375 21.046875 55.429688 20.558594 53.941406 C 20.097656 52.535156 19.410156 52.4375 19.410156 52.4375 C 19.304688 52.429688 19.222656 52.335938 19.214844 52.226562 C 19.207031 52.113281 19.296875 52.023438 19.402344 52 C 19.691406 51.976562 19.996094 51.992188 20.28125 52.054688 C 19.773438 51.457031 19.085938 50.582031 18.6875 49.875 C 17.503906 47.753906 17.902344 46.355469 19.230469 42.621094 C 20.023438 40.410156 18.898438 38.03125 18.886719 38.011719 C 18.832031 37.902344 18.875 37.773438 18.984375 37.722656 C 19.039062 37.695312 19.105469 37.695312 19.160156 37.714844 C 19.589844 37.890625 19.984375 38.140625 20.324219 38.453125 C 20.195312 38.125 20.097656 37.789062 20.046875 37.441406 C 19.816406 35.980469 20.308594 34.460938 21.503906 32.914062 C 25.449219 27.832031 25.707031 26.0625 25.710938 26.050781 C 25.71875 25.96875 25.777344 25.890625 25.863281 25.871094 C 25.941406 25.839844 26.023438 25.871094 26.082031 25.9375 C 26.125 25.984375 26.453125 26.390625 26.5 27.507812 C 26.710938 26.449219 27.230469 25.105469 28.25 23.433594 C 31.675781 17.863281 40.25 12.308594 40.378906 12.21875 L 40.386719 12.214844 C 40.394531 12.210938 40.410156 12.203125 40.417969 12.199219 L 40.449219 12.183594 C 40.457031 12.179688 40.46875 12.183594 40.46875 12.183594 L 40.503906 12.183594 L 40.523438 12.1875 L 40.558594 12.199219 C 40.570312 12.203125 40.574219 12.210938 40.582031 12.207031 L 40.59375 12.210938 C 40.59375 12.210938 40.609375 12.222656 40.609375 12.222656 L 40.625 12.234375 C 40.628906 12.242188 40.628906 12.242188 40.632812 12.25 C 40.636719 12.257812 40.640625 12.265625 40.648438 12.269531 C 40.65625 12.265625 40.65625 12.265625 40.660156 12.273438 C 40.691406 12.277344 40.6875 12.289062 40.6875 12.289062 Z M 40.6875 12.289062 " fill-opacity="1" fill-rule="nonzero"/><path fill="#ffcdb1" d="M 40.6875 12.289062 C 40.683594 12.28125 40.679688 12.273438 40.667969 12.269531 C 40.65625 12.265625 40.664062 12.261719 40.660156 12.253906 L 40.648438 12.242188 C 40.644531 12.234375 40.632812 12.230469 40.632812 12.230469 L 40.621094 12.226562 C 40.609375 12.222656 40.605469 12.214844 40.597656 12.21875 L 40.5625 12.207031 L 40.542969 12.207031 L 40.523438 12.203125 L 40.503906 12.203125 C 40.496094 12.207031 40.484375 12.203125 40.484375 12.203125 L 40.472656 12.210938 L 40.457031 12.21875 C 40.449219 12.222656 40.433594 12.230469 40.425781 12.234375 L 40.417969 12.238281 C 40.285156 12.320312 31.707031 17.886719 28.28125 23.457031 C 27.257812 25.121094 26.738281 26.464844 26.53125 27.53125 C 26.480469 26.40625 26.15625 26.007812 26.113281 25.960938 C 26.058594 25.902344 25.976562 25.871094 25.890625 25.894531 C 25.808594 25.917969 25.746094 25.984375 25.730469 26.070312 C 25.730469 26.089844 25.46875 27.851562 21.523438 32.933594 C 20.304688 34.472656 19.8125 35.992188 20.042969 37.453125 C 20.09375 37.800781 20.191406 38.136719 20.320312 38.464844 C 19.980469 38.152344 19.59375 37.898438 19.15625 37.726562 C 19.050781 37.679688 18.921875 37.734375 18.878906 37.839844 C 18.859375 37.898438 18.863281 37.964844 18.890625 38.019531 C 18.898438 38.039062 20.019531 40.421875 19.238281 42.636719 C 17.910156 46.371094 17.511719 47.769531 18.695312 49.890625 C 19.09375 50.597656 19.78125 51.472656 20.289062 52.070312 C 20.003906 52.007812 19.699219 51.988281 19.410156 52.015625 C 19.300781 52.03125 19.214844 52.128906 19.222656 52.242188 C 19.230469 52.351562 19.308594 52.4375 19.417969 52.453125 C 19.425781 52.449219 20.105469 52.550781 20.566406 53.957031 C 21.054688 55.445312 22.753906 56.503906 23.15625 56.726562 C 23.222656 57.472656 23.304688 58.121094 23.402344 58.675781 C 23.917969 61.53125 24.847656 62.710938 24.878906 62.761719 C 24.945312 62.835938 25.050781 62.863281 25.136719 62.820312 L 25.152344 62.8125 C 25.242188 62.761719 25.285156 62.652344 25.246094 62.558594 C 25.238281 62.542969 24.597656 60.601562 24.527344 56.929688 C 24.527344 56.765625 24.519531 56.597656 24.523438 56.425781 C 24.925781 56.160156 27.101562 54.679688 28.382812 52.761719 C 29.105469 51.683594 29.269531 50.484375 29.425781 49.328125 C 29.609375 47.933594 29.789062 46.613281 30.988281 45.746094 C 31.085938 45.679688 31.109375 45.546875 31.03125 45.449219 C 30.996094 45.390625 30.929688 45.355469 30.855469 45.359375 C 30.347656 45.367188 29.839844 45.441406 29.34375 45.554688 C 30.265625 44.804688 31.546875 43.621094 32.523438 42.191406 C 33.5625 40.664062 34.074219 38.214844 34.5625 35.84375 C 34.875 34.363281 35.191406 32.832031 35.625 31.605469 C 37.019531 27.714844 40.035156 26.019531 40.066406 26.007812 C 40.167969 25.945312 40.199219 25.816406 40.152344 25.714844 C 40.121094 25.652344 40.054688 25.609375 39.976562 25.609375 C 39.925781 25.601562 39.339844 25.570312 38.394531 25.757812 C 38.796875 25.269531 39.398438 24.347656 39.902344 22.808594 C 40.300781 21.609375 40.214844 19.660156 40.140625 17.773438 C 40.066406 15.980469 39.988281 14.128906 40.34375 13.113281 C 40.550781 12.75 40.671875 12.546875 40.683594 12.53125 L 40.695312 12.496094 C 40.699219 12.484375 40.699219 12.484375 40.703125 12.472656 L 40.703125 12.433594 C 40.699219 12.425781 40.707031 12.421875 40.703125 12.414062 C 40.699219 12.410156 40.707031 12.40625 40.703125 12.398438 C 40.699219 12.390625 40.707031 12.386719 40.703125 12.378906 C 40.699219 12.371094 40.695312 12.363281 40.695312 12.363281 C 40.691406 12.355469 40.691406 12.355469 40.6875 12.347656 C 40.683594 12.339844 40.679688 12.332031 40.675781 12.324219 C 40.6875 12.308594 40.691406 12.296875 40.6875 12.289062 Z M 39.722656 17.773438 C 39.804688 19.621094 39.882812 21.535156 39.511719 22.652344 C 38.734375 25.039062 37.710938 25.859375 37.695312 25.867188 C 37.667969 25.886719 37.648438 25.90625 37.632812 25.933594 C 36.859375 26.164062 36.117188 26.496094 35.410156 26.902344 C 35.304688 26.960938 35.273438 27.09375 35.335938 27.199219 C 35.394531 27.300781 35.523438 27.335938 35.628906 27.277344 C 37.117188 26.421875 38.417969 26.140625 39.203125 26.050781 C 37.378906 27.417969 36 29.289062 35.234375 31.441406 C 34.78125 32.691406 34.464844 34.242188 34.152344 35.734375 C 33.667969 38.066406 33.167969 40.472656 32.175781 41.925781 C 30.550781 44.3125 27.957031 46.050781 27.9375 46.070312 L 27.921875 46.097656 C 27.691406 46.226562 27.476562 46.371094 27.273438 46.542969 C 27.1875 46.625 27.179688 46.761719 27.257812 46.847656 C 27.339844 46.933594 27.457031 46.945312 27.546875 46.871094 C 28.382812 46.164062 29.539062 45.917969 30.238281 45.832031 C 29.34375 46.773438 29.175781 47.980469 29.003906 49.261719 C 28.851562 50.367188 28.703125 51.515625 28.027344 52.519531 C 26.96875 54.105469 25.210938 55.410156 24.523438 55.894531 C 24.5625 52.449219 25.109375 47.222656 27.265625 40.476562 C 30.042969 31.792969 37.097656 18.875 39.703125 14.25 C 39.621094 15.253906 39.675781 16.492188 39.722656 17.773438 Z M 33.589844 23.230469 C 30.328125 29 26.09375 37.363281 24.414062 44.402344 C 23.167969 49.597656 22.953125 53.464844 23.113281 56.183594 C 22.535156 55.8125 21.335938 54.925781 20.96875 53.808594 C 20.761719 53.183594 20.503906 52.769531 20.261719 52.503906 C 20.648438 52.59375 21.011719 52.8125 21.273438 53.117188 C 21.34375 53.207031 21.480469 53.21875 21.570312 53.144531 C 21.660156 53.074219 21.667969 52.9375 21.597656 52.847656 C 21.488281 52.71875 21.363281 52.597656 21.230469 52.496094 C 21.214844 52.484375 19.710938 50.828125 19.074219 49.6875 C 17.984375 47.722656 18.339844 46.472656 19.644531 42.796875 C 20.269531 41.039062 19.808594 39.25 19.503906 38.382812 C 20.007812 38.683594 20.261719 39.011719 20.550781 39.371094 C 20.878906 39.796875 21.253906 40.277344 22.082031 40.730469 L 22.105469 40.746094 C 22.121094 40.757812 22.144531 40.765625 22.167969 40.773438 C 22.308594 40.847656 22.457031 40.921875 22.625 40.992188 C 22.734375 41.035156 22.863281 40.992188 22.90625 40.886719 C 22.949219 40.777344 22.90625 40.648438 22.800781 40.601562 C 22.621094 40.527344 22.46875 40.445312 22.320312 40.363281 C 22.085938 40.191406 20.753906 39.121094 20.484375 37.382812 C 20.277344 36.046875 20.738281 34.636719 21.855469 33.195312 C 24.664062 29.570312 25.644531 27.605469 25.976562 26.714844 C 26.054688 27.023438 26.117188 27.480469 26.082031 28.160156 C 26.023438 29.222656 26.507812 30.089844 26.886719 30.59375 C 27.007812 30.785156 27.160156 30.960938 27.332031 31.105469 C 27.433594 31.175781 27.5625 31.148438 27.632812 31.058594 C 27.695312 30.972656 27.683594 30.851562 27.601562 30.777344 C 27.472656 30.648438 27.347656 30.507812 27.234375 30.351562 C 27.035156 30.015625 26.910156 29.65625 26.855469 29.269531 C 26.707031 28.269531 26.890625 26.484375 28.621094 23.667969 C 31.355469 19.246094 37.429688 14.792969 39.722656 13.203125 C 38.625 14.847656 36.203125 18.597656 33.589844 23.230469 Z M 33.589844 23.230469 " fill-opacity="1" fill-rule="nonzero"/><path fill="#ff7b30" d="M 40.6875 12.289062 C 40.683594 12.28125 40.679688 12.273438 40.667969 12.269531 C 40.65625 12.265625 40.664062 12.261719 40.660156 12.253906 L 40.648438 12.242188 C 40.644531 12.234375 40.632812 12.230469 40.632812 12.230469 L 40.621094 12.226562 C 40.609375 12.222656 40.605469 12.214844 40.597656 12.21875 L 40.5625 12.207031 L 40.542969 12.207031 L 40.523438 12.203125 L 40.503906 12.203125 C 40.496094 12.207031 40.484375 12.203125 40.484375 12.203125 L 40.472656 12.210938 L 40.457031 12.21875 C 40.449219 12.222656 40.433594 12.230469 40.425781 12.234375 L 40.417969 12.238281 C 40.285156 12.320312 31.707031 17.886719 28.28125 23.457031 C 27.257812 25.121094 26.738281 26.464844 26.53125 27.53125 C 26.480469 26.40625 26.15625 26.007812 26.113281 25.960938 C 26.058594 25.902344 25.976562 25.871094 25.890625 25.894531 C 25.808594 25.917969 25.746094 25.984375 25.730469 26.070312 C 25.730469 26.089844 25.46875 27.851562 21.523438 32.933594 C 20.304688 34.472656 19.8125 35.992188 20.042969 37.453125 C 20.09375 37.800781 20.191406 38.136719 20.320312 38.464844 C 19.980469 38.152344 19.59375 37.898438 19.15625 37.726562 C 19.050781 37.679688 18.921875 37.734375 18.878906 37.839844 C 18.859375 37.898438 18.863281 37.964844 18.890625 38.019531 C 18.898438 38.039062 20.019531 40.421875 19.238281 42.636719 C 17.910156 46.371094 17.511719 47.769531 18.695312 49.890625 C 19.09375 50.597656 19.78125 51.472656 20.289062 52.070312 C 20.003906 52.007812 19.699219 51.988281 19.410156 52.015625 C 19.300781 52.03125 19.214844 52.128906 19.222656 52.242188 C 19.230469 52.351562 19.308594 52.4375 19.417969 52.453125 C 19.425781 52.449219 20.105469 52.550781 20.566406 53.957031 C 21.054688 55.445312 22.753906 56.503906 23.15625 56.726562 C 23.222656 57.472656 23.304688 58.121094 23.402344 58.675781 C 23.917969 61.53125 24.847656 62.710938 24.878906 62.761719 C 24.945312 62.835938 25.050781 62.863281 25.136719 62.820312 L 25.152344 62.8125 C 25.242188 62.761719 25.285156 62.652344 25.246094 62.558594 C 25.238281 62.542969 24.597656 60.601562 24.527344 56.929688 C 24.527344 56.765625 24.519531 56.597656 24.523438 56.425781 C 24.925781 56.160156 27.101562 54.679688 28.382812 52.761719 C 29.105469 51.683594 29.269531 50.484375 29.425781 49.328125 C 29.609375 47.933594 29.789062 46.613281 30.988281 45.746094 C 31.085938 45.679688 31.109375 45.546875 31.03125 45.449219 C 30.996094 45.390625 30.929688 45.355469 30.855469 45.359375 C 30.347656 45.367188 29.839844 45.441406 29.34375 45.554688 C 30.265625 44.804688 31.546875 43.621094 32.523438 42.191406 C 33.5625 40.664062 34.074219 38.214844 34.5625 35.84375 C 34.875 34.363281 35.191406 32.832031 35.625 31.605469 C 37.019531 27.714844 40.035156 26.019531 40.066406 26.007812 C 40.167969 25.945312 40.199219 25.816406 40.152344 25.714844 C 40.121094 25.652344 40.054688 25.609375 39.976562 25.609375 C 39.925781 25.601562 39.339844 25.570312 38.394531 25.757812 C 38.796875 25.269531 39.398438 24.347656 39.902344 22.808594 C 40.300781 21.609375 40.214844 19.660156 40.140625 17.773438 C 40.066406 15.980469 39.988281 14.128906 40.34375 13.113281 C 40.550781 12.75 40.671875 12.546875 40.683594 12.53125 L 40.695312 12.496094 C 40.699219 12.484375 40.699219 12.484375 40.703125 12.472656 L 40.703125 12.433594 C 40.699219 12.425781 40.707031 12.421875 40.703125 12.414062 C 40.699219 12.410156 40.707031 12.40625 40.703125 12.398438 C 40.699219 12.390625 40.707031 12.386719 40.703125 12.378906 C 40.699219 12.371094 40.695312 12.363281 40.695312 12.363281 C 40.691406 12.355469 40.691406 12.355469 40.6875 12.347656 C 40.683594 12.339844 40.679688 12.332031 40.675781 12.324219 C 40.6875 12.308594 40.691406 12.296875 40.6875 12.289062 Z M 24.105469 56.960938 C 24.125 58.300781 24.246094 59.632812 24.453125 60.949219 C 24.167969 60.164062 23.960938 59.355469 23.816406 58.546875 C 23.355469 55.980469 23.164062 51.449219 24.828125 44.507812 C 26.503906 37.523438 30.722656 29.203125 33.964844 23.453125 C 35 21.621094 36 19.933594 36.902344 18.453125 C 33.667969 24.457031 28.996094 33.648438 26.859375 40.347656 C 24.464844 47.871094 24.039062 53.535156 24.105469 56.960938 Z M 39.722656 17.773438 C 39.796875 19.621094 39.882812 21.535156 39.503906 22.65625 C 38.726562 25.042969 37.703125 25.863281 37.6875 25.871094 C 37.660156 25.890625 37.640625 25.910156 37.625 25.9375 C 36.851562 26.167969 36.109375 26.496094 35.402344 26.90625 C 35.296875 26.964844 35.265625 27.097656 35.328125 27.203125 C 35.386719 27.304688 35.515625 27.339844 35.621094 27.28125 C 37.109375 26.425781 38.410156 26.144531 39.195312 26.054688 C 37.371094 27.421875 35.992188 29.292969 35.226562 31.445312 C 34.773438 32.695312 34.457031 34.246094 34.144531 35.738281 C 33.660156 38.070312 33.160156 40.476562 32.167969 41.929688 C 30.542969 44.316406 27.949219 46.054688 27.929688 46.074219 L 27.921875 46.097656 C 27.691406 46.226562 27.476562 46.371094 27.273438 46.542969 C 27.1875 46.625 27.179688 46.761719 27.257812 46.847656 C 27.339844 46.933594 27.457031 46.945312 27.546875 46.871094 C 28.382812 46.164062 29.539062 45.917969 30.238281 45.832031 C 29.34375 46.773438 29.175781 47.980469 29.003906 49.261719 C 28.851562 50.367188 28.703125 51.515625 28.027344 52.519531 C 26.96875 54.105469 25.210938 55.410156 24.523438 55.894531 C 24.5625 52.449219 25.109375 47.222656 27.265625 40.476562 C 30.042969 31.792969 37.097656 18.875 39.703125 14.25 C 39.621094 15.253906 39.675781 16.492188 39.722656 17.773438 Z M 33.597656 23.226562 C 30.335938 28.996094 26.101562 37.359375 24.414062 44.402344 C 23.167969 49.597656 22.953125 53.464844 23.113281 56.183594 C 22.535156 55.8125 21.335938 54.925781 20.96875 53.808594 C 20.761719 53.183594 20.503906 52.769531 20.261719 52.503906 C 20.648438 52.59375 21.011719 52.8125 21.273438 53.117188 C 21.34375 53.207031 21.480469 53.21875 21.570312 53.144531 C 21.660156 53.074219 21.667969 52.9375 21.597656 52.847656 C 21.488281 52.71875 21.363281 52.597656 21.230469 52.496094 C 21.214844 52.484375 19.710938 50.828125 19.074219 49.6875 C 17.984375 47.722656 18.339844 46.472656 19.644531 42.796875 C 20.269531 41.039062 19.808594 39.25 19.503906 38.382812 C 20.007812 38.683594 20.261719 39.011719 20.550781 39.371094 C 20.878906 39.796875 21.253906 40.277344 22.082031 40.730469 L 22.105469 40.746094 C 22.121094 40.757812 22.144531 40.765625 22.167969 40.773438 C 22.308594 40.847656 22.457031 40.921875 22.625 40.992188 C 22.734375 41.035156 22.863281 40.992188 22.90625 40.886719 C 22.949219 40.777344 22.90625 40.648438 22.800781 40.601562 C 22.621094 40.527344 22.46875 40.445312 22.320312 40.363281 C 22.085938 40.191406 20.753906 39.121094 20.484375 37.382812 C 20.277344 36.046875 20.738281 34.636719 21.855469 33.195312 C 24.664062 29.570312 25.644531 27.605469 25.976562 26.714844 C 26.054688 27.023438 26.117188 27.480469 26.082031 28.160156 C 26.023438 29.222656 26.507812 30.089844 26.886719 30.59375 C 27.007812 30.785156 27.160156 30.960938 27.332031 31.105469 C 27.433594 31.175781 27.5625 31.148438 27.632812 31.058594 C 27.695312 30.972656 27.683594 30.851562 27.601562 30.777344 C 27.472656 30.648438 27.347656 30.507812 27.234375 30.351562 C 27.035156 30.015625 26.910156 29.65625 26.855469 29.269531 C 26.707031 28.269531 26.890625 26.484375 28.621094 23.667969 C 31.355469 19.246094 37.429688 14.792969 39.722656 13.203125 C 38.625 14.847656 36.203125 18.597656 33.597656 23.226562 Z M 33.597656 23.226562 " fill-opacity="1" fill-rule="nonzero"/></g></g></g><g clip-path="url(#0ae3902ee3)"><g clip-path="url(#3bc0ebc83c)"><g clip-path="url(#d145dff3b4)"><path fill="#ffffff" d="M 66.996094 41.039062 C 66.996094 41.039062 66.996094 41.042969 66.996094 41.042969 C 66.992188 41.050781 66.988281 41.058594 66.988281 41.066406 C 66.984375 41.070312 66.984375 41.070312 66.980469 41.078125 C 66.980469 41.085938 66.976562 41.09375 66.976562 41.09375 C 66.972656 41.101562 66.972656 41.101562 66.964844 41.105469 C 66.960938 41.109375 66.957031 41.117188 66.949219 41.113281 C 66.949219 41.121094 66.941406 41.121094 66.9375 41.125 L 66.914062 41.148438 C 66.902344 41.152344 66.902344 41.152344 66.894531 41.15625 L 66.875 41.164062 L 66.863281 41.167969 C 66.847656 41.171875 66.644531 41.21875 66.289062 41.296875 C 65.425781 41.667969 64.285156 42.792969 63.183594 43.890625 C 62.019531 45.042969 60.820312 46.238281 59.8125 46.683594 C 58.527344 47.257812 57.578125 47.414062 57.023438 47.445312 C 57.703125 47.929688 58.039062 48.332031 58.0625 48.367188 C 58.128906 48.449219 58.117188 48.566406 58.035156 48.628906 C 57.988281 48.667969 57.917969 48.679688 57.859375 48.664062 C 57.832031 48.652344 54.941406 47.722656 51.617188 49.105469 C 50.566406 49.542969 49.394531 50.238281 48.265625 50.90625 C 46.453125 51.980469 44.582031 53.085938 42.980469 53.3125 C 41.484375 53.527344 39.957031 53.398438 38.925781 53.246094 C 39.300781 53.492188 39.644531 53.78125 39.957031 54.101562 C 40.023438 54.175781 40.023438 54.296875 39.949219 54.363281 C 39.902344 54.402344 39.847656 54.421875 39.785156 54.414062 C 38.503906 54.15625 37.558594 54.808594 36.558594 55.507812 C 35.726562 56.085938 34.859375 56.679688 33.734375 56.847656 C 31.742188 57.144531 29.488281 56.617188 29.082031 56.519531 C 28.96875 56.621094 28.863281 56.722656 28.761719 56.820312 C 26.453125 59.011719 25.59375 60.554688 25.585938 60.574219 C 25.546875 60.652344 25.453125 60.6875 25.363281 60.664062 L 25.335938 60.652344 C 25.253906 60.617188 25.207031 60.535156 25.21875 60.445312 C 25.222656 60.390625 25.425781 59.113281 26.957031 57.101562 C 27.253906 56.714844 27.613281 56.269531 28.058594 55.804688 C 27.96875 55.414062 27.625 53.707031 28.285156 52.523438 C 28.910156 51.40625 28.566406 50.910156 28.566406 50.910156 C 28.503906 50.839844 28.515625 50.730469 28.582031 50.660156 C 28.652344 50.589844 28.761719 50.59375 28.839844 50.648438 C 29.027344 50.820312 29.199219 51.023438 29.332031 51.242188 C 29.410156 50.570312 29.558594 49.617188 29.773438 48.949219 C 30.425781 46.949219 31.5625 46.386719 34.746094 45.050781 C 36.636719 44.265625 37.488281 42.152344 37.496094 42.132812 C 37.535156 42.035156 37.640625 41.988281 37.738281 42.027344 C 37.789062 42.046875 37.828125 42.089844 37.847656 42.136719 C 37.992188 42.511719 38.066406 42.914062 38.070312 43.316406 C 38.203125 43.039062 38.363281 42.78125 38.554688 42.542969 C 39.351562 41.542969 40.621094 40.96875 42.324219 40.828125 C 47.9375 40.378906 49.226562 39.507812 49.234375 39.503906 C 49.292969 39.460938 49.375 39.453125 49.441406 39.496094 C 49.507812 39.53125 49.535156 39.597656 49.53125 39.675781 C 49.523438 39.730469 49.460938 40.179688 48.773438 40.859375 C 49.578125 40.375 50.75 39.921875 52.429688 39.597656 C 58.042969 38.53125 66.722656 40.769531 66.859375 40.796875 L 66.863281 40.800781 C 66.871094 40.804688 66.886719 40.808594 66.894531 40.8125 L 66.90625 40.816406 L 66.921875 40.824219 C 66.929688 40.824219 66.933594 40.835938 66.933594 40.835938 L 66.945312 40.847656 L 66.953125 40.859375 L 66.964844 40.871094 L 66.972656 40.890625 L 66.980469 40.902344 C 66.984375 40.910156 66.980469 40.917969 66.988281 40.921875 L 66.992188 40.929688 C 66.992188 40.929688 66.992188 40.945312 66.992188 40.945312 L 66.996094 40.964844 C 66.992188 40.96875 66.992188 40.96875 66.988281 40.976562 C 66.984375 40.984375 66.984375 40.992188 66.988281 41 C 66.996094 41.003906 66.996094 41.003906 66.992188 41.011719 C 67.007812 41.03125 66.996094 41.039062 66.996094 41.039062 Z M 66.996094 41.039062 " fill-opacity="1" fill-rule="nonzero"/></g></g></g><g clip-path="url(#f94549b16c)"><g clip-path="url(#5b6ad3a1bb)"><g clip-path="url(#d56f8f13e5)"><path fill="#ffffff" d="M 66.996094 41.039062 C 67 41.03125 67.003906 41.023438 67 41.011719 C 66.996094 41.003906 67 41.007812 67.003906 41 L 67.003906 40.984375 C 67.003906 40.976562 67 40.964844 67 40.964844 L 66.996094 40.957031 C 66.992188 40.945312 66.996094 40.941406 66.988281 40.9375 L 66.984375 40.925781 L 66.976562 40.910156 L 66.964844 40.894531 L 66.941406 40.871094 C 66.933594 40.867188 66.929688 40.859375 66.929688 40.859375 L 66.917969 40.851562 L 66.902344 40.847656 C 66.894531 40.84375 66.882812 40.839844 66.875 40.835938 L 66.867188 40.832031 C 66.738281 40.796875 58.046875 38.566406 52.429688 39.632812 C 50.753906 39.949219 49.582031 40.402344 48.773438 40.894531 C 49.46875 40.203125 49.527344 39.761719 49.535156 39.707031 C 49.539062 39.636719 49.507812 39.570312 49.441406 39.527344 C 49.378906 39.488281 49.296875 39.488281 49.234375 39.527344 C 49.222656 39.539062 47.933594 40.402344 42.320312 40.851562 C 40.609375 40.972656 39.34375 41.546875 38.542969 42.546875 C 38.351562 42.785156 38.195312 43.042969 38.0625 43.320312 C 38.058594 42.917969 37.988281 42.519531 37.839844 42.140625 C 37.804688 42.046875 37.695312 41.996094 37.601562 42.03125 C 37.550781 42.050781 37.511719 42.089844 37.492188 42.140625 C 37.484375 42.160156 36.628906 44.269531 34.738281 45.066406 C 31.554688 46.402344 30.421875 46.964844 29.769531 48.960938 C 29.554688 49.632812 29.40625 50.582031 29.324219 51.257812 C 29.195312 51.039062 29.023438 50.835938 28.832031 50.664062 C 28.757812 50.601562 28.644531 50.605469 28.578125 50.675781 C 28.511719 50.742188 28.503906 50.84375 28.558594 50.925781 C 28.566406 50.925781 28.90625 51.421875 28.277344 52.539062 C 27.617188 53.722656 27.957031 55.425781 28.050781 55.816406 C 27.613281 56.292969 27.246094 56.726562 26.949219 57.117188 C 25.425781 59.113281 25.226562 60.398438 25.214844 60.449219 C 25.207031 60.535156 25.253906 60.617188 25.328125 60.648438 L 25.34375 60.65625 C 25.429688 60.679688 25.523438 60.644531 25.566406 60.566406 C 25.570312 60.550781 26.429688 59.003906 28.742188 56.8125 C 28.84375 56.714844 28.949219 56.613281 29.0625 56.511719 C 29.472656 56.617188 31.71875 57.144531 33.714844 56.839844 C 34.839844 56.671875 35.703125 56.074219 36.539062 55.5 C 37.539062 54.800781 38.492188 54.144531 39.761719 54.402344 C 39.867188 54.429688 39.964844 54.363281 39.984375 54.257812 C 39.996094 54.199219 39.980469 54.136719 39.933594 54.09375 C 39.625 53.773438 39.277344 53.488281 38.90625 53.238281 C 39.9375 53.390625 41.460938 53.519531 42.960938 53.304688 C 44.558594 53.078125 46.433594 51.972656 48.246094 50.898438 C 49.382812 50.230469 50.550781 49.539062 51.597656 49.097656 C 54.921875 47.714844 57.808594 48.652344 57.835938 48.664062 C 57.9375 48.695312 58.039062 48.640625 58.074219 48.550781 C 58.097656 48.492188 58.082031 48.425781 58.039062 48.375 C 58.011719 48.339844 57.683594 47.945312 56.996094 47.449219 C 57.550781 47.417969 58.5 47.265625 59.785156 46.6875 C 60.792969 46.242188 61.992188 45.046875 63.15625 43.894531 C 64.261719 42.796875 65.402344 41.667969 66.261719 41.300781 C 66.621094 41.21875 66.820312 41.175781 66.839844 41.175781 L 66.847656 41.171875 L 66.867188 41.164062 C 66.878906 41.160156 66.878906 41.160156 66.886719 41.152344 L 66.898438 41.144531 L 66.910156 41.132812 C 66.914062 41.125 66.921875 41.128906 66.925781 41.121094 C 66.925781 41.113281 66.933594 41.117188 66.9375 41.109375 C 66.941406 41.101562 66.945312 41.105469 66.949219 41.097656 C 66.953125 41.089844 66.953125 41.085938 66.953125 41.085938 C 66.957031 41.078125 66.957031 41.078125 66.960938 41.070312 C 66.964844 41.0625 66.964844 41.058594 66.96875 41.050781 C 66.984375 41.046875 66.996094 41.042969 66.996094 41.039062 Z M 62.90625 43.628906 C 61.773438 44.761719 60.59375 45.933594 59.652344 46.347656 C 57.660156 47.246094 56.523438 47.070312 56.511719 47.066406 C 56.480469 47.0625 56.457031 47.058594 56.429688 47.066406 C 55.820312 46.707031 55.164062 46.421875 54.480469 46.210938 C 54.382812 46.175781 54.277344 46.234375 54.246094 46.332031 C 54.214844 46.433594 54.273438 46.535156 54.371094 46.566406 C 55.808594 47.023438 56.765625 47.6875 57.292969 48.136719 C 55.328125 47.769531 53.304688 47.984375 51.46875 48.75 C 50.394531 49.195312 49.214844 49.898438 48.066406 50.570312 C 46.289062 51.625 44.445312 52.710938 42.921875 52.929688 C 40.421875 53.285156 37.761719 52.644531 37.738281 52.640625 L 37.710938 52.648438 C 37.488281 52.574219 37.265625 52.519531 37.035156 52.492188 C 36.933594 52.484375 36.839844 52.5625 36.832031 52.664062 C 36.824219 52.761719 36.890625 52.84375 36.988281 52.859375 C 37.941406 52.980469 38.789062 53.578125 39.261719 53.972656 C 38.125 53.949219 37.25 54.550781 36.328125 55.191406 C 35.527344 55.742188 34.703125 56.316406 33.65625 56.472656 C 32.007812 56.71875 30.121094 56.363281 29.402344 56.207031 C 31.632812 54.214844 35.308594 51.507812 40.917969 48.9375 C 48.140625 45.632812 60.632812 42.59375 65.15625 41.554688 C 64.457031 42.089844 63.699219 42.847656 62.90625 43.628906 Z M 55.746094 42.898438 C 50.101562 44.183594 42.214844 46.367188 36.703125 49.410156 C 32.625 51.652344 30.019531 53.777344 28.375 55.472656 C 28.265625 54.882812 28.117188 53.597656 28.613281 52.710938 C 28.890625 52.210938 29.003906 51.804688 29.03125 51.496094 C 29.203125 51.792969 29.277344 52.152344 29.238281 52.5 C 29.222656 52.597656 29.300781 52.691406 29.398438 52.707031 C 29.5 52.722656 29.59375 52.648438 29.605469 52.546875 C 29.625 52.402344 29.628906 52.25 29.609375 52.109375 C 29.609375 52.09375 29.773438 50.160156 30.125 49.085938 C 30.730469 47.238281 31.746094 46.734375 34.882812 45.417969 C 36.382812 44.792969 37.25 43.449219 37.625 42.746094 C 37.734375 43.246094 37.675781 43.601562 37.617188 43.996094 C 37.542969 44.453125 37.457031 44.972656 37.660156 45.769531 L 37.667969 45.796875 C 37.667969 45.8125 37.675781 45.832031 37.683594 45.851562 C 37.722656 45.984375 37.765625 46.121094 37.816406 46.273438 C 37.851562 46.367188 37.960938 46.425781 38.054688 46.390625 C 38.148438 46.355469 38.207031 46.25 38.171875 46.15625 C 38.113281 45.996094 38.074219 45.851562 38.039062 45.710938 C 38.011719 45.457031 37.898438 43.976562 38.851562 42.789062 C 39.585938 41.875 40.761719 41.34375 42.355469 41.21875 C 46.351562 40.894531 48.199219 40.371094 48.964844 40.0625 C 48.816406 40.292969 48.558594 40.601562 48.105469 40.976562 C 47.390625 41.558594 47.125 42.378906 47.023438 42.914062 C 46.976562 43.105469 46.953125 43.304688 46.964844 43.5 C 46.980469 43.605469 47.074219 43.671875 47.175781 43.664062 C 47.265625 43.652344 47.335938 43.578125 47.335938 43.480469 C 47.339844 43.320312 47.355469 43.160156 47.390625 42.996094 C 47.484375 42.671875 47.640625 42.378906 47.855469 42.121094 C 48.40625 41.4375 49.660156 40.511719 52.5 39.972656 C 56.964844 39.132812 63.445312 40.414062 65.835938 40.957031 C 64.125 41.210938 60.277344 41.859375 55.746094 42.898438 Z M 55.746094 42.898438 " fill-opacity="1" fill-rule="nonzero"/><path fill="#ffcdb1" d="M 66.996094 41.039062 C 67 41.03125 67.003906 41.023438 67 41.011719 C 66.996094 41.003906 67 41.007812 67.003906 41 L 67.003906 40.984375 C 67.003906 40.976562 67 40.964844 67 40.964844 L 66.996094 40.957031 C 66.992188 40.945312 66.996094 40.941406 66.988281 40.9375 L 66.984375 40.925781 L 66.976562 40.910156 L 66.964844 40.894531 L 66.941406 40.871094 C 66.933594 40.867188 66.929688 40.859375 66.929688 40.859375 L 66.917969 40.851562 L 66.902344 40.847656 C 66.894531 40.84375 66.882812 40.839844 66.875 40.835938 L 66.867188 40.832031 C 66.738281 40.796875 58.046875 38.566406 52.429688 39.632812 C 50.753906 39.949219 49.582031 40.402344 48.773438 40.894531 C 49.46875 40.203125 49.527344 39.761719 49.535156 39.707031 C 49.539062 39.636719 49.507812 39.570312 49.441406 39.527344 C 49.378906 39.488281 49.296875 39.488281 49.234375 39.527344 C 49.222656 39.539062 47.933594 40.402344 42.320312 40.851562 C 40.609375 40.972656 39.34375 41.546875 38.542969 42.546875 C 38.351562 42.785156 38.195312 43.042969 38.0625 43.320312 C 38.058594 42.917969 37.988281 42.519531 37.839844 42.140625 C 37.804688 42.046875 37.695312 41.996094 37.601562 42.03125 C 37.550781 42.050781 37.511719 42.089844 37.492188 42.140625 C 37.484375 42.160156 36.628906 44.269531 34.738281 45.066406 C 31.554688 46.402344 30.421875 46.964844 29.769531 48.960938 C 29.554688 49.632812 29.40625 50.582031 29.324219 51.257812 C 29.195312 51.039062 29.023438 50.835938 28.832031 50.664062 C 28.757812 50.601562 28.644531 50.605469 28.578125 50.675781 C 28.511719 50.742188 28.503906 50.84375 28.558594 50.925781 C 28.566406 50.925781 28.90625 51.421875 28.277344 52.539062 C 27.617188 53.722656 27.957031 55.425781 28.050781 55.816406 C 27.613281 56.292969 27.246094 56.726562 26.949219 57.117188 C 25.425781 59.113281 25.226562 60.398438 25.214844 60.449219 C 25.207031 60.535156 25.253906 60.617188 25.328125 60.648438 L 25.34375 60.65625 C 25.429688 60.679688 25.523438 60.644531 25.566406 60.566406 C 25.570312 60.550781 26.429688 59.003906 28.742188 56.8125 C 28.84375 56.714844 28.949219 56.613281 29.0625 56.511719 C 29.472656 56.617188 31.71875 57.144531 33.714844 56.839844 C 34.839844 56.671875 35.703125 56.074219 36.539062 55.5 C 37.539062 54.800781 38.492188 54.144531 39.761719 54.402344 C 39.867188 54.429688 39.964844 54.363281 39.984375 54.257812 C 39.996094 54.199219 39.980469 54.136719 39.933594 54.09375 C 39.625 53.773438 39.277344 53.488281 38.90625 53.238281 C 39.9375 53.390625 41.460938 53.519531 42.960938 53.304688 C 44.558594 53.078125 46.433594 51.972656 48.246094 50.898438 C 49.382812 50.230469 50.550781 49.539062 51.597656 49.097656 C 54.921875 47.714844 57.808594 48.652344 57.835938 48.664062 C 57.9375 48.695312 58.039062 48.640625 58.074219 48.550781 C 58.097656 48.492188 58.082031 48.425781 58.039062 48.375 C 58.011719 48.339844 57.683594 47.945312 56.996094 47.449219 C 57.550781 47.417969 58.5 47.265625 59.785156 46.6875 C 60.792969 46.242188 61.992188 45.046875 63.15625 43.894531 C 64.261719 42.796875 65.402344 41.667969 66.261719 41.300781 C 66.621094 41.21875 66.820312 41.175781 66.839844 41.175781 L 66.847656 41.171875 L 66.867188 41.164062 C 66.878906 41.160156 66.878906 41.160156 66.886719 41.152344 L 66.898438 41.144531 L 66.910156 41.132812 C 66.914062 41.125 66.921875 41.128906 66.925781 41.121094 C 66.925781 41.113281 66.933594 41.117188 66.9375 41.109375 C 66.941406 41.101562 66.945312 41.105469 66.949219 41.097656 C 66.953125 41.089844 66.953125 41.085938 66.953125 41.085938 C 66.957031 41.078125 66.957031 41.078125 66.960938 41.070312 C 66.964844 41.0625 66.964844 41.058594 66.96875 41.050781 C 66.984375 41.046875 66.996094 41.042969 66.996094 41.039062 Z M 28.46875 56.558594 C 27.621094 57.355469 26.839844 58.210938 26.121094 59.117188 C 26.453125 58.476562 26.847656 57.871094 27.28125 57.300781 C 28.648438 55.507812 31.441406 52.734375 36.878906 49.738281 C 42.355469 46.722656 50.207031 44.554688 55.828125 43.265625 C 57.621094 42.859375 59.300781 42.511719 60.789062 42.222656 C 55.007812 43.664062 46.328125 46.050781 40.757812 48.601562 C 34.507812 51.472656 30.625 54.515625 28.46875 56.558594 Z M 62.90625 43.628906 C 61.765625 44.757812 60.59375 45.933594 59.644531 46.34375 C 57.652344 47.242188 56.515625 47.070312 56.503906 47.0625 C 56.472656 47.058594 56.449219 47.058594 56.421875 47.0625 C 55.8125 46.703125 55.15625 46.417969 54.472656 46.207031 C 54.375 46.175781 54.269531 46.230469 54.238281 46.332031 C 54.207031 46.429688 54.265625 46.53125 54.367188 46.566406 C 55.800781 47.019531 56.757812 47.683594 57.285156 48.132812 C 55.320312 47.769531 53.296875 47.980469 51.460938 48.75 C 50.390625 49.191406 49.207031 49.898438 48.0625 50.570312 C 46.28125 51.625 44.4375 52.710938 42.914062 52.925781 C 40.417969 53.28125 37.753906 52.640625 37.730469 52.640625 L 37.710938 52.648438 C 37.488281 52.574219 37.265625 52.519531 37.035156 52.492188 C 36.933594 52.484375 36.839844 52.5625 36.832031 52.664062 C 36.824219 52.761719 36.890625 52.84375 36.988281 52.859375 C 37.941406 52.980469 38.789062 53.578125 39.261719 53.972656 C 38.125 53.949219 37.25 54.550781 36.328125 55.191406 C 35.527344 55.742188 34.703125 56.316406 33.65625 56.472656 C 32.007812 56.71875 30.121094 56.363281 29.402344 56.207031 C 31.632812 54.214844 35.308594 51.507812 40.917969 48.9375 C 48.140625 45.632812 60.632812 42.59375 65.15625 41.554688 C 64.457031 42.089844 63.699219 42.847656 62.90625 43.628906 Z M 55.753906 42.902344 C 50.109375 44.1875 42.222656 46.371094 36.703125 49.410156 C 32.625 51.652344 30.019531 53.777344 28.375 55.472656 C 28.265625 54.882812 28.117188 53.597656 28.613281 52.710938 C 28.890625 52.210938 29.003906 51.804688 29.03125 51.496094 C 29.203125 51.792969 29.277344 52.152344 29.238281 52.5 C 29.222656 52.597656 29.300781 52.691406 29.398438 52.707031 C 29.5 52.722656 29.59375 52.648438 29.605469 52.546875 C 29.625 52.402344 29.628906 52.25 29.609375 52.109375 C 29.609375 52.09375 29.773438 50.160156 30.125 49.085938 C 30.730469 47.238281 31.746094 46.734375 34.882812 45.417969 C 36.382812 44.792969 37.25 43.449219 37.625 42.746094 C 37.734375 43.246094 37.675781 43.601562 37.617188 43.996094 C 37.542969 44.453125 37.457031 44.972656 37.660156 45.769531 L 37.667969 45.796875 C 37.667969 45.8125 37.675781 45.832031 37.683594 45.851562 C 37.722656 45.984375 37.765625 46.121094 37.816406 46.273438 C 37.851562 46.367188 37.960938 46.425781 38.054688 46.390625 C 38.148438 46.355469 38.207031 46.25 38.171875 46.15625 C 38.113281 45.996094 38.074219 45.851562 38.039062 45.710938 C 38.011719 45.457031 37.898438 43.976562 38.851562 42.789062 C 39.585938 41.875 40.761719 41.34375 42.355469 41.21875 C 46.351562 40.894531 48.199219 40.371094 48.964844 40.0625 C 48.816406 40.292969 48.558594 40.601562 48.105469 40.976562 C 47.390625 41.558594 47.125 42.378906 47.023438 42.914062 C 46.976562 43.105469 46.953125 43.304688 46.964844 43.5 C 46.980469 43.605469 47.074219 43.671875 47.175781 43.664062 C 47.265625 43.652344 47.335938 43.578125 47.335938 43.480469 C 47.339844 43.320312 47.355469 43.160156 47.390625 42.996094 C 47.484375 42.671875 47.640625 42.378906 47.855469 42.121094 C 48.40625 41.4375 49.660156 40.511719 52.5 39.972656 C 56.964844 39.132812 63.445312 40.414062 65.835938 40.957031 C 64.125 41.210938 60.277344 41.859375 55.753906 42.902344 Z M 55.753906 42.902344 " fill-opacity="1" fill-rule="nonzero"/></g></g></g></svg>