<svg xmlns="http://www.w3.org/2000/svg" xmlns:xlink="http://www.w3.org/1999/xlink" width="50" zoomAndPan="magnify" viewBox="0 0 37.5 37.499999" height="50" preserveAspectRatio="xMidYMid meet" version="1.0"><defs><clipPath id="ab1958ce99"><path d="M 0 0.300781 L 37.007812 0.300781 L 37.007812 37.007812 L 0 37.007812 Z M 0 0.300781 " clip-rule="nonzero"/></clipPath></defs><g clip-path="url(#ab1958ce99)"><path fill="#f53d74" d="M 24.074219 9.066406 L 24.074219 11.421875 C 24.078125 11.589844 24.140625 11.734375 24.261719 11.851562 C 24.382812 11.96875 24.527344 12.027344 24.695312 12.027344 C 24.863281 12.027344 25.007812 11.96875 25.128906 11.851562 C 25.246094 11.734375 25.308594 11.589844 25.3125 11.421875 L 25.3125 9.066406 Z M 18.132812 9.066406 L 18.132812 11.609375 C 18.136719 11.777344 18.195312 11.921875 18.316406 12.039062 C 18.4375 12.160156 18.582031 12.21875 18.75 12.21875 C 18.917969 12.21875 19.0625 12.160156 19.183594 12.039062 C 19.304688 11.921875 19.363281 11.777344 19.363281 11.609375 L 19.363281 9.066406 Z M 12.1875 9.066406 L 12.1875 11.421875 C 12.1875 11.589844 12.246094 11.738281 12.367188 11.859375 C 12.488281 11.980469 12.636719 12.039062 12.804688 12.039062 C 12.976562 12.039062 13.121094 11.980469 13.242188 11.859375 C 13.363281 11.738281 13.421875 11.589844 13.425781 11.421875 L 13.425781 9.066406 Z M 18.132812 9.066406 L 18.132812 11.609375 C 18.136719 11.777344 18.195312 11.921875 18.316406 12.039062 C 18.4375 12.160156 18.582031 12.21875 18.75 12.21875 C 18.917969 12.21875 19.0625 12.160156 19.183594 12.039062 C 19.304688 11.921875 19.363281 11.777344 19.363281 11.609375 L 19.363281 9.066406 Z M 24.074219 9.066406 L 24.074219 11.421875 C 24.078125 11.589844 24.140625 11.734375 24.261719 11.851562 C 24.382812 11.96875 24.527344 12.027344 24.695312 12.027344 C 24.863281 12.027344 25.007812 11.96875 25.128906 11.851562 C 25.246094 11.734375 25.308594 11.589844 25.3125 11.421875 L 25.3125 9.066406 Z M 24.074219 9.066406 L 24.074219 11.421875 C 24.078125 11.589844 24.140625 11.734375 24.261719 11.851562 C 24.382812 11.96875 24.527344 12.027344 24.695312 12.027344 C 24.863281 12.027344 25.007812 11.96875 25.128906 11.851562 C 25.246094 11.734375 25.308594 11.589844 25.3125 11.421875 L 25.3125 9.066406 Z M 18.132812 9.066406 L 18.132812 11.609375 C 18.136719 11.777344 18.195312 11.921875 18.316406 12.039062 C 18.4375 12.160156 18.582031 12.21875 18.75 12.21875 C 18.917969 12.21875 19.0625 12.160156 19.183594 12.039062 C 19.304688 11.921875 19.363281 11.777344 19.363281 11.609375 L 19.363281 9.066406 Z M 12.1875 9.066406 L 12.1875 11.421875 C 12.1875 11.589844 12.246094 11.738281 12.367188 11.859375 C 12.488281 11.980469 12.636719 12.039062 12.804688 12.039062 C 12.976562 12.039062 13.121094 11.980469 13.242188 11.859375 C 13.363281 11.738281 13.421875 11.589844 13.425781 11.421875 L 13.425781 9.066406 Z M 12.1875 9.066406 L 12.1875 11.421875 C 12.1875 11.589844 12.246094 11.738281 12.367188 11.859375 C 12.488281 11.980469 12.636719 12.039062 12.804688 12.039062 C 12.976562 12.039062 13.121094 11.980469 13.242188 11.859375 C 13.363281 11.738281 13.421875 11.589844 13.425781 11.421875 L 13.425781 9.066406 Z M 18.132812 9.066406 L 18.132812 11.609375 C 18.136719 11.777344 18.195312 11.921875 18.316406 12.039062 C 18.4375 12.160156 18.582031 12.21875 18.75 12.21875 C 18.917969 12.21875 19.0625 12.160156 19.183594 12.039062 C 19.304688 11.921875 19.363281 11.777344 19.363281 11.609375 L 19.363281 9.066406 Z M 24.074219 9.066406 L 24.074219 11.421875 C 24.078125 11.589844 24.140625 11.734375 24.261719 11.851562 C 24.382812 11.96875 24.527344 12.027344 24.695312 12.027344 C 24.863281 12.027344 25.007812 11.96875 25.128906 11.851562 C 25.246094 11.734375 25.308594 11.589844 25.3125 11.421875 L 25.3125 9.066406 Z M 24.074219 9.066406 L 24.074219 11.421875 C 24.078125 11.589844 24.140625 11.734375 24.261719 11.851562 C 24.382812 11.96875 24.527344 12.027344 24.695312 12.027344 C 24.863281 12.027344 25.007812 11.96875 25.128906 11.851562 C 25.246094 11.734375 25.308594 11.589844 25.3125 11.421875 L 25.3125 9.066406 Z M 18.132812 9.066406 L 18.132812 11.609375 C 18.136719 11.777344 18.195312 11.921875 18.316406 12.039062 C 18.4375 12.160156 18.582031 12.21875 18.75 12.21875 C 18.917969 12.21875 19.0625 12.160156 19.183594 12.039062 C 19.304688 11.921875 19.363281 11.777344 19.363281 11.609375 L 19.363281 9.066406 Z M 12.1875 9.066406 L 12.1875 11.421875 C 12.1875 11.589844 12.246094 11.738281 12.367188 11.859375 C 12.488281 11.980469 12.636719 12.039062 12.804688 12.039062 C 12.976562 12.039062 13.121094 11.980469 13.242188 11.859375 C 13.363281 11.738281 13.421875 11.589844 13.425781 11.421875 L 13.425781 9.066406 Z M 12.1875 9.066406 L 12.1875 11.421875 C 12.1875 11.589844 12.246094 11.738281 12.367188 11.859375 C 12.488281 11.980469 12.636719 12.039062 12.804688 12.039062 C 12.976562 12.039062 13.121094 11.980469 13.242188 11.859375 C 13.363281 11.738281 13.421875 11.589844 13.425781 11.421875 L 13.425781 9.066406 Z M 18.132812 9.066406 L 18.132812 11.609375 C 18.136719 11.777344 18.195312 11.921875 18.316406 12.039062 C 18.4375 12.160156 18.582031 12.21875 18.75 12.21875 C 18.917969 12.21875 19.0625 12.160156 19.183594 12.039062 C 19.304688 11.921875 19.363281 11.777344 19.363281 11.609375 L 19.363281 9.066406 Z M 24.074219 9.066406 L 24.074219 11.421875 C 24.078125 11.589844 24.140625 11.734375 24.261719 11.851562 C 24.382812 11.96875 24.527344 12.027344 24.695312 12.027344 C 24.863281 12.027344 25.007812 11.96875 25.128906 11.851562 C 25.246094 11.734375 25.308594 11.589844 25.3125 11.421875 L 25.3125 9.066406 Z M 24.074219 9.066406 L 24.074219 11.421875 C 24.078125 11.589844 24.140625 11.734375 24.261719 11.851562 C 24.382812 11.96875 24.527344 12.027344 24.695312 12.027344 C 24.863281 12.027344 25.007812 11.96875 25.128906 11.851562 C 25.246094 11.734375 25.308594 11.589844 25.3125 11.421875 L 25.3125 9.066406 Z M 18.132812 9.066406 L 18.132812 11.609375 C 18.136719 11.777344 18.195312 11.921875 18.316406 12.039062 C 18.4375 12.160156 18.582031 12.21875 18.75 12.21875 C 18.917969 12.21875 19.0625 12.160156 19.183594 12.039062 C 19.304688 11.921875 19.363281 11.777344 19.363281 11.609375 L 19.363281 9.066406 Z M 12.1875 9.066406 L 12.1875 11.421875 C 12.1875 11.589844 12.246094 11.738281 12.367188 11.859375 C 12.488281 11.980469 12.636719 12.039062 12.804688 12.039062 C 12.976562 12.039062 13.121094 11.980469 13.242188 11.859375 C 13.363281 11.738281 13.421875 11.589844 13.425781 11.421875 L 13.425781 9.066406 Z M 12.1875 9.066406 L 12.1875 11.421875 C 12.1875 11.589844 12.246094 11.738281 12.367188 11.859375 C 12.488281 11.980469 12.636719 12.039062 12.804688 12.039062 C 12.976562 12.039062 13.121094 11.980469 13.242188 11.859375 C 13.363281 11.738281 13.421875 11.589844 13.425781 11.421875 L 13.425781 9.066406 Z M 18.132812 9.066406 L 18.132812 11.609375 C 18.136719 11.777344 18.195312 11.921875 18.316406 12.039062 C 18.4375 12.160156 18.582031 12.21875 18.75 12.21875 C 18.917969 12.21875 19.0625 12.160156 19.183594 12.039062 C 19.304688 11.921875 19.363281 11.777344 19.363281 11.609375 L 19.363281 9.066406 Z M 24.074219 9.066406 L 24.074219 11.421875 C 24.078125 11.589844 24.140625 11.734375 24.261719 11.851562 C 24.382812 11.96875 24.527344 12.027344 24.695312 12.027344 C 24.863281 12.027344 25.007812 11.96875 25.128906 11.851562 C 25.246094 11.734375 25.308594 11.589844 25.3125 11.421875 L 25.3125 9.066406 Z M 24.074219 9.066406 L 24.074219 11.421875 C 24.078125 11.589844 24.140625 11.734375 24.261719 11.851562 C 24.382812 11.96875 24.527344 12.027344 24.695312 12.027344 C 24.863281 12.027344 25.007812 11.96875 25.128906 11.851562 C 25.246094 11.734375 25.308594 11.589844 25.3125 11.421875 L 25.3125 9.066406 Z M 18.132812 9.066406 L 18.132812 11.609375 C 18.136719 11.777344 18.195312 11.921875 18.316406 12.039062 C 18.4375 12.160156 18.582031 12.21875 18.75 12.21875 C 18.917969 12.21875 19.0625 12.160156 19.183594 12.039062 C 19.304688 11.921875 19.363281 11.777344 19.363281 11.609375 L 19.363281 9.066406 Z M 12.1875 9.066406 L 12.1875 11.421875 C 12.1875 11.589844 12.246094 11.738281 12.367188 11.859375 C 12.488281 11.980469 12.636719 12.039062 12.804688 12.039062 C 12.976562 12.039062 13.121094 11.980469 13.242188 11.859375 C 13.363281 11.738281 13.421875 11.589844 13.425781 11.421875 L 13.425781 9.066406 Z M 12.1875 9.066406 L 12.1875 11.421875 C 12.1875 11.589844 12.246094 11.738281 12.367188 11.859375 C 12.488281 11.980469 12.636719 12.039062 12.804688 12.039062 C 12.976562 12.039062 13.121094 11.980469 13.242188 11.859375 C 13.363281 11.738281 13.421875 11.589844 13.425781 11.421875 L 13.425781 9.066406 Z M 18.132812 9.066406 L 18.132812 11.609375 C 18.136719 11.777344 18.195312 11.921875 18.316406 12.039062 C 18.4375 12.160156 18.582031 12.21875 18.75 12.21875 C 18.917969 12.21875 19.0625 12.160156 19.183594 12.039062 C 19.304688 11.921875 19.363281 11.777344 19.363281 11.609375 L 19.363281 9.066406 Z M 24.074219 9.066406 L 24.074219 11.421875 C 24.078125 11.589844 24.140625 11.734375 24.261719 11.851562 C 24.382812 11.96875 24.527344 12.027344 24.695312 12.027344 C 24.863281 12.027344 25.007812 11.96875 25.128906 11.851562 C 25.246094 11.734375 25.308594 11.589844 25.3125 11.421875 L 25.3125 9.066406 Z M 24.074219 9.066406 L 24.074219 11.421875 C 24.078125 11.589844 24.140625 11.734375 24.261719 11.851562 C 24.382812 11.96875 24.527344 12.027344 24.695312 12.027344 C 24.863281 12.027344 25.007812 11.96875 25.128906 11.851562 C 25.246094 11.734375 25.308594 11.589844 25.3125 11.421875 L 25.3125 9.066406 Z M 18.132812 9.066406 L 18.132812 11.609375 C 18.136719 11.777344 18.195312 11.921875 18.316406 12.039062 C 18.4375 12.160156 18.582031 12.21875 18.75 12.21875 C 18.917969 12.21875 19.0625 12.160156 19.183594 12.039062 C 19.304688 11.921875 19.363281 11.777344 19.363281 11.609375 L 19.363281 9.066406 Z M 12.1875 9.066406 L 12.1875 11.421875 C 12.1875 11.589844 12.246094 11.738281 12.367188 11.859375 C 12.488281 11.980469 12.636719 12.039062 12.804688 12.039062 C 12.976562 12.039062 13.121094 11.980469 13.242188 11.859375 C 13.363281 11.738281 13.421875 11.589844 13.425781 11.421875 L 13.425781 9.066406 Z M 12.1875 9.066406 L 12.1875 11.421875 C 12.1875 11.589844 12.246094 11.738281 12.367188 11.859375 C 12.488281 11.980469 12.636719 12.039062 12.804688 12.039062 C 12.976562 12.039062 13.121094 11.980469 13.242188 11.859375 C 13.363281 11.738281 13.421875 11.589844 13.425781 11.421875 L 13.425781 9.066406 Z M 18.132812 9.066406 L 18.132812 11.609375 C 18.136719 11.777344 18.195312 11.921875 18.316406 12.039062 C 18.4375 12.160156 18.582031 12.21875 18.75 12.21875 C 18.917969 12.21875 19.0625 12.160156 19.183594 12.039062 C 19.304688 11.921875 19.363281 11.777344 19.363281 11.609375 L 19.363281 9.066406 Z M 24.074219 9.066406 L 24.074219 11.421875 C 24.078125 11.589844 24.140625 11.734375 24.261719 11.851562 C 24.382812 11.96875 24.527344 12.027344 24.695312 12.027344 C 24.863281 12.027344 25.007812 11.96875 25.128906 11.851562 C 25.246094 11.734375 25.308594 11.589844 25.3125 11.421875 L 25.3125 9.066406 Z M 24.074219 9.066406 L 24.074219 11.421875 C 24.078125 11.589844 24.140625 11.734375 24.261719 11.851562 C 24.382812 11.96875 24.527344 12.027344 24.695312 12.027344 C 24.863281 12.027344 25.007812 11.96875 25.128906 11.851562 C 25.246094 11.734375 25.308594 11.589844 25.3125 11.421875 L 25.3125 9.066406 Z M 18.132812 9.066406 L 18.132812 11.609375 C 18.136719 11.777344 18.195312 11.921875 18.316406 12.039062 C 18.4375 12.160156 18.582031 12.21875 18.75 12.21875 C 18.917969 12.21875 19.0625 12.160156 19.183594 12.039062 C 19.304688 11.921875 19.363281 11.777344 19.363281 11.609375 L 19.363281 9.066406 Z M 12.1875 9.066406 L 12.1875 11.421875 C 12.1875 11.589844 12.246094 11.738281 12.367188 11.859375 C 12.488281 11.980469 12.636719 12.039062 12.804688 12.039062 C 12.976562 12.039062 13.121094 11.980469 13.242188 11.859375 C 13.363281 11.738281 13.421875 11.589844 13.425781 11.421875 L 13.425781 9.066406 Z M 12.1875 9.066406 L 12.1875 11.421875 C 12.1875 11.589844 12.246094 11.738281 12.367188 11.859375 C 12.488281 11.980469 12.636719 12.039062 12.804688 12.039062 C 12.976562 12.039062 13.121094 11.980469 13.242188 11.859375 C 13.363281 11.738281 13.421875 11.589844 13.425781 11.421875 L 13.425781 9.066406 Z M 18.132812 9.066406 L 18.132812 11.609375 C 18.136719 11.777344 18.195312 11.921875 18.316406 12.039062 C 18.4375 12.160156 18.582031 12.21875 18.75 12.21875 C 18.917969 12.21875 19.0625 12.160156 19.183594 12.039062 C 19.304688 11.921875 19.363281 11.777344 19.363281 11.609375 L 19.363281 9.066406 Z M 24.074219 9.066406 L 24.074219 11.421875 C 24.078125 11.589844 24.140625 11.734375 24.261719 11.851562 C 24.382812 11.96875 24.527344 12.027344 24.695312 12.027344 C 24.863281 12.027344 25.007812 11.96875 25.128906 11.851562 C 25.246094 11.734375 25.308594 11.589844 25.3125 11.421875 L 25.3125 9.066406 Z M 24.074219 9.066406 L 24.074219 11.421875 C 24.078125 11.589844 24.140625 11.734375 24.261719 11.851562 C 24.382812 11.96875 24.527344 12.027344 24.695312 12.027344 C 24.863281 12.027344 25.007812 11.96875 25.128906 11.851562 C 25.246094 11.734375 25.308594 11.589844 25.3125 11.421875 L 25.3125 9.066406 Z M 18.132812 9.066406 L 18.132812 11.609375 C 18.136719 11.777344 18.195312 11.921875 18.316406 12.039062 C 18.4375 12.160156 18.582031 12.21875 18.75 12.21875 C 18.917969 12.21875 19.0625 12.160156 19.183594 12.039062 C 19.304688 11.921875 19.363281 11.777344 19.363281 11.609375 L 19.363281 9.066406 Z M 12.1875 9.066406 L 12.1875 11.421875 C 12.1875 11.589844 12.246094 11.738281 12.367188 11.859375 C 12.488281 11.980469 12.636719 12.039062 12.804688 12.039062 C 12.976562 12.039062 13.121094 11.980469 13.242188 11.859375 C 13.363281 11.738281 13.421875 11.589844 13.425781 11.421875 L 13.425781 9.066406 Z M 12.1875 9.066406 L 12.1875 11.421875 C 12.1875 11.589844 12.246094 11.738281 12.367188 11.859375 C 12.488281 11.980469 12.636719 12.039062 12.804688 12.039062 C 12.976562 12.039062 13.121094 11.980469 13.242188 11.859375 C 13.363281 11.738281 13.421875 11.589844 13.425781 11.421875 L 13.425781 9.066406 Z M 18.132812 9.066406 L 18.132812 11.609375 C 18.136719 11.777344 18.195312 11.921875 18.316406 12.039062 C 18.4375 12.160156 18.582031 12.21875 18.75 12.21875 C 18.917969 12.21875 19.0625 12.160156 19.183594 12.039062 C 19.304688 11.921875 19.363281 11.777344 19.363281 11.609375 L 19.363281 9.066406 Z M 24.074219 9.066406 L 24.074219 11.421875 C 24.078125 11.589844 24.140625 11.734375 24.261719 11.851562 C 24.382812 11.96875 24.527344 12.027344 24.695312 12.027344 C 24.863281 12.027344 25.007812 11.96875 25.128906 11.851562 C 25.246094 11.734375 25.308594 11.589844 25.3125 11.421875 L 25.3125 9.066406 Z M 24.074219 9.066406 L 24.074219 11.421875 C 24.078125 11.589844 24.140625 11.734375 24.261719 11.851562 C 24.382812 11.96875 24.527344 12.027344 24.695312 12.027344 C 24.863281 12.027344 25.007812 11.96875 25.128906 11.851562 C 25.246094 11.734375 25.308594 11.589844 25.3125 11.421875 L 25.3125 9.066406 Z M 18.132812 9.066406 L 18.132812 11.609375 C 18.136719 11.777344 18.195312 11.921875 18.316406 12.039062 C 18.4375 12.160156 18.582031 12.21875 18.75 12.21875 C 18.917969 12.21875 19.0625 12.160156 19.183594 12.039062 C 19.304688 11.921875 19.363281 11.777344 19.363281 11.609375 L 19.363281 9.066406 Z M 12.1875 9.066406 L 12.1875 11.421875 C 12.1875 11.589844 12.246094 11.738281 12.367188 11.859375 C 12.488281 11.980469 12.636719 12.039062 12.804688 12.039062 C 12.976562 12.039062 13.121094 11.980469 13.242188 11.859375 C 13.363281 11.738281 13.421875 11.589844 13.425781 11.421875 L 13.425781 9.066406 Z M 12.1875 9.066406 L 12.1875 11.421875 C 12.1875 11.589844 12.246094 11.738281 12.367188 11.859375 C 12.488281 11.980469 12.636719 12.039062 12.804688 12.039062 C 12.976562 12.039062 13.121094 11.980469 13.242188 11.859375 C 13.363281 11.738281 13.421875 11.589844 13.425781 11.421875 L 13.425781 9.066406 Z M 18.132812 9.066406 L 18.132812 11.609375 C 18.136719 11.777344 18.195312 11.921875 18.316406 12.039062 C 18.4375 12.160156 18.582031 12.21875 18.75 12.21875 C 18.917969 12.21875 19.0625 12.160156 19.183594 12.039062 C 19.304688 11.921875 19.363281 11.777344 19.363281 11.609375 L 19.363281 9.066406 Z M 24.074219 9.066406 L 24.074219 11.421875 C 24.078125 11.589844 24.140625 11.734375 24.261719 11.851562 C 24.382812 11.96875 24.527344 12.027344 24.695312 12.027344 C 24.863281 12.027344 25.007812 11.96875 25.128906 11.851562 C 25.246094 11.734375 25.308594 11.589844 25.3125 11.421875 L 25.3125 9.066406 Z M 24.074219 9.066406 L 24.074219 11.421875 C 24.078125 11.589844 24.140625 11.734375 24.261719 11.851562 C 24.382812 11.96875 24.527344 12.027344 24.695312 12.027344 C 24.863281 12.027344 25.007812 11.96875 25.128906 11.851562 C 25.246094 11.734375 25.308594 11.589844 25.3125 11.421875 L 25.3125 9.066406 Z M 18.132812 9.066406 L 18.132812 11.609375 C 18.136719 11.777344 18.195312 11.921875 18.316406 12.039062 C 18.4375 12.160156 18.582031 12.21875 18.75 12.21875 C 18.917969 12.21875 19.0625 12.160156 19.183594 12.039062 C 19.304688 11.921875 19.363281 11.777344 19.363281 11.609375 L 19.363281 9.066406 Z M 12.1875 9.066406 L 12.1875 11.421875 C 12.1875 11.589844 12.246094 11.738281 12.367188 11.859375 C 12.488281 11.980469 12.636719 12.039062 12.804688 12.039062 C 12.976562 12.039062 13.121094 11.980469 13.242188 11.859375 C 13.363281 11.738281 13.421875 11.589844 13.425781 11.421875 L 13.425781 9.066406 Z M 12.1875 9.066406 L 12.1875 11.421875 C 12.1875 11.589844 12.246094 11.738281 12.367188 11.859375 C 12.488281 11.980469 12.636719 12.039062 12.804688 12.039062 C 12.976562 12.039062 13.121094 11.980469 13.242188 11.859375 C 13.363281 11.738281 13.421875 11.589844 13.425781 11.421875 L 13.425781 9.066406 Z M 18.132812 9.066406 L 18.132812 11.609375 C 18.136719 11.777344 18.195312 11.921875 18.316406 12.039062 C 18.4375 12.160156 18.582031 12.21875 18.75 12.21875 C 18.917969 12.21875 19.0625 12.160156 19.183594 12.039062 C 19.304688 11.921875 19.363281 11.777344 19.363281 11.609375 L 19.363281 9.066406 Z M 24.074219 9.066406 L 24.074219 11.421875 C 24.078125 11.589844 24.140625 11.734375 24.261719 11.851562 C 24.382812 11.96875 24.527344 12.027344 24.695312 12.027344 C 24.863281 12.027344 25.007812 11.96875 25.128906 11.851562 C 25.246094 11.734375 25.308594 11.589844 25.3125 11.421875 L 25.3125 9.066406 Z M 24.074219 9.066406 L 24.074219 11.421875 C 24.078125 11.589844 24.140625 11.734375 24.261719 11.851562 C 24.382812 11.96875 24.527344 12.027344 24.695312 12.027344 C 24.863281 12.027344 25.007812 11.96875 25.128906 11.851562 C 25.246094 11.734375 25.308594 11.589844 25.3125 11.421875 L 25.3125 9.066406 Z M 18.132812 9.066406 L 18.132812 11.609375 C 18.136719 11.777344 18.195312 11.921875 18.316406 12.039062 C 18.4375 12.160156 18.582031 12.21875 18.75 12.21875 C 18.917969 12.21875 19.0625 12.160156 19.183594 12.039062 C 19.304688 11.921875 19.363281 11.777344 19.363281 11.609375 L 19.363281 9.066406 Z M 12.1875 9.066406 L 12.1875 11.421875 C 12.1875 11.589844 12.246094 11.738281 12.367188 11.859375 C 12.488281 11.980469 12.636719 12.039062 12.804688 12.039062 C 12.976562 12.039062 13.121094 11.980469 13.242188 11.859375 C 13.363281 11.738281 13.421875 11.589844 13.425781 11.421875 L 13.425781 9.066406 Z M 12.1875 9.066406 L 12.1875 11.421875 C 12.1875 11.589844 12.246094 11.738281 12.367188 11.859375 C 12.488281 11.980469 12.636719 12.039062 12.804688 12.039062 C 12.976562 12.039062 13.121094 11.980469 13.242188 11.859375 C 13.363281 11.738281 13.421875 11.589844 13.425781 11.421875 L 13.425781 9.066406 Z M 18.132812 9.066406 L 18.132812 11.609375 C 18.136719 11.777344 18.195312 11.921875 18.316406 12.039062 C 18.4375 12.160156 18.582031 12.21875 18.75 12.21875 C 18.917969 12.21875 19.0625 12.160156 19.183594 12.039062 C 19.304688 11.921875 19.363281 11.777344 19.363281 11.609375 L 19.363281 9.066406 Z M 24.074219 9.066406 L 24.074219 11.421875 C 24.078125 11.589844 24.140625 11.734375 24.261719 11.851562 C 24.382812 11.96875 24.527344 12.027344 24.695312 12.027344 C 24.863281 12.027344 25.007812 11.96875 25.128906 11.851562 C 25.246094 11.734375 25.308594 11.589844 25.3125 11.421875 L 25.3125 9.066406 Z M 24.074219 9.066406 L 24.074219 11.421875 C 24.078125 11.589844 24.140625 11.734375 24.261719 11.851562 C 24.382812 11.96875 24.527344 12.027344 24.695312 12.027344 C 24.863281 12.027344 25.007812 11.96875 25.128906 11.851562 C 25.246094 11.734375 25.308594 11.589844 25.3125 11.421875 L 25.3125 9.066406 Z M 18.132812 9.066406 L 18.132812 11.609375 C 18.136719 11.777344 18.195312 11.921875 18.316406 12.039062 C 18.4375 12.160156 18.582031 12.21875 18.75 12.21875 C 18.917969 12.21875 19.0625 12.160156 19.183594 12.039062 C 19.304688 11.921875 19.363281 11.777344 19.363281 11.609375 L 19.363281 9.066406 Z M 12.1875 9.066406 L 12.1875 11.421875 C 12.1875 11.589844 12.246094 11.738281 12.367188 11.859375 C 12.488281 11.980469 12.636719 12.039062 12.804688 12.039062 C 12.976562 12.039062 13.121094 11.980469 13.242188 11.859375 C 13.363281 11.738281 13.421875 11.589844 13.425781 11.421875 L 13.425781 9.066406 Z M 12.1875 9.066406 L 12.1875 11.421875 C 12.1875 11.589844 12.246094 11.738281 12.367188 11.859375 C 12.488281 11.980469 12.636719 12.039062 12.804688 12.039062 C 12.976562 12.039062 13.121094 11.980469 13.242188 11.859375 C 13.363281 11.738281 13.421875 11.589844 13.425781 11.421875 L 13.425781 9.066406 Z M 18.132812 9.066406 L 18.132812 11.609375 C 18.136719 11.777344 18.195312 11.921875 18.316406 12.039062 C 18.4375 12.160156 18.582031 12.21875 18.75 12.21875 C 18.917969 12.21875 19.0625 12.160156 19.183594 12.039062 C 19.304688 11.921875 19.363281 11.777344 19.363281 11.609375 L 19.363281 9.066406 Z M 24.074219 9.066406 L 24.074219 11.421875 C 24.078125 11.589844 24.140625 11.734375 24.261719 11.851562 C 24.382812 11.96875 24.527344 12.027344 24.695312 12.027344 C 24.863281 12.027344 25.007812 11.96875 25.128906 11.851562 C 25.246094 11.734375 25.308594 11.589844 25.3125 11.421875 L 25.3125 9.066406 Z M 24.074219 9.066406 L 24.074219 11.421875 C 24.078125 11.589844 24.140625 11.734375 24.261719 11.851562 C 24.382812 11.96875 24.527344 12.027344 24.695312 12.027344 C 24.863281 12.027344 25.007812 11.96875 25.128906 11.851562 C 25.246094 11.734375 25.308594 11.589844 25.3125 11.421875 L 25.3125 9.066406 Z M 18.132812 9.066406 L 18.132812 11.609375 C 18.136719 11.777344 18.195312 11.921875 18.316406 12.039062 C 18.4375 12.160156 18.582031 12.21875 18.75 12.21875 C 18.917969 12.21875 19.0625 12.160156 19.183594 12.039062 C 19.304688 11.921875 19.363281 11.777344 19.363281 11.609375 L 19.363281 9.066406 Z M 12.1875 9.066406 L 12.1875 11.421875 C 12.1875 11.589844 12.246094 11.738281 12.367188 11.859375 C 12.488281 11.980469 12.636719 12.039062 12.804688 12.039062 C 12.976562 12.039062 13.121094 11.980469 13.242188 11.859375 C 13.363281 11.738281 13.421875 11.589844 13.425781 11.421875 L 13.425781 9.066406 Z M 12.1875 9.066406 L 12.1875 11.421875 C 12.1875 11.589844 12.246094 11.738281 12.367188 11.859375 C 12.488281 11.980469 12.636719 12.039062 12.804688 12.039062 C 12.976562 12.039062 13.121094 11.980469 13.242188 11.859375 C 13.363281 11.738281 13.421875 11.589844 13.425781 11.421875 L 13.425781 9.066406 Z M 18.132812 9.066406 L 18.132812 11.609375 C 18.136719 11.777344 18.195312 11.921875 18.316406 12.039062 C 18.4375 12.160156 18.582031 12.21875 18.75 12.21875 C 18.917969 12.21875 19.0625 12.160156 19.183594 12.039062 C 19.304688 11.921875 19.363281 11.777344 19.363281 11.609375 L 19.363281 9.066406 Z M 24.074219 9.066406 L 24.074219 11.421875 C 24.078125 11.589844 24.140625 11.734375 24.261719 11.851562 C 24.382812 11.96875 24.527344 12.027344 24.695312 12.027344 C 24.863281 12.027344 25.007812 11.96875 25.128906 11.851562 C 25.246094 11.734375 25.308594 11.589844 25.3125 11.421875 L 25.3125 9.066406 Z M 24.074219 9.066406 L 24.074219 11.421875 C 24.078125 11.589844 24.140625 11.734375 24.261719 11.851562 C 24.382812 11.96875 24.527344 12.027344 24.695312 12.027344 C 24.863281 12.027344 25.007812 11.96875 25.128906 11.851562 C 25.246094 11.734375 25.308594 11.589844 25.3125 11.421875 L 25.3125 9.066406 Z M 18.132812 9.066406 L 18.132812 11.609375 C 18.136719 11.777344 18.195312 11.921875 18.316406 12.039062 C 18.4375 12.160156 18.582031 12.21875 18.75 12.21875 C 18.917969 12.21875 19.0625 12.160156 19.183594 12.039062 C 19.304688 11.921875 19.363281 11.777344 19.363281 11.609375 L 19.363281 9.066406 Z M 12.1875 9.066406 L 12.1875 11.421875 C 12.1875 11.589844 12.246094 11.738281 12.367188 11.859375 C 12.488281 11.980469 12.636719 12.039062 12.804688 12.039062 C 12.976562 12.039062 13.121094 11.980469 13.242188 11.859375 C 13.363281 11.738281 13.421875 11.589844 13.425781 11.421875 L 13.425781 9.066406 Z M 12.1875 9.066406 L 12.1875 11.421875 C 12.1875 11.589844 12.246094 11.738281 12.367188 11.859375 C 12.488281 11.980469 12.636719 12.039062 12.804688 12.039062 C 12.976562 12.039062 13.121094 11.980469 13.242188 11.859375 C 13.363281 11.738281 13.421875 11.589844 13.425781 11.421875 L 13.425781 9.066406 Z M 18.132812 9.066406 L 18.132812 11.609375 C 18.136719 11.777344 18.195312 11.921875 18.316406 12.039062 C 18.4375 12.160156 18.582031 12.21875 18.75 12.21875 C 18.917969 12.21875 19.0625 12.160156 19.183594 12.039062 C 19.304688 11.921875 19.363281 11.777344 19.363281 11.609375 L 19.363281 9.066406 Z M 24.074219 9.066406 L 24.074219 11.421875 C 24.078125 11.589844 24.140625 11.734375 24.261719 11.851562 C 24.382812 11.96875 24.527344 12.027344 24.695312 12.027344 C 24.863281 12.027344 25.007812 11.96875 25.128906 11.851562 C 25.246094 11.734375 25.308594 11.589844 25.3125 11.421875 L 25.3125 9.066406 Z M 24.074219 9.066406 L 24.074219 11.421875 C 24.078125 11.589844 24.140625 11.734375 24.261719 11.851562 C 24.382812 11.96875 24.527344 12.027344 24.695312 12.027344 C 24.863281 12.027344 25.007812 11.96875 25.128906 11.851562 C 25.246094 11.734375 25.308594 11.589844 25.3125 11.421875 L 25.3125 9.066406 Z M 18.132812 9.066406 L 18.132812 11.609375 C 18.136719 11.777344 18.195312 11.921875 18.316406 12.039062 C 18.4375 12.160156 18.582031 12.21875 18.75 12.21875 C 18.917969 12.21875 19.0625 12.160156 19.183594 12.039062 C 19.304688 11.921875 19.363281 11.777344 19.363281 11.609375 L 19.363281 9.066406 Z M 12.1875 9.066406 L 12.1875 11.421875 C 12.1875 11.589844 12.246094 11.738281 12.367188 11.859375 C 12.488281 11.980469 12.636719 12.039062 12.804688 12.039062 C 12.976562 12.039062 13.121094 11.980469 13.242188 11.859375 C 13.363281 11.738281 13.421875 11.589844 13.425781 11.421875 L 13.425781 9.066406 Z M 12.1875 9.066406 L 12.1875 11.421875 C 12.1875 11.589844 12.246094 11.738281 12.367188 11.859375 C 12.488281 11.980469 12.636719 12.039062 12.804688 12.039062 C 12.976562 12.039062 13.121094 11.980469 13.242188 11.859375 C 13.363281 11.738281 13.421875 11.589844 13.425781 11.421875 L 13.425781 9.066406 Z M 18.132812 9.066406 L 18.132812 11.609375 C 18.136719 11.777344 18.195312 11.921875 18.316406 12.039062 C 18.4375 12.160156 18.582031 12.21875 18.75 12.21875 C 18.917969 12.21875 19.0625 12.160156 19.183594 12.039062 C 19.304688 11.921875 19.363281 11.777344 19.363281 11.609375 L 19.363281 9.066406 Z M 24.074219 9.066406 L 24.074219 11.421875 C 24.078125 11.589844 24.140625 11.734375 24.261719 11.851562 C 24.382812 11.96875 24.527344 12.027344 24.695312 12.027344 C 24.863281 12.027344 25.007812 11.96875 25.128906 11.851562 C 25.246094 11.734375 25.308594 11.589844 25.3125 11.421875 L 25.3125 9.066406 Z M 24.074219 9.066406 L 24.074219 11.421875 C 24.078125 11.589844 24.140625 11.734375 24.261719 11.851562 C 24.382812 11.96875 24.527344 12.027344 24.695312 12.027344 C 24.863281 12.027344 25.007812 11.96875 25.128906 11.851562 C 25.246094 11.734375 25.308594 11.589844 25.3125 11.421875 L 25.3125 9.066406 Z M 18.132812 9.066406 L 18.132812 11.609375 C 18.136719 11.777344 18.195312 11.921875 18.316406 12.039062 C 18.4375 12.160156 18.582031 12.21875 18.75 12.21875 C 18.917969 12.21875 19.0625 12.160156 19.183594 12.039062 C 19.304688 11.921875 19.363281 11.777344 19.363281 11.609375 L 19.363281 9.066406 Z M 12.1875 9.066406 L 12.1875 11.421875 C 12.1875 11.589844 12.246094 11.738281 12.367188 11.859375 C 12.488281 11.980469 12.636719 12.039062 12.804688 12.039062 C 12.976562 12.039062 13.121094 11.980469 13.242188 11.859375 C 13.363281 11.738281 13.421875 11.589844 13.425781 11.421875 L 13.425781 9.066406 Z M 12.1875 9.066406 L 12.1875 11.421875 C 12.1875 11.589844 12.246094 11.738281 12.367188 11.859375 C 12.488281 11.980469 12.636719 12.039062 12.804688 12.039062 C 12.976562 12.039062 13.121094 11.980469 13.242188 11.859375 C 13.363281 11.738281 13.421875 11.589844 13.425781 11.421875 L 13.425781 9.066406 Z M 18.132812 9.066406 L 18.132812 11.609375 C 18.136719 11.777344 18.195312 11.921875 18.316406 12.039062 C 18.4375 12.160156 18.582031 12.21875 18.75 12.21875 C 18.917969 12.21875 19.0625 12.160156 19.183594 12.039062 C 19.304688 11.921875 19.363281 11.777344 19.363281 11.609375 L 19.363281 9.066406 Z M 24.074219 9.066406 L 24.074219 11.421875 C 24.078125 11.589844 24.140625 11.734375 24.261719 11.851562 C 24.382812 11.96875 24.527344 12.027344 24.695312 12.027344 C 24.863281 12.027344 25.007812 11.96875 25.128906 11.851562 C 25.246094 11.734375 25.308594 11.589844 25.3125 11.421875 L 25.3125 9.066406 Z M 24.074219 9.066406 L 24.074219 11.421875 C 24.078125 11.589844 24.140625 11.734375 24.261719 11.851562 C 24.382812 11.96875 24.527344 12.027344 24.695312 12.027344 C 24.863281 12.027344 25.007812 11.96875 25.128906 11.851562 C 25.246094 11.734375 25.308594 11.589844 25.3125 11.421875 L 25.3125 9.066406 Z M 18.132812 9.066406 L 18.132812 11.609375 C 18.136719 11.777344 18.195312 11.921875 18.316406 12.039062 C 18.4375 12.160156 18.582031 12.21875 18.75 12.21875 C 18.917969 12.21875 19.0625 12.160156 19.183594 12.039062 C 19.304688 11.921875 19.363281 11.777344 19.363281 11.609375 L 19.363281 9.066406 Z M 12.1875 9.066406 L 12.1875 11.421875 C 12.1875 11.589844 12.246094 11.738281 12.367188 11.859375 C 12.488281 11.980469 12.636719 12.039062 12.804688 12.039062 C 12.976562 12.039062 13.121094 11.980469 13.242188 11.859375 C 13.363281 11.738281 13.421875 11.589844 13.425781 11.421875 L 13.425781 9.066406 Z M 12.1875 9.066406 L 12.1875 11.421875 C 12.1875 11.589844 12.246094 11.738281 12.367188 11.859375 C 12.488281 11.980469 12.636719 12.039062 12.804688 12.039062 C 12.976562 12.039062 13.121094 11.980469 13.242188 11.859375 C 13.363281 11.738281 13.421875 11.589844 13.425781 11.421875 L 13.425781 9.066406 Z M 18.132812 9.066406 L 18.132812 11.609375 C 18.136719 11.777344 18.195312 11.921875 18.316406 12.039062 C 18.4375 12.160156 18.582031 12.21875 18.75 12.21875 C 18.917969 12.21875 19.0625 12.160156 19.183594 12.039062 C 19.304688 11.921875 19.363281 11.777344 19.363281 11.609375 L 19.363281 9.066406 Z M 24.074219 9.066406 L 24.074219 11.421875 C 24.078125 11.589844 24.140625 11.734375 24.261719 11.851562 C 24.382812 11.96875 24.527344 12.027344 24.695312 12.027344 C 24.863281 12.027344 25.007812 11.96875 25.128906 11.851562 C 25.246094 11.734375 25.308594 11.589844 25.3125 11.421875 L 25.3125 9.066406 Z M 24.074219 9.066406 L 24.074219 11.421875 C 24.078125 11.589844 24.140625 11.734375 24.261719 11.851562 C 24.382812 11.96875 24.527344 12.027344 24.695312 12.027344 C 24.863281 12.027344 25.007812 11.96875 25.128906 11.851562 C 25.246094 11.734375 25.308594 11.589844 25.3125 11.421875 L 25.3125 9.066406 Z M 18.132812 9.066406 L 18.132812 11.609375 C 18.136719 11.777344 18.195312 11.921875 18.316406 12.039062 C 18.4375 12.160156 18.582031 12.21875 18.75 12.21875 C 18.917969 12.21875 19.0625 12.160156 19.183594 12.039062 C 19.304688 11.921875 19.363281 11.777344 19.363281 11.609375 L 19.363281 9.066406 Z M 12.1875 9.066406 L 12.1875 11.421875 C 12.1875 11.589844 12.246094 11.738281 12.367188 11.859375 C 12.488281 11.980469 12.636719 12.039062 12.804688 12.039062 C 12.976562 12.039062 13.121094 11.980469 13.242188 11.859375 C 13.363281 11.738281 13.421875 11.589844 13.425781 11.421875 L 13.425781 9.066406 Z M 12.1875 9.066406 L 12.1875 11.421875 C 12.1875 11.589844 12.246094 11.738281 12.367188 11.859375 C 12.488281 11.980469 12.636719 12.039062 12.804688 12.039062 C 12.976562 12.039062 13.121094 11.980469 13.242188 11.859375 C 13.363281 11.738281 13.421875 11.589844 13.425781 11.421875 L 13.425781 9.066406 Z M 18.132812 9.066406 L 18.132812 11.609375 C 18.136719 11.777344 18.195312 11.921875 18.316406 12.039062 C 18.4375 12.160156 18.582031 12.21875 18.75 12.21875 C 18.917969 12.21875 19.0625 12.160156 19.183594 12.039062 C 19.304688 11.921875 19.363281 11.777344 19.363281 11.609375 L 19.363281 9.066406 Z M 24.074219 9.066406 L 24.074219 11.421875 C 24.078125 11.589844 24.140625 11.734375 24.261719 11.851562 C 24.382812 11.96875 24.527344 12.027344 24.695312 12.027344 C 24.863281 12.027344 25.007812 11.96875 25.128906 11.851562 C 25.246094 11.734375 25.308594 11.589844 25.3125 11.421875 L 25.3125 9.066406 Z M 24.074219 9.066406 L 24.074219 11.421875 C 24.078125 11.589844 24.140625 11.734375 24.261719 11.851562 C 24.382812 11.96875 24.527344 12.027344 24.695312 12.027344 C 24.863281 12.027344 25.007812 11.96875 25.128906 11.851562 C 25.246094 11.734375 25.308594 11.589844 25.3125 11.421875 L 25.3125 9.066406 Z M 18.132812 9.066406 L 18.132812 11.609375 C 18.136719 11.777344 18.195312 11.921875 18.316406 12.039062 C 18.4375 12.160156 18.582031 12.21875 18.75 12.21875 C 18.917969 12.21875 19.0625 12.160156 19.183594 12.039062 C 19.304688 11.921875 19.363281 11.777344 19.363281 11.609375 L 19.363281 9.066406 Z M 12.1875 9.066406 L 12.1875 11.421875 C 12.1875 11.589844 12.246094 11.738281 12.367188 11.859375 C 12.488281 11.980469 12.636719 12.039062 12.804688 12.039062 C 12.976562 12.039062 13.121094 11.980469 13.242188 11.859375 C 13.363281 11.738281 13.421875 11.589844 13.425781 11.421875 L 13.425781 9.066406 Z M 12.1875 9.066406 L 12.1875 11.421875 C 12.1875 11.589844 12.246094 11.738281 12.367188 11.859375 C 12.488281 11.980469 12.636719 12.039062 12.804688 12.039062 C 12.976562 12.039062 13.121094 11.980469 13.242188 11.859375 C 13.363281 11.738281 13.421875 11.589844 13.425781 11.421875 L 13.425781 9.066406 Z M 18.132812 9.066406 L 18.132812 11.609375 C 18.136719 11.777344 18.195312 11.921875 18.316406 12.039062 C 18.4375 12.160156 18.582031 12.21875 18.75 12.21875 C 18.917969 12.21875 19.0625 12.160156 19.183594 12.039062 C 19.304688 11.921875 19.363281 11.777344 19.363281 11.609375 L 19.363281 9.066406 Z M 24.074219 9.066406 L 24.074219 11.421875 C 24.078125 11.589844 24.140625 11.734375 24.261719 11.851562 C 24.382812 11.96875 24.527344 12.027344 24.695312 12.027344 C 24.863281 12.027344 25.007812 11.96875 25.128906 11.851562 C 25.246094 11.734375 25.308594 11.589844 25.3125 11.421875 L 25.3125 9.066406 Z M 24.074219 9.066406 L 24.074219 11.421875 C 24.078125 11.589844 24.140625 11.734375 24.261719 11.851562 C 24.382812 11.96875 24.527344 12.027344 24.695312 12.027344 C 24.863281 12.027344 25.007812 11.96875 25.128906 11.851562 C 25.246094 11.734375 25.308594 11.589844 25.3125 11.421875 L 25.3125 9.066406 Z M 18.132812 11.609375 C 18.136719 11.777344 18.195312 11.921875 18.316406 12.039062 C 18.4375 12.160156 18.582031 12.21875 18.75 12.21875 C 18.917969 12.21875 19.0625 12.160156 19.183594 12.039062 C 19.304688 11.921875 19.363281 11.777344 19.363281 11.609375 L 19.363281 9.066406 L 18.132812 9.066406 Z M 12.1875 11.421875 C 12.1875 11.589844 12.246094 11.738281 12.367188 11.859375 C 12.488281 11.980469 12.636719 12.039062 12.804688 12.039062 C 12.976562 12.039062 13.121094 11.980469 13.242188 11.859375 C 13.363281 11.738281 13.421875 11.589844 13.421875 11.421875 L 13.421875 9.066406 L 12.1875 9.066406 Z M 18.75 0.300781 C 18.136719 0.300781 17.523438 0.332031 16.914062 0.390625 C 16.300781 0.449219 15.695312 0.539062 15.09375 0.660156 C 14.488281 0.78125 13.894531 0.929688 13.308594 1.105469 C 12.71875 1.285156 12.140625 1.492188 11.574219 1.726562 C 11.007812 1.960938 10.453125 2.222656 9.910156 2.515625 C 9.371094 2.804688 8.84375 3.117188 8.332031 3.460938 C 7.824219 3.800781 7.328125 4.167969 6.855469 4.554688 C 6.378906 4.945312 5.925781 5.359375 5.492188 5.792969 C 5.058594 6.226562 4.644531 6.679688 4.257812 7.15625 C 3.867188 7.628906 3.5 8.121094 3.160156 8.632812 C 2.820312 9.144531 2.503906 9.667969 2.214844 10.210938 C 1.925781 10.753906 1.664062 11.308594 1.425781 11.875 C 1.191406 12.441406 0.984375 13.019531 0.808594 13.605469 C 0.628906 14.195312 0.480469 14.789062 0.359375 15.390625 C 0.242188 15.996094 0.152344 16.601562 0.0898438 17.210938 C 0.03125 17.824219 0 18.4375 0 19.050781 C 0 19.664062 0.03125 20.277344 0.0898438 20.886719 C 0.152344 21.5 0.242188 22.105469 0.359375 22.707031 C 0.480469 23.308594 0.628906 23.90625 0.808594 24.492188 C 0.984375 25.082031 1.191406 25.65625 1.425781 26.226562 C 1.664062 26.792969 1.925781 27.347656 2.214844 27.890625 C 2.503906 28.429688 2.820312 28.957031 3.160156 29.46875 C 3.5 29.976562 3.867188 30.46875 4.257812 30.945312 C 4.644531 31.417969 5.058594 31.875 5.492188 32.308594 C 5.925781 32.742188 6.378906 33.15625 6.855469 33.542969 C 7.328125 33.933594 7.824219 34.300781 8.332031 34.640625 C 8.84375 34.980469 9.371094 35.296875 9.910156 35.585938 C 10.453125 35.875 11.007812 36.136719 11.574219 36.371094 C 12.140625 36.609375 12.71875 36.8125 13.308594 36.992188 C 13.894531 37.171875 14.488281 37.320312 15.09375 37.441406 C 15.695312 37.558594 16.300781 37.648438 16.914062 37.710938 C 17.523438 37.769531 18.136719 37.800781 18.75 37.800781 C 19.363281 37.800781 19.976562 37.769531 20.585938 37.710938 C 21.199219 37.648438 21.804688 37.558594 22.40625 37.441406 C 23.011719 37.320312 23.605469 37.171875 24.191406 36.992188 C 24.78125 36.8125 25.359375 36.609375 25.925781 36.371094 C 26.492188 36.136719 27.046875 35.875 27.589844 35.585938 C 28.128906 35.296875 28.65625 34.980469 29.167969 34.640625 C 29.675781 34.300781 30.171875 33.933594 30.644531 33.542969 C 31.121094 33.15625 31.574219 32.742188 32.007812 32.308594 C 32.441406 31.875 32.855469 31.417969 33.242188 30.945312 C 33.632812 30.46875 34 29.976562 34.339844 29.46875 C 34.679688 28.957031 34.996094 28.429688 35.285156 27.890625 C 35.574219 27.347656 35.835938 26.792969 36.074219 26.226562 C 36.308594 25.65625 36.515625 25.082031 36.691406 24.492188 C 36.871094 23.90625 37.019531 23.308594 37.140625 22.707031 C 37.257812 22.105469 37.347656 21.5 37.410156 20.886719 C 37.46875 20.277344 37.5 19.664062 37.5 19.050781 C 37.5 18.4375 37.46875 17.824219 37.410156 17.210938 C 37.347656 16.601562 37.257812 15.996094 37.140625 15.390625 C 37.019531 14.789062 36.871094 14.195312 36.691406 13.609375 C 36.515625 13.019531 36.308594 12.441406 36.070312 11.875 C 35.835938 11.308594 35.574219 10.753906 35.285156 10.210938 C 34.996094 9.671875 34.679688 9.144531 34.339844 8.632812 C 34 8.121094 33.632812 7.628906 33.242188 7.15625 C 32.855469 6.679688 32.441406 6.226562 32.007812 5.792969 C 31.574219 5.359375 31.117188 4.945312 30.644531 4.558594 C 30.167969 4.167969 29.675781 3.800781 29.167969 3.460938 C 28.65625 3.121094 28.128906 2.804688 27.589844 2.515625 C 27.046875 2.226562 26.492188 1.964844 25.925781 1.726562 C 25.359375 1.492188 24.78125 1.285156 24.191406 1.109375 C 23.605469 0.929688 23.011719 0.78125 22.40625 0.660156 C 21.804688 0.539062 21.199219 0.449219 20.585938 0.390625 C 19.976562 0.332031 19.363281 0.300781 18.75 0.300781 Z M 30.46875 27.6875 C 30.46875 28.09375 30.390625 28.488281 30.234375 28.867188 C 30.078125 29.242188 29.855469 29.578125 29.566406 29.867188 C 29.277344 30.15625 28.945312 30.378906 28.566406 30.535156 C 28.1875 30.691406 27.796875 30.769531 27.386719 30.769531 L 10.113281 30.769531 C 9.703125 30.769531 9.3125 30.691406 8.933594 30.535156 C 8.554688 30.378906 8.222656 30.15625 7.933594 29.867188 C 7.644531 29.578125 7.421875 29.242188 7.265625 28.867188 C 7.109375 28.488281 7.03125 28.09375 7.03125 27.6875 L 7.03125 14.914062 L 30.46875 14.914062 Z M 30.46875 13.675781 L 7.03125 13.675781 L 7.03125 12.152344 C 7.03125 11.746094 7.109375 11.351562 7.265625 10.972656 C 7.421875 10.597656 7.644531 10.261719 7.933594 9.972656 C 8.222656 9.683594 8.554688 9.460938 8.933594 9.304688 C 9.3125 9.144531 9.703125 9.066406 10.113281 9.066406 L 12.1875 9.066406 L 12.1875 7.953125 C 12.1875 7.78125 12.25 7.636719 12.371094 7.519531 C 12.492188 7.398438 12.636719 7.339844 12.804688 7.339844 C 12.976562 7.339844 13.121094 7.398438 13.242188 7.519531 C 13.359375 7.636719 13.421875 7.78125 13.421875 7.953125 L 13.421875 9.066406 L 18.132812 9.066406 L 18.132812 8.140625 C 18.132812 7.96875 18.195312 7.824219 18.316406 7.703125 C 18.433594 7.585938 18.582031 7.523438 18.75 7.523438 C 18.917969 7.523438 19.066406 7.585938 19.183594 7.703125 C 19.304688 7.824219 19.363281 7.96875 19.363281 8.140625 L 19.363281 9.066406 L 24.074219 9.066406 L 24.074219 7.953125 C 24.078125 7.78125 24.140625 7.636719 24.257812 7.519531 C 24.378906 7.398438 24.523438 7.339844 24.695312 7.339844 C 24.863281 7.339844 25.007812 7.398438 25.128906 7.519531 C 25.25 7.636719 25.3125 7.78125 25.3125 7.953125 L 25.3125 9.066406 L 27.386719 9.066406 C 27.796875 9.066406 28.1875 9.144531 28.566406 9.304688 C 28.945312 9.460938 29.277344 9.683594 29.566406 9.972656 C 29.855469 10.261719 30.078125 10.597656 30.234375 10.972656 C 30.390625 11.351562 30.46875 11.746094 30.46875 12.152344 Z M 25.3125 11.421875 L 25.3125 9.066406 L 24.074219 9.066406 L 24.074219 11.421875 C 24.078125 11.589844 24.140625 11.734375 24.261719 11.851562 C 24.382812 11.96875 24.527344 12.027344 24.695312 12.027344 C 24.863281 12.027344 25.007812 11.96875 25.128906 11.851562 C 25.246094 11.734375 25.308594 11.589844 25.3125 11.421875 Z M 19.367188 11.609375 L 19.367188 9.066406 L 18.136719 9.066406 L 18.136719 11.609375 C 18.136719 11.777344 18.195312 11.921875 18.316406 12.039062 C 18.4375 12.160156 18.582031 12.21875 18.75 12.21875 C 18.917969 12.21875 19.0625 12.160156 19.183594 12.039062 C 19.304688 11.921875 19.363281 11.777344 19.363281 11.609375 Z M 12.804688 12.035156 C 12.972656 12.035156 13.117188 11.976562 13.238281 11.855469 C 13.359375 11.738281 13.421875 11.589844 13.425781 11.421875 L 13.425781 9.066406 L 12.1875 9.066406 L 12.1875 11.421875 C 12.1875 11.589844 12.246094 11.734375 12.367188 11.855469 C 12.488281 11.976562 12.632812 12.035156 12.800781 12.035156 Z M 12.1875 9.066406 L 12.1875 11.421875 C 12.1875 11.589844 12.246094 11.738281 12.367188 11.859375 C 12.488281 11.980469 12.636719 12.039062 12.804688 12.039062 C 12.976562 12.039062 13.121094 11.980469 13.242188 11.859375 C 13.363281 11.738281 13.421875 11.589844 13.421875 11.421875 L 13.421875 9.066406 Z M 18.132812 9.066406 L 18.132812 11.609375 C 18.136719 11.777344 18.195312 11.921875 18.316406 12.039062 C 18.4375 12.160156 18.582031 12.21875 18.75 12.21875 C 18.917969 12.21875 19.0625 12.160156 19.183594 12.039062 C 19.304688 11.921875 19.363281 11.777344 19.363281 11.609375 L 19.363281 9.066406 Z M 24.074219 9.066406 L 24.074219 11.421875 C 24.078125 11.589844 24.140625 11.734375 24.261719 11.851562 C 24.382812 11.96875 24.527344 12.027344 24.695312 12.027344 C 24.863281 12.027344 25.007812 11.96875 25.128906 11.851562 C 25.246094 11.734375 25.308594 11.589844 25.3125 11.421875 L 25.3125 9.066406 Z M 24.074219 9.066406 L 24.074219 11.421875 C 24.078125 11.589844 24.140625 11.734375 24.261719 11.851562 C 24.382812 11.96875 24.527344 12.027344 24.695312 12.027344 C 24.863281 12.027344 25.007812 11.96875 25.128906 11.851562 C 25.246094 11.734375 25.308594 11.589844 25.3125 11.421875 L 25.3125 9.066406 Z M 18.132812 9.066406 L 18.132812 11.609375 C 18.136719 11.777344 18.195312 11.921875 18.316406 12.039062 C 18.4375 12.160156 18.582031 12.21875 18.75 12.21875 C 18.917969 12.21875 19.0625 12.160156 19.183594 12.039062 C 19.304688 11.921875 19.363281 11.777344 19.363281 11.609375 L 19.363281 9.066406 Z M 12.1875 9.066406 L 12.1875 11.421875 C 12.1875 11.589844 12.246094 11.738281 12.367188 11.859375 C 12.488281 11.980469 12.636719 12.039062 12.804688 12.039062 C 12.976562 12.039062 13.121094 11.980469 13.242188 11.859375 C 13.363281 11.738281 13.421875 11.589844 13.425781 11.421875 L 13.425781 9.066406 Z M 12.1875 9.066406 L 12.1875 11.421875 C 12.1875 11.589844 12.246094 11.738281 12.367188 11.859375 C 12.488281 11.980469 12.636719 12.039062 12.804688 12.039062 C 12.976562 12.039062 13.121094 11.980469 13.242188 11.859375 C 13.363281 11.738281 13.421875 11.589844 13.425781 11.421875 L 13.425781 9.066406 Z M 18.132812 9.066406 L 18.132812 11.609375 C 18.136719 11.777344 18.195312 11.921875 18.316406 12.039062 C 18.4375 12.160156 18.582031 12.21875 18.75 12.21875 C 18.917969 12.21875 19.0625 12.160156 19.183594 12.039062 C 19.304688 11.921875 19.363281 11.777344 19.363281 11.609375 L 19.363281 9.066406 Z M 24.074219 9.066406 L 24.074219 11.421875 C 24.078125 11.589844 24.140625 11.734375 24.261719 11.851562 C 24.382812 11.96875 24.527344 12.027344 24.695312 12.027344 C 24.863281 12.027344 25.007812 11.96875 25.128906 11.851562 C 25.246094 11.734375 25.308594 11.589844 25.3125 11.421875 L 25.3125 9.066406 Z M 24.074219 9.066406 L 24.074219 11.421875 C 24.078125 11.589844 24.140625 11.734375 24.261719 11.851562 C 24.382812 11.96875 24.527344 12.027344 24.695312 12.027344 C 24.863281 12.027344 25.007812 11.96875 25.128906 11.851562 C 25.246094 11.734375 25.308594 11.589844 25.3125 11.421875 L 25.3125 9.066406 Z M 18.132812 9.066406 L 18.132812 11.609375 C 18.136719 11.777344 18.195312 11.921875 18.316406 12.039062 C 18.4375 12.160156 18.582031 12.21875 18.75 12.21875 C 18.917969 12.21875 19.0625 12.160156 19.183594 12.039062 C 19.304688 11.921875 19.363281 11.777344 19.363281 11.609375 L 19.363281 9.066406 Z M 12.1875 9.066406 L 12.1875 11.421875 C 12.1875 11.589844 12.246094 11.738281 12.367188 11.859375 C 12.488281 11.980469 12.636719 12.039062 12.804688 12.039062 C 12.976562 12.039062 13.121094 11.980469 13.242188 11.859375 C 13.363281 11.738281 13.421875 11.589844 13.425781 11.421875 L 13.425781 9.066406 Z M 12.1875 9.066406 L 12.1875 11.421875 C 12.1875 11.589844 12.246094 11.738281 12.367188 11.859375 C 12.488281 11.980469 12.636719 12.039062 12.804688 12.039062 C 12.976562 12.039062 13.121094 11.980469 13.242188 11.859375 C 13.363281 11.738281 13.421875 11.589844 13.425781 11.421875 L 13.425781 9.066406 Z M 18.132812 9.066406 L 18.132812 11.609375 C 18.136719 11.777344 18.195312 11.921875 18.316406 12.039062 C 18.4375 12.160156 18.582031 12.21875 18.75 12.21875 C 18.917969 12.21875 19.0625 12.160156 19.183594 12.039062 C 19.304688 11.921875 19.363281 11.777344 19.363281 11.609375 L 19.363281 9.066406 Z M 24.074219 9.066406 L 24.074219 11.421875 C 24.078125 11.589844 24.140625 11.734375 24.261719 11.851562 C 24.382812 11.96875 24.527344 12.027344 24.695312 12.027344 C 24.863281 12.027344 25.007812 11.96875 25.128906 11.851562 C 25.246094 11.734375 25.308594 11.589844 25.3125 11.421875 L 25.3125 9.066406 Z M 24.074219 9.066406 L 24.074219 11.421875 C 24.078125 11.589844 24.140625 11.734375 24.261719 11.851562 C 24.382812 11.96875 24.527344 12.027344 24.695312 12.027344 C 24.863281 12.027344 25.007812 11.96875 25.128906 11.851562 C 25.246094 11.734375 25.308594 11.589844 25.3125 11.421875 L 25.3125 9.066406 Z M 18.132812 9.066406 L 18.132812 11.609375 C 18.136719 11.777344 18.195312 11.921875 18.316406 12.039062 C 18.4375 12.160156 18.582031 12.21875 18.75 12.21875 C 18.917969 12.21875 19.0625 12.160156 19.183594 12.039062 C 19.304688 11.921875 19.363281 11.777344 19.363281 11.609375 L 19.363281 9.066406 Z M 12.1875 9.066406 L 12.1875 11.421875 C 12.1875 11.589844 12.246094 11.738281 12.367188 11.859375 C 12.488281 11.980469 12.636719 12.039062 12.804688 12.039062 C 12.976562 12.039062 13.121094 11.980469 13.242188 11.859375 C 13.363281 11.738281 13.421875 11.589844 13.425781 11.421875 L 13.425781 9.066406 Z M 12.1875 9.066406 L 12.1875 11.421875 C 12.1875 11.589844 12.246094 11.738281 12.367188 11.859375 C 12.488281 11.980469 12.636719 12.039062 12.804688 12.039062 C 12.976562 12.039062 13.121094 11.980469 13.242188 11.859375 C 13.363281 11.738281 13.421875 11.589844 13.425781 11.421875 L 13.425781 9.066406 Z M 18.132812 9.066406 L 18.132812 11.609375 C 18.136719 11.777344 18.195312 11.921875 18.316406 12.039062 C 18.4375 12.160156 18.582031 12.21875 18.75 12.21875 C 18.917969 12.21875 19.0625 12.160156 19.183594 12.039062 C 19.304688 11.921875 19.363281 11.777344 19.363281 11.609375 L 19.363281 9.066406 Z M 24.074219 9.066406 L 24.074219 11.421875 C 24.078125 11.589844 24.140625 11.734375 24.261719 11.851562 C 24.382812 11.96875 24.527344 12.027344 24.695312 12.027344 C 24.863281 12.027344 25.007812 11.96875 25.128906 11.851562 C 25.246094 11.734375 25.308594 11.589844 25.3125 11.421875 L 25.3125 9.066406 Z M 24.074219 9.066406 L 24.074219 11.421875 C 24.078125 11.589844 24.140625 11.734375 24.261719 11.851562 C 24.382812 11.96875 24.527344 12.027344 24.695312 12.027344 C 24.863281 12.027344 25.007812 11.96875 25.128906 11.851562 C 25.246094 11.734375 25.308594 11.589844 25.3125 11.421875 L 25.3125 9.066406 Z M 18.132812 9.066406 L 18.132812 11.609375 C 18.136719 11.777344 18.195312 11.921875 18.316406 12.039062 C 18.4375 12.160156 18.582031 12.21875 18.75 12.21875 C 18.917969 12.21875 19.0625 12.160156 19.183594 12.039062 C 19.304688 11.921875 19.363281 11.777344 19.363281 11.609375 L 19.363281 9.066406 Z M 12.1875 9.066406 L 12.1875 11.421875 C 12.1875 11.589844 12.246094 11.738281 12.367188 11.859375 C 12.488281 11.980469 12.636719 12.039062 12.804688 12.039062 C 12.976562 12.039062 13.121094 11.980469 13.242188 11.859375 C 13.363281 11.738281 13.421875 11.589844 13.425781 11.421875 L 13.425781 9.066406 Z M 12.1875 9.066406 L 12.1875 11.421875 C 12.1875 11.589844 12.246094 11.738281 12.367188 11.859375 C 12.488281 11.980469 12.636719 12.039062 12.804688 12.039062 C 12.976562 12.039062 13.121094 11.980469 13.242188 11.859375 C 13.363281 11.738281 13.421875 11.589844 13.425781 11.421875 L 13.425781 9.066406 Z M 18.132812 9.066406 L 18.132812 11.609375 C 18.136719 11.777344 18.195312 11.921875 18.316406 12.039062 C 18.4375 12.160156 18.582031 12.21875 18.75 12.21875 C 18.917969 12.21875 19.0625 12.160156 19.183594 12.039062 C 19.304688 11.921875 19.363281 11.777344 19.363281 11.609375 L 19.363281 9.066406 Z M 24.074219 9.066406 L 24.074219 11.421875 C 24.078125 11.589844 24.140625 11.734375 24.261719 11.851562 C 24.382812 11.96875 24.527344 12.027344 24.695312 12.027344 C 24.863281 12.027344 25.007812 11.96875 25.128906 11.851562 C 25.246094 11.734375 25.308594 11.589844 25.3125 11.421875 L 25.3125 9.066406 Z M 24.074219 9.066406 L 24.074219 11.421875 C 24.078125 11.589844 24.140625 11.734375 24.261719 11.851562 C 24.382812 11.96875 24.527344 12.027344 24.695312 12.027344 C 24.863281 12.027344 25.007812 11.96875 25.128906 11.851562 C 25.246094 11.734375 25.308594 11.589844 25.3125 11.421875 L 25.3125 9.066406 Z M 18.132812 9.066406 L 18.132812 11.609375 C 18.136719 11.777344 18.195312 11.921875 18.316406 12.039062 C 18.4375 12.160156 18.582031 12.21875 18.75 12.21875 C 18.917969 12.21875 19.0625 12.160156 19.183594 12.039062 C 19.304688 11.921875 19.363281 11.777344 19.363281 11.609375 L 19.363281 9.066406 Z M 12.1875 9.066406 L 12.1875 11.421875 C 12.1875 11.589844 12.246094 11.738281 12.367188 11.859375 C 12.488281 11.980469 12.636719 12.039062 12.804688 12.039062 C 12.976562 12.039062 13.121094 11.980469 13.242188 11.859375 C 13.363281 11.738281 13.421875 11.589844 13.425781 11.421875 L 13.425781 9.066406 Z M 12.1875 9.066406 L 12.1875 11.421875 C 12.1875 11.589844 12.246094 11.738281 12.367188 11.859375 C 12.488281 11.980469 12.636719 12.039062 12.804688 12.039062 C 12.976562 12.039062 13.121094 11.980469 13.242188 11.859375 C 13.363281 11.738281 13.421875 11.589844 13.425781 11.421875 L 13.425781 9.066406 Z M 18.132812 9.066406 L 18.132812 11.609375 C 18.136719 11.777344 18.195312 11.921875 18.316406 12.039062 C 18.4375 12.160156 18.582031 12.21875 18.75 12.21875 C 18.917969 12.21875 19.0625 12.160156 19.183594 12.039062 C 19.304688 11.921875 19.363281 11.777344 19.363281 11.609375 L 19.363281 9.066406 Z M 24.074219 9.066406 L 24.074219 11.421875 C 24.078125 11.589844 24.140625 11.734375 24.261719 11.851562 C 24.382812 11.96875 24.527344 12.027344 24.695312 12.027344 C 24.863281 12.027344 25.007812 11.96875 25.128906 11.851562 C 25.246094 11.734375 25.308594 11.589844 25.3125 11.421875 L 25.3125 9.066406 Z M 24.074219 9.066406 L 24.074219 11.421875 C 24.078125 11.589844 24.140625 11.734375 24.261719 11.851562 C 24.382812 11.96875 24.527344 12.027344 24.695312 12.027344 C 24.863281 12.027344 25.007812 11.96875 25.128906 11.851562 C 25.246094 11.734375 25.308594 11.589844 25.3125 11.421875 L 25.3125 9.066406 Z M 18.132812 9.066406 L 18.132812 11.609375 C 18.136719 11.777344 18.195312 11.921875 18.316406 12.039062 C 18.4375 12.160156 18.582031 12.21875 18.75 12.21875 C 18.917969 12.21875 19.0625 12.160156 19.183594 12.039062 C 19.304688 11.921875 19.363281 11.777344 19.363281 11.609375 L 19.363281 9.066406 Z M 12.1875 9.066406 L 12.1875 11.421875 C 12.1875 11.589844 12.246094 11.738281 12.367188 11.859375 C 12.488281 11.980469 12.636719 12.039062 12.804688 12.039062 C 12.976562 12.039062 13.121094 11.980469 13.242188 11.859375 C 13.363281 11.738281 13.421875 11.589844 13.425781 11.421875 L 13.425781 9.066406 Z M 12.1875 9.066406 L 12.1875 11.421875 C 12.1875 11.589844 12.246094 11.738281 12.367188 11.859375 C 12.488281 11.980469 12.636719 12.039062 12.804688 12.039062 C 12.976562 12.039062 13.121094 11.980469 13.242188 11.859375 C 13.363281 11.738281 13.421875 11.589844 13.425781 11.421875 L 13.425781 9.066406 Z M 18.132812 9.066406 L 18.132812 11.609375 C 18.136719 11.777344 18.195312 11.921875 18.316406 12.039062 C 18.4375 12.160156 18.582031 12.21875 18.75 12.21875 C 18.917969 12.21875 19.0625 12.160156 19.183594 12.039062 C 19.304688 11.921875 19.363281 11.777344 19.363281 11.609375 L 19.363281 9.066406 Z M 24.074219 9.066406 L 24.074219 11.421875 C 24.078125 11.589844 24.140625 11.734375 24.261719 11.851562 C 24.382812 11.96875 24.527344 12.027344 24.695312 12.027344 C 24.863281 12.027344 25.007812 11.96875 25.128906 11.851562 C 25.246094 11.734375 25.308594 11.589844 25.3125 11.421875 L 25.3125 9.066406 Z M 24.074219 9.066406 L 24.074219 11.421875 C 24.078125 11.589844 24.140625 11.734375 24.261719 11.851562 C 24.382812 11.96875 24.527344 12.027344 24.695312 12.027344 C 24.863281 12.027344 25.007812 11.96875 25.128906 11.851562 C 25.246094 11.734375 25.308594 11.589844 25.3125 11.421875 L 25.3125 9.066406 Z M 18.132812 9.066406 L 18.132812 11.609375 C 18.136719 11.777344 18.195312 11.921875 18.316406 12.039062 C 18.4375 12.160156 18.582031 12.21875 18.75 12.21875 C 18.917969 12.21875 19.0625 12.160156 19.183594 12.039062 C 19.304688 11.921875 19.363281 11.777344 19.363281 11.609375 L 19.363281 9.066406 Z M 12.1875 9.066406 L 12.1875 11.421875 C 12.1875 11.589844 12.246094 11.738281 12.367188 11.859375 C 12.488281 11.980469 12.636719 12.039062 12.804688 12.039062 C 12.976562 12.039062 13.121094 11.980469 13.242188 11.859375 C 13.363281 11.738281 13.421875 11.589844 13.425781 11.421875 L 13.425781 9.066406 Z M 12.1875 9.066406 L 12.1875 11.421875 C 12.1875 11.589844 12.246094 11.738281 12.367188 11.859375 C 12.488281 11.980469 12.636719 12.039062 12.804688 12.039062 C 12.976562 12.039062 13.121094 11.980469 13.242188 11.859375 C 13.363281 11.738281 13.421875 11.589844 13.425781 11.421875 L 13.425781 9.066406 Z M 18.132812 9.066406 L 18.132812 11.609375 C 18.136719 11.777344 18.195312 11.921875 18.316406 12.039062 C 18.4375 12.160156 18.582031 12.21875 18.75 12.21875 C 18.917969 12.21875 19.0625 12.160156 19.183594 12.039062 C 19.304688 11.921875 19.363281 11.777344 19.363281 11.609375 L 19.363281 9.066406 Z M 24.074219 9.066406 L 24.074219 11.421875 C 24.078125 11.589844 24.140625 11.734375 24.261719 11.851562 C 24.382812 11.96875 24.527344 12.027344 24.695312 12.027344 C 24.863281 12.027344 25.007812 11.96875 25.128906 11.851562 C 25.246094 11.734375 25.308594 11.589844 25.3125 11.421875 L 25.3125 9.066406 Z M 24.074219 9.066406 L 24.074219 11.421875 C 24.078125 11.589844 24.140625 11.734375 24.261719 11.851562 C 24.382812 11.96875 24.527344 12.027344 24.695312 12.027344 C 24.863281 12.027344 25.007812 11.96875 25.128906 11.851562 C 25.246094 11.734375 25.308594 11.589844 25.3125 11.421875 L 25.3125 9.066406 Z M 18.132812 9.066406 L 18.132812 11.609375 C 18.136719 11.777344 18.195312 11.921875 18.316406 12.039062 C 18.4375 12.160156 18.582031 12.21875 18.75 12.21875 C 18.917969 12.21875 19.0625 12.160156 19.183594 12.039062 C 19.304688 11.921875 19.363281 11.777344 19.363281 11.609375 L 19.363281 9.066406 Z M 12.1875 9.066406 L 12.1875 11.421875 C 12.1875 11.589844 12.246094 11.738281 12.367188 11.859375 C 12.488281 11.980469 12.636719 12.039062 12.804688 12.039062 C 12.976562 12.039062 13.121094 11.980469 13.242188 11.859375 C 13.363281 11.738281 13.421875 11.589844 13.425781 11.421875 L 13.425781 9.066406 Z M 12.1875 9.066406 L 12.1875 11.421875 C 12.1875 11.589844 12.246094 11.738281 12.367188 11.859375 C 12.488281 11.980469 12.636719 12.039062 12.804688 12.039062 C 12.976562 12.039062 13.121094 11.980469 13.242188 11.859375 C 13.363281 11.738281 13.421875 11.589844 13.425781 11.421875 L 13.425781 9.066406 Z M 18.132812 9.066406 L 18.132812 11.609375 C 18.136719 11.777344 18.195312 11.921875 18.316406 12.039062 C 18.4375 12.160156 18.582031 12.21875 18.75 12.21875 C 18.917969 12.21875 19.0625 12.160156 19.183594 12.039062 C 19.304688 11.921875 19.363281 11.777344 19.363281 11.609375 L 19.363281 9.066406 Z M 24.074219 9.066406 L 24.074219 11.421875 C 24.078125 11.589844 24.140625 11.734375 24.261719 11.851562 C 24.382812 11.96875 24.527344 12.027344 24.695312 12.027344 C 24.863281 12.027344 25.007812 11.96875 25.128906 11.851562 C 25.246094 11.734375 25.308594 11.589844 25.3125 11.421875 L 25.3125 9.066406 Z M 24.074219 9.066406 L 24.074219 11.421875 C 24.078125 11.589844 24.140625 11.734375 24.261719 11.851562 C 24.382812 11.96875 24.527344 12.027344 24.695312 12.027344 C 24.863281 12.027344 25.007812 11.96875 25.128906 11.851562 C 25.246094 11.734375 25.308594 11.589844 25.3125 11.421875 L 25.3125 9.066406 Z M 18.132812 9.066406 L 18.132812 11.609375 C 18.136719 11.777344 18.195312 11.921875 18.316406 12.039062 C 18.4375 12.160156 18.582031 12.21875 18.75 12.21875 C 18.917969 12.21875 19.0625 12.160156 19.183594 12.039062 C 19.304688 11.921875 19.363281 11.777344 19.363281 11.609375 L 19.363281 9.066406 Z M 12.1875 9.066406 L 12.1875 11.421875 C 12.1875 11.589844 12.246094 11.738281 12.367188 11.859375 C 12.488281 11.980469 12.636719 12.039062 12.804688 12.039062 C 12.976562 12.039062 13.121094 11.980469 13.242188 11.859375 C 13.363281 11.738281 13.421875 11.589844 13.425781 11.421875 L 13.425781 9.066406 Z M 12.1875 9.066406 L 12.1875 11.421875 C 12.1875 11.589844 12.246094 11.738281 12.367188 11.859375 C 12.488281 11.980469 12.636719 12.039062 12.804688 12.039062 C 12.976562 12.039062 13.121094 11.980469 13.242188 11.859375 C 13.363281 11.738281 13.421875 11.589844 13.425781 11.421875 L 13.425781 9.066406 Z M 18.132812 9.066406 L 18.132812 11.609375 C 18.136719 11.777344 18.195312 11.921875 18.316406 12.039062 C 18.4375 12.160156 18.582031 12.21875 18.75 12.21875 C 18.917969 12.21875 19.0625 12.160156 19.183594 12.039062 C 19.304688 11.921875 19.363281 11.777344 19.363281 11.609375 L 19.363281 9.066406 Z M 24.074219 9.066406 L 24.074219 11.421875 C 24.078125 11.589844 24.140625 11.734375 24.261719 11.851562 C 24.382812 11.96875 24.527344 12.027344 24.695312 12.027344 C 24.863281 12.027344 25.007812 11.96875 25.128906 11.851562 C 25.246094 11.734375 25.308594 11.589844 25.3125 11.421875 L 25.3125 9.066406 Z M 24.074219 9.066406 L 24.074219 11.421875 C 24.078125 11.589844 24.140625 11.734375 24.261719 11.851562 C 24.382812 11.96875 24.527344 12.027344 24.695312 12.027344 C 24.863281 12.027344 25.007812 11.96875 25.128906 11.851562 C 25.246094 11.734375 25.308594 11.589844 25.3125 11.421875 L 25.3125 9.066406 Z M 18.132812 9.066406 L 18.132812 11.609375 C 18.136719 11.777344 18.195312 11.921875 18.316406 12.039062 C 18.4375 12.160156 18.582031 12.21875 18.75 12.21875 C 18.917969 12.21875 19.0625 12.160156 19.183594 12.039062 C 19.304688 11.921875 19.363281 11.777344 19.363281 11.609375 L 19.363281 9.066406 Z M 12.1875 9.066406 L 12.1875 11.421875 C 12.1875 11.589844 12.246094 11.738281 12.367188 11.859375 C 12.488281 11.980469 12.636719 12.039062 12.804688 12.039062 C 12.976562 12.039062 13.121094 11.980469 13.242188 11.859375 C 13.363281 11.738281 13.421875 11.589844 13.425781 11.421875 L 13.425781 9.066406 Z M 12.1875 9.066406 L 12.1875 11.421875 C 12.1875 11.589844 12.246094 11.738281 12.367188 11.859375 C 12.488281 11.980469 12.636719 12.039062 12.804688 12.039062 C 12.976562 12.039062 13.121094 11.980469 13.242188 11.859375 C 13.363281 11.738281 13.421875 11.589844 13.425781 11.421875 L 13.425781 9.066406 Z M 18.132812 9.066406 L 18.132812 11.609375 C 18.136719 11.777344 18.195312 11.921875 18.316406 12.039062 C 18.4375 12.160156 18.582031 12.21875 18.75 12.21875 C 18.917969 12.21875 19.0625 12.160156 19.183594 12.039062 C 19.304688 11.921875 19.363281 11.777344 19.363281 11.609375 L 19.363281 9.066406 Z M 24.074219 9.066406 L 24.074219 11.421875 C 24.078125 11.589844 24.140625 11.734375 24.261719 11.851562 C 24.382812 11.96875 24.527344 12.027344 24.695312 12.027344 C 24.863281 12.027344 25.007812 11.96875 25.128906 11.851562 C 25.246094 11.734375 25.308594 11.589844 25.3125 11.421875 L 25.3125 9.066406 Z M 24.074219 9.066406 L 24.074219 11.421875 C 24.078125 11.589844 24.140625 11.734375 24.261719 11.851562 C 24.382812 11.96875 24.527344 12.027344 24.695312 12.027344 C 24.863281 12.027344 25.007812 11.96875 25.128906 11.851562 C 25.246094 11.734375 25.308594 11.589844 25.3125 11.421875 L 25.3125 9.066406 Z M 18.132812 9.066406 L 18.132812 11.609375 C 18.136719 11.777344 18.195312 11.921875 18.316406 12.039062 C 18.4375 12.160156 18.582031 12.21875 18.75 12.21875 C 18.917969 12.21875 19.0625 12.160156 19.183594 12.039062 C 19.304688 11.921875 19.363281 11.777344 19.363281 11.609375 L 19.363281 9.066406 Z M 12.1875 9.066406 L 12.1875 11.421875 C 12.1875 11.589844 12.246094 11.738281 12.367188 11.859375 C 12.488281 11.980469 12.636719 12.039062 12.804688 12.039062 C 12.976562 12.039062 13.121094 11.980469 13.242188 11.859375 C 13.363281 11.738281 13.421875 11.589844 13.425781 11.421875 L 13.425781 9.066406 Z M 12.1875 9.066406 L 12.1875 11.421875 C 12.1875 11.589844 12.246094 11.738281 12.367188 11.859375 C 12.488281 11.980469 12.636719 12.039062 12.804688 12.039062 C 12.976562 12.039062 13.121094 11.980469 13.242188 11.859375 C 13.363281 11.738281 13.421875 11.589844 13.425781 11.421875 L 13.425781 9.066406 Z M 18.132812 9.066406 L 18.132812 11.609375 C 18.136719 11.777344 18.195312 11.921875 18.316406 12.039062 C 18.4375 12.160156 18.582031 12.21875 18.75 12.21875 C 18.917969 12.21875 19.0625 12.160156 19.183594 12.039062 C 19.304688 11.921875 19.363281 11.777344 19.363281 11.609375 L 19.363281 9.066406 Z M 24.074219 9.066406 L 24.074219 11.421875 C 24.078125 11.589844 24.140625 11.734375 24.261719 11.851562 C 24.382812 11.96875 24.527344 12.027344 24.695312 12.027344 C 24.863281 12.027344 25.007812 11.96875 25.128906 11.851562 C 25.246094 11.734375 25.308594 11.589844 25.3125 11.421875 L 25.3125 9.066406 Z M 24.074219 9.066406 L 24.074219 11.421875 C 24.078125 11.589844 24.140625 11.734375 24.261719 11.851562 C 24.382812 11.96875 24.527344 12.027344 24.695312 12.027344 C 24.863281 12.027344 25.007812 11.96875 25.128906 11.851562 C 25.246094 11.734375 25.308594 11.589844 25.3125 11.421875 L 25.3125 9.066406 Z M 18.132812 9.066406 L 18.132812 11.609375 C 18.136719 11.777344 18.195312 11.921875 18.316406 12.039062 C 18.4375 12.160156 18.582031 12.21875 18.75 12.21875 C 18.917969 12.21875 19.0625 12.160156 19.183594 12.039062 C 19.304688 11.921875 19.363281 11.777344 19.363281 11.609375 L 19.363281 9.066406 Z M 12.1875 9.066406 L 12.1875 11.421875 C 12.1875 11.589844 12.246094 11.738281 12.367188 11.859375 C 12.488281 11.980469 12.636719 12.039062 12.804688 12.039062 C 12.976562 12.039062 13.121094 11.980469 13.242188 11.859375 C 13.363281 11.738281 13.421875 11.589844 13.425781 11.421875 L 13.425781 9.066406 Z M 12.1875 9.066406 L 12.1875 11.421875 C 12.1875 11.589844 12.246094 11.738281 12.367188 11.859375 C 12.488281 11.980469 12.636719 12.039062 12.804688 12.039062 C 12.976562 12.039062 13.121094 11.980469 13.242188 11.859375 C 13.363281 11.738281 13.421875 11.589844 13.425781 11.421875 L 13.425781 9.066406 Z M 18.132812 9.066406 L 18.132812 11.609375 C 18.136719 11.777344 18.195312 11.921875 18.316406 12.039062 C 18.4375 12.160156 18.582031 12.21875 18.75 12.21875 C 18.917969 12.21875 19.0625 12.160156 19.183594 12.039062 C 19.304688 11.921875 19.363281 11.777344 19.363281 11.609375 L 19.363281 9.066406 Z M 24.074219 9.066406 L 24.074219 11.421875 C 24.078125 11.589844 24.140625 11.734375 24.261719 11.851562 C 24.382812 11.96875 24.527344 12.027344 24.695312 12.027344 C 24.863281 12.027344 25.007812 11.96875 25.128906 11.851562 C 25.246094 11.734375 25.308594 11.589844 25.3125 11.421875 L 25.3125 9.066406 Z M 24.074219 9.066406 L 24.074219 11.421875 C 24.078125 11.589844 24.140625 11.734375 24.261719 11.851562 C 24.382812 11.96875 24.527344 12.027344 24.695312 12.027344 C 24.863281 12.027344 25.007812 11.96875 25.128906 11.851562 C 25.246094 11.734375 25.308594 11.589844 25.3125 11.421875 L 25.3125 9.066406 Z M 18.132812 9.066406 L 18.132812 11.609375 C 18.136719 11.777344 18.195312 11.921875 18.316406 12.039062 C 18.4375 12.160156 18.582031 12.21875 18.75 12.21875 C 18.917969 12.21875 19.0625 12.160156 19.183594 12.039062 C 19.304688 11.921875 19.363281 11.777344 19.363281 11.609375 L 19.363281 9.066406 Z M 12.1875 9.066406 L 12.1875 11.421875 C 12.1875 11.589844 12.246094 11.738281 12.367188 11.859375 C 12.488281 11.980469 12.636719 12.039062 12.804688 12.039062 C 12.976562 12.039062 13.121094 11.980469 13.242188 11.859375 C 13.363281 11.738281 13.421875 11.589844 13.425781 11.421875 L 13.425781 9.066406 Z M 12.1875 9.066406 L 12.1875 11.421875 C 12.1875 11.589844 12.246094 11.738281 12.367188 11.859375 C 12.488281 11.980469 12.636719 12.039062 12.804688 12.039062 C 12.976562 12.039062 13.121094 11.980469 13.242188 11.859375 C 13.363281 11.738281 13.421875 11.589844 13.425781 11.421875 L 13.425781 9.066406 Z M 18.132812 9.066406 L 18.132812 11.609375 C 18.136719 11.777344 18.195312 11.921875 18.316406 12.039062 C 18.4375 12.160156 18.582031 12.21875 18.75 12.21875 C 18.917969 12.21875 19.0625 12.160156 19.183594 12.039062 C 19.304688 11.921875 19.363281 11.777344 19.363281 11.609375 L 19.363281 9.066406 Z M 24.074219 9.066406 L 24.074219 11.421875 C 24.078125 11.589844 24.140625 11.734375 24.261719 11.851562 C 24.382812 11.96875 24.527344 12.027344 24.695312 12.027344 C 24.863281 12.027344 25.007812 11.96875 25.128906 11.851562 C 25.246094 11.734375 25.308594 11.589844 25.3125 11.421875 L 25.3125 9.066406 Z M 24.074219 9.066406 L 24.074219 11.421875 C 24.078125 11.589844 24.140625 11.734375 24.261719 11.851562 C 24.382812 11.96875 24.527344 12.027344 24.695312 12.027344 C 24.863281 12.027344 25.007812 11.96875 25.128906 11.851562 C 25.246094 11.734375 25.308594 11.589844 25.3125 11.421875 L 25.3125 9.066406 Z M 18.132812 9.066406 L 18.132812 11.609375 C 18.136719 11.777344 18.195312 11.921875 18.316406 12.039062 C 18.4375 12.160156 18.582031 12.21875 18.75 12.21875 C 18.917969 12.21875 19.0625 12.160156 19.183594 12.039062 C 19.304688 11.921875 19.363281 11.777344 19.363281 11.609375 L 19.363281 9.066406 Z M 12.1875 9.066406 L 12.1875 11.421875 C 12.1875 11.589844 12.246094 11.738281 12.367188 11.859375 C 12.488281 11.980469 12.636719 12.039062 12.804688 12.039062 C 12.976562 12.039062 13.121094 11.980469 13.242188 11.859375 C 13.363281 11.738281 13.421875 11.589844 13.425781 11.421875 L 13.425781 9.066406 Z M 12.1875 9.066406 L 12.1875 11.421875 C 12.1875 11.589844 12.246094 11.738281 12.367188 11.859375 C 12.488281 11.980469 12.636719 12.039062 12.804688 12.039062 C 12.976562 12.039062 13.121094 11.980469 13.242188 11.859375 C 13.363281 11.738281 13.421875 11.589844 13.425781 11.421875 L 13.425781 9.066406 Z M 18.132812 9.066406 L 18.132812 11.609375 C 18.136719 11.777344 18.195312 11.921875 18.316406 12.039062 C 18.4375 12.160156 18.582031 12.21875 18.75 12.21875 C 18.917969 12.21875 19.0625 12.160156 19.183594 12.039062 C 19.304688 11.921875 19.363281 11.777344 19.363281 11.609375 L 19.363281 9.066406 Z M 24.074219 9.066406 L 24.074219 11.421875 C 24.078125 11.589844 24.140625 11.734375 24.261719 11.851562 C 24.382812 11.96875 24.527344 12.027344 24.695312 12.027344 C 24.863281 12.027344 25.007812 11.96875 25.128906 11.851562 C 25.246094 11.734375 25.308594 11.589844 25.3125 11.421875 L 25.3125 9.066406 Z M 24.074219 9.066406 L 24.074219 11.421875 C 24.078125 11.589844 24.140625 11.734375 24.261719 11.851562 C 24.382812 11.96875 24.527344 12.027344 24.695312 12.027344 C 24.863281 12.027344 25.007812 11.96875 25.128906 11.851562 C 25.246094 11.734375 25.308594 11.589844 25.3125 11.421875 L 25.3125 9.066406 Z M 18.132812 9.066406 L 18.132812 11.609375 C 18.136719 11.777344 18.195312 11.921875 18.316406 12.039062 C 18.4375 12.160156 18.582031 12.21875 18.75 12.21875 C 18.917969 12.21875 19.0625 12.160156 19.183594 12.039062 C 19.304688 11.921875 19.363281 11.777344 19.363281 11.609375 L 19.363281 9.066406 Z M 12.1875 9.066406 L 12.1875 11.421875 C 12.1875 11.589844 12.246094 11.738281 12.367188 11.859375 C 12.488281 11.980469 12.636719 12.039062 12.804688 12.039062 C 12.976562 12.039062 13.121094 11.980469 13.242188 11.859375 C 13.363281 11.738281 13.421875 11.589844 13.425781 11.421875 L 13.425781 9.066406 Z M 12.1875 9.066406 L 12.1875 11.421875 C 12.1875 11.589844 12.246094 11.738281 12.367188 11.859375 C 12.488281 11.980469 12.636719 12.039062 12.804688 12.039062 C 12.976562 12.039062 13.121094 11.980469 13.242188 11.859375 C 13.363281 11.738281 13.421875 11.589844 13.425781 11.421875 L 13.425781 9.066406 Z M 18.132812 9.066406 L 18.132812 11.609375 C 18.136719 11.777344 18.195312 11.921875 18.316406 12.039062 C 18.4375 12.160156 18.582031 12.21875 18.75 12.21875 C 18.917969 12.21875 19.0625 12.160156 19.183594 12.039062 C 19.304688 11.921875 19.363281 11.777344 19.363281 11.609375 L 19.363281 9.066406 Z M 24.074219 9.066406 L 24.074219 11.421875 C 24.078125 11.589844 24.140625 11.734375 24.261719 11.851562 C 24.382812 11.96875 24.527344 12.027344 24.695312 12.027344 C 24.863281 12.027344 25.007812 11.96875 25.128906 11.851562 C 25.246094 11.734375 25.308594 11.589844 25.3125 11.421875 L 25.3125 9.066406 Z M 24.074219 9.066406 L 24.074219 11.421875 C 24.078125 11.589844 24.140625 11.734375 24.261719 11.851562 C 24.382812 11.96875 24.527344 12.027344 24.695312 12.027344 C 24.863281 12.027344 25.007812 11.96875 25.128906 11.851562 C 25.246094 11.734375 25.308594 11.589844 25.3125 11.421875 L 25.3125 9.066406 Z M 18.132812 9.066406 L 18.132812 11.609375 C 18.136719 11.777344 18.195312 11.921875 18.316406 12.039062 C 18.4375 12.160156 18.582031 12.21875 18.75 12.21875 C 18.917969 12.21875 19.0625 12.160156 19.183594 12.039062 C 19.304688 11.921875 19.363281 11.777344 19.363281 11.609375 L 19.363281 9.066406 Z M 12.1875 9.066406 L 12.1875 11.421875 C 12.1875 11.589844 12.246094 11.738281 12.367188 11.859375 C 12.488281 11.980469 12.636719 12.039062 12.804688 12.039062 C 12.976562 12.039062 13.121094 11.980469 13.242188 11.859375 C 13.363281 11.738281 13.421875 11.589844 13.425781 11.421875 L 13.425781 9.066406 Z M 12.1875 9.066406 L 12.1875 11.421875 C 12.1875 11.589844 12.246094 11.738281 12.367188 11.859375 C 12.488281 11.980469 12.636719 12.039062 12.804688 12.039062 C 12.976562 12.039062 13.121094 11.980469 13.242188 11.859375 C 13.363281 11.738281 13.421875 11.589844 13.425781 11.421875 L 13.425781 9.066406 Z M 18.132812 9.066406 L 18.132812 11.609375 C 18.136719 11.777344 18.195312 11.921875 18.316406 12.039062 C 18.4375 12.160156 18.582031 12.21875 18.75 12.21875 C 18.917969 12.21875 19.0625 12.160156 19.183594 12.039062 C 19.304688 11.921875 19.363281 11.777344 19.363281 11.609375 L 19.363281 9.066406 Z M 24.074219 9.066406 L 24.074219 11.421875 C 24.078125 11.589844 24.140625 11.734375 24.261719 11.851562 C 24.382812 11.96875 24.527344 12.027344 24.695312 12.027344 C 24.863281 12.027344 25.007812 11.96875 25.128906 11.851562 C 25.246094 11.734375 25.308594 11.589844 25.3125 11.421875 L 25.3125 9.066406 Z M 24.074219 9.066406 L 24.074219 11.421875 C 24.078125 11.589844 24.140625 11.734375 24.261719 11.851562 C 24.382812 11.96875 24.527344 12.027344 24.695312 12.027344 C 24.863281 12.027344 25.007812 11.96875 25.128906 11.851562 C 25.246094 11.734375 25.308594 11.589844 25.3125 11.421875 L 25.3125 9.066406 Z M 18.132812 9.066406 L 18.132812 11.609375 C 18.136719 11.777344 18.195312 11.921875 18.316406 12.039062 C 18.4375 12.160156 18.582031 12.21875 18.75 12.21875 C 18.917969 12.21875 19.0625 12.160156 19.183594 12.039062 C 19.304688 11.921875 19.363281 11.777344 19.363281 11.609375 L 19.363281 9.066406 Z M 12.1875 9.066406 L 12.1875 11.421875 C 12.1875 11.589844 12.246094 11.738281 12.367188 11.859375 C 12.488281 11.980469 12.636719 12.039062 12.804688 12.039062 C 12.976562 12.039062 13.121094 11.980469 13.242188 11.859375 C 13.363281 11.738281 13.421875 11.589844 13.425781 11.421875 L 13.425781 9.066406 Z M 12.1875 9.066406 L 12.1875 11.421875 C 12.1875 11.589844 12.246094 11.738281 12.367188 11.859375 C 12.488281 11.980469 12.636719 12.039062 12.804688 12.039062 C 12.976562 12.039062 13.121094 11.980469 13.242188 11.859375 C 13.363281 11.738281 13.421875 11.589844 13.425781 11.421875 L 13.425781 9.066406 Z M 18.132812 9.066406 L 18.132812 11.609375 C 18.136719 11.777344 18.195312 11.921875 18.316406 12.039062 C 18.4375 12.160156 18.582031 12.21875 18.75 12.21875 C 18.917969 12.21875 19.0625 12.160156 19.183594 12.039062 C 19.304688 11.921875 19.363281 11.777344 19.363281 11.609375 L 19.363281 9.066406 Z M 24.074219 9.066406 L 24.074219 11.421875 C 24.078125 11.589844 24.140625 11.734375 24.261719 11.851562 C 24.382812 11.96875 24.527344 12.027344 24.695312 12.027344 C 24.863281 12.027344 25.007812 11.96875 25.128906 11.851562 C 25.246094 11.734375 25.308594 11.589844 25.3125 11.421875 L 25.3125 9.066406 Z M 24.074219 9.066406 L 24.074219 11.421875 C 24.078125 11.589844 24.140625 11.734375 24.261719 11.851562 C 24.382812 11.96875 24.527344 12.027344 24.695312 12.027344 C 24.863281 12.027344 25.007812 11.96875 25.128906 11.851562 C 25.246094 11.734375 25.308594 11.589844 25.3125 11.421875 L 25.3125 9.066406 Z M 18.132812 9.066406 L 18.132812 11.609375 C 18.136719 11.777344 18.195312 11.921875 18.316406 12.039062 C 18.4375 12.160156 18.582031 12.21875 18.75 12.21875 C 18.917969 12.21875 19.0625 12.160156 19.183594 12.039062 C 19.304688 11.921875 19.363281 11.777344 19.363281 11.609375 L 19.363281 9.066406 Z M 12.1875 9.066406 L 12.1875 11.421875 C 12.1875 11.589844 12.246094 11.738281 12.367188 11.859375 C 12.488281 11.980469 12.636719 12.039062 12.804688 12.039062 C 12.976562 12.039062 13.121094 11.980469 13.242188 11.859375 C 13.363281 11.738281 13.421875 11.589844 13.425781 11.421875 L 13.425781 9.066406 Z M 12.1875 9.066406 L 12.1875 11.421875 C 12.1875 11.589844 12.246094 11.738281 12.367188 11.859375 C 12.488281 11.980469 12.636719 12.039062 12.804688 12.039062 C 12.976562 12.039062 13.121094 11.980469 13.242188 11.859375 C 13.363281 11.738281 13.421875 11.589844 13.425781 11.421875 L 13.425781 9.066406 Z M 18.132812 9.066406 L 18.132812 11.609375 C 18.136719 11.777344 18.195312 11.921875 18.316406 12.039062 C 18.4375 12.160156 18.582031 12.21875 18.75 12.21875 C 18.917969 12.21875 19.0625 12.160156 19.183594 12.039062 C 19.304688 11.921875 19.363281 11.777344 19.363281 11.609375 L 19.363281 9.066406 Z M 24.074219 9.066406 L 24.074219 11.421875 C 24.078125 11.589844 24.140625 11.734375 24.261719 11.851562 C 24.382812 11.96875 24.527344 12.027344 24.695312 12.027344 C 24.863281 12.027344 25.007812 11.96875 25.128906 11.851562 C 25.246094 11.734375 25.308594 11.589844 25.3125 11.421875 L 25.3125 9.066406 Z M 24.074219 9.066406 L 24.074219 11.421875 C 24.078125 11.589844 24.140625 11.734375 24.261719 11.851562 C 24.382812 11.96875 24.527344 12.027344 24.695312 12.027344 C 24.863281 12.027344 25.007812 11.96875 25.128906 11.851562 C 25.246094 11.734375 25.308594 11.589844 25.3125 11.421875 L 25.3125 9.066406 Z M 24.074219 9.066406 " fill-opacity="1" fill-rule="nonzero"/></g></svg>