<svg xmlns="http://www.w3.org/2000/svg" xmlns:xlink="http://www.w3.org/1999/xlink" width="100" zoomAndPan="magnify" viewBox="0 0 75 74.999997" height="100" preserveAspectRatio="xMidYMid meet" version="1.0"><defs><clipPath id="b0f3926321"><path d="M 0.113281 0 L 75 0 L 75 74.886719 L 0.113281 74.886719 Z M 0.113281 0 " clip-rule="nonzero"/></clipPath><clipPath id="1875d1d6bf"><path d="M 75 37.445312 C 75 58.121094 58.234375 74.886719 37.554688 74.886719 C 16.875 74.886719 0.113281 58.121094 0.113281 37.445312 C 0.113281 16.765625 16.875 0 37.554688 0 C 58.234375 0 75 16.765625 75 37.445312 Z M 75 37.445312 " clip-rule="nonzero"/></clipPath><radialGradient gradientTransform="matrix(1, 0, 0, 1, 0.112307, -0.000001)" gradientUnits="userSpaceOnUse" r="52.952764" cx="37.443845" id="6c72c4a547" cy="37.442675" fx="37.443845" fy="37.442675"><stop stop-opacity="1" stop-color="rgb(86.399841%, 7.817078%, 29.823303%)" offset="0"/><stop stop-opacity="1" stop-color="rgb(86.676025%, 7.868958%, 29.890442%)" offset="0.015625"/><stop stop-opacity="1" stop-color="rgb(87.030029%, 7.93457%, 29.974365%)" offset="0.0429688"/><stop stop-opacity="1" stop-color="rgb(87.382507%, 8.000183%, 30.059814%)" offset="0.0703125"/><stop stop-opacity="1" stop-color="rgb(87.734985%, 8.065796%, 30.143738%)" offset="0.0976562"/><stop stop-opacity="1" stop-color="rgb(88.087463%, 8.131409%, 30.229187%)" offset="0.125"/><stop stop-opacity="1" stop-color="rgb(88.415527%, 8.192444%, 30.307007%)" offset="0.152344"/><stop stop-opacity="1" stop-color="rgb(88.717651%, 8.248901%, 30.380249%)" offset="0.175781"/><stop stop-opacity="1" stop-color="rgb(89.019775%, 8.305359%, 30.453491%)" offset="0.199219"/><stop stop-opacity="1" stop-color="rgb(89.321899%, 8.361816%, 30.525208%)" offset="0.222656"/><stop stop-opacity="1" stop-color="rgb(89.625549%, 8.416748%, 30.59845%)" offset="0.246094"/><stop stop-opacity="1" stop-color="rgb(89.901733%, 8.468628%, 30.664062%)" offset="0.269531"/><stop stop-opacity="1" stop-color="rgb(90.153503%, 8.51593%, 30.725098%)" offset="0.289062"/><stop stop-opacity="1" stop-color="rgb(90.405273%, 8.563232%, 30.786133%)" offset="0.308594"/><stop stop-opacity="1" stop-color="rgb(90.657043%, 8.609009%, 30.847168%)" offset="0.328125"/><stop stop-opacity="1" stop-color="rgb(90.908813%, 8.656311%, 30.906677%)" offset="0.347656"/><stop stop-opacity="1" stop-color="rgb(91.160583%, 8.703613%, 30.967712%)" offset="0.367188"/><stop stop-opacity="1" stop-color="rgb(91.387939%, 8.746338%, 31.022644%)" offset="0.386719"/><stop stop-opacity="1" stop-color="rgb(91.590881%, 8.782959%, 31.069946%)" offset="0.402344"/><stop stop-opacity="1" stop-color="rgb(91.792297%, 8.821106%, 31.118774%)" offset="0.417969"/><stop stop-opacity="1" stop-color="rgb(91.993713%, 8.857727%, 31.167603%)" offset="0.433594"/><stop stop-opacity="1" stop-color="rgb(92.195129%, 8.895874%, 31.216431%)" offset="0.449219"/><stop stop-opacity="1" stop-color="rgb(92.396545%, 8.932495%, 31.263733%)" offset="0.464844"/><stop stop-opacity="1" stop-color="rgb(92.597961%, 8.970642%, 31.312561%)" offset="0.480469"/><stop stop-opacity="1" stop-color="rgb(92.799377%, 9.008789%, 31.361389%)" offset="0.496094"/><stop stop-opacity="1" stop-color="rgb(93.075562%, 9.059143%, 31.427002%)" offset="0.511719"/><stop stop-opacity="1" stop-color="rgb(93.429565%, 9.124756%, 31.512451%)" offset="0.539062"/><stop stop-opacity="1" stop-color="rgb(93.757629%, 9.185791%, 31.591797%)" offset="0.566406"/><stop stop-opacity="1" stop-color="rgb(94.059753%, 9.242249%, 31.663513%)" offset="0.589844"/><stop stop-opacity="1" stop-color="rgb(94.361877%, 9.298706%, 31.736755%)" offset="0.613281"/><stop stop-opacity="1" stop-color="rgb(94.638062%, 9.350586%, 31.802368%)" offset="0.636719"/><stop stop-opacity="1" stop-color="rgb(94.889832%, 9.397888%, 31.863403%)" offset="0.65625"/><stop stop-opacity="1" stop-color="rgb(95.141602%, 9.443665%, 31.924438%)" offset="0.675781"/><stop stop-opacity="1" stop-color="rgb(95.368958%, 9.486389%, 31.97937%)" offset="0.695312"/><stop stop-opacity="1" stop-color="rgb(95.570374%, 9.524536%, 32.026672%)" offset="0.710938"/><stop stop-opacity="1" stop-color="rgb(95.773315%, 9.561157%, 32.0755%)" offset="0.726562"/><stop stop-opacity="1" stop-color="rgb(95.974731%, 9.599304%, 32.124329%)" offset="0.742188"/><stop stop-opacity="1" stop-color="rgb(96.250916%, 9.649658%, 32.189941%)" offset="0.757812"/><stop stop-opacity="1" stop-color="rgb(96.578979%, 9.710693%, 32.269287%)" offset="0.785156"/><stop stop-opacity="1" stop-color="rgb(96.881104%, 9.767151%, 32.342529%)" offset="0.808594"/><stop stop-opacity="1" stop-color="rgb(97.157288%, 9.819031%, 32.408142%)" offset="0.832031"/><stop stop-opacity="1" stop-color="rgb(97.384644%, 9.861755%, 32.463074%)" offset="0.851562"/><stop stop-opacity="1" stop-color="rgb(97.58606%, 9.898376%, 32.511902%)" offset="0.867188"/><stop stop-opacity="1" stop-color="rgb(97.86377%, 9.950256%, 32.577515%)" offset="0.882812"/><stop stop-opacity="1" stop-color="rgb(98.165894%, 10.006714%, 32.650757%)" offset="0.910156"/><stop stop-opacity="1" stop-color="rgb(98.39325%, 10.049438%, 32.705688%)" offset="0.929688"/><stop stop-opacity="1" stop-color="rgb(98.669434%, 10.099792%, 32.771301%)" offset="0.945312"/><stop stop-opacity="1" stop-color="rgb(99.021912%, 10.165405%, 32.85675%)" offset="0.972656"/><stop stop-opacity="1" stop-color="rgb(99.198914%, 10.198975%, 32.899475%)" offset="1"/></radialGradient><clipPath id="3b18b5a0a1"><path d="M 20 17.097656 L 57 17.097656 L 57 57.597656 L 20 57.597656 Z M 20 17.097656 " clip-rule="nonzero"/></clipPath></defs><g clip-path="url(#b0f3926321)"><g clip-path="url(#1875d1d6bf)"><path fill="url(#6c72c4a547)" d="M 0.113281 0 L 0.113281 74.886719 L 75 74.886719 L 75 0 Z M 0.113281 0 " fill-rule="nonzero"/></g></g><g clip-path="url(#3b18b5a0a1)"><path fill="#ffffff" d="M 52.375 54.140625 C 49.808594 56.367188 46.222656 57.574219 42.515625 57.574219 L 33.332031 57.574219 C 30.324219 57.574219 27.382812 56.75 25.042969 55.191406 C 12.851562 47.066406 26.089844 30.3125 30.472656 25.335938 C 30.722656 25.050781 30.941406 24.808594 31.125 24.601562 C 31.1875 24.539062 31.238281 24.480469 31.292969 24.425781 C 31.328125 24.390625 31.351562 24.359375 31.378906 24.3125 C 31.5625 24.046875 31.570312 23.726562 31.394531 23.449219 C 31.378906 23.414062 31.351562 23.386719 31.335938 23.351562 L 28.34375 19.625 C 27.808594 18.964844 28.550781 18.113281 29.476562 18.324219 L 34.074219 19.382812 C 34.40625 19.457031 34.757812 19.40625 35.035156 19.242188 L 35.628906 18.886719 C 36.195312 18.546875 36.972656 18.609375 37.460938 19.015625 L 37.550781 19.085938 C 37.835938 19.335938 38.28125 19.414062 38.675781 19.292969 L 45.167969 17.292969 C 45.742188 17.117188 46.320312 17.550781 46.164062 18.046875 L 44.546875 23.058594 C 44.53125 23.101562 44.523438 23.152344 44.511719 23.203125 C 44.453125 23.492188 44.476562 23.792969 44.582031 24.0625 C 44.609375 24.132812 44.644531 24.203125 44.679688 24.269531 C 44.738281 24.382812 44.820312 24.496094 44.914062 24.589844 C 45.019531 24.714844 45.140625 24.84375 45.273438 24.992188 C 49.121094 29.308594 62.351562 45.480469 52.375 54.140625 Z M 52.375 54.140625 " fill-opacity="1" fill-rule="nonzero"/></g><path fill="#febbcf" d="M 38.953125 40.457031 C 38.796875 40.398438 38.648438 40.347656 38.507812 40.285156 L 38.507812 36.082031 C 38.542969 36.082031 38.585938 36.082031 38.632812 36.082031 C 39.964844 36.082031 41.011719 36.558594 41.582031 36.914062 L 42.234375 35.023438 C 41.433594 34.554688 40.148438 34.136719 38.691406 34.136719 C 38.632812 34.136719 38.570312 34.136719 38.519531 34.136719 L 38.519531 32.457031 L 37.53125 32.457031 L 37.53125 34.226562 C 35.132812 34.640625 33.726562 36.324219 33.726562 38.324219 C 33.726562 40.042969 34.949219 41.464844 37.53125 42.375 L 37.53125 47.136719 C 37.496094 47.136719 37.453125 47.136719 37.417969 47.136719 C 36.109375 47.136719 34.738281 46.597656 33.960938 46.101562 L 33.308594 48.089844 C 34.320312 48.679688 35.777344 49.058594 37.355469 49.058594 C 37.417969 49.058594 37.480469 49.058594 37.53125 49.058594 L 37.53125 50.742188 L 38.507812 50.742188 L 38.507812 48.992188 C 41.214844 48.625 42.734375 46.988281 42.734375 44.777344 C 42.734375 42.644531 41.457031 41.402344 38.953125 40.457031 Z M 37.523438 39.835938 C 36.632812 39.359375 36.214844 38.855469 36.214844 38.03125 C 36.214844 37.25 36.675781 36.574219 37.523438 36.261719 Z M 38.507812 47.011719 L 38.507812 42.789062 C 39.714844 43.371094 40.203125 44.011719 40.203125 45.011719 C 40.203125 45.9375 39.660156 46.71875 38.507812 47.011719 Z M 38.507812 47.011719 " fill-opacity="1" fill-rule="nonzero"/><path fill="#dc144c" d="M 48.054688 34.113281 L 49.398438 32.125 C 49.398438 32.125 47.148438 27.582031 43.195312 25.660156 L 45.132812 25.660156 C 45.4375 25.660156 45.683594 25.414062 45.683594 25.113281 C 45.683594 24.808594 45.4375 24.566406 45.132812 24.566406 L 44.773438 24.566406 C 44.90625 24.460938 44.984375 24.3125 44.984375 24.132812 C 44.984375 23.828125 44.738281 23.585938 44.433594 23.585938 L 31.605469 23.585938 C 31.300781 23.585938 31.054688 23.828125 31.054688 24.132812 C 31.054688 24.304688 31.132812 24.460938 31.265625 24.566406 L 30.917969 24.566406 C 30.609375 24.566406 30.367188 24.808594 30.367188 25.113281 C 30.367188 25.414062 30.609375 25.660156 30.917969 25.660156 L 40.933594 25.660156 C 41.597656 26.699219 46.363281 34.484375 45.082031 40.882812 L 47.839844 39.722656 C 47.839844 39.722656 49.460938 34.277344 43.160156 27.0625 C 44.453125 28.3125 46.171875 30.460938 48.054688 34.113281 Z M 48.054688 34.113281 " fill-opacity="1" fill-rule="nonzero"/><path fill="#e99302" d="M 32.085938 24.625 C 32.085938 24.625 35.550781 25.164062 44.441406 24.574219 C 44.433594 24.574219 34.234375 24.921875 32.085938 24.625 Z M 32.085938 24.625 " fill-opacity="1" fill-rule="nonzero"/><path fill="#e99302" d="M 41.539062 25.753906 C 41.929688 25.980469 43.144531 27.046875 43.144531 27.046875 C 42.601562 26.335938 41.539062 25.753906 41.539062 25.753906 Z M 41.539062 25.753906 " fill-opacity="1" fill-rule="nonzero"/></svg>