<svg xmlns="http://www.w3.org/2000/svg" xmlns:xlink="http://www.w3.org/1999/xlink" width="50" zoomAndPan="magnify" viewBox="0 0 37.5 37.499999" height="50" preserveAspectRatio="xMidYMid meet" version="1.0"><defs><clipPath id="8dc9e9e206"><path d="M 6.957031 6.386719 L 26 6.386719 L 26 31.136719 L 6.957031 31.136719 Z M 6.957031 6.386719 " clip-rule="nonzero"/></clipPath><clipPath id="814b04cea3"><path d="M 26 6.386719 L 30.207031 6.386719 L 30.207031 31.136719 L 26 31.136719 Z M 26 6.386719 " clip-rule="nonzero"/></clipPath></defs><g clip-path="url(#8dc9e9e206)"><path fill="#787c98" d="M 8.773438 6.386719 C 7.6875 6.386719 6.960938 7.3125 6.960938 8.800781 L 6.960938 28.71875 C 6.960938 29.453125 7.171875 30.050781 7.476562 30.476562 C 7.78125 30.902344 8.277344 31.136719 8.808594 31.136719 C 9.304688 31.136719 9.859375 30.921875 10.429688 30.535156 L 23.972656 21.0625 C 24.847656 20.441406 25.324219 19.628906 25.324219 18.761719 C 25.324219 17.871094 24.828125 17.058594 23.972656 16.460938 L 10.410156 6.984375 C 9.859375 6.597656 9.265625 6.386719 8.773438 6.386719 Z M 8.773438 6.386719 " fill-opacity="1" fill-rule="nonzero"/></g><g clip-path="url(#814b04cea3)"><path fill="#787c98" d="M 30.203125 29.761719 L 30.203125 7.738281 C 30.203125 6.984375 29.628906 6.386719 28.886719 6.386719 L 28.335938 6.386719 C 27.59375 6.386719 26.964844 6.984375 26.964844 7.738281 L 26.964844 29.761719 C 26.964844 30.515625 27.59375 31.117188 28.316406 31.117188 L 28.90625 31.117188 C 29.648438 31.136719 30.203125 30.515625 30.203125 29.761719 Z M 30.203125 29.761719 " fill-opacity="1" fill-rule="nonzero"/></g></svg>