<svg xmlns="http://www.w3.org/2000/svg" xmlns:xlink="http://www.w3.org/1999/xlink" width="50" zoomAndPan="magnify" viewBox="0 0 37.5 37.499999" height="50" preserveAspectRatio="xMidYMid meet" version="1.0"><defs><clipPath id="ae0d644634"><path d="M 1.441406 2 L 35.941406 2 L 35.941406 37.007812 L 1.441406 37.007812 Z M 1.441406 2 " clip-rule="nonzero"/></clipPath><clipPath id="58a798630b"><path d="M 1.441406 2 L 35.941406 2 L 35.941406 14 L 1.441406 14 Z M 1.441406 2 " clip-rule="nonzero"/></clipPath><clipPath id="59e3ed97a1"><path d="M 6 0.339844 L 9 0.339844 L 9 6 L 6 6 Z M 6 0.339844 " clip-rule="nonzero"/></clipPath><clipPath id="66d742c2d1"><path d="M 11 0.339844 L 15 0.339844 L 15 6 L 11 6 Z M 11 0.339844 " clip-rule="nonzero"/></clipPath><clipPath id="1437e4bb14"><path d="M 17 0.339844 L 20 0.339844 L 20 6 L 17 6 Z M 17 0.339844 " clip-rule="nonzero"/></clipPath><clipPath id="c5d5c05730"><path d="M 23 0.339844 L 26 0.339844 L 26 6 L 23 6 Z M 23 0.339844 " clip-rule="nonzero"/></clipPath><clipPath id="0fdbff0102"><path d="M 28 0.339844 L 32 0.339844 L 32 6 L 28 6 Z M 28 0.339844 " clip-rule="nonzero"/></clipPath></defs><g clip-path="url(#ae0d644634)"><path fill="#ffffff" d="M 5.191406 2.546875 L 32.195312 2.546875 C 34.273438 2.546875 35.945312 4.21875 35.945312 6.296875 L 35.945312 33.332031 C 35.945312 35.410156 34.273438 37.085938 32.195312 37.085938 L 5.191406 37.085938 C 3.117188 37.085938 1.445312 35.410156 1.445312 33.332031 L 1.445312 6.296875 C 1.445312 4.21875 3.117188 2.546875 5.191406 2.546875 Z M 5.191406 2.546875 " fill-opacity="1" fill-rule="nonzero"/></g><g clip-path="url(#58a798630b)"><path fill="#8028f7" d="M 5.191406 2.546875 C 3.117188 2.546875 1.445312 4.21875 1.445312 6.296875 L 1.445312 13.75 L 35.945312 13.75 L 35.945312 6.296875 C 35.945312 4.21875 34.273438 2.546875 32.195312 2.546875 Z M 5.191406 2.546875 " fill-opacity="1" fill-rule="nonzero"/></g><path fill="#ffffff" d="M 9.058594 4.265625 C 9.058594 5.121094 8.367188 5.8125 7.511719 5.8125 C 7.101562 5.8125 6.707031 5.652344 6.417969 5.359375 C 6.128906 5.070312 5.964844 4.675781 5.964844 4.265625 C 5.964844 3.855469 6.128906 3.460938 6.417969 3.171875 C 6.707031 2.882812 7.101562 2.71875 7.511719 2.71875 C 8.367188 2.71875 9.058594 3.410156 9.058594 4.265625 Z M 9.058594 4.265625 " fill-opacity="1" fill-rule="nonzero"/><g clip-path="url(#59e3ed97a1)"><path fill="#ffffff" d="M 7.511719 0.34375 C 8.207031 0.34375 8.765625 0.902344 8.765625 1.597656 L 8.765625 4.265625 C 8.765625 4.960938 8.207031 5.519531 7.511719 5.519531 C 6.816406 5.519531 6.257812 4.960938 6.257812 4.265625 L 6.257812 1.597656 C 6.257812 0.902344 6.816406 0.34375 7.511719 0.34375 Z M 7.511719 0.34375 " fill-opacity="1" fill-rule="nonzero"/></g><path fill="#ffffff" d="M 14.648438 4.265625 C 14.648438 5.121094 13.957031 5.8125 13.101562 5.8125 C 12.691406 5.8125 12.300781 5.652344 12.007812 5.359375 C 11.71875 5.070312 11.558594 4.675781 11.558594 4.265625 C 11.558594 3.855469 11.71875 3.460938 12.007812 3.171875 C 12.300781 2.882812 12.691406 2.71875 13.101562 2.71875 C 13.957031 2.71875 14.648438 3.410156 14.648438 4.265625 Z M 14.648438 4.265625 " fill-opacity="1" fill-rule="nonzero"/><g clip-path="url(#66d742c2d1)"><path fill="#ffffff" d="M 13.101562 0.34375 C 13.796875 0.34375 14.359375 0.902344 14.359375 1.597656 L 14.359375 4.265625 C 14.359375 4.960938 13.796875 5.519531 13.101562 5.519531 C 12.40625 5.519531 11.847656 4.960938 11.847656 4.265625 L 11.847656 1.597656 C 11.847656 0.902344 12.40625 0.34375 13.101562 0.34375 Z M 13.101562 0.34375 " fill-opacity="1" fill-rule="nonzero"/></g><path fill="#ffffff" d="M 20.238281 4.265625 C 20.238281 5.121094 19.546875 5.8125 18.695312 5.8125 C 18.285156 5.8125 17.890625 5.652344 17.601562 5.359375 C 17.3125 5.070312 17.148438 4.675781 17.148438 4.265625 C 17.148438 3.855469 17.3125 3.460938 17.601562 3.171875 C 17.890625 2.882812 18.285156 2.71875 18.695312 2.71875 C 19.546875 2.71875 20.238281 3.410156 20.238281 4.265625 Z M 20.238281 4.265625 " fill-opacity="1" fill-rule="nonzero"/><g clip-path="url(#1437e4bb14)"><path fill="#ffffff" d="M 18.695312 0.34375 C 19.390625 0.34375 19.949219 0.902344 19.949219 1.597656 L 19.949219 4.265625 C 19.949219 4.960938 19.390625 5.519531 18.695312 5.519531 C 18 5.519531 17.4375 4.960938 17.4375 4.265625 L 17.4375 1.597656 C 17.4375 0.902344 18 0.34375 18.695312 0.34375 Z M 18.695312 0.34375 " fill-opacity="1" fill-rule="nonzero"/></g><path fill="#ffffff" d="M 25.832031 4.265625 C 25.832031 5.121094 25.136719 5.8125 24.285156 5.8125 C 23.875 5.8125 23.480469 5.652344 23.191406 5.359375 C 22.902344 5.070312 22.738281 4.675781 22.738281 4.265625 C 22.738281 3.855469 22.902344 3.460938 23.191406 3.171875 C 23.480469 2.882812 23.875 2.71875 24.285156 2.71875 C 25.136719 2.71875 25.832031 3.410156 25.832031 4.265625 Z M 25.832031 4.265625 " fill-opacity="1" fill-rule="nonzero"/><g clip-path="url(#c5d5c05730)"><path fill="#ffffff" d="M 24.285156 0.34375 C 24.980469 0.34375 25.539062 0.902344 25.539062 1.597656 L 25.539062 4.265625 C 25.539062 4.960938 24.980469 5.519531 24.285156 5.519531 C 23.589844 5.519531 23.03125 4.960938 23.03125 4.265625 L 23.03125 1.597656 C 23.03125 0.902344 23.589844 0.34375 24.285156 0.34375 Z M 24.285156 0.34375 " fill-opacity="1" fill-rule="nonzero"/></g><path fill="#ffffff" d="M 31.421875 4.265625 C 31.421875 5.121094 30.730469 5.8125 29.875 5.8125 C 29.464844 5.8125 29.074219 5.652344 28.78125 5.359375 C 28.492188 5.070312 28.328125 4.675781 28.328125 4.265625 C 28.328125 3.855469 28.492188 3.460938 28.78125 3.171875 C 29.074219 2.882812 29.464844 2.71875 29.875 2.71875 C 30.730469 2.71875 31.421875 3.410156 31.421875 4.265625 Z M 31.421875 4.265625 " fill-opacity="1" fill-rule="nonzero"/><g clip-path="url(#0fdbff0102)"><path fill="#ffffff" d="M 29.875 0.34375 C 30.570312 0.34375 31.128906 0.902344 31.128906 1.597656 L 31.128906 4.265625 C 31.128906 4.960938 30.570312 5.519531 29.875 5.519531 C 29.179688 5.519531 28.621094 4.960938 28.621094 4.265625 L 28.621094 1.597656 C 28.621094 0.902344 29.179688 0.34375 29.875 0.34375 Z M 29.875 0.34375 " fill-opacity="1" fill-rule="nonzero"/></g><path fill="#ffffff" d="M 5.4375 10.589844 L 4.886719 9.953125 L 4.886719 10.589844 L 4.5 10.589844 L 4.5 9.277344 L 4.867188 9.277344 L 5.417969 9.921875 L 5.417969 9.277344 L 5.804688 9.277344 L 5.804688 10.589844 Z M 5.4375 10.589844 " fill-opacity="1" fill-rule="nonzero"/><path fill="#ffffff" d="M 6.742188 9.253906 C 6.96875 9.253906 7.144531 9.3125 7.265625 9.425781 C 7.390625 9.542969 7.453125 9.710938 7.453125 9.933594 C 7.453125 10.152344 7.390625 10.324219 7.265625 10.4375 C 7.144531 10.554688 6.96875 10.613281 6.742188 10.613281 C 6.515625 10.613281 6.339844 10.554688 6.21875 10.441406 C 6.09375 10.324219 6.035156 10.15625 6.035156 9.933594 C 6.035156 9.710938 6.09375 9.539062 6.21875 9.425781 C 6.339844 9.3125 6.515625 9.253906 6.742188 9.253906 Z M 6.742188 9.566406 C 6.652344 9.566406 6.582031 9.59375 6.535156 9.648438 C 6.488281 9.703125 6.464844 9.777344 6.464844 9.871094 L 6.464844 9.992188 C 6.464844 10.085938 6.488281 10.160156 6.535156 10.214844 C 6.582031 10.269531 6.652344 10.296875 6.742188 10.296875 C 6.832031 10.296875 6.902344 10.269531 6.949219 10.214844 C 6.996094 10.160156 7.019531 10.085938 7.019531 9.992188 L 7.019531 9.871094 C 7.019531 9.777344 6.996094 9.703125 6.949219 9.648438 C 6.902344 9.59375 6.832031 9.566406 6.742188 9.566406 Z M 6.742188 9.566406 " fill-opacity="1" fill-rule="nonzero"/><path fill="#ffffff" d="M 7.953125 10.589844 L 7.488281 9.277344 L 7.941406 9.277344 L 8.203125 10.152344 L 8.210938 10.152344 L 8.476562 9.277344 L 8.90625 9.277344 L 8.441406 10.589844 Z M 7.953125 10.589844 " fill-opacity="1" fill-rule="nonzero"/><path fill="#ffffff" d="M 9.082031 9.277344 L 10.214844 9.277344 L 10.214844 9.589844 L 9.503906 9.589844 L 9.503906 9.773438 L 10.113281 9.773438 L 10.113281 10.074219 L 9.503906 10.074219 L 9.503906 10.273438 L 10.230469 10.273438 L 10.230469 10.589844 L 9.082031 10.589844 Z M 9.082031 9.277344 " fill-opacity="1" fill-rule="nonzero"/><path fill="#ffffff" d="M 11.585938 10.589844 L 11.585938 10.117188 C 11.585938 10.058594 11.589844 9.996094 11.589844 9.9375 C 11.597656 9.875 11.601562 9.820312 11.605469 9.78125 C 11.613281 9.738281 11.617188 9.710938 11.617188 9.699219 L 11.609375 9.699219 L 11.367188 10.589844 L 11.035156 10.589844 L 10.792969 9.703125 L 10.785156 9.703125 C 10.785156 9.714844 10.789062 9.738281 10.792969 9.78125 C 10.800781 9.824219 10.808594 9.875 10.8125 9.9375 C 10.816406 9.996094 10.820312 10.058594 10.820312 10.117188 L 10.820312 10.589844 L 10.433594 10.589844 L 10.433594 9.277344 L 11.027344 9.277344 L 11.226562 10.035156 L 11.234375 10.035156 L 11.429688 9.277344 L 12.003906 9.277344 L 12.003906 10.589844 Z M 11.585938 10.589844 " fill-opacity="1" fill-rule="nonzero"/><path fill="#ffffff" d="M 13.132812 9.277344 C 13.199219 9.277344 13.257812 9.289062 13.3125 9.316406 C 13.367188 9.34375 13.414062 9.382812 13.445312 9.433594 C 13.476562 9.480469 13.492188 9.539062 13.492188 9.597656 C 13.492188 9.761719 13.421875 9.863281 13.273438 9.902344 L 13.273438 9.910156 C 13.441406 9.949219 13.523438 10.058594 13.523438 10.238281 C 13.523438 10.308594 13.507812 10.371094 13.472656 10.421875 C 13.441406 10.476562 13.394531 10.515625 13.335938 10.546875 C 13.277344 10.574219 13.214844 10.589844 13.144531 10.589844 L 12.257812 10.589844 L 12.257812 9.277344 Z M 12.679688 9.789062 L 12.96875 9.789062 C 12.996094 9.789062 13.019531 9.777344 13.039062 9.757812 C 13.058594 9.738281 13.066406 9.714844 13.066406 9.683594 L 13.066406 9.664062 C 13.066406 9.636719 13.058594 9.613281 13.039062 9.59375 C 13.019531 9.574219 12.996094 9.5625 12.96875 9.5625 L 12.679688 9.5625 Z M 12.679688 10.285156 L 13 10.285156 C 13.027344 10.285156 13.050781 10.273438 13.070312 10.253906 C 13.085938 10.234375 13.097656 10.210938 13.097656 10.179688 L 13.097656 10.160156 C 13.097656 10.132812 13.085938 10.109375 13.070312 10.089844 C 13.050781 10.070312 13.027344 10.058594 13 10.058594 L 12.679688 10.058594 Z M 12.679688 10.285156 " fill-opacity="1" fill-rule="nonzero"/><path fill="#ffffff" d="M 13.742188 9.277344 L 14.875 9.277344 L 14.875 9.589844 L 14.164062 9.589844 L 14.164062 9.773438 L 14.773438 9.773438 L 14.773438 10.074219 L 14.164062 10.074219 L 14.164062 10.273438 L 14.890625 10.273438 L 14.890625 10.589844 L 13.742188 10.589844 Z M 13.742188 9.277344 " fill-opacity="1" fill-rule="nonzero"/><path fill="#ffffff" d="M 16.363281 9.679688 C 16.363281 9.757812 16.34375 9.832031 16.300781 9.894531 C 16.257812 9.960938 16.191406 10.007812 16.109375 10.039062 L 16.402344 10.589844 L 15.929688 10.589844 L 15.695312 10.109375 L 15.539062 10.109375 L 15.539062 10.589844 L 15.117188 10.589844 L 15.117188 9.277344 L 15.921875 9.277344 C 16.015625 9.277344 16.097656 9.292969 16.164062 9.332031 C 16.230469 9.367188 16.28125 9.414062 16.3125 9.476562 C 16.347656 9.539062 16.363281 9.605469 16.363281 9.679688 Z M 15.933594 9.695312 C 15.933594 9.660156 15.921875 9.632812 15.902344 9.609375 C 15.878906 9.585938 15.851562 9.574219 15.816406 9.574219 L 15.539062 9.574219 L 15.539062 9.816406 L 15.816406 9.816406 C 15.851562 9.816406 15.878906 9.804688 15.902344 9.785156 C 15.921875 9.757812 15.933594 9.730469 15.933594 9.695312 Z M 15.933594 9.695312 " fill-opacity="1" fill-rule="nonzero"/><path fill="#ffffff" d="M 4.957031 12.039062 C 5.082031 12.039062 5.183594 12.0625 5.265625 12.117188 C 5.347656 12.164062 5.390625 12.242188 5.390625 12.339844 L 5.390625 12.359375 L 5.09375 12.359375 L 5.09375 12.351562 C 5.09375 12.324219 5.085938 12.300781 5.0625 12.28125 C 5.042969 12.261719 5.011719 12.253906 4.96875 12.253906 C 4.925781 12.253906 4.894531 12.257812 4.871094 12.269531 C 4.847656 12.285156 4.835938 12.300781 4.835938 12.316406 C 4.835938 12.34375 4.851562 12.363281 4.882812 12.375 C 4.914062 12.386719 4.960938 12.398438 5.03125 12.414062 C 5.109375 12.429688 5.175781 12.445312 5.226562 12.464844 C 5.277344 12.480469 5.320312 12.511719 5.359375 12.550781 C 5.398438 12.589844 5.417969 12.644531 5.417969 12.714844 C 5.417969 12.828125 5.378906 12.917969 5.300781 12.972656 C 5.222656 13.027344 5.117188 13.058594 4.984375 13.058594 C 4.832031 13.058594 4.710938 13.03125 4.625 12.980469 C 4.542969 12.929688 4.5 12.835938 4.5 12.707031 L 4.796875 12.707031 C 4.796875 12.757812 4.808594 12.789062 4.835938 12.804688 C 4.863281 12.824219 4.902344 12.832031 4.957031 12.832031 C 4.996094 12.832031 5.027344 12.828125 5.054688 12.816406 C 5.082031 12.808594 5.09375 12.792969 5.09375 12.765625 C 5.09375 12.742188 5.082031 12.722656 5.050781 12.710938 C 5.023438 12.699219 4.976562 12.6875 4.910156 12.671875 C 4.828125 12.65625 4.761719 12.636719 4.710938 12.621094 C 4.65625 12.601562 4.613281 12.570312 4.574219 12.527344 C 4.535156 12.484375 4.515625 12.425781 4.515625 12.351562 C 4.515625 12.246094 4.554688 12.164062 4.640625 12.117188 C 4.722656 12.0625 4.828125 12.039062 4.957031 12.039062 Z M 4.957031 12.039062 " fill-opacity="1" fill-rule="nonzero"/><path fill="#ffffff" d="M 6.101562 13.039062 L 6.085938 12.925781 C 6.054688 12.964844 6.015625 13 5.96875 13.023438 C 5.921875 13.046875 5.871094 13.058594 5.816406 13.058594 C 5.726562 13.058594 5.664062 13.03125 5.617188 12.984375 C 5.574219 12.933594 5.554688 12.863281 5.554688 12.773438 L 5.554688 12.285156 L 5.835938 12.285156 L 5.835938 12.738281 C 5.835938 12.773438 5.84375 12.796875 5.863281 12.816406 C 5.878906 12.835938 5.902344 12.847656 5.933594 12.847656 C 5.96875 12.847656 5.996094 12.835938 6.019531 12.8125 C 6.039062 12.789062 6.050781 12.761719 6.050781 12.726562 L 6.050781 12.285156 L 6.335938 12.285156 L 6.335938 13.039062 Z M 6.101562 13.039062 " fill-opacity="1" fill-rule="nonzero"/><path fill="#ffffff" d="M 7.03125 12.265625 C 7.117188 12.265625 7.183594 12.292969 7.226562 12.339844 C 7.273438 12.390625 7.292969 12.457031 7.292969 12.550781 L 7.292969 13.039062 L 7.007812 13.039062 L 7.007812 12.585938 C 7.007812 12.550781 7 12.527344 6.984375 12.507812 C 6.96875 12.488281 6.945312 12.476562 6.914062 12.476562 C 6.878906 12.476562 6.851562 12.488281 6.828125 12.511719 C 6.804688 12.535156 6.796875 12.5625 6.796875 12.597656 L 6.796875 13.039062 L 6.511719 13.039062 L 6.511719 12.285156 L 6.742188 12.285156 L 6.761719 12.398438 C 6.792969 12.359375 6.832031 12.328125 6.878906 12.304688 C 6.925781 12.277344 6.976562 12.265625 7.03125 12.265625 Z M 7.03125 12.265625 " fill-opacity="1" fill-rule="nonzero"/><path fill="#ffffff" d="M 9.519531 13.039062 L 9.519531 12.683594 C 9.519531 12.640625 9.519531 12.597656 9.523438 12.550781 C 9.527344 12.503906 9.53125 12.464844 9.535156 12.433594 C 9.539062 12.402344 9.539062 12.382812 9.539062 12.371094 L 9.535156 12.371094 L 9.355469 13.039062 L 9.105469 13.039062 L 8.921875 12.375 L 8.917969 12.375 C 8.917969 12.382812 8.921875 12.402344 8.925781 12.433594 C 8.929688 12.464844 8.933594 12.503906 8.9375 12.550781 C 8.941406 12.597656 8.945312 12.640625 8.945312 12.683594 L 8.945312 13.039062 L 8.652344 13.039062 L 8.652344 12.054688 L 9.097656 12.054688 L 9.246094 12.625 L 9.253906 12.625 L 9.402344 12.054688 L 9.832031 12.054688 L 9.832031 13.039062 Z M 9.519531 13.039062 " fill-opacity="1" fill-rule="nonzero"/><path fill="#ffffff" d="M 10.390625 12.265625 C 10.523438 12.265625 10.628906 12.300781 10.703125 12.367188 C 10.78125 12.433594 10.816406 12.535156 10.816406 12.660156 C 10.816406 12.789062 10.78125 12.890625 10.703125 12.957031 C 10.628906 13.023438 10.523438 13.058594 10.390625 13.058594 C 10.257812 13.058594 10.15625 13.023438 10.082031 12.957031 C 10.003906 12.890625 9.96875 12.792969 9.96875 12.660156 C 9.96875 12.53125 10.003906 12.433594 10.082031 12.367188 C 10.15625 12.300781 10.257812 12.265625 10.390625 12.265625 Z M 10.390625 12.460938 C 10.296875 12.460938 10.25 12.515625 10.25 12.621094 L 10.25 12.703125 C 10.25 12.808594 10.296875 12.863281 10.390625 12.863281 C 10.484375 12.863281 10.535156 12.808594 10.535156 12.703125 L 10.535156 12.621094 C 10.535156 12.515625 10.484375 12.460938 10.390625 12.460938 Z M 10.390625 12.460938 " fill-opacity="1" fill-rule="nonzero"/><path fill="#ffffff" d="M 11.476562 12.265625 C 11.5625 12.265625 11.628906 12.292969 11.671875 12.339844 C 11.71875 12.390625 11.738281 12.457031 11.738281 12.550781 L 11.738281 13.039062 L 11.457031 13.039062 L 11.457031 12.585938 C 11.457031 12.550781 11.445312 12.527344 11.429688 12.507812 C 11.414062 12.488281 11.390625 12.476562 11.359375 12.476562 C 11.324219 12.476562 11.296875 12.488281 11.273438 12.511719 C 11.25 12.535156 11.242188 12.5625 11.242188 12.597656 L 11.242188 13.039062 L 10.957031 13.039062 L 10.957031 12.285156 L 11.1875 12.285156 L 11.207031 12.398438 C 11.238281 12.359375 11.277344 12.328125 11.324219 12.304688 C 11.371094 12.277344 11.421875 12.265625 11.476562 12.265625 Z M 11.476562 12.265625 " fill-opacity="1" fill-rule="nonzero"/><path fill="#ffffff" d="M 13.714844 12.308594 L 13.714844 13.039062 L 13.398438 13.039062 L 13.398438 12.308594 L 13.078125 12.308594 L 13.078125 12.054688 L 14.035156 12.054688 L 14.035156 12.308594 Z M 13.714844 12.308594 " fill-opacity="1" fill-rule="nonzero"/><path fill="#ffffff" d="M 14.648438 13.039062 L 14.628906 12.925781 C 14.601562 12.964844 14.5625 13 14.511719 13.023438 C 14.464844 13.046875 14.414062 13.058594 14.359375 13.058594 C 14.273438 13.058594 14.207031 13.03125 14.164062 12.984375 C 14.121094 12.933594 14.097656 12.863281 14.097656 12.773438 L 14.097656 12.285156 L 14.382812 12.285156 L 14.382812 12.738281 C 14.382812 12.773438 14.390625 12.796875 14.40625 12.816406 C 14.425781 12.835938 14.449219 12.847656 14.476562 12.847656 C 14.511719 12.847656 14.542969 12.835938 14.5625 12.8125 C 14.585938 12.789062 14.597656 12.761719 14.597656 12.726562 L 14.597656 12.285156 L 14.882812 12.285156 L 14.882812 13.039062 Z M 14.648438 13.039062 " fill-opacity="1" fill-rule="nonzero"/><path fill="#ffffff" d="M 15.445312 12.265625 C 15.585938 12.265625 15.6875 12.300781 15.761719 12.363281 C 15.835938 12.429688 15.871094 12.527344 15.871094 12.660156 L 15.871094 12.710938 L 15.304688 12.710938 C 15.304688 12.765625 15.316406 12.804688 15.339844 12.832031 C 15.367188 12.863281 15.40625 12.875 15.457031 12.875 C 15.503906 12.875 15.539062 12.863281 15.5625 12.84375 C 15.585938 12.824219 15.597656 12.796875 15.597656 12.765625 L 15.871094 12.765625 C 15.871094 12.855469 15.835938 12.929688 15.765625 12.980469 C 15.699219 13.03125 15.597656 13.058594 15.464844 13.058594 C 15.324219 13.058594 15.214844 13.023438 15.136719 12.960938 C 15.058594 12.894531 15.019531 12.792969 15.019531 12.660156 C 15.019531 12.53125 15.058594 12.433594 15.132812 12.367188 C 15.210938 12.300781 15.3125 12.265625 15.445312 12.265625 Z M 15.457031 12.449219 C 15.367188 12.449219 15.316406 12.492188 15.308594 12.574219 L 15.585938 12.574219 C 15.585938 12.535156 15.574219 12.507812 15.550781 12.484375 C 15.527344 12.460938 15.496094 12.449219 15.457031 12.449219 Z M 15.457031 12.449219 " fill-opacity="1" fill-rule="nonzero"/><path fill="#ffffff" d="M 17.964844 13.039062 L 17.839844 12.441406 L 17.832031 12.441406 L 17.707031 13.039062 L 17.359375 13.039062 L 17.128906 12.054688 L 17.457031 12.054688 L 17.570312 12.613281 L 17.574219 12.613281 L 17.6875 12.054688 L 18 12.054688 L 18.117188 12.613281 L 18.121094 12.613281 L 18.230469 12.054688 L 18.542969 12.054688 L 18.3125 13.039062 Z M 17.964844 13.039062 " fill-opacity="1" fill-rule="nonzero"/><path fill="#ffffff" d="M 18.988281 12.265625 C 19.128906 12.265625 19.234375 12.300781 19.304688 12.363281 C 19.378906 12.429688 19.414062 12.527344 19.414062 12.660156 L 19.414062 12.710938 L 18.851562 12.710938 C 18.851562 12.765625 18.863281 12.804688 18.886719 12.832031 C 18.910156 12.863281 18.949219 12.875 19 12.875 C 19.050781 12.875 19.082031 12.863281 19.105469 12.84375 C 19.128906 12.824219 19.140625 12.796875 19.140625 12.765625 L 19.414062 12.765625 C 19.414062 12.855469 19.382812 12.929688 19.3125 12.980469 C 19.242188 13.03125 19.140625 13.058594 19.007812 13.058594 C 18.867188 13.058594 18.757812 13.023438 18.679688 12.960938 C 18.605469 12.894531 18.566406 12.792969 18.566406 12.660156 C 18.566406 12.53125 18.601562 12.433594 18.679688 12.367188 C 18.753906 12.300781 18.855469 12.265625 18.988281 12.265625 Z M 19 12.449219 C 18.910156 12.449219 18.863281 12.492188 18.851562 12.574219 L 19.128906 12.574219 C 19.128906 12.535156 19.117188 12.507812 19.09375 12.484375 C 19.070312 12.460938 19.042969 12.449219 19 12.449219 Z M 19 12.449219 " fill-opacity="1" fill-rule="nonzero"/><path fill="#ffffff" d="M 20.101562 13.039062 L 20.078125 12.933594 C 20.023438 13.015625 19.945312 13.058594 19.839844 13.058594 C 19.738281 13.058594 19.65625 13.023438 19.601562 12.957031 C 19.546875 12.890625 19.519531 12.792969 19.519531 12.660156 C 19.519531 12.53125 19.546875 12.433594 19.601562 12.367188 C 19.65625 12.300781 19.738281 12.265625 19.839844 12.265625 C 19.925781 12.265625 19.996094 12.296875 20.050781 12.355469 L 20.050781 12.003906 L 20.335938 12.003906 L 20.335938 13.039062 Z M 19.925781 12.476562 C 19.84375 12.476562 19.804688 12.527344 19.804688 12.625 L 19.804688 12.699219 C 19.804688 12.796875 19.84375 12.847656 19.925781 12.847656 C 19.96875 12.847656 20 12.832031 20.023438 12.800781 C 20.042969 12.773438 20.054688 12.734375 20.054688 12.6875 L 20.054688 12.640625 C 20.054688 12.589844 20.042969 12.550781 20.023438 12.523438 C 20 12.492188 19.96875 12.476562 19.925781 12.476562 Z M 19.925781 12.476562 " fill-opacity="1" fill-rule="nonzero"/><path fill="#ffffff" d="M 22.242188 12.308594 L 22.242188 13.039062 L 21.925781 13.039062 L 21.925781 12.308594 L 21.601562 12.308594 L 21.601562 12.054688 L 22.5625 12.054688 L 22.5625 12.308594 Z M 22.242188 12.308594 " fill-opacity="1" fill-rule="nonzero"/><path fill="#ffffff" d="M 23.011719 12.363281 C 23.042969 12.332031 23.078125 12.308594 23.117188 12.292969 C 23.160156 12.277344 23.203125 12.265625 23.246094 12.265625 C 23.335938 12.265625 23.402344 12.292969 23.445312 12.339844 C 23.488281 12.390625 23.511719 12.457031 23.511719 12.550781 L 23.511719 13.039062 L 23.226562 13.039062 L 23.226562 12.585938 C 23.226562 12.550781 23.21875 12.527344 23.199219 12.507812 C 23.183594 12.488281 23.160156 12.476562 23.128906 12.476562 C 23.09375 12.476562 23.066406 12.488281 23.042969 12.511719 C 23.023438 12.535156 23.011719 12.5625 23.011719 12.597656 L 23.011719 13.039062 L 22.726562 13.039062 L 22.726562 12.003906 L 23.011719 12.003906 Z M 23.011719 12.363281 " fill-opacity="1" fill-rule="nonzero"/><path fill="#ffffff" d="M 24.230469 13.039062 L 24.210938 12.925781 C 24.179688 12.964844 24.140625 13 24.09375 13.023438 C 24.046875 13.046875 23.996094 13.058594 23.941406 13.058594 C 23.855469 13.058594 23.789062 13.03125 23.746094 12.984375 C 23.699219 12.933594 23.679688 12.863281 23.679688 12.773438 L 23.679688 12.285156 L 23.964844 12.285156 L 23.964844 12.738281 C 23.964844 12.773438 23.972656 12.796875 23.988281 12.816406 C 24.003906 12.835938 24.027344 12.847656 24.058594 12.847656 C 24.09375 12.847656 24.121094 12.835938 24.144531 12.8125 C 24.167969 12.789062 24.175781 12.761719 24.175781 12.726562 L 24.175781 12.285156 L 24.460938 12.285156 L 24.460938 13.039062 Z M 24.230469 13.039062 " fill-opacity="1" fill-rule="nonzero"/><path fill="#ffffff" d="M 26.445312 12.054688 L 27.238281 12.054688 L 27.238281 12.292969 L 26.761719 12.292969 L 26.761719 12.460938 L 27.171875 12.460938 L 27.171875 12.6875 L 26.761719 12.6875 L 26.761719 13.039062 L 26.445312 13.039062 Z M 26.445312 12.054688 " fill-opacity="1" fill-rule="nonzero"/><path fill="#ffffff" d="M 27.789062 12.265625 C 27.8125 12.265625 27.832031 12.269531 27.847656 12.273438 C 27.867188 12.277344 27.875 12.28125 27.875 12.28125 L 27.875 12.523438 L 27.78125 12.523438 C 27.722656 12.523438 27.679688 12.535156 27.65625 12.566406 C 27.628906 12.597656 27.617188 12.644531 27.617188 12.703125 L 27.617188 13.039062 L 27.332031 13.039062 L 27.332031 12.285156 L 27.5625 12.285156 L 27.582031 12.398438 C 27.601562 12.355469 27.628906 12.320312 27.664062 12.300781 C 27.703125 12.277344 27.742188 12.265625 27.789062 12.265625 Z M 27.789062 12.265625 " fill-opacity="1" fill-rule="nonzero"/><path fill="#ffffff" d="M 27.976562 12.003906 L 28.257812 12.003906 L 28.257812 12.195312 L 27.976562 12.195312 Z M 27.976562 12.285156 L 28.257812 12.285156 L 28.257812 13.039062 L 27.976562 13.039062 Z M 27.976562 12.285156 " fill-opacity="1" fill-rule="nonzero"/><path fill="#ffffff" d="M 30.855469 12.039062 C 30.980469 12.039062 31.085938 12.0625 31.167969 12.117188 C 31.246094 12.164062 31.289062 12.242188 31.289062 12.339844 L 31.289062 12.359375 L 30.996094 12.359375 L 30.996094 12.351562 C 30.996094 12.324219 30.984375 12.300781 30.964844 12.28125 C 30.941406 12.261719 30.910156 12.253906 30.867188 12.253906 C 30.824219 12.253906 30.792969 12.257812 30.769531 12.269531 C 30.75 12.285156 30.738281 12.300781 30.738281 12.316406 C 30.738281 12.34375 30.753906 12.363281 30.785156 12.375 C 30.8125 12.386719 30.863281 12.398438 30.929688 12.414062 C 31.011719 12.429688 31.074219 12.445312 31.125 12.464844 C 31.175781 12.480469 31.222656 12.511719 31.257812 12.550781 C 31.296875 12.589844 31.316406 12.644531 31.316406 12.714844 C 31.316406 12.828125 31.277344 12.917969 31.199219 12.972656 C 31.121094 13.027344 31.015625 13.058594 30.886719 13.058594 C 30.730469 13.058594 30.613281 13.03125 30.527344 12.980469 C 30.441406 12.929688 30.398438 12.835938 30.398438 12.707031 L 30.699219 12.707031 C 30.699219 12.757812 30.710938 12.789062 30.734375 12.804688 C 30.761719 12.824219 30.800781 12.832031 30.855469 12.832031 C 30.894531 12.832031 30.929688 12.828125 30.953125 12.816406 C 30.980469 12.808594 30.996094 12.792969 30.996094 12.765625 C 30.996094 12.742188 30.980469 12.722656 30.949219 12.710938 C 30.921875 12.699219 30.875 12.6875 30.808594 12.671875 C 30.730469 12.65625 30.664062 12.636719 30.609375 12.621094 C 30.558594 12.601562 30.511719 12.570312 30.472656 12.527344 C 30.433594 12.484375 30.414062 12.425781 30.414062 12.351562 C 30.414062 12.246094 30.457031 12.164062 30.539062 12.117188 C 30.621094 12.0625 30.730469 12.039062 30.855469 12.039062 Z M 30.855469 12.039062 " fill-opacity="1" fill-rule="nonzero"/><path fill="#ffffff" d="M 31.828125 12.265625 C 31.945312 12.265625 32.039062 12.285156 32.109375 12.324219 C 32.183594 12.363281 32.21875 12.425781 32.21875 12.511719 L 32.21875 12.808594 C 32.21875 12.824219 32.222656 12.835938 32.230469 12.847656 C 32.238281 12.859375 32.25 12.863281 32.265625 12.863281 L 32.316406 12.863281 L 32.316406 13.027344 C 32.3125 13.03125 32.304688 13.035156 32.292969 13.039062 C 32.28125 13.042969 32.265625 13.046875 32.242188 13.050781 C 32.222656 13.054688 32.195312 13.058594 32.167969 13.058594 C 32.113281 13.058594 32.066406 13.046875 32.03125 13.03125 C 31.996094 13.015625 31.972656 12.992188 31.957031 12.960938 C 31.921875 12.992188 31.882812 13.015625 31.835938 13.03125 C 31.792969 13.046875 31.738281 13.058594 31.679688 13.058594 C 31.5 13.058594 31.414062 12.988281 31.414062 12.84375 C 31.414062 12.773438 31.433594 12.714844 31.472656 12.675781 C 31.511719 12.636719 31.570312 12.613281 31.644531 12.597656 C 31.71875 12.582031 31.816406 12.574219 31.933594 12.574219 L 31.933594 12.539062 C 31.933594 12.507812 31.925781 12.488281 31.902344 12.472656 C 31.882812 12.457031 31.855469 12.449219 31.824219 12.449219 C 31.796875 12.449219 31.769531 12.453125 31.746094 12.464844 C 31.726562 12.476562 31.714844 12.492188 31.714844 12.515625 L 31.714844 12.519531 L 31.4375 12.519531 C 31.433594 12.515625 31.433594 12.507812 31.433594 12.5 C 31.433594 12.429688 31.46875 12.371094 31.535156 12.328125 C 31.605469 12.289062 31.703125 12.265625 31.828125 12.265625 Z M 31.933594 12.710938 C 31.855469 12.710938 31.792969 12.71875 31.753906 12.738281 C 31.714844 12.753906 31.699219 12.777344 31.699219 12.808594 C 31.699219 12.855469 31.730469 12.878906 31.792969 12.878906 C 31.832031 12.878906 31.863281 12.871094 31.890625 12.847656 C 31.921875 12.828125 31.933594 12.804688 31.933594 12.773438 Z M 31.933594 12.710938 " fill-opacity="1" fill-rule="nonzero"/><path fill="#ffffff" d="M 32.890625 12.285156 L 32.890625 12.476562 L 32.730469 12.476562 L 32.730469 12.765625 C 32.730469 12.800781 32.734375 12.824219 32.746094 12.839844 C 32.757812 12.855469 32.777344 12.863281 32.808594 12.863281 L 32.890625 12.863281 L 32.890625 13.03125 C 32.867188 13.039062 32.835938 13.042969 32.800781 13.050781 C 32.765625 13.054688 32.734375 13.058594 32.707031 13.058594 C 32.621094 13.058594 32.558594 13.042969 32.511719 13.011719 C 32.46875 12.980469 32.445312 12.929688 32.445312 12.855469 L 32.445312 12.476562 L 32.339844 12.476562 L 32.339844 12.285156 L 32.457031 12.285156 L 32.515625 12.054688 L 32.730469 12.054688 L 32.730469 12.285156 Z M 32.890625 12.285156 " fill-opacity="1" fill-rule="nonzero"/><path fill="#ffffff" d="M 28.546875 9.253906 C 28.648438 9.253906 28.738281 9.269531 28.8125 9.300781 C 28.890625 9.335938 28.949219 9.378906 28.988281 9.441406 C 29.03125 9.5 29.050781 9.570312 29.050781 9.648438 C 29.050781 9.722656 29.03125 9.789062 28.996094 9.847656 C 28.960938 9.910156 28.914062 9.960938 28.855469 10.007812 C 28.800781 10.054688 28.722656 10.109375 28.625 10.175781 C 28.570312 10.210938 28.527344 10.242188 28.492188 10.265625 L 29.066406 10.265625 L 29.066406 10.589844 L 27.980469 10.589844 L 27.980469 10.496094 C 27.980469 10.429688 27.996094 10.371094 28.027344 10.316406 C 28.058594 10.265625 28.101562 10.210938 28.164062 10.15625 C 28.222656 10.105469 28.3125 10.03125 28.425781 9.941406 C 28.519531 9.867188 28.582031 9.8125 28.617188 9.773438 C 28.65625 9.734375 28.675781 9.699219 28.675781 9.660156 C 28.675781 9.621094 28.660156 9.589844 28.632812 9.5625 C 28.605469 9.535156 28.566406 9.523438 28.511719 9.523438 C 28.453125 9.523438 28.40625 9.539062 28.375 9.570312 C 28.339844 9.605469 28.324219 9.648438 28.324219 9.703125 L 28.324219 9.738281 L 27.984375 9.738281 C 27.984375 9.730469 27.984375 9.714844 27.984375 9.699219 C 27.984375 9.558594 28.03125 9.453125 28.125 9.375 C 28.222656 9.292969 28.363281 9.253906 28.546875 9.253906 Z M 28.546875 9.253906 " fill-opacity="1" fill-rule="nonzero"/><path fill="#ffffff" d="M 29.796875 9.253906 C 30.003906 9.253906 30.144531 9.3125 30.230469 9.429688 C 30.3125 9.542969 30.355469 9.710938 30.355469 9.933594 C 30.355469 10.152344 30.3125 10.320312 30.230469 10.4375 C 30.144531 10.554688 30.003906 10.613281 29.796875 10.613281 C 29.589844 10.613281 29.445312 10.554688 29.363281 10.4375 C 29.28125 10.320312 29.238281 10.152344 29.238281 9.933594 C 29.238281 9.710938 29.28125 9.542969 29.363281 9.429688 C 29.445312 9.3125 29.589844 9.253906 29.796875 9.253906 Z M 29.796875 9.511719 C 29.730469 9.511719 29.683594 9.535156 29.65625 9.585938 C 29.628906 9.636719 29.613281 9.722656 29.613281 9.835938 L 29.613281 10.027344 C 29.613281 10.144531 29.628906 10.226562 29.65625 10.277344 C 29.683594 10.328125 29.730469 10.355469 29.796875 10.355469 C 29.863281 10.355469 29.910156 10.328125 29.9375 10.277344 C 29.964844 10.226562 29.976562 10.144531 29.976562 10.027344 L 29.976562 9.835938 C 29.976562 9.71875 29.964844 9.636719 29.9375 9.585938 C 29.910156 9.535156 29.863281 9.511719 29.796875 9.511719 Z M 29.796875 9.511719 " fill-opacity="1" fill-rule="nonzero"/><path fill="#ffffff" d="M 31.09375 9.253906 C 31.195312 9.253906 31.285156 9.269531 31.359375 9.300781 C 31.4375 9.335938 31.496094 9.378906 31.535156 9.441406 C 31.578125 9.5 31.601562 9.570312 31.601562 9.648438 C 31.601562 9.722656 31.582031 9.789062 31.542969 9.847656 C 31.507812 9.910156 31.460938 9.960938 31.40625 10.007812 C 31.347656 10.054688 31.273438 10.109375 31.175781 10.175781 C 31.121094 10.210938 31.074219 10.242188 31.039062 10.265625 L 31.613281 10.265625 L 31.613281 10.589844 L 30.527344 10.589844 L 30.527344 10.496094 C 30.527344 10.429688 30.542969 10.371094 30.574219 10.316406 C 30.605469 10.265625 30.652344 10.210938 30.710938 10.15625 C 30.773438 10.105469 30.859375 10.03125 30.972656 9.941406 C 31.066406 9.867188 31.128906 9.8125 31.167969 9.773438 C 31.203125 9.734375 31.222656 9.699219 31.222656 9.660156 C 31.222656 9.621094 31.207031 9.589844 31.179688 9.5625 C 31.152344 9.535156 31.113281 9.523438 31.058594 9.523438 C 31 9.523438 30.957031 9.539062 30.921875 9.570312 C 30.890625 9.605469 30.871094 9.648438 30.871094 9.703125 L 30.871094 9.738281 L 30.535156 9.738281 C 30.53125 9.730469 30.53125 9.714844 30.53125 9.699219 C 30.53125 9.558594 30.578125 9.453125 30.675781 9.375 C 30.769531 9.292969 30.910156 9.253906 31.09375 9.253906 Z M 31.09375 9.253906 " fill-opacity="1" fill-rule="nonzero"/><path fill="#ffffff" d="M 32.367188 9.253906 C 32.472656 9.253906 32.558594 9.269531 32.636719 9.300781 C 32.710938 9.335938 32.769531 9.378906 32.8125 9.441406 C 32.851562 9.5 32.875 9.570312 32.875 9.648438 C 32.875 9.722656 32.855469 9.789062 32.816406 9.847656 C 32.78125 9.910156 32.734375 9.960938 32.679688 10.007812 C 32.625 10.054688 32.546875 10.109375 32.449219 10.175781 C 32.394531 10.210938 32.347656 10.242188 32.316406 10.265625 L 32.890625 10.265625 L 32.890625 10.589844 L 31.800781 10.589844 L 31.800781 10.496094 C 31.800781 10.429688 31.816406 10.371094 31.847656 10.316406 C 31.878906 10.265625 31.925781 10.210938 31.984375 10.15625 C 32.046875 10.105469 32.132812 10.03125 32.246094 9.941406 C 32.339844 9.867188 32.402344 9.8125 32.441406 9.773438 C 32.476562 9.734375 32.496094 9.699219 32.496094 9.660156 C 32.496094 9.621094 32.480469 9.589844 32.453125 9.5625 C 32.425781 9.535156 32.386719 9.523438 32.332031 9.523438 C 32.273438 9.523438 32.230469 9.539062 32.195312 9.570312 C 32.164062 9.605469 32.148438 9.648438 32.148438 9.703125 L 32.148438 9.738281 L 31.808594 9.738281 C 31.804688 9.730469 31.804688 9.714844 31.804688 9.699219 C 31.804688 9.558594 31.851562 9.453125 31.949219 9.375 C 32.046875 9.292969 32.183594 9.253906 32.367188 9.253906 Z M 32.367188 9.253906 " fill-opacity="1" fill-rule="nonzero"/><path fill="#ffffff" d="M 15.003906 17.15625 L 15.003906 17.488281 L 13.890625 17.488281 L 13.890625 17.15625 L 14.242188 17.15625 L 14.242188 16.488281 L 13.890625 16.488281 L 13.890625 16.238281 C 13.984375 16.234375 14.09375 16.207031 14.210938 16.164062 C 14.332031 16.117188 14.433594 16.066406 14.523438 16.007812 L 14.667969 16.007812 L 14.667969 17.15625 Z M 15.003906 17.15625 " fill-opacity="1" fill-rule="nonzero"/><path fill="#ffffff" d="M 18.707031 15.980469 C 18.824219 15.980469 18.921875 16 19.007812 16.039062 C 19.09375 16.074219 19.160156 16.125 19.207031 16.191406 C 19.253906 16.261719 19.277344 16.339844 19.277344 16.425781 C 19.277344 16.511719 19.253906 16.585938 19.214844 16.652344 C 19.171875 16.722656 19.121094 16.78125 19.058594 16.832031 C 18.992188 16.882812 18.90625 16.945312 18.796875 17.023438 C 18.734375 17.0625 18.683594 17.097656 18.648438 17.125 L 19.292969 17.125 L 19.292969 17.488281 L 18.070312 17.488281 L 18.070312 17.386719 C 18.070312 17.308594 18.085938 17.242188 18.121094 17.183594 C 18.15625 17.121094 18.207031 17.0625 18.273438 17.003906 C 18.34375 16.941406 18.441406 16.859375 18.570312 16.757812 C 18.675781 16.675781 18.746094 16.613281 18.789062 16.570312 C 18.828125 16.527344 18.851562 16.484375 18.851562 16.441406 C 18.851562 16.398438 18.835938 16.359375 18.804688 16.332031 C 18.773438 16.300781 18.726562 16.285156 18.664062 16.285156 C 18.601562 16.285156 18.550781 16.304688 18.511719 16.339844 C 18.476562 16.378906 18.457031 16.425781 18.457031 16.488281 L 18.457031 16.53125 L 18.074219 16.53125 C 18.074219 16.519531 18.074219 16.503906 18.074219 16.484375 C 18.074219 16.328125 18.125 16.207031 18.234375 16.117188 C 18.34375 16.027344 18.5 15.980469 18.707031 15.980469 Z M 18.707031 15.980469 " fill-opacity="1" fill-rule="nonzero"/><path fill="#ffffff" d="M 22.992188 15.980469 C 23.109375 15.980469 23.210938 16 23.296875 16.035156 C 23.382812 16.070312 23.449219 16.121094 23.492188 16.183594 C 23.539062 16.242188 23.5625 16.308594 23.5625 16.382812 C 23.5625 16.460938 23.542969 16.527344 23.5 16.585938 C 23.460938 16.644531 23.410156 16.6875 23.347656 16.710938 L 23.347656 16.71875 C 23.429688 16.746094 23.492188 16.792969 23.535156 16.855469 C 23.582031 16.917969 23.605469 16.996094 23.605469 17.085938 C 23.597656 17.210938 23.542969 17.316406 23.441406 17.394531 C 23.335938 17.476562 23.183594 17.515625 22.980469 17.515625 C 22.84375 17.515625 22.726562 17.496094 22.632812 17.457031 C 22.535156 17.421875 22.464844 17.371094 22.421875 17.304688 C 22.375 17.242188 22.351562 17.167969 22.351562 17.089844 L 22.351562 17.042969 L 22.730469 17.042969 C 22.730469 17.160156 22.804688 17.21875 22.953125 17.21875 C 23.101562 17.21875 23.175781 17.152344 23.175781 17.023438 C 23.175781 16.972656 23.164062 16.933594 23.132812 16.90625 C 23.105469 16.878906 23.070312 16.867188 23.027344 16.867188 L 22.871094 16.867188 L 22.871094 16.601562 L 22.992188 16.601562 C 23.035156 16.601562 23.074219 16.589844 23.101562 16.5625 C 23.128906 16.535156 23.144531 16.496094 23.144531 16.445312 C 23.144531 16.398438 23.125 16.359375 23.089844 16.328125 C 23.058594 16.292969 23.011719 16.277344 22.953125 16.277344 C 22.890625 16.277344 22.84375 16.292969 22.808594 16.324219 C 22.777344 16.355469 22.757812 16.394531 22.757812 16.441406 L 22.398438 16.441406 L 22.398438 16.386719 C 22.398438 16.3125 22.421875 16.242188 22.46875 16.183594 C 22.515625 16.121094 22.582031 16.070312 22.671875 16.035156 C 22.761719 16 22.867188 15.980469 22.992188 15.980469 Z M 22.992188 15.980469 " fill-opacity="1" fill-rule="nonzero"/><path fill="#ffffff" d="M 27.445312 15.980469 C 27.433594 16.058594 27.398438 16.148438 27.339844 16.261719 C 27.28125 16.371094 27.210938 16.484375 27.128906 16.59375 C 27.050781 16.707031 26.976562 16.796875 26.902344 16.867188 L 27.328125 16.867188 L 27.328125 16.5625 C 27.375 16.496094 27.417969 16.421875 27.464844 16.335938 C 27.511719 16.25 27.542969 16.179688 27.554688 16.125 L 27.738281 16.125 L 27.738281 16.867188 L 27.945312 16.867188 L 27.945312 17.183594 L 27.738281 17.183594 L 27.738281 17.488281 L 27.328125 17.488281 L 27.328125 17.183594 L 26.609375 17.183594 L 26.609375 16.863281 C 26.6875 16.753906 26.765625 16.617188 26.839844 16.457031 C 26.914062 16.296875 26.976562 16.140625 27.023438 15.980469 Z M 27.445312 15.980469 " fill-opacity="1" fill-rule="nonzero"/><path fill="#ffffff" d="M 31.390625 16.375 L 31.371094 16.597656 C 31.371094 16.59375 31.386719 16.585938 31.414062 16.570312 C 31.445312 16.550781 31.484375 16.535156 31.53125 16.523438 C 31.578125 16.507812 31.628906 16.5 31.6875 16.5 C 31.847656 16.5 31.972656 16.546875 32.0625 16.636719 C 32.15625 16.726562 32.203125 16.847656 32.203125 17.003906 C 32.203125 17.097656 32.175781 17.183594 32.128906 17.261719 C 32.078125 17.339844 32.007812 17.402344 31.914062 17.449219 C 31.824219 17.492188 31.714844 17.515625 31.597656 17.515625 C 31.386719 17.515625 31.222656 17.46875 31.109375 17.378906 C 31 17.289062 30.941406 17.164062 30.941406 17.011719 L 31.320312 17.011719 C 31.320312 17.070312 31.339844 17.117188 31.382812 17.160156 C 31.421875 17.199219 31.476562 17.21875 31.550781 17.21875 C 31.625 17.21875 31.679688 17.199219 31.71875 17.15625 C 31.757812 17.117188 31.777344 17.0625 31.777344 16.996094 C 31.777344 16.933594 31.757812 16.878906 31.71875 16.839844 C 31.679688 16.796875 31.625 16.777344 31.554688 16.777344 C 31.5 16.777344 31.457031 16.785156 31.429688 16.804688 C 31.402344 16.820312 31.382812 16.839844 31.367188 16.855469 C 31.355469 16.871094 31.351562 16.878906 31.347656 16.882812 L 31.007812 16.835938 L 31.070312 16.007812 L 32.09375 16.007812 L 32.09375 16.375 Z M 31.390625 16.375 " fill-opacity="1" fill-rule="nonzero"/><path fill="#f53d74" d="M 5.796875 19.328125 C 5.976562 19.328125 6.117188 19.375 6.226562 19.460938 C 6.332031 19.546875 6.386719 19.667969 6.386719 19.828125 L 6.003906 19.828125 L 6.003906 19.8125 C 6.003906 19.757812 5.988281 19.710938 5.953125 19.675781 C 5.917969 19.636719 5.867188 19.621094 5.800781 19.621094 C 5.734375 19.621094 5.683594 19.644531 5.644531 19.691406 C 5.605469 19.738281 5.585938 19.800781 5.585938 19.878906 L 5.585938 20.003906 C 5.628906 19.964844 5.679688 19.9375 5.734375 19.917969 C 5.792969 19.898438 5.847656 19.890625 5.898438 19.890625 C 5.996094 19.890625 6.085938 19.910156 6.164062 19.945312 C 6.246094 19.980469 6.308594 20.03125 6.355469 20.101562 C 6.398438 20.167969 6.421875 20.25 6.421875 20.34375 C 6.421875 20.507812 6.367188 20.636719 6.253906 20.726562 C 6.140625 20.816406 5.988281 20.863281 5.796875 20.863281 C 5.578125 20.863281 5.417969 20.800781 5.3125 20.683594 C 5.207031 20.566406 5.15625 20.382812 5.15625 20.132812 C 5.15625 19.847656 5.207031 19.644531 5.308594 19.519531 C 5.414062 19.394531 5.578125 19.328125 5.796875 19.328125 Z M 5.796875 20.148438 C 5.730469 20.148438 5.679688 20.167969 5.640625 20.207031 C 5.605469 20.242188 5.585938 20.292969 5.585938 20.359375 C 5.585938 20.425781 5.605469 20.480469 5.640625 20.515625 C 5.675781 20.554688 5.726562 20.570312 5.796875 20.570312 C 5.863281 20.570312 5.917969 20.554688 5.953125 20.519531 C 5.988281 20.484375 6.007812 20.433594 6.007812 20.363281 C 6.007812 20.296875 5.988281 20.246094 5.953125 20.207031 C 5.917969 20.167969 5.863281 20.148438 5.796875 20.148438 Z M 5.796875 20.148438 " fill-opacity="1" fill-rule="nonzero"/><path fill="#ffffff" d="M 10.710938 19.550781 C 10.546875 19.753906 10.417969 19.945312 10.320312 20.132812 C 10.230469 20.316406 10.183594 20.507812 10.183594 20.707031 L 10.183594 20.835938 L 9.707031 20.835938 C 9.707031 20.640625 9.746094 20.449219 9.828125 20.261719 C 9.914062 20.070312 10.027344 19.894531 10.171875 19.726562 L 9.460938 19.726562 L 9.460938 19.355469 L 10.710938 19.355469 Z M 10.710938 19.550781 " fill-opacity="1" fill-rule="nonzero"/><path fill="#ffffff" d="M 14.378906 19.328125 C 14.484375 19.328125 14.582031 19.347656 14.671875 19.382812 C 14.757812 19.414062 14.828125 19.464844 14.875 19.53125 C 14.929688 19.597656 14.953125 19.675781 14.953125 19.765625 C 14.953125 19.84375 14.9375 19.902344 14.910156 19.945312 C 14.878906 19.992188 14.832031 20.035156 14.773438 20.078125 L 14.773438 20.085938 C 14.851562 20.132812 14.910156 20.179688 14.949219 20.230469 C 14.988281 20.28125 15.011719 20.347656 15.011719 20.429688 C 15.011719 20.566406 14.953125 20.675781 14.839844 20.75 C 14.726562 20.824219 14.574219 20.863281 14.378906 20.863281 C 14.183594 20.863281 14.03125 20.824219 13.917969 20.75 C 13.808594 20.675781 13.753906 20.566406 13.753906 20.429688 C 13.753906 20.347656 13.773438 20.28125 13.808594 20.230469 C 13.847656 20.179688 13.90625 20.132812 13.988281 20.085938 L 13.988281 20.078125 C 13.925781 20.035156 13.882812 19.992188 13.851562 19.945312 C 13.820312 19.902344 13.804688 19.84375 13.804688 19.765625 C 13.804688 19.675781 13.832031 19.597656 13.882812 19.53125 C 13.929688 19.464844 14 19.414062 14.085938 19.382812 C 14.171875 19.347656 14.269531 19.328125 14.378906 19.328125 Z M 14.378906 19.621094 C 14.316406 19.621094 14.269531 19.632812 14.230469 19.660156 C 14.199219 19.6875 14.179688 19.726562 14.179688 19.785156 C 14.179688 19.839844 14.199219 19.878906 14.234375 19.90625 C 14.269531 19.933594 14.320312 19.945312 14.378906 19.945312 C 14.4375 19.945312 14.484375 19.933594 14.523438 19.90625 C 14.5625 19.878906 14.582031 19.839844 14.582031 19.785156 C 14.582031 19.726562 14.5625 19.6875 14.527344 19.660156 C 14.488281 19.632812 14.441406 19.621094 14.378906 19.621094 Z M 14.378906 20.21875 C 14.320312 20.21875 14.273438 20.234375 14.234375 20.265625 C 14.199219 20.296875 14.179688 20.339844 14.179688 20.394531 C 14.179688 20.449219 14.199219 20.496094 14.234375 20.527344 C 14.269531 20.554688 14.316406 20.570312 14.378906 20.570312 C 14.4375 20.570312 14.488281 20.554688 14.523438 20.527344 C 14.5625 20.496094 14.582031 20.449219 14.582031 20.394531 C 14.582031 20.339844 14.5625 20.296875 14.523438 20.265625 C 14.484375 20.234375 14.433594 20.21875 14.378906 20.21875 Z M 14.378906 20.21875 " fill-opacity="1" fill-rule="nonzero"/><path fill="#ffffff" d="M 18.667969 19.328125 C 18.882812 19.328125 19.042969 19.390625 19.148438 19.507812 C 19.253906 19.625 19.308594 19.808594 19.308594 20.058594 C 19.308594 20.339844 19.257812 20.546875 19.152344 20.671875 C 19.046875 20.796875 18.886719 20.863281 18.667969 20.863281 C 18.488281 20.863281 18.34375 20.820312 18.238281 20.734375 C 18.128906 20.644531 18.078125 20.523438 18.078125 20.363281 L 18.460938 20.363281 L 18.460938 20.378906 C 18.460938 20.433594 18.476562 20.480469 18.511719 20.515625 C 18.546875 20.554688 18.59375 20.570312 18.660156 20.570312 C 18.730469 20.570312 18.78125 20.546875 18.820312 20.503906 C 18.855469 20.453125 18.875 20.390625 18.875 20.3125 L 18.875 20.1875 C 18.835938 20.226562 18.785156 20.253906 18.726562 20.273438 C 18.671875 20.289062 18.617188 20.300781 18.566406 20.300781 C 18.464844 20.300781 18.375 20.28125 18.296875 20.25 C 18.21875 20.210938 18.15625 20.160156 18.109375 20.09375 C 18.0625 20.023438 18.039062 19.941406 18.039062 19.847656 C 18.039062 19.683594 18.097656 19.554688 18.207031 19.464844 C 18.320312 19.375 18.472656 19.328125 18.667969 19.328125 Z M 18.664062 19.621094 C 18.597656 19.621094 18.546875 19.636719 18.507812 19.675781 C 18.472656 19.710938 18.457031 19.761719 18.457031 19.832031 C 18.457031 19.898438 18.472656 19.949219 18.507812 19.988281 C 18.542969 20.023438 18.597656 20.042969 18.664062 20.042969 C 18.734375 20.042969 18.785156 20.023438 18.820312 19.988281 C 18.859375 19.953125 18.875 19.902344 18.875 19.835938 C 18.875 19.769531 18.859375 19.714844 18.820312 19.679688 C 18.785156 19.640625 18.734375 19.621094 18.664062 19.621094 Z M 18.664062 19.621094 " fill-opacity="1" fill-rule="nonzero"/><path fill="#ffffff" d="M 22.886719 20.503906 L 22.886719 20.835938 L 21.769531 20.835938 L 21.769531 20.503906 L 22.121094 20.503906 L 22.121094 19.835938 L 21.769531 19.835938 L 21.769531 19.585938 C 21.867188 19.578125 21.972656 19.554688 22.09375 19.511719 C 22.210938 19.464844 22.316406 19.410156 22.402344 19.351562 L 22.546875 19.351562 L 22.546875 20.503906 Z M 22.886719 20.503906 " fill-opacity="1" fill-rule="nonzero"/><path fill="#ffffff" d="M 23.699219 19.328125 C 23.929688 19.328125 24.089844 19.394531 24.183594 19.527344 C 24.277344 19.65625 24.324219 19.847656 24.324219 20.09375 C 24.324219 20.34375 24.277344 20.535156 24.183594 20.664062 C 24.089844 20.796875 23.929688 20.863281 23.699219 20.863281 C 23.464844 20.863281 23.300781 20.796875 23.207031 20.664062 C 23.113281 20.535156 23.066406 20.34375 23.066406 20.09375 C 23.066406 19.847656 23.113281 19.65625 23.207031 19.527344 C 23.300781 19.394531 23.464844 19.328125 23.699219 19.328125 Z M 23.699219 19.621094 C 23.625 19.621094 23.570312 19.648438 23.539062 19.707031 C 23.507812 19.761719 23.492188 19.855469 23.492188 19.988281 L 23.492188 20.199219 C 23.492188 20.332031 23.507812 20.425781 23.539062 20.484375 C 23.570312 20.542969 23.625 20.570312 23.699219 20.570312 C 23.773438 20.570312 23.824219 20.542969 23.855469 20.484375 C 23.882812 20.425781 23.898438 20.332031 23.898438 20.199219 L 23.898438 19.988281 C 23.898438 19.855469 23.882812 19.761719 23.855469 19.707031 C 23.824219 19.648438 23.773438 19.621094 23.699219 19.621094 Z M 23.699219 19.621094 " fill-opacity="1" fill-rule="nonzero"/><path fill="#ffffff" d="M 27.183594 20.503906 L 27.183594 20.835938 L 26.066406 20.835938 L 26.066406 20.503906 L 26.417969 20.503906 L 26.417969 19.835938 L 26.066406 19.835938 L 26.066406 19.585938 C 26.164062 19.578125 26.273438 19.554688 26.390625 19.511719 C 26.507812 19.464844 26.613281 19.410156 26.703125 19.351562 L 26.847656 19.351562 L 26.847656 20.503906 Z M 27.183594 20.503906 " fill-opacity="1" fill-rule="nonzero"/><path fill="#ffffff" d="M 28.621094 20.503906 L 28.621094 20.835938 L 27.503906 20.835938 L 27.503906 20.503906 L 27.855469 20.503906 L 27.855469 19.835938 L 27.503906 19.835938 L 27.503906 19.585938 C 27.601562 19.578125 27.707031 19.554688 27.828125 19.511719 C 27.945312 19.464844 28.050781 19.410156 28.136719 19.351562 L 28.28125 19.351562 L 28.28125 20.503906 Z M 28.621094 20.503906 " fill-opacity="1" fill-rule="nonzero"/><path fill="#ffffff" d="M 31.484375 20.503906 L 31.484375 20.835938 L 30.367188 20.835938 L 30.367188 20.503906 L 30.71875 20.503906 L 30.71875 19.835938 L 30.367188 19.835938 L 30.367188 19.585938 C 30.464844 19.578125 30.570312 19.554688 30.6875 19.511719 C 30.808594 19.464844 30.910156 19.410156 31 19.351562 L 31.144531 19.351562 L 31.144531 20.503906 Z M 31.484375 20.503906 " fill-opacity="1" fill-rule="nonzero"/><path fill="#ffffff" d="M 32.320312 19.328125 C 32.4375 19.328125 32.535156 19.347656 32.621094 19.386719 C 32.707031 19.421875 32.773438 19.472656 32.820312 19.539062 C 32.867188 19.609375 32.890625 19.6875 32.890625 19.773438 C 32.890625 19.859375 32.871094 19.933594 32.828125 20 C 32.785156 20.066406 32.734375 20.128906 32.671875 20.179688 C 32.609375 20.230469 32.519531 20.292969 32.410156 20.367188 C 32.347656 20.410156 32.300781 20.445312 32.261719 20.472656 L 32.90625 20.472656 L 32.90625 20.835938 L 31.683594 20.835938 L 31.683594 20.734375 C 31.683594 20.65625 31.699219 20.589844 31.734375 20.53125 C 31.769531 20.46875 31.820312 20.410156 31.890625 20.347656 C 31.957031 20.289062 32.054688 20.207031 32.183594 20.105469 C 32.289062 20.023438 32.359375 19.960938 32.402344 19.917969 C 32.445312 19.875 32.464844 19.832031 32.464844 19.789062 C 32.464844 19.746094 32.449219 19.707031 32.417969 19.679688 C 32.386719 19.648438 32.339844 19.632812 32.28125 19.632812 C 32.214844 19.632812 32.164062 19.652344 32.128906 19.6875 C 32.089844 19.726562 32.070312 19.773438 32.070312 19.835938 L 32.070312 19.878906 L 31.6875 19.878906 C 31.6875 19.867188 31.6875 19.851562 31.6875 19.832031 C 31.6875 19.675781 31.742188 19.554688 31.847656 19.464844 C 31.957031 19.375 32.113281 19.328125 32.320312 19.328125 Z M 32.320312 19.328125 " fill-opacity="1" fill-rule="nonzero"/><path fill="#f53d74" d="M 5.691406 23.851562 L 5.691406 24.183594 L 4.574219 24.183594 L 4.574219 23.851562 L 4.925781 23.851562 L 4.925781 23.183594 L 4.574219 23.183594 L 4.574219 22.933594 C 4.671875 22.925781 4.777344 22.902344 4.898438 22.859375 C 5.015625 22.8125 5.121094 22.757812 5.207031 22.699219 L 5.351562 22.699219 L 5.351562 23.851562 Z M 5.691406 23.851562 " fill-opacity="1" fill-rule="nonzero"/><path fill="#f53d74" d="M 6.511719 22.675781 C 6.632812 22.675781 6.734375 22.695312 6.820312 22.730469 C 6.90625 22.765625 6.972656 22.816406 7.015625 22.875 C 7.0625 22.9375 7.085938 23.003906 7.085938 23.078125 C 7.085938 23.152344 7.066406 23.222656 7.023438 23.28125 C 6.984375 23.339844 6.933594 23.382812 6.871094 23.40625 L 6.871094 23.414062 C 6.953125 23.441406 7.015625 23.484375 7.058594 23.550781 C 7.105469 23.613281 7.128906 23.691406 7.128906 23.78125 C 7.121094 23.90625 7.066406 24.011719 6.960938 24.089844 C 6.859375 24.167969 6.707031 24.207031 6.503906 24.207031 C 6.367188 24.207031 6.25 24.191406 6.15625 24.152344 C 6.058594 24.117188 5.988281 24.066406 5.945312 24 C 5.898438 23.933594 5.875 23.863281 5.875 23.78125 L 5.875 23.738281 L 6.253906 23.738281 C 6.253906 23.855469 6.328125 23.914062 6.476562 23.914062 C 6.625 23.914062 6.699219 23.847656 6.699219 23.714844 C 6.699219 23.664062 6.6875 23.628906 6.65625 23.601562 C 6.628906 23.574219 6.59375 23.5625 6.550781 23.5625 L 6.394531 23.5625 L 6.394531 23.296875 L 6.515625 23.296875 C 6.558594 23.296875 6.597656 23.285156 6.625 23.257812 C 6.652344 23.230469 6.667969 23.191406 6.667969 23.140625 C 6.667969 23.09375 6.648438 23.054688 6.613281 23.019531 C 6.582031 22.988281 6.535156 22.972656 6.476562 22.972656 C 6.414062 22.972656 6.367188 22.988281 6.332031 23.019531 C 6.296875 23.050781 6.28125 23.089844 6.28125 23.136719 L 5.921875 23.136719 L 5.921875 23.082031 C 5.921875 23.007812 5.945312 22.9375 5.992188 22.875 C 6.039062 22.816406 6.105469 22.765625 6.195312 22.730469 C 6.285156 22.695312 6.390625 22.675781 6.511719 22.675781 Z M 6.511719 22.675781 " fill-opacity="1" fill-rule="nonzero"/><path fill="#ffffff" d="M 9.988281 23.851562 L 9.988281 24.183594 L 8.875 24.183594 L 8.875 23.851562 L 9.222656 23.851562 L 9.222656 23.183594 L 8.875 23.183594 L 8.875 22.933594 C 8.96875 22.925781 9.078125 22.902344 9.195312 22.859375 C 9.316406 22.8125 9.417969 22.757812 9.507812 22.699219 L 9.652344 22.699219 L 9.652344 23.851562 Z M 9.988281 23.851562 " fill-opacity="1" fill-rule="nonzero"/><path fill="#ffffff" d="M 10.96875 22.675781 C 10.957031 22.75 10.921875 22.84375 10.863281 22.957031 C 10.804688 23.066406 10.734375 23.179688 10.652344 23.289062 C 10.574219 23.402344 10.496094 23.492188 10.425781 23.5625 L 10.851562 23.5625 L 10.851562 23.253906 C 10.898438 23.191406 10.941406 23.117188 10.988281 23.03125 C 11.035156 22.945312 11.0625 22.875 11.078125 22.820312 L 11.261719 22.820312 L 11.261719 23.5625 L 11.46875 23.5625 L 11.46875 23.878906 L 11.261719 23.878906 L 11.261719 24.183594 L 10.851562 24.183594 L 10.851562 23.878906 L 10.132812 23.878906 L 10.132812 23.558594 C 10.210938 23.445312 10.285156 23.3125 10.363281 23.152344 C 10.4375 22.992188 10.5 22.835938 10.546875 22.675781 Z M 10.96875 22.675781 " fill-opacity="1" fill-rule="nonzero"/><path fill="#ffffff" d="M 14.289062 23.851562 L 14.289062 24.183594 L 13.171875 24.183594 L 13.171875 23.851562 L 13.523438 23.851562 L 13.523438 23.183594 L 13.171875 23.183594 L 13.171875 22.933594 C 13.269531 22.925781 13.375 22.902344 13.496094 22.859375 C 13.613281 22.8125 13.71875 22.757812 13.804688 22.699219 L 13.949219 22.699219 L 13.949219 23.851562 Z M 14.289062 23.851562 " fill-opacity="1" fill-rule="nonzero"/><path fill="#ffffff" d="M 14.914062 23.070312 L 14.894531 23.292969 C 14.894531 23.289062 14.910156 23.28125 14.9375 23.265625 C 14.96875 23.246094 15.003906 23.230469 15.054688 23.21875 C 15.101562 23.203125 15.152344 23.195312 15.210938 23.195312 C 15.371094 23.195312 15.496094 23.242188 15.585938 23.332031 C 15.679688 23.417969 15.726562 23.542969 15.726562 23.699219 C 15.726562 23.792969 15.699219 23.878906 15.648438 23.957031 C 15.601562 24.035156 15.527344 24.097656 15.4375 24.140625 C 15.347656 24.1875 15.238281 24.207031 15.121094 24.207031 C 14.910156 24.207031 14.746094 24.164062 14.632812 24.074219 C 14.523438 23.984375 14.464844 23.859375 14.464844 23.707031 L 14.84375 23.707031 C 14.84375 23.765625 14.863281 23.8125 14.90625 23.855469 C 14.945312 23.890625 15 23.910156 15.074219 23.910156 C 15.148438 23.910156 15.203125 23.890625 15.242188 23.851562 C 15.28125 23.808594 15.300781 23.757812 15.300781 23.691406 C 15.300781 23.625 15.28125 23.574219 15.242188 23.53125 C 15.203125 23.492188 15.148438 23.472656 15.078125 23.472656 C 15.023438 23.472656 14.980469 23.480469 14.953125 23.5 C 14.925781 23.515625 14.90625 23.53125 14.890625 23.546875 C 14.878906 23.5625 14.871094 23.574219 14.871094 23.578125 L 14.53125 23.53125 L 14.59375 22.703125 L 15.617188 22.703125 L 15.617188 23.070312 Z M 14.914062 23.070312 " fill-opacity="1" fill-rule="nonzero"/><path fill="#ffffff" d="M 18.585938 23.851562 L 18.585938 24.183594 L 17.472656 24.183594 L 17.472656 23.851562 L 17.820312 23.851562 L 17.820312 23.183594 L 17.472656 23.183594 L 17.472656 22.933594 C 17.566406 22.925781 17.675781 22.902344 17.792969 22.859375 C 17.914062 22.8125 18.015625 22.757812 18.105469 22.699219 L 18.25 22.699219 L 18.25 23.851562 Z M 18.585938 23.851562 " fill-opacity="1" fill-rule="nonzero"/><path fill="#ffffff" d="M 19.410156 22.675781 C 19.589844 22.675781 19.730469 22.71875 19.839844 22.808594 C 19.945312 22.894531 20 23.015625 20 23.175781 L 19.617188 23.175781 L 19.617188 23.160156 C 19.617188 23.105469 19.601562 23.058594 19.566406 23.023438 C 19.53125 22.984375 19.480469 22.96875 19.414062 22.96875 C 19.347656 22.96875 19.296875 22.992188 19.257812 23.039062 C 19.21875 23.085938 19.199219 23.148438 19.199219 23.226562 L 19.199219 23.351562 C 19.242188 23.3125 19.292969 23.285156 19.347656 23.265625 C 19.40625 23.246094 19.460938 23.238281 19.511719 23.238281 C 19.613281 23.238281 19.699219 23.257812 19.777344 23.292969 C 19.859375 23.328125 19.921875 23.378906 19.96875 23.445312 C 20.015625 23.515625 20.039062 23.597656 20.039062 23.691406 C 20.039062 23.855469 19.980469 23.984375 19.867188 24.074219 C 19.753906 24.164062 19.601562 24.207031 19.410156 24.207031 C 19.191406 24.207031 19.03125 24.148438 18.925781 24.03125 C 18.820312 23.914062 18.769531 23.730469 18.769531 23.480469 C 18.769531 23.195312 18.820312 22.992188 18.921875 22.867188 C 19.027344 22.738281 19.191406 22.675781 19.410156 22.675781 Z M 19.410156 23.496094 C 19.34375 23.496094 19.292969 23.515625 19.253906 23.550781 C 19.21875 23.589844 19.199219 23.640625 19.199219 23.707031 C 19.199219 23.773438 19.21875 23.828125 19.253906 23.863281 C 19.289062 23.898438 19.34375 23.917969 19.410156 23.917969 C 19.476562 23.917969 19.53125 23.902344 19.566406 23.867188 C 19.605469 23.832031 19.621094 23.777344 19.621094 23.710938 C 19.621094 23.644531 19.605469 23.59375 19.566406 23.554688 C 19.53125 23.515625 19.480469 23.496094 19.410156 23.496094 Z M 19.410156 23.496094 " fill-opacity="1" fill-rule="nonzero"/><path fill="#ffffff" d="M 22.886719 23.851562 L 22.886719 24.183594 L 21.769531 24.183594 L 21.769531 23.851562 L 22.121094 23.851562 L 22.121094 23.183594 L 21.769531 23.183594 L 21.769531 22.933594 C 21.867188 22.925781 21.972656 22.902344 22.09375 22.859375 C 22.210938 22.8125 22.316406 22.757812 22.402344 22.699219 L 22.546875 22.699219 L 22.546875 23.851562 Z M 22.886719 23.851562 " fill-opacity="1" fill-rule="nonzero"/><path fill="#ffffff" d="M 24.324219 22.898438 C 24.160156 23.101562 24.03125 23.292969 23.9375 23.480469 C 23.84375 23.664062 23.796875 23.855469 23.796875 24.054688 L 23.796875 24.183594 L 23.320312 24.183594 C 23.320312 23.988281 23.359375 23.796875 23.445312 23.609375 C 23.527344 23.417969 23.640625 23.242188 23.785156 23.074219 L 23.078125 23.074219 L 23.078125 22.703125 L 24.324219 22.703125 Z M 24.324219 22.898438 " fill-opacity="1" fill-rule="nonzero"/><path fill="#ffffff" d="M 27.183594 23.851562 L 27.183594 24.183594 L 26.066406 24.183594 L 26.066406 23.851562 L 26.417969 23.851562 L 26.417969 23.183594 L 26.066406 23.183594 L 26.066406 22.933594 C 26.164062 22.925781 26.273438 22.902344 26.390625 22.859375 C 26.507812 22.8125 26.613281 22.757812 26.703125 22.699219 L 26.847656 22.699219 L 26.847656 23.851562 Z M 27.183594 23.851562 " fill-opacity="1" fill-rule="nonzero"/><path fill="#ffffff" d="M 27.992188 22.675781 C 28.097656 22.675781 28.195312 22.695312 28.285156 22.726562 C 28.371094 22.761719 28.441406 22.8125 28.492188 22.878906 C 28.542969 22.945312 28.566406 23.023438 28.566406 23.113281 C 28.566406 23.191406 28.554688 23.25 28.523438 23.292969 C 28.492188 23.339844 28.449219 23.382812 28.386719 23.425781 L 28.386719 23.433594 C 28.464844 23.480469 28.523438 23.527344 28.5625 23.578125 C 28.605469 23.628906 28.625 23.695312 28.625 23.777344 C 28.625 23.914062 28.566406 24.023438 28.453125 24.097656 C 28.339844 24.171875 28.1875 24.207031 27.992188 24.207031 C 27.796875 24.207031 27.644531 24.171875 27.53125 24.097656 C 27.421875 24.023438 27.367188 23.914062 27.367188 23.777344 C 27.367188 23.695312 27.386719 23.628906 27.425781 23.578125 C 27.464844 23.527344 27.523438 23.480469 27.601562 23.433594 L 27.601562 23.425781 C 27.539062 23.382812 27.496094 23.339844 27.464844 23.292969 C 27.433594 23.25 27.421875 23.191406 27.421875 23.113281 C 27.421875 23.023438 27.445312 22.945312 27.496094 22.878906 C 27.546875 22.8125 27.613281 22.761719 27.699219 22.726562 C 27.785156 22.695312 27.882812 22.675781 27.992188 22.675781 Z M 27.992188 22.96875 C 27.929688 22.96875 27.882812 22.980469 27.84375 23.007812 C 27.8125 23.035156 27.792969 23.074219 27.792969 23.128906 C 27.792969 23.183594 27.8125 23.226562 27.847656 23.253906 C 27.886719 23.277344 27.933594 23.292969 27.992188 23.292969 C 28.050781 23.292969 28.097656 23.277344 28.136719 23.253906 C 28.175781 23.226562 28.195312 23.183594 28.195312 23.128906 C 28.195312 23.074219 28.175781 23.035156 28.140625 23.007812 C 28.101562 22.980469 28.054688 22.96875 27.992188 22.96875 Z M 27.992188 23.566406 C 27.9375 23.566406 27.890625 23.582031 27.851562 23.613281 C 27.8125 23.644531 27.792969 23.6875 27.792969 23.742188 C 27.792969 23.796875 27.8125 23.839844 27.847656 23.875 C 27.882812 23.902344 27.933594 23.917969 27.992188 23.917969 C 28.050781 23.917969 28.101562 23.902344 28.136719 23.875 C 28.175781 23.839844 28.195312 23.796875 28.195312 23.742188 C 28.195312 23.6875 28.175781 23.644531 28.136719 23.613281 C 28.097656 23.582031 28.050781 23.566406 27.992188 23.566406 Z M 27.992188 23.566406 " fill-opacity="1" fill-rule="nonzero"/><path fill="#ffffff" d="M 31.484375 23.851562 L 31.484375 24.183594 L 30.367188 24.183594 L 30.367188 23.851562 L 30.71875 23.851562 L 30.71875 23.183594 L 30.367188 23.183594 L 30.367188 22.933594 C 30.464844 22.925781 30.570312 22.902344 30.6875 22.859375 C 30.808594 22.8125 30.910156 22.757812 31 22.699219 L 31.144531 22.699219 L 31.144531 23.851562 Z M 31.484375 23.851562 " fill-opacity="1" fill-rule="nonzero"/><path fill="#ffffff" d="M 32.28125 22.675781 C 32.5 22.675781 32.660156 22.734375 32.761719 22.855469 C 32.871094 22.972656 32.921875 23.15625 32.921875 23.40625 C 32.921875 23.6875 32.871094 23.894531 32.765625 24.019531 C 32.664062 24.144531 32.5 24.207031 32.28125 24.207031 C 32.101562 24.207031 31.960938 24.164062 31.851562 24.078125 C 31.746094 23.992188 31.691406 23.867188 31.691406 23.710938 L 32.074219 23.710938 L 32.074219 23.726562 C 32.074219 23.78125 32.089844 23.828125 32.125 23.863281 C 32.160156 23.898438 32.210938 23.917969 32.277344 23.917969 C 32.34375 23.917969 32.394531 23.894531 32.433594 23.847656 C 32.472656 23.800781 32.492188 23.738281 32.492188 23.660156 L 32.492188 23.535156 C 32.449219 23.574219 32.398438 23.601562 32.34375 23.621094 C 32.285156 23.636719 32.230469 23.648438 32.179688 23.648438 C 32.078125 23.648438 31.992188 23.628906 31.910156 23.59375 C 31.832031 23.558594 31.769531 23.507812 31.722656 23.441406 C 31.675781 23.371094 31.65625 23.289062 31.65625 23.191406 C 31.65625 23.03125 31.710938 22.902344 31.820312 22.8125 C 31.933594 22.722656 32.089844 22.675781 32.28125 22.675781 Z M 32.28125 22.96875 C 32.210938 22.96875 32.160156 22.984375 32.121094 23.023438 C 32.085938 23.058594 32.070312 23.109375 32.070312 23.179688 C 32.070312 23.246094 32.085938 23.296875 32.121094 23.335938 C 32.160156 23.371094 32.210938 23.390625 32.277344 23.390625 C 32.347656 23.390625 32.398438 23.371094 32.433594 23.335938 C 32.472656 23.300781 32.492188 23.25 32.492188 23.183594 C 32.492188 23.113281 32.472656 23.0625 32.433594 23.023438 C 32.398438 22.988281 32.347656 22.96875 32.28125 22.96875 Z M 32.28125 22.96875 " fill-opacity="1" fill-rule="nonzero"/><path fill="#f53d74" d="M 5.09375 26.023438 C 5.207031 26.023438 5.308594 26.042969 5.394531 26.078125 C 5.480469 26.117188 5.546875 26.167969 5.589844 26.234375 C 5.640625 26.300781 5.664062 26.378906 5.664062 26.46875 C 5.664062 26.550781 5.640625 26.628906 5.601562 26.695312 C 5.558594 26.761719 5.507812 26.824219 5.441406 26.875 C 5.378906 26.925781 5.292969 26.988281 5.183594 27.0625 C 5.121094 27.101562 5.070312 27.136719 5.03125 27.167969 L 5.679688 27.167969 L 5.679688 27.53125 L 4.453125 27.53125 L 4.453125 27.425781 C 4.453125 27.351562 4.472656 27.285156 4.507812 27.226562 C 4.542969 27.164062 4.59375 27.105469 4.660156 27.042969 C 4.730469 26.984375 4.828125 26.902344 4.957031 26.796875 C 5.0625 26.71875 5.132812 26.65625 5.175781 26.613281 C 5.214844 26.570312 5.238281 26.527344 5.238281 26.484375 C 5.238281 26.441406 5.222656 26.402344 5.191406 26.371094 C 5.160156 26.34375 5.113281 26.328125 5.050781 26.328125 C 4.988281 26.328125 4.9375 26.347656 4.898438 26.382812 C 4.863281 26.421875 4.84375 26.46875 4.84375 26.53125 L 4.84375 26.574219 L 4.460938 26.574219 C 4.460938 26.5625 4.457031 26.546875 4.457031 26.527344 C 4.457031 26.371094 4.511719 26.25 4.621094 26.160156 C 4.730469 26.070312 4.886719 26.023438 5.09375 26.023438 Z M 5.09375 26.023438 " fill-opacity="1" fill-rule="nonzero"/><path fill="#f53d74" d="M 6.503906 26.023438 C 6.734375 26.023438 6.894531 26.089844 6.988281 26.222656 C 7.082031 26.351562 7.128906 26.542969 7.128906 26.789062 C 7.128906 27.039062 7.082031 27.226562 6.988281 27.359375 C 6.894531 27.492188 6.734375 27.554688 6.503906 27.554688 C 6.269531 27.554688 6.105469 27.492188 6.011719 27.359375 C 5.917969 27.226562 5.871094 27.039062 5.871094 26.789062 C 5.871094 26.542969 5.917969 26.351562 6.011719 26.222656 C 6.105469 26.089844 6.269531 26.023438 6.503906 26.023438 Z M 6.503906 26.316406 C 6.429688 26.316406 6.375 26.34375 6.34375 26.402344 C 6.3125 26.457031 6.296875 26.550781 6.296875 26.683594 L 6.296875 26.894531 C 6.296875 27.027344 6.3125 27.121094 6.34375 27.179688 C 6.375 27.238281 6.429688 27.265625 6.503906 27.265625 C 6.578125 27.265625 6.628906 27.238281 6.660156 27.179688 C 6.691406 27.121094 6.703125 27.027344 6.703125 26.894531 L 6.703125 26.683594 C 6.703125 26.550781 6.691406 26.457031 6.660156 26.402344 C 6.628906 26.34375 6.578125 26.316406 6.503906 26.316406 Z M 6.503906 26.316406 " fill-opacity="1" fill-rule="nonzero"/><path fill="#ffffff" d="M 9.390625 26.023438 C 9.507812 26.023438 9.609375 26.042969 9.691406 26.078125 C 9.777344 26.117188 9.84375 26.167969 9.890625 26.234375 C 9.9375 26.300781 9.960938 26.378906 9.960938 26.46875 C 9.960938 26.550781 9.941406 26.628906 9.898438 26.695312 C 9.855469 26.761719 9.804688 26.824219 9.742188 26.875 C 9.679688 26.925781 9.59375 26.988281 9.480469 27.0625 C 9.421875 27.101562 9.371094 27.136719 9.332031 27.167969 L 9.976562 27.167969 L 9.976562 27.53125 L 8.753906 27.53125 L 8.753906 27.425781 C 8.753906 27.351562 8.769531 27.285156 8.804688 27.226562 C 8.839844 27.164062 8.890625 27.105469 8.960938 27.042969 C 9.027344 26.984375 9.128906 26.902344 9.257812 26.796875 C 9.359375 26.71875 9.429688 26.65625 9.472656 26.613281 C 9.515625 26.570312 9.535156 26.527344 9.535156 26.484375 C 9.535156 26.441406 9.519531 26.402344 9.488281 26.371094 C 9.457031 26.34375 9.414062 26.328125 9.351562 26.328125 C 9.285156 26.328125 9.234375 26.347656 9.199219 26.382812 C 9.160156 26.421875 9.140625 26.46875 9.140625 26.53125 L 9.140625 26.574219 L 8.757812 26.574219 C 8.757812 26.5625 8.757812 26.546875 8.757812 26.527344 C 8.757812 26.371094 8.8125 26.25 8.917969 26.160156 C 9.027344 26.070312 9.183594 26.023438 9.390625 26.023438 Z M 9.390625 26.023438 " fill-opacity="1" fill-rule="nonzero"/><path fill="#ffffff" d="M 11.425781 27.199219 L 11.425781 27.53125 L 10.308594 27.53125 L 10.308594 27.199219 L 10.660156 27.199219 L 10.660156 26.53125 L 10.308594 26.53125 L 10.308594 26.28125 C 10.40625 26.273438 10.511719 26.25 10.632812 26.203125 C 10.75 26.160156 10.855469 26.105469 10.941406 26.046875 L 11.085938 26.046875 L 11.085938 27.199219 Z M 11.425781 27.199219 " fill-opacity="1" fill-rule="nonzero"/><path fill="#ffffff" d="M 13.691406 26.023438 C 13.804688 26.023438 13.90625 26.042969 13.992188 26.078125 C 14.078125 26.117188 14.144531 26.167969 14.1875 26.234375 C 14.234375 26.300781 14.257812 26.378906 14.257812 26.46875 C 14.257812 26.550781 14.238281 26.628906 14.199219 26.695312 C 14.15625 26.761719 14.105469 26.824219 14.039062 26.875 C 13.976562 26.925781 13.890625 26.988281 13.78125 27.0625 C 13.71875 27.101562 13.667969 27.136719 13.628906 27.167969 L 14.277344 27.167969 L 14.277344 27.53125 L 13.050781 27.53125 L 13.050781 27.425781 C 13.050781 27.351562 13.070312 27.285156 13.101562 27.226562 C 13.140625 27.164062 13.191406 27.105469 13.257812 27.042969 C 13.328125 26.984375 13.425781 26.902344 13.554688 26.796875 C 13.65625 26.71875 13.730469 26.65625 13.773438 26.613281 C 13.8125 26.570312 13.835938 26.527344 13.835938 26.484375 C 13.835938 26.441406 13.820312 26.402344 13.785156 26.371094 C 13.757812 26.34375 13.710938 26.328125 13.648438 26.328125 C 13.585938 26.328125 13.535156 26.347656 13.496094 26.382812 C 13.460938 26.421875 13.441406 26.46875 13.441406 26.53125 L 13.441406 26.574219 L 13.058594 26.574219 C 13.058594 26.5625 13.054688 26.546875 13.054688 26.527344 C 13.054688 26.371094 13.109375 26.25 13.21875 26.160156 C 13.328125 26.070312 13.484375 26.023438 13.691406 26.023438 Z M 13.691406 26.023438 " fill-opacity="1" fill-rule="nonzero"/><path fill="#ffffff" d="M 15.125 26.023438 C 15.242188 26.023438 15.34375 26.042969 15.425781 26.078125 C 15.511719 26.117188 15.578125 26.167969 15.625 26.234375 C 15.671875 26.300781 15.695312 26.378906 15.695312 26.46875 C 15.695312 26.550781 15.675781 26.628906 15.632812 26.695312 C 15.589844 26.761719 15.539062 26.824219 15.476562 26.875 C 15.414062 26.925781 15.328125 26.988281 15.214844 27.0625 C 15.15625 27.101562 15.105469 27.136719 15.066406 27.167969 L 15.710938 27.167969 L 15.710938 27.53125 L 14.488281 27.53125 L 14.488281 27.425781 C 14.488281 27.351562 14.503906 27.285156 14.539062 27.226562 C 14.574219 27.164062 14.625 27.105469 14.695312 27.042969 C 14.761719 26.984375 14.863281 26.902344 14.992188 26.796875 C 15.09375 26.71875 15.164062 26.65625 15.207031 26.613281 C 15.25 26.570312 15.269531 26.527344 15.269531 26.484375 C 15.269531 26.441406 15.253906 26.402344 15.222656 26.371094 C 15.191406 26.34375 15.148438 26.328125 15.085938 26.328125 C 15.019531 26.328125 14.96875 26.347656 14.933594 26.382812 C 14.894531 26.421875 14.875 26.46875 14.875 26.53125 L 14.875 26.574219 L 14.492188 26.574219 C 14.492188 26.5625 14.492188 26.546875 14.492188 26.527344 C 14.492188 26.371094 14.546875 26.25 14.652344 26.160156 C 14.761719 26.070312 14.917969 26.023438 15.125 26.023438 Z M 15.125 26.023438 " fill-opacity="1" fill-rule="nonzero"/><path fill="#ffffff" d="M 17.988281 26.023438 C 18.105469 26.023438 18.207031 26.042969 18.289062 26.078125 C 18.375 26.117188 18.441406 26.167969 18.488281 26.234375 C 18.535156 26.300781 18.558594 26.378906 18.558594 26.46875 C 18.558594 26.550781 18.539062 26.628906 18.496094 26.695312 C 18.453125 26.761719 18.402344 26.824219 18.339844 26.875 C 18.277344 26.925781 18.191406 26.988281 18.078125 27.0625 C 18.015625 27.101562 17.96875 27.136719 17.929688 27.167969 L 18.574219 27.167969 L 18.574219 27.53125 L 17.351562 27.53125 L 17.351562 27.425781 C 17.351562 27.351562 17.367188 27.285156 17.402344 27.226562 C 17.4375 27.164062 17.488281 27.105469 17.558594 27.042969 C 17.625 26.984375 17.722656 26.902344 17.851562 26.796875 C 17.957031 26.71875 18.027344 26.65625 18.070312 26.613281 C 18.113281 26.570312 18.132812 26.527344 18.132812 26.484375 C 18.132812 26.441406 18.117188 26.402344 18.085938 26.371094 C 18.054688 26.34375 18.007812 26.328125 17.949219 26.328125 C 17.882812 26.328125 17.832031 26.347656 17.796875 26.382812 C 17.757812 26.421875 17.738281 26.46875 17.738281 26.53125 L 17.738281 26.574219 L 17.355469 26.574219 C 17.355469 26.5625 17.355469 26.546875 17.355469 26.527344 C 17.355469 26.371094 17.410156 26.25 17.515625 26.160156 C 17.625 26.070312 17.78125 26.023438 17.988281 26.023438 Z M 17.988281 26.023438 " fill-opacity="1" fill-rule="nonzero"/><path fill="#ffffff" d="M 19.410156 26.023438 C 19.527344 26.023438 19.628906 26.042969 19.714844 26.078125 C 19.800781 26.113281 19.867188 26.164062 19.914062 26.222656 C 19.957031 26.285156 19.980469 26.351562 19.980469 26.425781 C 19.980469 26.5 19.960938 26.570312 19.921875 26.628906 C 19.882812 26.6875 19.828125 26.730469 19.765625 26.753906 L 19.765625 26.761719 C 19.847656 26.789062 19.910156 26.832031 19.957031 26.898438 C 20 26.960938 20.023438 27.039062 20.023438 27.128906 C 20.019531 27.253906 19.964844 27.355469 19.859375 27.4375 C 19.753906 27.515625 19.601562 27.554688 19.402344 27.554688 C 19.261719 27.554688 19.144531 27.539062 19.050781 27.5 C 18.957031 27.460938 18.886719 27.410156 18.839844 27.347656 C 18.792969 27.28125 18.769531 27.210938 18.769531 27.128906 L 18.769531 27.085938 L 19.148438 27.085938 C 19.148438 27.203125 19.222656 27.261719 19.371094 27.261719 C 19.523438 27.261719 19.597656 27.195312 19.597656 27.0625 C 19.597656 27.011719 19.582031 26.976562 19.554688 26.949219 C 19.527344 26.921875 19.492188 26.910156 19.445312 26.910156 L 19.289062 26.910156 L 19.289062 26.644531 L 19.410156 26.644531 C 19.457031 26.644531 19.492188 26.628906 19.519531 26.605469 C 19.546875 26.578125 19.5625 26.539062 19.5625 26.488281 C 19.5625 26.441406 19.546875 26.402344 19.511719 26.367188 C 19.476562 26.335938 19.433594 26.320312 19.371094 26.320312 C 19.3125 26.320312 19.261719 26.335938 19.230469 26.367188 C 19.195312 26.398438 19.175781 26.4375 19.175781 26.480469 L 18.820312 26.480469 L 18.820312 26.429688 C 18.820312 26.355469 18.839844 26.285156 18.886719 26.222656 C 18.933594 26.164062 19.003906 26.113281 19.089844 26.078125 C 19.183594 26.042969 19.289062 26.023438 19.410156 26.023438 Z M 19.410156 26.023438 " fill-opacity="1" fill-rule="nonzero"/><path fill="#ffffff" d="M 22.289062 26.023438 C 22.402344 26.023438 22.503906 26.042969 22.589844 26.078125 C 22.675781 26.117188 22.742188 26.167969 22.785156 26.234375 C 22.832031 26.300781 22.855469 26.378906 22.855469 26.46875 C 22.855469 26.550781 22.835938 26.628906 22.792969 26.695312 C 22.753906 26.761719 22.699219 26.824219 22.636719 26.875 C 22.574219 26.925781 22.488281 26.988281 22.378906 27.0625 C 22.316406 27.101562 22.265625 27.136719 22.226562 27.167969 L 22.875 27.167969 L 22.875 27.53125 L 21.648438 27.53125 L 21.648438 27.425781 C 21.648438 27.351562 21.667969 27.285156 21.699219 27.226562 C 21.738281 27.164062 21.789062 27.105469 21.855469 27.042969 C 21.925781 26.984375 22.023438 26.902344 22.152344 26.796875 C 22.253906 26.71875 22.328125 26.65625 22.371094 26.613281 C 22.410156 26.570312 22.429688 26.527344 22.429688 26.484375 C 22.429688 26.441406 22.414062 26.402344 22.382812 26.371094 C 22.355469 26.34375 22.308594 26.328125 22.246094 26.328125 C 22.183594 26.328125 22.132812 26.347656 22.09375 26.382812 C 22.058594 26.421875 22.039062 26.46875 22.039062 26.53125 L 22.039062 26.574219 L 21.65625 26.574219 C 21.652344 26.5625 21.652344 26.546875 21.652344 26.527344 C 21.652344 26.371094 21.707031 26.25 21.816406 26.160156 C 21.921875 26.070312 22.082031 26.023438 22.289062 26.023438 Z M 22.289062 26.023438 " fill-opacity="1" fill-rule="nonzero"/><path fill="#ffffff" d="M 23.863281 26.023438 C 23.851562 26.097656 23.820312 26.191406 23.761719 26.304688 C 23.699219 26.414062 23.632812 26.527344 23.550781 26.636719 C 23.46875 26.746094 23.394531 26.839844 23.324219 26.910156 L 23.75 26.910156 L 23.75 26.601562 C 23.792969 26.539062 23.839844 26.464844 23.882812 26.378906 C 23.929688 26.292969 23.960938 26.222656 23.976562 26.164062 L 24.15625 26.164062 L 24.15625 26.910156 L 24.363281 26.910156 L 24.363281 27.226562 L 24.15625 27.226562 L 24.15625 27.53125 L 23.75 27.53125 L 23.75 27.226562 L 23.027344 27.226562 L 23.027344 26.90625 C 23.105469 26.792969 23.183594 26.660156 23.257812 26.5 C 23.335938 26.339844 23.394531 26.183594 23.441406 26.023438 Z M 23.863281 26.023438 " fill-opacity="1" fill-rule="nonzero"/><path fill="#ffffff" d="M 26.585938 26.023438 C 26.703125 26.023438 26.804688 26.042969 26.886719 26.078125 C 26.972656 26.117188 27.039062 26.167969 27.085938 26.234375 C 27.132812 26.300781 27.15625 26.378906 27.15625 26.46875 C 27.15625 26.550781 27.136719 26.628906 27.09375 26.695312 C 27.050781 26.761719 27 26.824219 26.9375 26.875 C 26.875 26.925781 26.785156 26.988281 26.675781 27.0625 C 26.613281 27.101562 26.566406 27.136719 26.527344 27.167969 L 27.171875 27.167969 L 27.171875 27.53125 L 25.949219 27.53125 L 25.949219 27.425781 C 25.949219 27.351562 25.964844 27.285156 26 27.226562 C 26.035156 27.164062 26.085938 27.105469 26.15625 27.042969 C 26.222656 26.984375 26.320312 26.902344 26.449219 26.796875 C 26.554688 26.71875 26.625 26.65625 26.667969 26.613281 C 26.710938 26.570312 26.730469 26.527344 26.730469 26.484375 C 26.730469 26.441406 26.714844 26.402344 26.683594 26.371094 C 26.652344 26.34375 26.605469 26.328125 26.546875 26.328125 C 26.480469 26.328125 26.429688 26.347656 26.394531 26.382812 C 26.355469 26.421875 26.335938 26.46875 26.335938 26.53125 L 26.335938 26.574219 L 25.953125 26.574219 C 25.953125 26.5625 25.953125 26.546875 25.953125 26.527344 C 25.953125 26.371094 26.007812 26.25 26.113281 26.160156 C 26.222656 26.070312 26.378906 26.023438 26.585938 26.023438 Z M 26.585938 26.023438 " fill-opacity="1" fill-rule="nonzero"/><path fill="#ffffff" d="M 27.808594 26.414062 L 27.792969 26.640625 C 27.792969 26.636719 27.804688 26.628906 27.835938 26.613281 C 27.863281 26.59375 27.902344 26.578125 27.949219 26.5625 C 27.996094 26.550781 28.050781 26.542969 28.109375 26.542969 C 28.265625 26.542969 28.390625 26.585938 28.480469 26.679688 C 28.574219 26.765625 28.621094 26.890625 28.621094 27.046875 C 28.621094 27.140625 28.597656 27.226562 28.546875 27.304688 C 28.496094 27.382812 28.425781 27.445312 28.332031 27.488281 C 28.242188 27.535156 28.136719 27.554688 28.015625 27.554688 C 27.804688 27.554688 27.644531 27.511719 27.53125 27.421875 C 27.417969 27.332031 27.363281 27.207031 27.363281 27.050781 L 27.742188 27.050781 C 27.742188 27.113281 27.761719 27.160156 27.800781 27.199219 C 27.839844 27.238281 27.898438 27.257812 27.96875 27.257812 C 28.042969 27.257812 28.097656 27.238281 28.136719 27.199219 C 28.179688 27.15625 28.199219 27.105469 28.199219 27.039062 C 28.199219 26.972656 28.179688 26.921875 28.136719 26.878906 C 28.097656 26.839844 28.042969 26.816406 27.972656 26.816406 C 27.917969 26.816406 27.875 26.828125 27.847656 26.847656 C 27.820312 26.863281 27.800781 26.878906 27.789062 26.894531 C 27.777344 26.910156 27.769531 26.921875 27.765625 26.925781 L 27.425781 26.878906 L 27.488281 26.050781 L 28.511719 26.050781 L 28.511719 26.414062 Z M 27.808594 26.414062 " fill-opacity="1" fill-rule="nonzero"/><path fill="#ffffff" d="M 30.886719 26.023438 C 31 26.023438 31.101562 26.042969 31.1875 26.078125 C 31.273438 26.117188 31.335938 26.167969 31.382812 26.234375 C 31.429688 26.300781 31.453125 26.378906 31.453125 26.46875 C 31.453125 26.550781 31.433594 26.628906 31.390625 26.695312 C 31.351562 26.761719 31.296875 26.824219 31.234375 26.875 C 31.171875 26.925781 31.085938 26.988281 30.976562 27.0625 C 30.914062 27.101562 30.863281 27.136719 30.824219 27.167969 L 31.472656 27.167969 L 31.472656 27.53125 L 30.246094 27.53125 L 30.246094 27.425781 C 30.246094 27.351562 30.265625 27.285156 30.296875 27.226562 C 30.332031 27.164062 30.386719 27.105469 30.453125 27.042969 C 30.523438 26.984375 30.621094 26.902344 30.75 26.796875 C 30.851562 26.71875 30.925781 26.65625 30.964844 26.613281 C 31.007812 26.570312 31.027344 26.527344 31.027344 26.484375 C 31.027344 26.441406 31.011719 26.402344 30.980469 26.371094 C 30.953125 26.34375 30.90625 26.328125 30.84375 26.328125 C 30.78125 26.328125 30.730469 26.347656 30.691406 26.382812 C 30.65625 26.421875 30.636719 26.46875 30.636719 26.53125 L 30.636719 26.574219 L 30.253906 26.574219 C 30.25 26.5625 30.25 26.546875 30.25 26.527344 C 30.25 26.371094 30.304688 26.25 30.414062 26.160156 C 30.519531 26.070312 30.679688 26.023438 30.886719 26.023438 Z M 30.886719 26.023438 " fill-opacity="1" fill-rule="nonzero"/><path fill="#ffffff" d="M 32.304688 26.023438 C 32.484375 26.023438 32.628906 26.066406 32.734375 26.15625 C 32.84375 26.242188 32.898438 26.363281 32.898438 26.523438 L 32.515625 26.523438 L 32.515625 26.507812 C 32.515625 26.453125 32.496094 26.40625 32.460938 26.371094 C 32.429688 26.332031 32.378906 26.316406 32.3125 26.316406 C 32.246094 26.316406 32.191406 26.339844 32.152344 26.386719 C 32.117188 26.429688 32.097656 26.492188 32.097656 26.574219 L 32.097656 26.699219 C 32.136719 26.660156 32.1875 26.632812 32.246094 26.613281 C 32.304688 26.59375 32.355469 26.585938 32.410156 26.585938 C 32.507812 26.585938 32.597656 26.601562 32.675781 26.640625 C 32.753906 26.675781 32.820312 26.726562 32.863281 26.792969 C 32.910156 26.863281 32.933594 26.945312 32.933594 27.039062 C 32.933594 27.203125 32.875 27.332031 32.761719 27.421875 C 32.652344 27.511719 32.5 27.554688 32.304688 27.554688 C 32.089844 27.554688 31.929688 27.496094 31.820312 27.378906 C 31.71875 27.261719 31.664062 27.078125 31.664062 26.828125 C 31.664062 26.542969 31.714844 26.339844 31.820312 26.214844 C 31.925781 26.085938 32.085938 26.023438 32.304688 26.023438 Z M 32.308594 26.84375 C 32.242188 26.84375 32.1875 26.863281 32.152344 26.898438 C 32.113281 26.9375 32.097656 26.988281 32.097656 27.054688 C 32.097656 27.121094 32.113281 27.175781 32.152344 27.210938 C 32.1875 27.246094 32.238281 27.265625 32.304688 27.265625 C 32.375 27.265625 32.425781 27.25 32.460938 27.214844 C 32.5 27.179688 32.519531 27.125 32.519531 27.058594 C 32.519531 26.992188 32.5 26.9375 32.460938 26.902344 C 32.425781 26.863281 32.375 26.84375 32.308594 26.84375 Z M 32.308594 26.84375 " fill-opacity="1" fill-rule="nonzero"/><path fill="#f53d74" d="M 5.09375 29.371094 C 5.207031 29.371094 5.308594 29.390625 5.394531 29.425781 C 5.480469 29.464844 5.546875 29.515625 5.589844 29.582031 C 5.640625 29.648438 5.664062 29.726562 5.664062 29.816406 C 5.664062 29.898438 5.640625 29.976562 5.601562 30.042969 C 5.558594 30.109375 5.507812 30.167969 5.441406 30.222656 C 5.378906 30.273438 5.292969 30.335938 5.183594 30.410156 C 5.121094 30.449219 5.070312 30.484375 5.03125 30.515625 L 5.679688 30.515625 L 5.679688 30.878906 L 4.453125 30.878906 L 4.453125 30.773438 C 4.453125 30.699219 4.472656 30.628906 4.507812 30.570312 C 4.542969 30.511719 4.59375 30.453125 4.660156 30.390625 C 4.730469 30.332031 4.828125 30.25 4.957031 30.144531 C 5.0625 30.0625 5.132812 30 5.175781 29.957031 C 5.214844 29.914062 5.238281 29.875 5.238281 29.832031 C 5.238281 29.789062 5.222656 29.75 5.191406 29.71875 C 5.160156 29.691406 5.113281 29.675781 5.050781 29.675781 C 4.988281 29.675781 4.9375 29.691406 4.898438 29.730469 C 4.863281 29.769531 4.84375 29.816406 4.84375 29.875 L 4.84375 29.921875 L 4.460938 29.921875 C 4.460938 29.910156 4.457031 29.894531 4.457031 29.871094 C 4.457031 29.71875 4.511719 29.597656 4.621094 29.507812 C 4.730469 29.417969 4.886719 29.371094 5.09375 29.371094 Z M 5.09375 29.371094 " fill-opacity="1" fill-rule="nonzero"/><path fill="#f53d74" d="M 7.128906 29.59375 C 6.964844 29.796875 6.835938 29.988281 6.742188 30.171875 C 6.648438 30.359375 6.601562 30.550781 6.601562 30.75 L 6.601562 30.878906 L 6.125 30.878906 C 6.125 30.683594 6.164062 30.492188 6.25 30.304688 C 6.332031 30.113281 6.449219 29.933594 6.589844 29.765625 L 5.882812 29.765625 L 5.882812 29.398438 L 7.128906 29.398438 Z M 7.128906 29.59375 " fill-opacity="1" fill-rule="nonzero"/><path fill="#ffffff" d="M 9.390625 29.371094 C 9.507812 29.371094 9.609375 29.390625 9.691406 29.425781 C 9.777344 29.464844 9.84375 29.515625 9.890625 29.582031 C 9.9375 29.648438 9.960938 29.726562 9.960938 29.816406 C 9.960938 29.898438 9.941406 29.976562 9.898438 30.042969 C 9.855469 30.109375 9.804688 30.167969 9.742188 30.222656 C 9.679688 30.273438 9.59375 30.335938 9.480469 30.410156 C 9.421875 30.449219 9.371094 30.484375 9.332031 30.515625 L 9.976562 30.515625 L 9.976562 30.878906 L 8.753906 30.878906 L 8.753906 30.773438 C 8.753906 30.699219 8.769531 30.628906 8.804688 30.570312 C 8.839844 30.511719 8.890625 30.453125 8.960938 30.390625 C 9.027344 30.332031 9.128906 30.25 9.257812 30.144531 C 9.359375 30.0625 9.429688 30 9.472656 29.957031 C 9.515625 29.914062 9.535156 29.875 9.535156 29.832031 C 9.535156 29.789062 9.519531 29.75 9.488281 29.71875 C 9.457031 29.691406 9.414062 29.675781 9.351562 29.675781 C 9.285156 29.675781 9.234375 29.691406 9.199219 29.730469 C 9.160156 29.769531 9.140625 29.816406 9.140625 29.875 L 9.140625 29.921875 L 8.757812 29.921875 C 8.757812 29.910156 8.757812 29.894531 8.757812 29.871094 C 8.757812 29.71875 8.8125 29.597656 8.917969 29.507812 C 9.027344 29.417969 9.183594 29.371094 9.390625 29.371094 Z M 9.390625 29.371094 " fill-opacity="1" fill-rule="nonzero"/><path fill="#ffffff" d="M 10.796875 29.371094 C 10.90625 29.371094 11.003906 29.386719 11.089844 29.421875 C 11.175781 29.457031 11.246094 29.507812 11.296875 29.574219 C 11.347656 29.636719 11.375 29.714844 11.375 29.808594 C 11.375 29.882812 11.359375 29.945312 11.328125 29.988281 C 11.296875 30.035156 11.253906 30.078125 11.191406 30.121094 L 11.191406 30.128906 C 11.269531 30.171875 11.332031 30.222656 11.367188 30.273438 C 11.410156 30.324219 11.429688 30.390625 11.429688 30.472656 C 11.429688 30.609375 11.371094 30.71875 11.257812 30.792969 C 11.144531 30.867188 10.992188 30.902344 10.796875 30.902344 C 10.601562 30.902344 10.449219 30.867188 10.335938 30.792969 C 10.226562 30.71875 10.171875 30.609375 10.171875 30.472656 C 10.171875 30.390625 10.191406 30.324219 10.230469 30.273438 C 10.269531 30.222656 10.328125 30.171875 10.40625 30.128906 L 10.40625 30.121094 C 10.34375 30.078125 10.300781 30.035156 10.269531 29.988281 C 10.242188 29.945312 10.226562 29.882812 10.226562 29.808594 C 10.226562 29.714844 10.25 29.636719 10.300781 29.574219 C 10.351562 29.507812 10.417969 29.457031 10.503906 29.421875 C 10.59375 29.386719 10.691406 29.371094 10.796875 29.371094 Z M 10.796875 29.660156 C 10.734375 29.660156 10.6875 29.675781 10.652344 29.703125 C 10.617188 29.726562 10.597656 29.769531 10.597656 29.824219 C 10.597656 29.878906 10.617188 29.921875 10.652344 29.949219 C 10.691406 29.972656 10.738281 29.988281 10.796875 29.988281 C 10.855469 29.988281 10.90625 29.972656 10.941406 29.949219 C 10.980469 29.921875 11 29.878906 11 29.824219 C 11 29.769531 10.984375 29.726562 10.945312 29.703125 C 10.90625 29.675781 10.859375 29.660156 10.796875 29.660156 Z M 10.796875 30.261719 C 10.742188 30.261719 10.695312 30.277344 10.65625 30.308594 C 10.617188 30.335938 10.597656 30.378906 10.597656 30.4375 C 10.597656 30.492188 10.617188 30.535156 10.652344 30.566406 C 10.6875 30.597656 10.738281 30.613281 10.796875 30.613281 C 10.855469 30.613281 10.90625 30.597656 10.941406 30.566406 C 10.980469 30.535156 11 30.492188 11 30.4375 C 11 30.378906 10.980469 30.335938 10.941406 30.308594 C 10.902344 30.277344 10.855469 30.261719 10.796875 30.261719 Z M 10.796875 30.261719 " fill-opacity="1" fill-rule="nonzero"/><path fill="#ffffff" d="M 13.691406 29.371094 C 13.804688 29.371094 13.90625 29.390625 13.992188 29.425781 C 14.078125 29.464844 14.144531 29.515625 14.1875 29.582031 C 14.234375 29.648438 14.257812 29.726562 14.257812 29.816406 C 14.257812 29.898438 14.238281 29.976562 14.199219 30.042969 C 14.15625 30.109375 14.105469 30.167969 14.039062 30.222656 C 13.976562 30.273438 13.890625 30.335938 13.78125 30.410156 C 13.71875 30.449219 13.667969 30.484375 13.628906 30.515625 L 14.277344 30.515625 L 14.277344 30.878906 L 13.050781 30.878906 L 13.050781 30.773438 C 13.050781 30.699219 13.070312 30.628906 13.101562 30.570312 C 13.140625 30.511719 13.191406 30.453125 13.257812 30.390625 C 13.328125 30.332031 13.425781 30.25 13.554688 30.144531 C 13.65625 30.0625 13.730469 30 13.773438 29.957031 C 13.8125 29.914062 13.835938 29.875 13.835938 29.832031 C 13.835938 29.789062 13.820312 29.75 13.785156 29.71875 C 13.757812 29.691406 13.710938 29.675781 13.648438 29.675781 C 13.585938 29.675781 13.535156 29.691406 13.496094 29.730469 C 13.460938 29.769531 13.441406 29.816406 13.441406 29.875 L 13.441406 29.921875 L 13.058594 29.921875 C 13.058594 29.910156 13.054688 29.894531 13.054688 29.871094 C 13.054688 29.71875 13.109375 29.597656 13.21875 29.507812 C 13.328125 29.417969 13.484375 29.371094 13.691406 29.371094 Z M 13.691406 29.371094 " fill-opacity="1" fill-rule="nonzero"/><path fill="#ffffff" d="M 15.085938 29.371094 C 15.304688 29.371094 15.464844 29.429688 15.570312 29.550781 C 15.675781 29.667969 15.726562 29.851562 15.726562 30.101562 C 15.726562 30.382812 15.675781 30.585938 15.570312 30.714844 C 15.46875 30.839844 15.304688 30.902344 15.085938 30.902344 C 14.90625 30.902344 14.765625 30.859375 14.65625 30.773438 C 14.550781 30.6875 14.496094 30.5625 14.496094 30.402344 L 14.878906 30.402344 L 14.878906 30.417969 C 14.878906 30.476562 14.894531 30.523438 14.929688 30.558594 C 14.964844 30.59375 15.015625 30.613281 15.082031 30.613281 C 15.148438 30.613281 15.199219 30.589844 15.238281 30.542969 C 15.277344 30.496094 15.296875 30.433594 15.296875 30.355469 L 15.296875 30.230469 C 15.253906 30.265625 15.203125 30.296875 15.148438 30.3125 C 15.089844 30.332031 15.035156 30.339844 14.984375 30.339844 C 14.886719 30.339844 14.796875 30.324219 14.714844 30.289062 C 14.636719 30.253906 14.574219 30.203125 14.527344 30.136719 C 14.484375 30.066406 14.460938 29.984375 14.460938 29.886719 C 14.460938 29.722656 14.515625 29.597656 14.628906 29.507812 C 14.742188 29.417969 14.894531 29.371094 15.085938 29.371094 Z M 15.085938 29.660156 C 15.019531 29.660156 14.964844 29.679688 14.929688 29.71875 C 14.890625 29.753906 14.875 29.804688 14.875 29.871094 C 14.875 29.941406 14.890625 29.992188 14.929688 30.03125 C 14.964844 30.066406 15.015625 30.082031 15.082031 30.082031 C 15.152344 30.082031 15.203125 30.066406 15.238281 30.03125 C 15.277344 29.996094 15.296875 29.945312 15.296875 29.875 C 15.296875 29.808594 15.277344 29.757812 15.238281 29.71875 C 15.203125 29.679688 15.152344 29.660156 15.085938 29.660156 Z M 15.085938 29.660156 " fill-opacity="1" fill-rule="nonzero"/><path fill="#ffffff" d="M 17.972656 29.371094 C 18.089844 29.371094 18.191406 29.390625 18.277344 29.425781 C 18.367188 29.460938 18.433594 29.507812 18.476562 29.570312 C 18.523438 29.632812 18.546875 29.699219 18.546875 29.773438 C 18.546875 29.847656 18.527344 29.914062 18.484375 29.976562 C 18.445312 30.035156 18.394531 30.078125 18.332031 30.101562 L 18.332031 30.109375 C 18.414062 30.136719 18.476562 30.179688 18.519531 30.246094 C 18.566406 30.308594 18.589844 30.382812 18.589844 30.476562 C 18.582031 30.601562 18.527344 30.703125 18.421875 30.785156 C 18.320312 30.863281 18.167969 30.902344 17.964844 30.902344 C 17.828125 30.902344 17.710938 30.882812 17.613281 30.847656 C 17.519531 30.808594 17.449219 30.757812 17.402344 30.695312 C 17.359375 30.628906 17.335938 30.558594 17.335938 30.476562 L 17.335938 30.433594 L 17.714844 30.433594 C 17.714844 30.550781 17.789062 30.609375 17.9375 30.609375 C 18.085938 30.609375 18.160156 30.542969 18.160156 30.410156 C 18.160156 30.359375 18.148438 30.324219 18.117188 30.296875 C 18.089844 30.269531 18.054688 30.253906 18.011719 30.253906 L 17.851562 30.253906 L 17.851562 29.992188 L 17.976562 29.992188 C 18.019531 29.992188 18.054688 29.976562 18.082031 29.953125 C 18.113281 29.925781 18.125 29.886719 18.125 29.835938 C 18.125 29.789062 18.109375 29.75 18.074219 29.714844 C 18.042969 29.683594 17.996094 29.667969 17.9375 29.667969 C 17.875 29.667969 17.828125 29.683594 17.792969 29.714844 C 17.757812 29.746094 17.742188 29.785156 17.742188 29.828125 L 17.382812 29.828125 L 17.382812 29.777344 C 17.382812 29.699219 17.40625 29.632812 17.453125 29.570312 C 17.5 29.507812 17.566406 29.460938 17.65625 29.425781 C 17.746094 29.390625 17.851562 29.371094 17.972656 29.371094 Z M 17.972656 29.371094 " fill-opacity="1" fill-rule="nonzero"/><path fill="#ffffff" d="M 19.398438 29.371094 C 19.628906 29.371094 19.792969 29.4375 19.882812 29.570312 C 19.980469 29.699219 20.027344 29.890625 20.027344 30.136719 C 20.027344 30.386719 19.980469 30.574219 19.882812 30.707031 C 19.792969 30.839844 19.628906 30.902344 19.398438 30.902344 C 19.167969 30.902344 19.003906 30.839844 18.910156 30.707031 C 18.816406 30.574219 18.769531 30.386719 18.769531 30.136719 C 18.769531 29.890625 18.816406 29.699219 18.910156 29.570312 C 19.003906 29.4375 19.167969 29.371094 19.398438 29.371094 Z M 19.398438 29.660156 C 19.324219 29.660156 19.269531 29.691406 19.238281 29.746094 C 19.207031 29.804688 19.191406 29.898438 19.191406 30.03125 L 19.191406 30.242188 C 19.191406 30.375 19.207031 30.46875 19.238281 30.527344 C 19.269531 30.585938 19.324219 30.613281 19.398438 30.613281 C 19.472656 30.613281 19.527344 30.585938 19.554688 30.527344 C 19.585938 30.46875 19.601562 30.375 19.601562 30.242188 L 19.601562 30.03125 C 19.601562 29.898438 19.585938 29.804688 19.554688 29.746094 C 19.527344 29.691406 19.472656 29.660156 19.398438 29.660156 Z M 19.398438 29.660156 " fill-opacity="1" fill-rule="nonzero"/></svg>