<svg xmlns="http://www.w3.org/2000/svg" xmlns:xlink="http://www.w3.org/1999/xlink" width="50" zoomAndPan="magnify" viewBox="0 0 37.5 37.499999" height="50" preserveAspectRatio="xMidYMid meet" version="1.0"><defs><clipPath id="79b0eda678"><path d="M 0 0 L 37.007812 0 L 37.007812 37.007812 L 0 37.007812 Z M 0 0 " clip-rule="nonzero"/></clipPath></defs><g clip-path="url(#79b0eda678)"><path fill="#ffffff" d="M 23.683594 3.949219 C 22.59375 3.949219 21.710938 3.0625 21.710938 1.972656 C 21.710938 0.882812 22.59375 0 23.683594 0 L 35.527344 0 C 36.617188 0 37.5 0.882812 37.5 1.972656 L 37.5 13.816406 C 37.5 14.90625 36.617188 15.789062 35.527344 15.789062 C 34.4375 15.789062 33.550781 14.90625 33.550781 13.816406 L 33.550781 6.738281 L 19.160156 21.132812 C 18.386719 21.902344 17.136719 21.902344 16.367188 21.132812 C 15.597656 20.363281 15.597656 19.113281 16.367188 18.339844 L 30.761719 3.949219 Z M 5.921875 7.894531 C 4.832031 7.894531 3.949219 8.777344 3.949219 9.867188 L 3.949219 31.578125 C 3.949219 32.667969 4.832031 33.550781 5.921875 33.550781 L 27.632812 33.550781 C 28.722656 33.550781 29.605469 32.667969 29.605469 31.578125 L 29.605469 22.574219 C 29.605469 21.484375 30.488281 20.601562 31.578125 20.601562 C 32.667969 20.601562 33.550781 21.484375 33.550781 22.574219 L 33.550781 31.578125 C 33.550781 34.847656 30.902344 37.5 27.632812 37.5 L 5.921875 37.5 C 2.652344 37.5 0 34.847656 0 31.578125 L 0 9.867188 C 0 6.597656 2.652344 3.949219 5.921875 3.949219 L 14.925781 3.949219 C 16.015625 3.949219 16.898438 4.832031 16.898438 5.921875 C 16.898438 7.011719 16.015625 7.894531 14.925781 7.894531 Z M 5.921875 7.894531 " fill-opacity="1" fill-rule="evenodd"/></g></svg>