<svg xmlns="http://www.w3.org/2000/svg" xmlns:xlink="http://www.w3.org/1999/xlink" width="100" zoomAndPan="magnify" viewBox="0 0 75 74.999997" height="100" preserveAspectRatio="xMidYMid meet" version="1.0"><defs><clipPath id="2078d2c64d"><path d="M 0.113281 0 L 75 0 L 75 74.886719 L 0.113281 74.886719 Z M 0.113281 0 " clip-rule="nonzero"/></clipPath><clipPath id="db38c3d498"><path d="M 75 37.445312 C 75 58.121094 58.234375 74.886719 37.554688 74.886719 C 16.875 74.886719 0.113281 58.121094 0.113281 37.445312 C 0.113281 16.765625 16.875 0 37.554688 0 C 58.234375 0 75 16.765625 75 37.445312 Z M 75 37.445312 " clip-rule="nonzero"/></clipPath><radialGradient gradientTransform="matrix(1, 0, 0, 1, 0.112307, -0.000001)" gradientUnits="userSpaceOnUse" r="52.952764" cx="37.443845" id="67f55f8058" cy="37.442675" fx="37.443845" fy="37.442675"><stop stop-opacity="1" stop-color="rgb(46.401978%, 12.585449%, 93.009949%)" offset="0"/><stop stop-opacity="1" stop-color="rgb(46.595764%, 12.745667%, 93.217468%)" offset="0.03125"/><stop stop-opacity="1" stop-color="rgb(46.775818%, 12.896729%, 93.411255%)" offset="0.0585938"/><stop stop-opacity="1" stop-color="rgb(47.045898%, 13.121033%, 93.702698%)" offset="0.0859375"/><stop stop-opacity="1" stop-color="rgb(47.395325%, 13.41095%, 94.078064%)" offset="0.140625"/><stop stop-opacity="1" stop-color="rgb(47.717285%, 13.679504%, 94.424438%)" offset="0.191406"/><stop stop-opacity="1" stop-color="rgb(48.025513%, 13.937378%, 94.75708%)" offset="0.238281"/><stop stop-opacity="1" stop-color="rgb(48.323059%, 14.18457%, 95.075989%)" offset="0.285156"/><stop stop-opacity="1" stop-color="rgb(48.59314%, 14.4104%, 95.367432%)" offset="0.328125"/><stop stop-opacity="1" stop-color="rgb(48.851013%, 14.625549%, 95.645142%)" offset="0.367188"/><stop stop-opacity="1" stop-color="rgb(49.09668%, 14.830017%, 95.907593%)" offset="0.40625"/><stop stop-opacity="1" stop-color="rgb(49.31488%, 15.013123%, 96.144104%)" offset="0.441406"/><stop stop-opacity="1" stop-color="rgb(49.520874%, 15.184021%, 96.365356%)" offset="0.472656"/><stop stop-opacity="1" stop-color="rgb(49.714661%, 15.345764%, 96.572876%)" offset="0.503906"/><stop stop-opacity="1" stop-color="rgb(49.89624%, 15.4953%, 96.768188%)" offset="0.53125"/><stop stop-opacity="1" stop-color="rgb(50.166321%, 15.72113%, 97.059631%)" offset="0.558594"/><stop stop-opacity="1" stop-color="rgb(50.500488%, 16.000366%, 97.419739%)" offset="0.613281"/><stop stop-opacity="1" stop-color="rgb(50.784302%, 16.236877%, 97.724915%)" offset="0.660156"/><stop stop-opacity="1" stop-color="rgb(51.029968%, 16.441345%, 97.988892%)" offset="0.699219"/><stop stop-opacity="1" stop-color="rgb(51.248169%, 16.624451%, 98.223877%)" offset="0.734375"/><stop stop-opacity="1" stop-color="rgb(51.441956%, 16.784668%, 98.431396%)" offset="0.765625"/><stop stop-opacity="1" stop-color="rgb(51.699829%, 16.999817%, 98.709106%)" offset="0.792969"/><stop stop-opacity="1" stop-color="rgb(51.99585%, 17.247009%, 99.028015%)" offset="0.84375"/><stop stop-opacity="1" stop-color="rgb(52.215576%, 17.430115%, 99.263%)" offset="0.882812"/><stop stop-opacity="1" stop-color="rgb(52.44751%, 17.622375%, 99.513245%)" offset="0.910156"/><stop stop-opacity="1" stop-color="rgb(52.74353%, 17.869568%, 99.832153%)" offset="0.953125"/><stop stop-opacity="1" stop-color="rgb(52.89917%, 17.999268%, 100%)" offset="1"/></radialGradient><clipPath id="f37ccfdaa3"><path d="M 23 17.390625 L 52.4375 17.390625 L 52.4375 27 L 23 27 Z M 23 17.390625 " clip-rule="nonzero"/></clipPath><clipPath id="ee07f0acaa"><path d="M 22.4375 20 L 32 20 L 32 57.140625 L 22.4375 57.140625 Z M 22.4375 20 " clip-rule="nonzero"/></clipPath><clipPath id="6191b0237b"><path d="M 31 22 L 52.4375 22 L 52.4375 57.140625 L 31 57.140625 Z M 31 22 " clip-rule="nonzero"/></clipPath></defs><g clip-path="url(#2078d2c64d)"><g clip-path="url(#db38c3d498)"><path fill="url(#67f55f8058)" d="M 0.113281 0 L 0.113281 74.886719 L 75 74.886719 L 75 0 Z M 0.113281 0 " fill-rule="nonzero"/></g></g><g clip-path="url(#f37ccfdaa3)"><path fill="#c193ff" d="M 52.425781 22.386719 L 43.179688 17.382812 L 42.128906 18.695312 L 40.3125 17.710938 L 39.160156 19.117188 L 37.335938 18.128906 L 36.171875 19.539062 L 34.339844 18.546875 L 33.179688 19.957031 L 31.347656 18.964844 L 30.183594 20.375 L 28.351562 19.386719 L 27.1875 20.796875 L 25.355469 19.804688 L 23.8125 21.628906 L 33.054688 26.632812 L 34.257812 25.210938 L 36.09375 26.207031 L 37.257812 24.796875 L 39.089844 25.789062 L 40.253906 24.378906 L 42.085938 25.367188 L 43.25 23.957031 L 45.078125 24.949219 L 46.238281 23.542969 L 48.066406 24.53125 L 49.214844 23.132812 L 51.03125 24.117188 Z M 52.425781 22.386719 " fill-opacity="1" fill-rule="nonzero"/></g><g clip-path="url(#ee07f0acaa)"><path fill="#dddddd" d="M 31.691406 57.128906 L 22.449219 52.125 L 22.507812 20.449219 L 31.75 25.453125 Z M 31.691406 57.128906 " fill-opacity="1" fill-rule="nonzero"/></g><g clip-path="url(#6191b0237b)"><path fill="#ffffff" d="M 49.558594 22.714844 L 51.03125 24.117188 L 52.421875 22.386719 L 52.363281 54.238281 L 31.691406 57.128906 L 31.75 25.453125 L 33.054688 26.628906 L 34.597656 24.804688 L 36.089844 26.203125 L 37.59375 24.386719 L 39.085938 25.785156 L 40.589844 23.96875 L 42.082031 25.367188 L 43.585938 23.546875 L 45.078125 24.949219 L 46.578125 23.128906 L 48.066406 24.527344 Z M 49.558594 22.714844 " fill-opacity="1" fill-rule="nonzero"/></g></svg>