<svg xmlns="http://www.w3.org/2000/svg" xmlns:xlink="http://www.w3.org/1999/xlink" width="100" zoomAndPan="magnify" viewBox="0 0 75 74.999997" height="100" preserveAspectRatio="xMidYMid meet" version="1.0"><defs><clipPath id="cf03b05595"><path d="M 52.84375 0 L 22.15625 0 C 9.914062 0 0 9.914062 0 22.15625 L 0 52.84375 C 0 65.085938 9.914062 75 22.15625 75 L 52.84375 75 C 65.085938 75 75 65.085938 75 52.84375 L 75 22.15625 C 75 9.914062 65.085938 0 52.84375 0 Z M 52.84375 0 " clip-rule="nonzero"/></clipPath><radialGradient gradientTransform="matrix(1, 0, 0, 1, 0.0000015, -0.000001)" gradientUnits="userSpaceOnUse" r="53.033006" cx="37.499996" id="6a513d1b85" cy="37.499996" fx="37.499996" fy="37.499996"><stop stop-opacity="1" stop-color="rgb(86.399841%, 7.817078%, 29.823303%)" offset="0"/><stop stop-opacity="1" stop-color="rgb(86.676025%, 7.868958%, 29.890442%)" offset="0.015625"/><stop stop-opacity="1" stop-color="rgb(87.030029%, 7.93457%, 29.974365%)" offset="0.0429688"/><stop stop-opacity="1" stop-color="rgb(87.382507%, 8.000183%, 30.059814%)" offset="0.0703125"/><stop stop-opacity="1" stop-color="rgb(87.734985%, 8.065796%, 30.143738%)" offset="0.0976562"/><stop stop-opacity="1" stop-color="rgb(88.087463%, 8.131409%, 30.229187%)" offset="0.125"/><stop stop-opacity="1" stop-color="rgb(88.415527%, 8.192444%, 30.307007%)" offset="0.152344"/><stop stop-opacity="1" stop-color="rgb(88.717651%, 8.248901%, 30.380249%)" offset="0.175781"/><stop stop-opacity="1" stop-color="rgb(89.019775%, 8.305359%, 30.453491%)" offset="0.199219"/><stop stop-opacity="1" stop-color="rgb(89.321899%, 8.361816%, 30.525208%)" offset="0.222656"/><stop stop-opacity="1" stop-color="rgb(89.625549%, 8.416748%, 30.59845%)" offset="0.246094"/><stop stop-opacity="1" stop-color="rgb(89.901733%, 8.468628%, 30.664062%)" offset="0.269531"/><stop stop-opacity="1" stop-color="rgb(90.153503%, 8.51593%, 30.725098%)" offset="0.289062"/><stop stop-opacity="1" stop-color="rgb(90.405273%, 8.563232%, 30.786133%)" offset="0.308594"/><stop stop-opacity="1" stop-color="rgb(90.657043%, 8.609009%, 30.847168%)" offset="0.328125"/><stop stop-opacity="1" stop-color="rgb(90.908813%, 8.656311%, 30.906677%)" offset="0.347656"/><stop stop-opacity="1" stop-color="rgb(91.160583%, 8.703613%, 30.967712%)" offset="0.367188"/><stop stop-opacity="1" stop-color="rgb(91.387939%, 8.746338%, 31.022644%)" offset="0.386719"/><stop stop-opacity="1" stop-color="rgb(91.590881%, 8.782959%, 31.069946%)" offset="0.402344"/><stop stop-opacity="1" stop-color="rgb(91.792297%, 8.821106%, 31.118774%)" offset="0.417969"/><stop stop-opacity="1" stop-color="rgb(91.993713%, 8.857727%, 31.167603%)" offset="0.433594"/><stop stop-opacity="1" stop-color="rgb(92.195129%, 8.895874%, 31.216431%)" offset="0.449219"/><stop stop-opacity="1" stop-color="rgb(92.396545%, 8.932495%, 31.263733%)" offset="0.464844"/><stop stop-opacity="1" stop-color="rgb(92.597961%, 8.970642%, 31.312561%)" offset="0.480469"/><stop stop-opacity="1" stop-color="rgb(92.799377%, 9.008789%, 31.361389%)" offset="0.496094"/><stop stop-opacity="1" stop-color="rgb(93.075562%, 9.059143%, 31.427002%)" offset="0.511719"/><stop stop-opacity="1" stop-color="rgb(93.429565%, 9.124756%, 31.512451%)" offset="0.539062"/><stop stop-opacity="1" stop-color="rgb(93.757629%, 9.185791%, 31.591797%)" offset="0.566406"/><stop stop-opacity="1" stop-color="rgb(94.059753%, 9.242249%, 31.663513%)" offset="0.589844"/><stop stop-opacity="1" stop-color="rgb(94.361877%, 9.298706%, 31.736755%)" offset="0.613281"/><stop stop-opacity="1" stop-color="rgb(94.638062%, 9.350586%, 31.802368%)" offset="0.636719"/><stop stop-opacity="1" stop-color="rgb(94.889832%, 9.397888%, 31.863403%)" offset="0.65625"/><stop stop-opacity="1" stop-color="rgb(95.141602%, 9.443665%, 31.924438%)" offset="0.675781"/><stop stop-opacity="1" stop-color="rgb(95.368958%, 9.486389%, 31.97937%)" offset="0.695312"/><stop stop-opacity="1" stop-color="rgb(95.570374%, 9.524536%, 32.026672%)" offset="0.710938"/><stop stop-opacity="1" stop-color="rgb(95.773315%, 9.561157%, 32.0755%)" offset="0.726562"/><stop stop-opacity="1" stop-color="rgb(95.974731%, 9.599304%, 32.124329%)" offset="0.742188"/><stop stop-opacity="1" stop-color="rgb(96.250916%, 9.649658%, 32.189941%)" offset="0.757812"/><stop stop-opacity="1" stop-color="rgb(96.578979%, 9.710693%, 32.269287%)" offset="0.785156"/><stop stop-opacity="1" stop-color="rgb(96.881104%, 9.767151%, 32.342529%)" offset="0.808594"/><stop stop-opacity="1" stop-color="rgb(97.157288%, 9.819031%, 32.408142%)" offset="0.832031"/><stop stop-opacity="1" stop-color="rgb(97.384644%, 9.861755%, 32.463074%)" offset="0.851562"/><stop stop-opacity="1" stop-color="rgb(97.58606%, 9.898376%, 32.511902%)" offset="0.867188"/><stop stop-opacity="1" stop-color="rgb(97.86377%, 9.950256%, 32.577515%)" offset="0.882812"/><stop stop-opacity="1" stop-color="rgb(98.165894%, 10.006714%, 32.650757%)" offset="0.910156"/><stop stop-opacity="1" stop-color="rgb(98.39325%, 10.049438%, 32.705688%)" offset="0.929688"/><stop stop-opacity="1" stop-color="rgb(98.669434%, 10.099792%, 32.771301%)" offset="0.945312"/><stop stop-opacity="1" stop-color="rgb(99.021912%, 10.165405%, 32.85675%)" offset="0.972656"/><stop stop-opacity="1" stop-color="rgb(99.198914%, 10.198975%, 32.899475%)" offset="1"/></radialGradient><clipPath id="c54c106d8f"><path d="M 36.820312 10.527344 L 47 10.527344 L 47 47 L 36.820312 47 Z M 36.820312 10.527344 " clip-rule="nonzero"/></clipPath><clipPath id="5cdb8b6e98"><path d="M 41.84375 10.527344 C 43.179688 10.527344 44.457031 11.054688 45.398438 11.996094 C 46.339844 12.941406 46.871094 14.21875 46.871094 15.550781 L 46.871094 41.949219 C 46.871094 43.285156 46.339844 44.5625 45.398438 45.503906 C 44.457031 46.445312 43.179688 46.976562 41.84375 46.976562 C 40.511719 46.976562 39.234375 46.445312 38.292969 45.503906 C 37.347656 44.5625 36.820312 43.285156 36.820312 41.949219 L 36.820312 15.550781 C 36.820312 14.21875 37.347656 12.941406 38.292969 11.996094 C 39.234375 11.054688 40.511719 10.527344 41.84375 10.527344 " clip-rule="nonzero"/></clipPath><clipPath id="3ebf5146f0"><path d="M 14.867188 31.351562 L 47.867188 31.351562 L 47.867188 64.351562 L 14.867188 64.351562 Z M 14.867188 31.351562 " clip-rule="nonzero"/></clipPath><clipPath id="5efb746c7d"><path d="M 36 10 L 59 10 L 59 30 L 36 30 Z M 36 10 " clip-rule="nonzero"/></clipPath><clipPath id="89209118e0"><path d="M 34.742188 16.125 L 40.996094 8.074219 L 60.707031 23.390625 L 54.449219 31.441406 Z M 34.742188 16.125 " clip-rule="nonzero"/></clipPath><clipPath id="dfcb403486"><path d="M 37.824219 12.15625 C 38.640625 11.105469 39.84375 10.417969 41.167969 10.253906 C 42.488281 10.089844 43.824219 10.453125 44.875 11.273438 L 56.527344 20.328125 C 57.582031 21.144531 58.265625 22.347656 58.433594 23.671875 C 58.597656 24.992188 58.230469 26.328125 57.414062 27.378906 C 56.597656 28.433594 55.394531 29.117188 54.070312 29.28125 C 52.75 29.449219 51.414062 29.082031 50.363281 28.265625 L 38.707031 19.207031 C 37.65625 18.390625 36.972656 17.1875 36.804688 15.863281 C 36.640625 14.542969 37.007812 13.207031 37.824219 12.15625 " clip-rule="nonzero"/></clipPath></defs><g clip-path="url(#cf03b05595)"><rect x="-7.5" fill="url(#6a513d1b85)" width="90" y="-7.5" height="89.999996"/></g><g clip-path="url(#c54c106d8f)"><g clip-path="url(#5cdb8b6e98)"><path fill="#febbcf" d="M 36.820312 10.527344 L 47.015625 10.527344 L 47.015625 47.089844 L 36.820312 47.089844 Z M 36.820312 10.527344 " fill-opacity="1" fill-rule="nonzero"/></g></g><g clip-path="url(#3ebf5146f0)"><path fill="#ffffff" d="M 47.867188 47.851562 C 47.867188 48.390625 47.84375 48.929688 47.789062 49.46875 C 47.738281 50.003906 47.65625 50.539062 47.550781 51.070312 C 47.445312 51.597656 47.316406 52.121094 47.160156 52.640625 C 47 53.15625 46.820312 53.664062 46.613281 54.164062 C 46.40625 54.664062 46.175781 55.152344 45.921875 55.628906 C 45.664062 56.105469 45.386719 56.566406 45.089844 57.015625 C 44.789062 57.464844 44.464844 57.898438 44.125 58.316406 C 43.78125 58.734375 43.417969 59.136719 43.035156 59.515625 C 42.652344 59.898438 42.253906 60.261719 41.835938 60.605469 C 41.417969 60.949219 40.984375 61.269531 40.535156 61.570312 C 40.085938 61.871094 39.625 62.148438 39.148438 62.402344 C 38.671875 62.65625 38.183594 62.886719 37.683594 63.09375 C 37.183594 63.300781 36.675781 63.484375 36.160156 63.640625 C 35.640625 63.796875 35.117188 63.925781 34.585938 64.03125 C 34.058594 64.136719 33.523438 64.21875 32.984375 64.269531 C 32.449219 64.324219 31.910156 64.351562 31.367188 64.351562 C 30.828125 64.351562 30.289062 64.324219 29.75 64.269531 C 29.214844 64.21875 28.679688 64.136719 28.148438 64.03125 C 27.621094 63.925781 27.097656 63.796875 26.578125 63.640625 C 26.0625 63.484375 25.554688 63.300781 25.054688 63.09375 C 24.554688 62.886719 24.066406 62.65625 23.589844 62.402344 C 23.113281 62.148438 22.652344 61.871094 22.203125 61.570312 C 21.753906 61.269531 21.320312 60.949219 20.902344 60.605469 C 20.484375 60.261719 20.082031 59.898438 19.703125 59.515625 C 19.320312 59.136719 18.957031 58.734375 18.613281 58.316406 C 18.269531 57.898438 17.949219 57.464844 17.648438 57.015625 C 17.347656 56.566406 17.070312 56.105469 16.816406 55.628906 C 16.5625 55.152344 16.332031 54.664062 16.125 54.164062 C 15.917969 53.664062 15.734375 53.15625 15.578125 52.640625 C 15.421875 52.121094 15.292969 51.597656 15.1875 51.070312 C 15.082031 50.539062 15 50.003906 14.949219 49.46875 C 14.894531 48.929688 14.867188 48.390625 14.867188 47.851562 C 14.867188 47.308594 14.894531 46.769531 14.949219 46.234375 C 15 45.695312 15.082031 45.160156 15.1875 44.632812 C 15.292969 44.101562 15.421875 43.578125 15.578125 43.058594 C 15.734375 42.542969 15.917969 42.035156 16.125 41.535156 C 16.332031 41.035156 16.5625 40.546875 16.816406 40.070312 C 17.070312 39.59375 17.347656 39.132812 17.648438 38.683594 C 17.949219 38.234375 18.269531 37.800781 18.613281 37.382812 C 18.957031 36.964844 19.320312 36.566406 19.703125 36.183594 C 20.082031 35.800781 20.484375 35.4375 20.902344 35.09375 C 21.320312 34.753906 21.753906 34.429688 22.203125 34.128906 C 22.652344 33.832031 23.113281 33.554688 23.589844 33.296875 C 24.066406 33.042969 24.554688 32.8125 25.054688 32.605469 C 25.554688 32.398438 26.0625 32.21875 26.578125 32.058594 C 27.097656 31.902344 27.621094 31.773438 28.148438 31.667969 C 28.679688 31.5625 29.214844 31.480469 29.75 31.429688 C 30.289062 31.375 30.828125 31.351562 31.367188 31.351562 C 31.910156 31.351562 32.449219 31.375 32.984375 31.429688 C 33.523438 31.480469 34.058594 31.5625 34.585938 31.667969 C 35.117188 31.773438 35.640625 31.902344 36.160156 32.058594 C 36.675781 32.21875 37.183594 32.398438 37.683594 32.605469 C 38.183594 32.8125 38.671875 33.042969 39.148438 33.296875 C 39.625 33.554688 40.085938 33.832031 40.535156 34.128906 C 40.984375 34.429688 41.417969 34.753906 41.835938 35.09375 C 42.253906 35.4375 42.652344 35.800781 43.035156 36.183594 C 43.417969 36.566406 43.78125 36.964844 44.125 37.382812 C 44.464844 37.800781 44.789062 38.234375 45.089844 38.683594 C 45.386719 39.132812 45.664062 39.59375 45.921875 40.070312 C 46.175781 40.546875 46.40625 41.035156 46.613281 41.535156 C 46.820312 42.035156 47 42.542969 47.160156 43.058594 C 47.316406 43.578125 47.445312 44.101562 47.550781 44.632812 C 47.65625 45.160156 47.738281 45.695312 47.789062 46.234375 C 47.84375 46.769531 47.867188 47.308594 47.867188 47.851562 Z M 47.867188 47.851562 " fill-opacity="1" fill-rule="nonzero"/></g><g clip-path="url(#5efb746c7d)"><g clip-path="url(#89209118e0)"><g clip-path="url(#dfcb403486)"><path fill="#ffffff" d="M 34.742188 16.125 L 40.996094 8.074219 L 60.707031 23.390625 L 54.449219 31.441406 Z M 34.742188 16.125 " fill-opacity="1" fill-rule="nonzero"/></g></g></g></svg>