<svg xmlns="http://www.w3.org/2000/svg" xmlns:xlink="http://www.w3.org/1999/xlink" width="50" zoomAndPan="magnify" viewBox="0 0 37.5 37.499999" height="50" preserveAspectRatio="xMidYMid meet" version="1.0"><defs><clipPath id="18d7a6447c"><path d="M 0 0 L 37.007812 0 L 37.007812 37.007812 L 0 37.007812 Z M 0 0 " clip-rule="nonzero"/></clipPath></defs><g clip-path="url(#18d7a6447c)"><path fill="#7fbc38" d="M 18.734375 -0.0117188 C 8.382812 -0.0117188 -0.0117188 8.382812 -0.0117188 18.734375 C -0.0117188 29.085938 8.382812 37.480469 18.734375 37.480469 C 29.085938 37.480469 37.480469 29.085938 37.480469 18.734375 C 37.480469 8.382812 29.085938 -0.0117188 18.734375 -0.0117188 Z M 26.921875 25.632812 C 26.621094 26.160156 26.074219 26.457031 25.507812 26.457031 C 25.238281 26.457031 24.964844 26.386719 24.710938 26.246094 L 17.9375 22.414062 C 17.917969 22.402344 17.902344 22.390625 17.886719 22.378906 C 17.835938 22.347656 17.792969 22.316406 17.746094 22.28125 C 17.707031 22.25 17.667969 22.21875 17.628906 22.183594 C 17.589844 22.148438 17.558594 22.109375 17.523438 22.070312 C 17.488281 22.03125 17.453125 21.988281 17.421875 21.945312 C 17.390625 21.90625 17.367188 21.859375 17.339844 21.816406 C 17.3125 21.769531 17.289062 21.726562 17.265625 21.679688 C 17.242188 21.632812 17.226562 21.582031 17.207031 21.53125 C 17.191406 21.480469 17.175781 21.433594 17.164062 21.382812 C 17.152344 21.335938 17.144531 21.285156 17.136719 21.230469 C 17.128906 21.175781 17.121094 21.121094 17.121094 21.0625 C 17.117188 21.042969 17.113281 21.023438 17.113281 21.003906 L 17.113281 7.769531 C 17.113281 6.875 17.839844 6.148438 18.734375 6.148438 C 19.628906 6.148438 20.355469 6.875 20.355469 7.769531 L 20.355469 20.058594 L 26.308594 23.421875 C 27.085938 23.863281 27.359375 24.851562 26.921875 25.632812 Z M 26.921875 25.632812 " fill-opacity="1" fill-rule="nonzero"/></g></svg>