<svg xmlns="http://www.w3.org/2000/svg" xmlns:xlink="http://www.w3.org/1999/xlink" width="50" zoomAndPan="magnify" viewBox="0 0 37.5 37.499999" height="50" preserveAspectRatio="xMidYMid meet" version="1.0"><defs><clipPath id="232e69c56c"><path d="M 29 5 L 36 5 L 36 32.824219 L 29 32.824219 Z M 29 5 " clip-rule="nonzero"/></clipPath><clipPath id="8c31c0cdf0"><path d="M 0.285156 4.324219 L 20 4.324219 L 20 32.824219 L 0.285156 32.824219 Z M 0.285156 4.324219 " clip-rule="nonzero"/></clipPath></defs><g clip-path="url(#232e69c56c)"><path fill="#ffffff" d="M 30.113281 5.21875 C 30 5.320312 29.992188 5.492188 30.097656 5.605469 C 36.964844 13.015625 36.871094 24.648438 29.882812 32.089844 C 29.777344 32.199219 29.785156 32.371094 29.894531 32.476562 C 29.949219 32.523438 30.015625 32.550781 30.082031 32.550781 C 30.15625 32.550781 30.230469 32.519531 30.285156 32.460938 C 33.710938 28.8125 35.636719 24.007812 35.707031 18.925781 C 35.777344 13.792969 33.929688 8.929688 30.503906 5.234375 C 30.398438 5.121094 30.226562 5.117188 30.113281 5.21875 Z M 30.113281 5.21875 " fill-opacity="1" fill-rule="nonzero"/></g><path fill="#ffffff" d="M 26.4375 8.320312 C 26.335938 8.207031 26.164062 8.195312 26.046875 8.296875 C 25.933594 8.394531 25.921875 8.570312 26.023438 8.683594 C 31.125 14.410156 31.054688 23.339844 25.871094 29.011719 C 25.765625 29.121094 25.777344 29.296875 25.886719 29.398438 C 25.941406 29.445312 26.007812 29.46875 26.074219 29.46875 C 26.148438 29.46875 26.222656 29.4375 26.277344 29.378906 C 31.652344 23.503906 31.722656 14.253906 26.4375 8.320312 Z M 26.4375 8.320312 " fill-opacity="1" fill-rule="nonzero"/><path fill="#ffffff" d="M 22.566406 11.804688 C 22.445312 11.894531 22.417969 12.066406 22.511719 12.1875 C 25.121094 15.675781 25.121094 21.140625 22.511719 24.628906 C 22.417969 24.75 22.445312 24.921875 22.566406 25.011719 C 22.617188 25.046875 22.675781 25.066406 22.730469 25.066406 C 22.816406 25.066406 22.898438 25.027344 22.953125 24.953125 C 25.699219 21.285156 25.699219 15.53125 22.953125 11.859375 C 22.863281 11.738281 22.691406 11.714844 22.566406 11.804688 Z M 22.566406 11.804688 " fill-opacity="1" fill-rule="nonzero"/><g clip-path="url(#8c31c0cdf0)"><path fill="#ffffff" d="M 18.664062 4.324219 C 18.328125 4.324219 17.933594 4.484375 17.507812 4.816406 L 10.617188 11.449219 L 4.132812 11.449219 C 2.054688 11.449219 0.367188 12.539062 0.367188 15.578125 L 0.367188 21.566406 C 0.367188 24.609375 2.171875 25.699219 4.394531 25.699219 C 6.617188 25.699219 10.59375 25.699219 10.59375 25.699219 L 17.554688 32.300781 C 17.984375 32.652344 18.378906 32.824219 18.714844 32.824219 C 19.304688 32.824219 19.695312 32.292969 19.695312 31.324219 L 19.695312 5.851562 C 19.695312 4.863281 19.285156 4.324219 18.664062 4.324219 Z M 10.03125 24.601562 L 4.394531 24.601562 C 2.402344 24.601562 1.472656 23.636719 1.472656 21.566406 L 1.472656 15.578125 C 1.472656 13.507812 2.316406 12.542969 4.132812 12.542969 L 10.03125 12.542969 Z M 18.574219 31.59375 C 18.5 31.703125 18.355469 31.539062 18.289062 31.480469 L 11.136719 24.699219 L 11.136719 12.476562 C 11.136719 12.476562 18.234375 5.644531 18.234375 5.644531 C 18.304688 5.589844 18.464844 5.425781 18.554688 5.492188 C 18.621094 5.539062 18.589844 5.78125 18.589844 5.851562 C 18.589844 5.851562 18.589844 31.28125 18.589844 31.324219 C 18.589844 31.394531 18.613281 31.53125 18.574219 31.59375 Z M 18.574219 31.59375 " fill-opacity="1" fill-rule="nonzero"/></g><path fill="#ffffff" d="M 4.382812 14.738281 L 7.144531 14.738281 C 7.296875 14.738281 7.417969 14.613281 7.417969 14.464844 C 7.417969 14.3125 7.296875 14.1875 7.144531 14.1875 L 4.382812 14.1875 C 4.230469 14.1875 4.105469 14.3125 4.105469 14.464844 C 4.105469 14.613281 4.230469 14.738281 4.382812 14.738281 Z M 4.382812 14.738281 " fill-opacity="1" fill-rule="nonzero"/><path fill="#ffffff" d="M 13.539062 23.585938 C 13.433594 23.480469 13.257812 23.480469 13.148438 23.585938 C 13.042969 23.695312 13.042969 23.867188 13.148438 23.972656 L 16.460938 27.261719 C 16.515625 27.316406 16.585938 27.34375 16.65625 27.34375 C 16.726562 27.34375 16.800781 27.316406 16.851562 27.261719 C 16.960938 27.15625 16.960938 26.980469 16.851562 26.875 Z M 13.539062 23.585938 " fill-opacity="1" fill-rule="nonzero"/></svg>