<svg xmlns="http://www.w3.org/2000/svg" xmlns:xlink="http://www.w3.org/1999/xlink" width="100" zoomAndPan="magnify" viewBox="0 0 75 74.999997" height="100" preserveAspectRatio="xMidYMid meet" version="1.0"><defs><clipPath id="661702fb19"><path d="M 0.113281 0 L 75 0 L 75 74.886719 L 0.113281 74.886719 Z M 0.113281 0 " clip-rule="nonzero"/></clipPath><clipPath id="9487cf90f4"><path d="M 75 37.445312 C 75 58.121094 58.234375 74.886719 37.554688 74.886719 C 16.875 74.886719 0.113281 58.121094 0.113281 37.445312 C 0.113281 16.765625 16.875 0 37.554688 0 C 58.234375 0 75 16.765625 75 37.445312 Z M 75 37.445312 " clip-rule="nonzero"/></clipPath><radialGradient gradientTransform="matrix(1, 0, 0, 1, 0.112307, -0.000001)" gradientUnits="userSpaceOnUse" r="52.952764" cx="37.443845" id="cc348d1c83" cy="37.442675" fx="37.443845" fy="37.442675"><stop stop-opacity="1" stop-color="rgb(99.938965%, 61.070251%, 24.649048%)" offset="0"/><stop stop-opacity="1" stop-color="rgb(99.832153%, 60.844421%, 24.563599%)" offset="0.015625"/><stop stop-opacity="1" stop-color="rgb(99.740601%, 60.650635%, 24.490356%)" offset="0.0273438"/><stop stop-opacity="1" stop-color="rgb(99.649048%, 60.456848%, 24.415588%)" offset="0.0390625"/><stop stop-opacity="1" stop-color="rgb(99.557495%, 60.264587%, 24.342346%)" offset="0.0507812"/><stop stop-opacity="1" stop-color="rgb(99.465942%, 60.070801%, 24.267578%)" offset="0.0625"/><stop stop-opacity="1" stop-color="rgb(99.37439%, 59.877014%, 24.194336%)" offset="0.0742188"/><stop stop-opacity="1" stop-color="rgb(99.282837%, 59.684753%, 24.121094%)" offset="0.0859375"/><stop stop-opacity="1" stop-color="rgb(99.191284%, 59.490967%, 24.046326%)" offset="0.0976562"/><stop stop-opacity="1" stop-color="rgb(99.099731%, 59.29718%, 23.973083%)" offset="0.109375"/><stop stop-opacity="1" stop-color="rgb(99.008179%, 59.103394%, 23.899841%)" offset="0.121094"/><stop stop-opacity="1" stop-color="rgb(98.872375%, 58.813477%, 23.788452%)" offset="0.132812"/><stop stop-opacity="1" stop-color="rgb(98.68927%, 58.427429%, 23.640442%)" offset="0.15625"/><stop stop-opacity="1" stop-color="rgb(98.506165%, 58.039856%, 23.492432%)" offset="0.179688"/><stop stop-opacity="1" stop-color="rgb(98.323059%, 57.653809%, 23.344421%)" offset="0.203125"/><stop stop-opacity="1" stop-color="rgb(98.139954%, 57.267761%, 23.197937%)" offset="0.226562"/><stop stop-opacity="1" stop-color="rgb(97.958374%, 56.880188%, 23.049927%)" offset="0.25"/><stop stop-opacity="1" stop-color="rgb(97.790527%, 56.526184%, 22.914124%)" offset="0.273438"/><stop stop-opacity="1" stop-color="rgb(97.637939%, 56.204224%, 22.792053%)" offset="0.292969"/><stop stop-opacity="1" stop-color="rgb(97.485352%, 55.880737%, 22.668457%)" offset="0.3125"/><stop stop-opacity="1" stop-color="rgb(97.332764%, 55.558777%, 22.544861%)" offset="0.332031"/><stop stop-opacity="1" stop-color="rgb(97.180176%, 55.236816%, 22.422791%)" offset="0.351562"/><stop stop-opacity="1" stop-color="rgb(97.029114%, 54.914856%, 22.299194%)" offset="0.371094"/><stop stop-opacity="1" stop-color="rgb(96.891785%, 54.624939%, 22.189331%)" offset="0.390625"/><stop stop-opacity="1" stop-color="rgb(96.769714%, 54.367065%, 22.090149%)" offset="0.40625"/><stop stop-opacity="1" stop-color="rgb(96.647644%, 54.109192%, 21.992493%)" offset="0.421875"/><stop stop-opacity="1" stop-color="rgb(96.525574%, 53.851318%, 21.893311%)" offset="0.4375"/><stop stop-opacity="1" stop-color="rgb(96.403503%, 53.593445%, 21.795654%)" offset="0.453125"/><stop stop-opacity="1" stop-color="rgb(96.281433%, 53.335571%, 21.696472%)" offset="0.46875"/><stop stop-opacity="1" stop-color="rgb(96.159363%, 53.077698%, 21.598816%)" offset="0.484375"/><stop stop-opacity="1" stop-color="rgb(96.038818%, 52.819824%, 21.499634%)" offset="0.5"/><stop stop-opacity="1" stop-color="rgb(95.932007%, 52.593994%, 21.414185%)" offset="0.515625"/><stop stop-opacity="1" stop-color="rgb(95.840454%, 52.400208%, 21.339417%)" offset="0.527344"/><stop stop-opacity="1" stop-color="rgb(95.748901%, 52.207947%, 21.266174%)" offset="0.539062"/><stop stop-opacity="1" stop-color="rgb(95.657349%, 52.01416%, 21.191406%)" offset="0.550781"/><stop stop-opacity="1" stop-color="rgb(95.565796%, 51.820374%, 21.118164%)" offset="0.5625"/><stop stop-opacity="1" stop-color="rgb(95.428467%, 51.530457%, 21.006775%)" offset="0.574219"/><stop stop-opacity="1" stop-color="rgb(95.245361%, 51.144409%, 20.860291%)" offset="0.597656"/><stop stop-opacity="1" stop-color="rgb(95.063782%, 50.756836%, 20.71228%)" offset="0.621094"/><stop stop-opacity="1" stop-color="rgb(94.895935%, 50.402832%, 20.576477%)" offset="0.644531"/><stop stop-opacity="1" stop-color="rgb(94.743347%, 50.080872%, 20.452881%)" offset="0.664062"/><stop stop-opacity="1" stop-color="rgb(94.590759%, 49.758911%, 20.330811%)" offset="0.683594"/><stop stop-opacity="1" stop-color="rgb(94.45343%, 49.467468%, 20.219421%)" offset="0.703125"/><stop stop-opacity="1" stop-color="rgb(94.33136%, 49.209595%, 20.121765%)" offset="0.71875"/><stop stop-opacity="1" stop-color="rgb(94.210815%, 48.951721%, 20.022583%)" offset="0.734375"/><stop stop-opacity="1" stop-color="rgb(94.088745%, 48.693848%, 19.924927%)" offset="0.75"/><stop stop-opacity="1" stop-color="rgb(93.981934%, 48.469543%, 19.837952%)" offset="0.765625"/><stop stop-opacity="1" stop-color="rgb(93.890381%, 48.275757%, 19.764709%)" offset="0.777344"/><stop stop-opacity="1" stop-color="rgb(93.753052%, 47.98584%, 19.65332%)" offset="0.789062"/><stop stop-opacity="1" stop-color="rgb(93.569946%, 47.599792%, 19.506836%)" offset="0.8125"/><stop stop-opacity="1" stop-color="rgb(93.4021%, 47.244263%, 19.371033%)" offset="0.835938"/><stop stop-opacity="1" stop-color="rgb(93.266296%, 46.954346%, 19.259644%)" offset="0.855469"/><stop stop-opacity="1" stop-color="rgb(93.144226%, 46.696472%, 19.161987%)" offset="0.871094"/><stop stop-opacity="1" stop-color="rgb(93.037415%, 46.470642%, 19.075012%)" offset="0.886719"/><stop stop-opacity="1" stop-color="rgb(92.900085%, 46.180725%, 18.965149%)" offset="0.898438"/><stop stop-opacity="1" stop-color="rgb(92.732239%, 45.826721%, 18.829346%)" offset="0.921875"/><stop stop-opacity="1" stop-color="rgb(92.610168%, 45.568848%, 18.731689%)" offset="0.941406"/><stop stop-opacity="1" stop-color="rgb(92.472839%, 45.278931%, 18.6203%)" offset="0.953125"/><stop stop-opacity="1" stop-color="rgb(92.29126%, 44.892883%, 18.47229%)" offset="0.976562"/><stop stop-opacity="1" stop-color="rgb(92.199707%, 44.699097%, 18.399048%)" offset="1"/></radialGradient><clipPath id="2462b9e1a8"><path d="M 41 39 L 61.722656 39 L 61.722656 56.167969 L 41 56.167969 Z M 41 39 " clip-rule="nonzero"/></clipPath><clipPath id="22e79289ab"><path d="M 12.972656 18.667969 L 26 18.667969 L 26 24 L 12.972656 24 Z M 12.972656 18.667969 " clip-rule="nonzero"/></clipPath><clipPath id="ae4464dc54"><path d="M 15 18.667969 L 48 18.667969 L 48 56 L 15 56 Z M 15 18.667969 " clip-rule="nonzero"/></clipPath></defs><g clip-path="url(#661702fb19)"><g clip-path="url(#9487cf90f4)"><path fill="url(#cc348d1c83)" d="M 0.113281 0 L 0.113281 74.886719 L 75 74.886719 L 75 0 Z M 0.113281 0 " fill-rule="nonzero"/></g></g><path fill="#ffdb9f" d="M 39.394531 49.179688 L 45.152344 32.011719 L 54.207031 35.078125 L 48.449219 52.246094 Z M 39.394531 49.179688 " fill-opacity="1" fill-rule="nonzero"/><path fill="#e99302" d="M 46.589844 33.765625 C 46.46875 34.121094 46.074219 34.320312 45.71875 34.203125 L 41.15625 47.804688 C 41.507812 47.929688 41.703125 48.320312 41.589844 48.675781 L 46.996094 50.507812 C 46.996094 50.503906 47 50.496094 47 50.488281 C 47.121094 50.132812 47.519531 49.933594 47.878906 50.054688 C 47.878906 50.054688 47.882812 50.054688 47.882812 50.054688 L 52.4375 36.476562 C 52.4375 36.476562 52.433594 36.476562 52.433594 36.476562 C 52.074219 36.355469 51.878906 35.953125 51.996094 35.59375 C 52 35.589844 52.003906 35.585938 52.003906 35.578125 L 46.597656 33.746094 C 46.59375 33.753906 46.59375 33.757812 46.589844 33.765625 Z M 46.589844 33.765625 " fill-opacity="1" fill-rule="nonzero"/><path fill="#ffdb9f" d="M 49.480469 42.128906 C 49.480469 42.484375 49.414062 42.828125 49.277344 43.160156 C 49.140625 43.488281 48.945312 43.78125 48.695312 44.03125 C 48.445312 44.285156 48.15625 44.480469 47.828125 44.617188 C 47.5 44.753906 47.15625 44.820312 46.800781 44.820312 C 46.445312 44.820312 46.105469 44.753906 45.777344 44.617188 C 45.449219 44.480469 45.160156 44.285156 44.910156 44.03125 C 44.65625 43.78125 44.464844 43.488281 44.328125 43.160156 C 44.191406 42.828125 44.125 42.484375 44.125 42.128906 C 44.125 41.773438 44.191406 41.429688 44.328125 41.101562 C 44.464844 40.769531 44.65625 40.480469 44.910156 40.226562 C 45.160156 39.972656 45.449219 39.78125 45.777344 39.644531 C 46.105469 39.507812 46.445312 39.4375 46.800781 39.4375 C 47.15625 39.4375 47.5 39.507812 47.828125 39.644531 C 48.15625 39.78125 48.445312 39.972656 48.695312 40.226562 C 48.945312 40.480469 49.140625 40.769531 49.277344 41.101562 C 49.414062 41.429688 49.480469 41.773438 49.480469 42.128906 Z M 49.480469 42.128906 " fill-opacity="1" fill-rule="nonzero"/><path fill="#ffdb9f" d="M 48.9375 35.757812 C 49.550781 35.964844 49.878906 36.632812 49.671875 37.246094 C 49.46875 37.859375 48.804688 38.191406 48.191406 37.984375 C 47.582031 37.777344 47.253906 37.109375 47.457031 36.496094 C 47.664062 35.882812 48.328125 35.550781 48.9375 35.757812 Z M 48.9375 35.757812 " fill-opacity="1" fill-rule="nonzero"/><path fill="#ffdb9f" d="M 46.246094 47.265625 C 46.246094 47.421875 46.21875 47.570312 46.160156 47.714844 C 46.101562 47.859375 46.015625 47.984375 45.90625 48.097656 C 45.796875 48.207031 45.667969 48.289062 45.527344 48.351562 C 45.382812 48.410156 45.234375 48.441406 45.078125 48.441406 C 44.925781 48.441406 44.773438 48.410156 44.632812 48.351562 C 44.488281 48.289062 44.363281 48.207031 44.253906 48.097656 C 44.144531 47.984375 44.058594 47.859375 44 47.714844 C 43.941406 47.570312 43.910156 47.421875 43.910156 47.265625 C 43.910156 47.109375 43.941406 46.960938 44 46.816406 C 44.058594 46.671875 44.144531 46.546875 44.253906 46.433594 C 44.363281 46.324219 44.488281 46.238281 44.632812 46.179688 C 44.773438 46.121094 44.925781 46.089844 45.078125 46.089844 C 45.234375 46.089844 45.382812 46.121094 45.527344 46.179688 C 45.667969 46.238281 45.796875 46.324219 45.90625 46.433594 C 46.015625 46.546875 46.101562 46.671875 46.160156 46.816406 C 46.21875 46.960938 46.246094 47.109375 46.246094 47.265625 Z M 46.246094 47.265625 " fill-opacity="1" fill-rule="nonzero"/><g clip-path="url(#2462b9e1a8)"><path fill="#ffdb9f" d="M 41.320312 47.675781 L 57.285156 39.257812 L 61.726562 47.761719 L 45.757812 56.179688 Z M 41.320312 47.675781 " fill-opacity="1" fill-rule="nonzero"/></g><path fill="#e99302" d="M 57.121094 41.523438 C 56.789062 41.699219 56.367188 41.566406 56.191406 41.234375 L 43.539062 47.90625 C 43.710938 48.238281 43.578125 48.65625 43.253906 48.835938 L 45.90625 53.914062 C 45.910156 53.910156 45.914062 53.90625 45.921875 53.902344 C 46.253906 53.726562 46.679688 53.859375 46.855469 54.195312 C 46.855469 54.195312 46.855469 54.199219 46.855469 54.199219 L 59.484375 47.542969 C 59.484375 47.542969 59.484375 47.539062 59.480469 47.539062 C 59.304688 47.203125 59.4375 46.777344 59.773438 46.601562 C 59.777344 46.597656 59.785156 46.59375 59.789062 46.59375 L 57.136719 41.511719 C 57.132812 41.515625 57.128906 41.519531 57.121094 41.523438 Z M 57.121094 41.523438 " fill-opacity="1" fill-rule="nonzero"/><path fill="#ffdb9f" d="M 54.203125 47.71875 C 54.203125 48.074219 54.132812 48.417969 53.996094 48.746094 C 53.863281 49.078125 53.667969 49.367188 53.417969 49.621094 C 53.167969 49.871094 52.875 50.066406 52.546875 50.203125 C 52.21875 50.339844 51.878906 50.410156 51.523438 50.410156 C 51.167969 50.410156 50.828125 50.339844 50.5 50.203125 C 50.171875 50.066406 49.882812 49.871094 49.628906 49.621094 C 49.378906 49.367188 49.1875 49.078125 49.050781 48.746094 C 48.914062 48.417969 48.847656 48.074219 48.847656 47.71875 C 48.847656 47.363281 48.914062 47.019531 49.050781 46.6875 C 49.1875 46.359375 49.378906 46.066406 49.628906 45.816406 C 49.882812 45.5625 50.171875 45.367188 50.5 45.234375 C 50.828125 45.097656 51.167969 45.027344 51.523438 45.027344 C 51.878906 45.027344 52.21875 45.097656 52.546875 45.234375 C 52.875 45.367188 53.167969 45.5625 53.417969 45.816406 C 53.667969 46.066406 53.863281 46.359375 53.996094 46.6875 C 54.132812 47.019531 54.203125 47.363281 54.203125 47.71875 Z M 54.203125 47.71875 " fill-opacity="1" fill-rule="nonzero"/><path fill="#ffdb9f" d="M 57.449219 44.59375 C 57.75 45.167969 57.527344 45.878906 56.957031 46.179688 C 56.386719 46.480469 55.679688 46.261719 55.378906 45.6875 C 55.078125 45.113281 55.300781 44.402344 55.871094 44.101562 C 56.441406 43.800781 57.148438 44.019531 57.449219 44.59375 Z M 57.449219 44.59375 " fill-opacity="1" fill-rule="nonzero"/><path fill="#ffdb9f" d="M 47.917969 50.238281 C 47.917969 50.390625 47.886719 50.542969 47.828125 50.6875 C 47.769531 50.828125 47.683594 50.957031 47.574219 51.066406 C 47.464844 51.175781 47.335938 51.261719 47.195312 51.320312 C 47.050781 51.382812 46.902344 51.410156 46.746094 51.410156 C 46.59375 51.410156 46.445312 51.382812 46.300781 51.320312 C 46.15625 51.261719 46.03125 51.175781 45.921875 51.066406 C 45.8125 50.957031 45.726562 50.828125 45.667969 50.6875 C 45.609375 50.542969 45.578125 50.390625 45.578125 50.238281 C 45.578125 50.082031 45.609375 49.929688 45.667969 49.789062 C 45.726562 49.644531 45.8125 49.515625 45.921875 49.40625 C 46.03125 49.296875 46.15625 49.210938 46.300781 49.152344 C 46.445312 49.09375 46.59375 49.0625 46.746094 49.0625 C 46.902344 49.0625 47.050781 49.09375 47.195312 49.152344 C 47.335938 49.210938 47.464844 49.296875 47.574219 49.40625 C 47.683594 49.515625 47.769531 49.644531 47.828125 49.789062 C 47.886719 49.929688 47.917969 50.082031 47.917969 50.238281 Z M 47.917969 50.238281 " fill-opacity="1" fill-rule="nonzero"/><g clip-path="url(#22e79289ab)"><path fill="#e99302" d="M 25.828125 18.679688 L 15.945312 18.679688 C 14.328125 18.679688 13.015625 20.671875 12.96875 23.160156 L 25.828125 23.160156 Z M 25.828125 18.679688 " fill-opacity="1" fill-rule="nonzero"/></g><g clip-path="url(#ae4464dc54)"><path fill="#ffffff" d="M 43.886719 47.277344 L 43.882812 46.285156 L 43.882812 27.394531 C 43.820312 22.726562 41.679688 19.085938 38.539062 18.695312 L 23.941406 18.679688 L 15.800781 18.679688 L 15.800781 18.703125 C 17.917969 19 19.597656 22.757812 19.660156 27.394531 L 19.664062 28.382812 L 19.664062 47.277344 C 19.726562 51.949219 21.867188 55.585938 25.007812 55.980469 L 39.605469 55.992188 L 47.746094 55.992188 L 47.746094 55.972656 C 45.628906 55.675781 43.949219 51.917969 43.886719 47.277344 Z M 43.886719 47.277344 " fill-opacity="1" fill-rule="nonzero"/></g><path fill="#e99302" d="M 26.019531 24.285156 L 40.152344 24.285156 L 40.152344 25.523438 L 26.019531 25.523438 Z M 26.019531 24.285156 " fill-opacity="1" fill-rule="nonzero"/><path fill="#e99302" d="M 24.003906 29.179688 L 31.617188 29.179688 L 31.617188 30.414062 L 24.003906 30.414062 Z M 24.003906 29.179688 " fill-opacity="1" fill-rule="nonzero"/><path fill="#e99302" d="M 33.085938 29.179688 L 40.695312 29.179688 L 40.695312 30.414062 L 33.085938 30.414062 Z M 33.085938 29.179688 " fill-opacity="1" fill-rule="nonzero"/><path fill="#e99302" d="M 24.003906 31.316406 L 31.617188 31.316406 L 31.617188 32.550781 L 24.003906 32.550781 Z M 24.003906 31.316406 " fill-opacity="1" fill-rule="nonzero"/><path fill="#e99302" d="M 33.085938 31.316406 L 40.695312 31.316406 L 40.695312 32.550781 L 33.085938 32.550781 Z M 33.085938 31.316406 " fill-opacity="1" fill-rule="nonzero"/><path fill="#e99302" d="M 24.003906 33.453125 L 31.617188 33.453125 L 31.617188 34.6875 L 24.003906 34.6875 Z M 24.003906 33.453125 " fill-opacity="1" fill-rule="nonzero"/><path fill="#e99302" d="M 33.085938 33.453125 L 40.695312 33.453125 L 40.695312 34.6875 L 33.085938 34.6875 Z M 33.085938 33.453125 " fill-opacity="1" fill-rule="nonzero"/><path fill="#e99302" d="M 24.003906 35.589844 L 31.617188 35.589844 L 31.617188 36.824219 L 24.003906 36.824219 Z M 24.003906 35.589844 " fill-opacity="1" fill-rule="nonzero"/><path fill="#e99302" d="M 24.003906 37.667969 L 37.378906 37.667969 L 37.378906 38.90625 L 24.003906 38.90625 Z M 24.003906 37.667969 " fill-opacity="1" fill-rule="nonzero"/><path fill="#e99302" d="M 33.085938 35.589844 L 40.695312 35.589844 L 40.695312 36.824219 L 33.085938 36.824219 Z M 33.085938 35.589844 " fill-opacity="1" fill-rule="nonzero"/><path fill="#e99302" d="M 33.085938 41.71875 L 40.695312 41.71875 L 40.695312 42.953125 L 33.085938 42.953125 Z M 33.085938 41.71875 " fill-opacity="1" fill-rule="nonzero"/></svg>